<?xml version="1.0" encoding="utf-8"?>
<!-- Generator: Adobe Illustrator 21.0.2, SVG Export Plug-In . SVG Version: 6.00 Build 0)  -->
<svg version="1.1" id="Layer_1" xmlns="http://www.w3.org/2000/svg" xmlns:xlink="http://www.w3.org/1999/xlink" x="0px" y="0px"
	 viewBox="0 0 294 564.1" style="enable-background:new 0 0 294 564.1;" xml:space="preserve">
<style type="text/css">
	.st0{fill:#41ADE2;}
</style>
<g>
	<path class="st0" d="M7.7,541.6v-0.7c0-4.1,1-8,2.9-11.5c0.4-0.8,1.2-1.8,2.5-3.1c1.5-1.3,3.1-1.9,4.6-1.9H18
		c2.5,0,4.7,1.5,6.8,4.5c2.2,3.6,3.3,7.6,3.3,12.1v0.6c0,4.6-1.1,8.7-3.4,12.3c-2,2.8-4.3,4.2-6.7,4.2h-0.2c-2.7,0-5-1.6-7.1-4.9
		C8.7,549.5,7.7,545.7,7.7,541.6z M28.8,557.9v-33.7c0,0,0-0.1,0.1-0.1H33c0,0,0.1,0,0.1,0.1v13.6h12.4c0,0,0.1,0,0.1,0.1v7.8
		c0,0,0,0.1-0.1,0.1H33.8v12.2c0,0,0,0.1-0.1,0.1L28.8,557.9C28.8,557.9,28.8,557.9,28.8,557.9z M17.9,548.9c1.6,0,2.9-1.2,3.9-3.5
		c0.6-1.3,0.8-2.7,0.8-4.2c0-2.7-0.8-5-2.3-6.7c-0.7-0.7-1.6-1.1-2.4-1.1c-1.6,0-2.8,1.2-3.8,3.5c-0.5,1.3-0.8,2.8-0.8,4.3
		c0,2.7,0.7,4.9,2.2,6.6C16.3,548.5,17.1,548.9,17.9,548.9z"/>
	<path class="st0" d="M7.7,514.3v-23.8c0-0.1,0-0.1,0.1-0.1h20.6c0.1,0,0.1,0,0.1,0.1v13.8h12.1v-13.8c0-0.1,0-0.1,0.1-0.1h4.9
		c0,0,0.1,0,0.1,0.1v23.8c0,0,0,0.1-0.1,0.1H23.8v-0.1v-19h-9v19c0,0,0,0.1-0.1,0.1L7.7,514.3C7.7,514.4,7.7,514.4,7.7,514.3z
		 M7.7,487.4v-6.8c0,0,0-0.1,0.1-0.1h37.7c0,0,0.1,0,0.1,0.1v6.8c0,0,0,0.1-0.1,0.1L7.7,487.4C7.7,487.5,7.7,487.5,7.7,487.4z"/>
	<path class="st0" d="M7.7,455.8v-33.7c0,0,0-0.1,0.1-0.1h5.7c0.1,0,0.1,0,0.1,0.1v23.4h5.9v-23.4c0,0,0.1-0.1,0.1-0.1h5.3
		c0,0,0.1,0,0.1,0.1v12.1h3.9v-12.1c0,0,0-0.1,0.1-0.1h4.4c0,0,0.1,0,0.1,0.1v11h0.1c0.3-2,0.6-3.6,1-4.8c0.5-1.4,1-2.6,1.5-3.6
		c1.1-1.7,2.2-2.5,3.3-2.5h0.1c1.9,0,3.4,2,4.8,5.9c1,3.3,1.5,6.8,1.5,10.6v0.6c0,5.1-0.8,9.4-2.4,13c-1.2,2.4-2.5,3.6-3.8,3.6h-0.1
		c-1.8,0-3.3-1.9-4.7-5.7c-0.7-2.3-1-3.7-1-4.3c-0.1-0.3-0.2-0.6-0.2-0.8h-0.1v10.8c0,0,0,0.1-0.1,0.1h-4.2c0,0-0.1,0-0.1-0.1v-13.7
		h-4.2v13.7c0,0,0,0.1-0.1,0.1L7.7,455.8C7.7,455.8,7.7,455.8,7.7,455.8z M39.3,447.4c0.9,0,1.7-1,2.3-2.9c0.5-1.7,0.8-3.6,0.8-5.6
		c0-3.1-0.5-5.6-1.6-7.4c-0.5-0.7-1-1.1-1.6-1.1c-0.9,0-1.7,1.1-2.4,3.3c-0.4,1.8-0.7,3.5-0.7,5.2c0,2.5,0.4,4.8,1.3,6.8
		C38,446.8,38.6,447.4,39.3,447.4z"/>
	<path class="st0" d="M7.7,412.2v-6.9c0,0,0-0.1,0.1-0.1h29.8v-12.8c0,0,0-0.1,0.1-0.1h7.8c0,0,0.1,0,0.1,0.1v19.8
		c0,0,0,0.1-0.1,0.1L7.7,412.2C7.7,412.3,7.7,412.3,7.7,412.2z M7.7,390.8v-6c0-0.1,0-0.1,0.1-0.1h37.7c0,0,0.1,0,0.1,0.1v4.1
		c0,0.1,0,0.1-0.1,0.1H23.5v5.5c0,0,0,0.1-0.1,0.1h-3.9c-0.1,0-0.1,0-0.1-0.1v-3.6H7.8C7.7,390.9,7.7,390.8,7.7,390.8z M7.7,382.8
		v-4.3c0,0,0-0.1,0.1-0.1h37.7c0,0,0.1,0,0.1,0.1v4.3c0,0,0,0.1-0.1,0.1L7.7,382.8C7.7,382.8,7.7,382.8,7.7,382.8z"/>
	<path class="st0" d="M7.7,342.3v-0.3c0-3.4,1.4-6.3,4.1-8.7c2.3-1.8,4.8-2.7,7.4-2.7h0.2c3.3,0,6.3,1.4,8.8,4.2
		c1.8,2.3,2.7,4.6,2.7,7.2v0.3c0,3.4-1.4,6.3-4.1,8.8c-2.3,1.8-4.7,2.7-7.3,2.7h-0.2c-3.4,0-6.3-1.4-8.8-4.2
		C8.6,347.3,7.7,344.9,7.7,342.3z M32.7,353.7v-6.9c0,0,0-0.1,0.1-0.1h6.6v-26.7v-0.1h6.2c0,0,0.1,0,0.1,0.1v33.7c0,0,0,0.1-0.1,0.1
		L32.7,353.7C32.7,353.7,32.7,353.7,32.7,353.7z M19.3,346.2c2.3,0,4.1-0.8,5.5-2.4c0.6-0.8,0.9-1.7,0.9-2.6c0-1.4-0.8-2.7-2.4-3.8
		c-1.3-0.7-2.6-1.1-4-1.1c-2.3,0-4.1,0.8-5.5,2.4c-0.6,0.8-0.9,1.6-0.9,2.6c0,1.4,0.8,2.7,2.4,3.8C16.5,345.9,17.9,346.2,19.3,346.2
		z M7.7,323.3c0-0.1,0-0.1,0.1-0.1h5.9v-3.3c0,0,0-0.1,0.1-0.1h5.9c0,0,0.1,0,0.1,0.1v4.3h11.1c0,0,0.1,0,0.1,0.1v5.1h-0.1H7.8H7.7
		V323.3z"/>
	<path class="st0" d="M7.7,300.6v-0.2c0-2.2,1.5-4.3,4.6-6.2c1.1-0.7,2.6-1.3,4.6-2c2.5-0.7,4.1-1,4.7-1v-2.2H7.8c0,0-0.1,0-0.1-0.1
		v-5.5c0-0.1,0-0.1,0.1-0.1h37.7c0,0,0.1,0,0.1,0.1v5.6c0,0,0,0.1-0.1,0.1H27.1v1.8h0.1c4.1,0,8.1,0.8,12.1,2.4
		c1.3,0.6,2.5,1.4,3.7,2.3c1.8,1.6,2.7,3.3,2.7,4.9v0.2c0,2.2-1.4,4.2-4.3,6.1c-4.1,2.4-8.9,3.6-14.4,3.6h-0.6
		c-5.3,0-9.9-1.1-13.9-3.3C9.3,305,7.7,302.9,7.7,300.6z M28.2,305.3c3.7,0,6.7-0.7,9.1-2.2c1.1-0.8,1.7-1.7,1.7-2.7
		c0-1.3-1.1-2.4-3.3-3.4c-2.3-0.9-4.8-1.3-7.6-1.3c-3.7,0-6.7,0.7-9.1,2.2c-1.2,0.8-1.8,1.7-1.8,2.7c0,1.4,1.4,2.7,4.1,3.8
		C23.5,305,25.8,305.3,28.2,305.3z M7.7,281.9v-5.5c0,0,0-0.1,0.1-0.1h37.7c0,0,0.1,0,0.1,0.1v5.5c0,0,0,0.1-0.1,0.1L7.7,281.9
		C7.7,281.9,7.7,281.9,7.7,281.9z"/>
	<path class="st0" d="M7.7,250.8c0-0.1,0.7-0.2,2.1-0.5c0,0,2.7-0.6,8.1-1.7v-6.9H7.8c0,0-0.1,0-0.1-0.1V233c0-0.1,0-0.1,0.1-0.1
		h37.7c0,0,0.1,0,0.1,0.1v8.7c0,0,0,0.1-0.1,0.1H24.4v5.6c0.3,0,7.3-1.5,21.1-4.3l0.1,0.1v7.4c0,0.1-0.6,0.2-1.9,0.3
		c-0.8,0.1-8.1,1.3-21.9,3.5l23.6,5.4c0.1,0,0.2,0.1,0.2,0.1v6.6l-0.1,0.1c-21.2-5.2-33.8-8.3-37.8-9.3V250.8z"/>
	<path class="st0" d="M7.7,196.3v-0.4c0-3.3,1.1-6.1,3.4-8.7c2.2-2.2,4.7-3.3,7.4-3.3h0.3c3,0,5.6,1.3,7.9,3.9c2,2.4,2.9,5.1,2.9,8
		v0.4c0,3.1-1.1,5.9-3.3,8.5c-2.3,2.3-4.8,3.4-7.6,3.4h-0.3c-3,0-5.6-1.3-7.9-3.8C8.7,201.9,7.7,199.2,7.7,196.3z M32,208.1v-33.7
		c0,0,0.1-0.1,0.1-0.1h7.8c0,0,0.1,0,0.1,0.1v25h2.4v-25c0,0,0-0.1,0.1-0.1h3.1c0,0,0.1,0,0.1,0.1v33.7c0,0,0,0.1-0.1,0.1h-8.2
		c0,0-0.1,0-0.1-0.1v-28.2h-2.6v28.2c0,0,0,0.1-0.1,0.1h-2.4C32,208.2,32,208.1,32,208.1z M18.8,201.3c1.8,0,3.2-1,4.3-2.9
		c0.4-0.9,0.6-1.7,0.6-2.4c0-1.7-0.7-3.1-2-4.2c-0.9-0.7-1.8-1-2.8-1c-1.3,0-2.5,0.5-3.5,1.6c-0.9,1.1-1.4,2.3-1.4,3.7
		c0,2,0.9,3.5,2.6,4.7C17.3,201.1,18,201.3,18.8,201.3z M7.7,181.2v-6.8c0,0,0-0.1,0.1-0.1h21.9c0,0,0.1,0,0.1,0.1v6.8
		c0,0,0,0.1-0.1,0.1L7.7,181.2C7.7,181.2,7.7,181.2,7.7,181.2z"/>
	<path class="st0" d="M7.7,153.2v-0.4c0-2.4,1.3-4.7,3.8-6.9c1.5-1.1,2.9-1.9,4.2-2.5c2.4-0.9,3.9-1.3,4.4-1.3v-4.2H7.8
		c0,0-0.1,0-0.1-0.1v-7c0,0,0-0.1,0.1-0.1h37.7c0,0,0.1,0,0.1,0.1v7c0,0,0,0.1-0.1,0.1H25.1v3.5h1.8c4.8,0,9.1,1.1,13.1,3.4
		c1,0.5,2,1.4,3.2,2.6c1.6,1.9,2.4,3.7,2.4,5.4v0.3c0,2.3-1.1,4.4-3.3,6.4c-2.7,2.3-5.9,3.7-9.6,4.4c-1.9,0.4-3.8,0.6-5.8,0.6h-0.6
		c-4.8,0-9.1-1.1-13.1-3.3c-0.9-0.5-2-1.4-3.2-2.6C8.5,156.8,7.7,155,7.7,153.2z M26.7,159.3c3.4,0,6.4-0.8,8.9-2.3
		c1.7-1.2,2.6-2.6,2.6-4.1c0-1.8-1.4-3.4-4.1-4.8c-2.3-1-4.8-1.5-7.4-1.5c-3.4,0-6.4,0.8-8.9,2.3c-1.7,1.2-2.6,2.6-2.6,4.1
		c0,1.8,1.4,3.4,4.1,4.7C21.5,158.8,24,159.3,26.7,159.3z"/>
	<path class="st0" d="M7.7,121v-7.7c0,0,0-0.1,0.1-0.1h30.9v-12.2c0,0,0.1-0.1,0.1-0.1h6.7c0,0,0.1,0,0.1,0.1V121c0,0,0,0.1-0.1,0.1
		L7.7,121C7.7,121.1,7.7,121,7.7,121z M7.7,96.4v-5.6c0,0,0-0.1,0.1-0.1h12.5v-3.5c0,0,0.1-0.1,0.1-0.1h10.7c0.1,0,0.1,0,0.1,0.1
		v5.4h14.3c0,0,0.1,0,0.1,0.1v3.7c0,0.1,0,0.1-0.1,0.1H7.8C7.7,96.5,7.7,96.5,7.7,96.4z"/>
	<path class="st0" d="M7.7,77.4v-9.1c0-0.1,0-0.1,0.1-0.1h11.9V43.7c0,0,0.1-0.1,0.1-0.1h5.4c0,0,0.1,0,0.1,0.1v33.7
		c0,0,0,0.1-0.1,0.1L7.7,77.4C7.7,77.5,7.7,77.5,7.7,77.4z M27,77.4V43.7c0,0,0-0.1,0.1-0.1h4.8c0,0,0.1,0,0.1,0.1v33.7
		c0,0,0,0.1-0.1,0.1h-4.8C27,77.5,27,77.5,27,77.4z M33.7,77.4V70c0,0,0-0.1,0.1-0.1h7.3V43.7c0,0,0-0.1,0.1-0.1h4.4
		c0,0,0.1,0,0.1,0.1v33.7c0,0,0,0.1-0.1,0.1L33.7,77.4C33.7,77.5,33.7,77.5,33.7,77.4z"/>
	<path class="st0" d="M67.7,557.9v-33.7c0,0,0-0.1,0.1-0.1h26.1c0.1,0,0.1,0,0.1,0.1v12.1h6.2v-12.1c0,0,0-0.1,0.1-0.1h5.3
		c0,0,0.1,0,0.1,0.1v33.7c0,0,0,0.1-0.1,0.1h-5.8c0,0-0.1,0-0.1-0.1v-13.2h-5.1v13.2c0,0,0,0.1-0.1,0.1L67.7,557.9
		C67.7,557.9,67.7,557.9,67.7,557.9z M71.4,553.2h17.9v-21.5H71.4V553.2z"/>
	<path class="st0" d="M67.7,514.3v-33.7c0,0,0-0.1,0.1-0.1h4.1c0,0,0.1,0,0.1,0.1v25.5h6.6v-25.5c0,0,0-0.1,0.1-0.1h5.2
		c0,0,0.1,0,0.1,0.1v33.7c0,0,0,0.1-0.1,0.1L67.7,514.3C67.7,514.4,67.7,514.4,67.7,514.3z M85.2,514.3v-33.7c0,0,0-0.1,0.1-0.1h6.2
		c0,0,0.1,0,0.1,0.1v33.7c0,0,0,0.1-0.1,0.1L85.2,514.3C85.2,514.4,85.2,514.4,85.2,514.3z M92.9,514.3v-8.7c0-0.1,0-0.1,0.1-0.1
		h7.4v-24.9c0,0,0-0.1,0.1-0.1h5c0,0,0.1,0,0.1,0.1v33.7c0,0,0,0.1-0.1,0.1L92.9,514.3C93,514.4,92.9,514.4,92.9,514.3z"/>
	<path class="st0" d="M67.7,443.9v-0.4c0-3.3,1.1-6.1,3.4-8.7c2.2-2.2,4.7-3.3,7.4-3.3h0.3c3,0,5.6,1.3,7.9,3.9c2,2.4,2.9,5.1,2.9,8
		v0.4c0,3.1-1.1,5.9-3.3,8.5c-2.3,2.3-4.8,3.4-7.6,3.4h-0.3c-3,0-5.6-1.3-7.9-3.8C68.7,449.5,67.7,446.8,67.7,443.9z M92,455.8
		v-33.7c0,0,0.1-0.1,0.1-0.1h7.8c0,0,0.1,0,0.1,0.1v25h2.4v-25c0,0,0-0.1,0.1-0.1h3.1c0,0,0.1,0,0.1,0.1v33.7c0,0,0,0.1-0.1,0.1
		h-8.2c0,0-0.1,0-0.1-0.1v-28.2h-2.6v28.2c0,0,0,0.1-0.1,0.1h-2.4C92,455.8,92,455.8,92,455.8z M78.8,449c1.8,0,3.2-1,4.3-2.9
		c0.4-0.9,0.6-1.7,0.6-2.4c0-1.7-0.7-3.1-2-4.2c-0.9-0.7-1.8-1-2.8-1c-1.3,0-2.5,0.5-3.5,1.6c-0.9,1.1-1.4,2.3-1.4,3.7
		c0,2,0.9,3.5,2.6,4.7C77.3,448.8,78,449,78.8,449z M67.7,428.8v-6.8c0,0,0-0.1,0.1-0.1h21.9c0,0,0.1,0,0.1,0.1v6.8
		c0,0,0,0.1-0.1,0.1L67.7,428.8C67.7,428.9,67.7,428.9,67.7,428.8z"/>
	<path class="st0" d="M67.7,412.2v-33.7c0,0,0-0.1,0.1-0.1h4.2c0,0,0.1,0,0.1,0.1v26.8h7.6v-26.8c0,0,0-0.1,0.1-0.1h3.6
		c0,0,0.1,0,0.1,0.1v33.7c0,0,0,0.1-0.1,0.1L67.7,412.2C67.7,412.3,67.7,412.3,67.7,412.2z M84.7,412.2v-33.7c0,0,0-0.1,0.1-0.1h5.5
		c0.1,0,0.1,0,0.1,0.1v33.7c0,0,0,0.1-0.1,0.1L84.7,412.2C84.7,412.3,84.7,412.3,84.7,412.2z M92.6,412.2v-33.7c0,0,0-0.1,0.1-0.1
		h7.9c0,0,0.1,0,0.1,0.1v29.1h2.8v-29.1c0,0,0-0.1,0.1-0.1h2.1c0,0,0.1,0,0.1,0.1v33.7c0,0,0,0.1-0.1,0.1H97c0,0-0.1,0-0.1-0.1
		v-26.3h-1.2v26.3c0,0,0,0.1-0.1,0.1h-2.9C92.6,412.3,92.6,412.3,92.6,412.2z"/>
	<path class="st0" d="M67.7,357.3v-0.4c0-2.2,1.1-4.4,3.3-6.4c2.7-2.2,5.9-3.7,9.6-4.4c1.9-0.4,3.8-0.6,5.8-0.6h0.6
		c4.8,0,9.1,1.1,13.1,3.4c1,0.5,2,1.4,3.2,2.6c1.6,1.9,2.4,3.7,2.4,5.4v0.3c0,2.3-1.1,4.4-3.3,6.4c-2.7,2.3-5.9,3.7-9.6,4.4
		c-1.9,0.4-3.8,0.6-5.8,0.6h-0.6c-4.8,0-9.1-1.1-13.1-3.3c-0.9-0.5-2-1.4-3.2-2.6C68.5,360.9,67.7,359.1,67.7,357.3z M86.7,363.4
		c3.4,0,6.4-0.8,8.9-2.3c1.7-1.2,2.6-2.6,2.6-4.1c0-1.8-1.4-3.4-4.1-4.8c-2.3-1-4.8-1.5-7.4-1.5c-3.4,0-6.4,0.8-8.9,2.3
		c-1.7,1.2-2.6,2.6-2.6,4.1c0,1.8,1.4,3.4,4.1,4.7C81.5,362.9,84,363.4,86.7,363.4z M67.7,341.9v-7c0,0,0-0.1,0.1-0.1h37.7
		c0,0,0.1,0,0.1,0.1v7c0,0,0,0.1-0.1,0.1L67.7,341.9C67.7,342,67.7,342,67.7,341.9z"/>
	<path class="st0" d="M67.7,299.1c0-0.1,0.8-0.3,2.4-0.7l35.3-8.2l0.1,0.1v7.3c0,0.1-0.6,0.2-1.8,0.3c-0.1,0-6.6,1-19.4,3v0.1
		c0.7,0.1,7.8,1.4,21.3,3.9v5.2c0,0,0,0.1-0.1,0.1L72.4,303l-4.7-1V299.1z M84,300.9L84,300.9C84.1,300.9,84,300.9,84,300.9
		L84,300.9z M67.7,288.3v-3.7c0,0,0-0.1,0.1-0.1h14.1v-3.7H67.8c0,0-0.1,0-0.1-0.1v-4.3c0,0,0-0.1,0.1-0.1h37.7c0,0,0.1,0,0.1,0.1
		v4.3c0,0.1,0,0.1-0.1,0.1H85.9v2.3h19.6c0,0,0.1,0,0.1,0.1v5.1c0,0.1,0,0.1-0.1,0.1H67.8C67.7,288.4,67.7,288.3,67.7,288.3z"/>
	<path class="st0" d="M67.7,266.6v-33.7c0,0,0-0.1,0.1-0.1h13.9c0,0,0.1,0,0.1,0.1v26.9h5.3v-26.9c0,0,0.1-0.1,0.1-0.1h6.9
		c0.1,0,0.1,0,0.1,0.1v13.3h5.2v-13.3c0,0,0-0.1,0.1-0.1h6c0,0,0.1,0,0.1,0.1v33.7c0,0,0,0.1-0.1,0.1h-6.8c0,0-0.1,0-0.1-0.1v-13.3
		h-3.9v13.3c0,0,0,0.1-0.1,0.1H77.5c0,0-0.1,0-0.1-0.1v-27.2h-5.7v27.2c0,0,0,0.1-0.1,0.1L67.7,266.6
		C67.7,266.6,67.7,266.6,67.7,266.6z"/>
	<path class="st0" d="M67.7,206.5v-0.7c0-4.3,0.9-8.3,2.6-11.8c1.8-3.2,3.9-4.8,6.2-4.8h0.1c2.6,0,4.8,2,6.7,6.1
		c1.3,3.3,2,6.8,2,10.6v0.4c0,5-1.1,9.4-3.3,13.1c-1.7,2.4-3.5,3.7-5.4,3.7h-0.1c-2.6,0-4.8-2-6.7-5.9
		C68.4,213.8,67.7,210.2,67.7,206.5z M85.5,223v-33.7c0,0,0-0.1,0.1-0.1h4.8c0,0,0.1,0,0.1,0.1v14.6h4.8c0,0,0.1,0,0.1,0.1v6.6
		c0,0.1,0,0.1-0.1,0.1h-4.6V223c0,0,0,0.1-0.1,0.1L85.5,223C85.5,223.1,85.5,223,85.5,223z M92.9,223v-6.8c0,0,0-0.1,0.1-0.1h8.1
		v-26.9c0,0,0-0.1,0.1-0.1h4.4c0,0,0.1,0,0.1,0.1V223c0,0,0,0.1-0.1,0.1L92.9,223C92.9,223.1,92.9,223,92.9,223z M76.4,214.6
		c1.4,0,2.6-1.2,3.6-3.7c0.5-1.5,0.8-3.1,0.8-4.8c0-3.2-0.8-5.8-2.5-7.6c-0.7-0.6-1.3-0.8-1.9-0.8c-1.4,0-2.6,1.2-3.6,3.6
		c-0.5,1.6-0.8,3.2-0.8,4.9c0,3.2,0.8,5.7,2.5,7.6C75.2,214.3,75.9,214.6,76.4,214.6z"/>
	<path class="st0" d="M67.7,164.4v-22.3c0,0,0-0.1,0.1-0.1h3.9c0,0,0.1,0,0.1,0.1v16.1h25.8v-16.1c0,0,0-0.1,0.1-0.1h7.8
		c0,0,0.1,0,0.1,0.1v22.3c0,0,0,0.1-0.1,0.1L67.7,164.4C67.7,164.5,67.7,164.5,67.7,164.4z M67.7,138.1v-7.4c0,0,0-0.1,0.1-0.1h37.7
		c0,0,0.1,0,0.1,0.1v7.4c0,0.1,0,0.1-0.1,0.1H67.8C67.7,138.2,67.7,138.1,67.7,138.1z"/>
	<path class="st0" d="M67.7,120.9V98.7c0,0,0-0.1,0.1-0.1h5.2c0,0,0.1,0,0.1,0.1v5.7c1-0.2,11.8-1.9,32.5-5.2l0.1,0.1v5.6
		c0,0.1-1,0.3-2.9,0.6c-14.7,2.9-22.8,4.4-24.3,4.7c17.4,2.4,26.5,3.7,27.2,3.8v6.6l-0.1,0.1l-32.2-5.8v0.1c0,2.3,0,4.1,0,5.4v0.6
		c0,0,0,0.1-0.1,0.1L67.7,120.9C67.7,120.9,67.7,120.9,67.7,120.9z M78.2,110.2L78.2,110.2L78.2,110.2z M67.7,96.6v-5.4
		c0,0,0-0.1,0.1-0.1h9.6v-3.9c0,0,0-0.1,0.1-0.1h5.9c0,0,0.1,0,0.1,0.1v4.8h22.1c0,0,0.1,0,0.1,0.1v4.5c0,0,0,0.1-0.1,0.1L67.7,96.6
		C67.7,96.6,67.7,96.6,67.7,96.6z"/>
	<path class="st0" d="M67.7,65.1v-0.3c0-3.3,1.2-6.2,3.5-8.8c2.4-2.4,5-3.6,8-3.6h0.3c2.9,0,5.6,1.2,8.1,3.6
		c2.3,2.6,3.5,5.5,3.5,8.7v0.4c0,3.1-1.1,6-3.4,8.6c-2.4,2.4-5.2,3.7-8.2,3.7h-0.2c-3.4,0-6.4-1.5-9-4.6
		C68.6,70.4,67.7,67.8,67.7,65.1z M93.3,77.3v-6.3V71h7.5V43.6c0,0,0-0.1,0.1-0.1h4.7c0,0,0.1,0,0.1,0.1v33.7c0,0,0,0.1-0.1,0.1
		L93.3,77.3L93.3,77.3z M79.4,72.7c1.9,0,3.6-0.7,5.1-2.2c1.5-1.6,2.2-3.4,2.2-5.4v-0.5c0-2.2-1-4.2-2.9-5.9c-1.4-1-2.9-1.6-4.4-1.6
		c-2.2,0-4.1,1-5.6,2.9c-1.1,1.5-1.7,3.1-1.7,5c0,2.5,1,4.6,3.1,6.3C76.5,72.2,77.9,72.7,79.4,72.7z M67.7,43.6
		C67.7,43.6,67.7,43.6,67.7,43.6l23.2-0.1c0,0,0.1,0,0.1,0.1v6c0,0,0,0.1-0.1,0.1H67.8l-0.1-0.1V43.6z"/>
	<path class="st0" d="M67.7,21.7v-0.4c0-2.5,0.9-4.9,2.8-7.2c1.3-1.3,2.3-2.2,3-2.5C76.3,9.9,79.3,9,82.4,9h0.4
		c4,0,7.5,1.3,10.7,3.9c2.7,2.5,4.1,5.3,4.1,8.3v0.3c0,2.5-1,4.9-2.9,7.2c-1.3,1.3-2.3,2.2-2.9,2.6C89,33,86,33.8,82.8,33.8h-0.4
		c-4,0-7.5-1.3-10.6-3.9C69.1,27.4,67.7,24.6,67.7,21.7z M67.7,6.5V0.1c0,0,0-0.1,0.1-0.1l37.7,0c0,0,0.1,0,0.1,0.1v33.7
		c0,0,0,0.1-0.1,0.1h-6.1c-0.1,0-0.1,0-0.1-0.1V12.8c0-1.3,0-3.4,0.1-6.3L67.7,6.5C67.7,6.6,67.7,6.5,67.7,6.5z M82.7,27.4
		c1.9,0,3.5-0.6,5.1-1.9c1.4-1.5,2.1-3.1,2.1-4.9c0-2.3-1-4.1-3.1-5.7c-1.3-0.9-2.7-1.3-4.2-1.3c-1.9,0-3.6,0.7-5,2
		c-1.5,1.4-2.2,3.1-2.2,5c0,2.2,1,4.1,3.1,5.6C79.8,27,81.2,27.4,82.7,27.4z"/>
	<path class="st0" d="M127.7,557.9v-33.7c0,0,0-0.1,0.1-0.1h15.5v0.1v9.3v0.1h-10.9v24.4c0,0,0,0.1-0.1,0.1L127.7,557.9
		C127.7,557.9,127.7,557.9,127.7,557.9z M145.1,557.9v-33.7c0,0,0-0.1,0.1-0.1h4.7c0,0,0.1,0,0.1,0.1v33.7c0,0,0,0.1-0.1,0.1
		L145.1,557.9C145.1,557.9,145.1,557.9,145.1,557.9z M151.2,557.9v-33.7c0,0,0-0.1,0.1-0.1h8.2c0,0,0.1,0,0.1,0.1v26.4h2.4v-26.4
		c0,0,0.1-0.1,0.1-0.1h3.5c0,0,0.1,0,0.1,0.1v33.7c0,0,0,0.1-0.1,0.1h-8.9c-0.1,0-0.1,0-0.1-0.1v-28.1h-2.6v28.1c0,0,0,0.1-0.1,0.1
		L151.2,557.9C151.2,557.9,151.2,557.9,151.2,557.9z"/>
	<path class="st0" d="M127.7,514.3v-16.2c0-0.1,0-0.1,0.1-0.1h15.6c0,0,0.1,0,0.1,0.1v4.7c0,0,0,0.1-0.1,0.1H133v11.4
		c0,0,0,0.1-0.1,0.1L127.7,514.3C127.7,514.4,127.7,514.4,127.7,514.3z M144.1,502.1v-7.5c0,0,0-0.1,0.1-0.1h2.5v-13.9
		c0,0,0.1-0.1,0.1-0.1h4.8c0,0,0.1,0,0.1,0.1v33.7c0,0,0,0.1-0.1,0.1h-5.3c0,0-0.1,0-0.1-0.1v-12.1h-2.1
		C144.1,502.2,144.1,502.2,144.1,502.1z M152.5,514.3v-33.7c0,0,0-0.1,0.1-0.1h7.7c0.1,0,0.1,0,0.1,0.1v24.2h1.6v-24.2
		c0,0,0-0.1,0.1-0.1h3.4c0,0,0.1,0,0.1,0.1v33.7c0,0,0,0.1-0.1,0.1h-7.6c-0.1,0-0.1,0-0.1-0.1v-24.1h-1.6v24.1c0,0,0,0.1-0.1,0.1
		L152.5,514.3C152.5,514.4,152.5,514.4,152.5,514.3z M127.7,497.4v-16.8c0,0,0-0.1,0.1-0.1h15.6c0,0,0.1,0,0.1,0.1v4.3
		c0,0.1,0,0.1-0.1,0.1h-9.6v12.4c0,0,0,0.1-0.1,0.1L127.7,497.4C127.7,497.5,127.7,497.5,127.7,497.4z"/>
	<path class="st0" d="M127.7,470.8v-33.7c0,0,0-0.1,0.1-0.1h13.9c0,0,0.1,0,0.1,0.1V464h5.3v-26.9c0,0,0.1-0.1,0.1-0.1h6.9
		c0.1,0,0.1,0,0.1,0.1v13.3h5.2v-13.3c0,0,0-0.1,0.1-0.1h6c0,0,0.1,0,0.1,0.1v33.7c0,0,0,0.1-0.1,0.1h-6.8c0,0-0.1,0-0.1-0.1v-13.3
		h-3.9v13.3c0,0,0,0.1-0.1,0.1h-17.2c0,0-0.1,0-0.1-0.1v-27.2h-5.7v27.2c0,0,0,0.1-0.1,0.1L127.7,470.8
		C127.7,470.9,127.7,470.9,127.7,470.8z"/>
	<path class="st0" d="M127.7,412.3v-21.4c0-0.1,0-0.1,0.1-0.1h6.2c0,0,0.1,0,0.1,0.1v15.8h24.6v-15.8c0-0.1,0-0.1,0.1-0.1h6.8
		c0,0,0.1,0,0.1,0.1v21.4c0,0,0,0.1-0.1,0.1L127.7,412.3C127.7,412.3,127.7,412.3,127.7,412.3z M127.7,387.6v-5.6
		c0-0.1,0-0.1,0.1-0.1h12v-3.3v-0.1h5.3c0.1,0,0.1,0,0.1,0.1v4.9h20.3c0,0,0.1,0,0.1,0.1v4c0,0.1,0,0.1-0.1,0.1h-37.7
		C127.7,387.7,127.7,387.6,127.7,387.6z"/>
	<path class="st0" d="M127.7,353.3c0-0.1,0.8-0.3,2.5-0.6c0,0,11.8-2.7,35.3-7.9l0.1,0.1v7.5c0,0.1-1.8,0.4-5.3,1.1
		c-1,0.2-8.6,1.8-22.8,4.7v0.1l28.1,4.1l0.1,0.1v6.3h-0.1l-35.3-7.3l-2.5-0.6V353.3z M127.7,342.4v-7.4c0,0,0-0.1,0.1-0.1h37.7
		c0,0,0.1,0,0.1,0.1v7.4c0,0,0,0.1-0.1,0.1L127.7,342.4C127.7,342.5,127.7,342.5,127.7,342.4z"/>
	<path class="st0" d="M127.7,310.2v-20.9c0-0.1,0-0.1,0.1-0.1h22.4c0,0,0.1,0,0.1,0.1v20.9c0,0,0,0.1-0.1,0.1L127.7,310.2
		C127.7,310.3,127.7,310.3,127.7,310.2z M152.8,310.2v-9c0,0,0-0.1,0.1-0.1h9v-24.7c0,0,0.1-0.1,0.1-0.1h3.5c0,0,0.1,0,0.1,0.1v33.7
		c0,0,0,0.1-0.1,0.1L152.8,310.2C152.9,310.3,152.8,310.3,152.8,310.2z M131.6,306.7h15.8v-12.2h-15.8V306.7z M127.7,286.9v-6.6
		c0,0,0-0.1,0.1-0.1h6.5v-3.8c0,0,0-0.1,0.1-0.1h4.3c0.1,0,0.1,0,0.1,0.1v5.4h11.4c0,0,0.1,0,0.1,0.1v4.9c0,0,0,0.1-0.1,0.1
		L127.7,286.9C127.7,287,127.7,287,127.7,286.9z"/>
	<path class="st0" d="M127.7,266.7v-33.7c0,0,0-0.1,0.1-0.1h4.2c0,0,0.1,0,0.1,0.1v26.8h7.6v-26.8c0,0,0-0.1,0.1-0.1h3.6
		c0,0,0.1,0,0.1,0.1v33.7c0,0,0,0.1-0.1,0.1L127.7,266.7C127.7,266.7,127.7,266.7,127.7,266.7z M144.7,266.7v-33.7
		c0,0,0-0.1,0.1-0.1h5.5c0.1,0,0.1,0,0.1,0.1v33.7c0,0,0,0.1-0.1,0.1L144.7,266.7C144.7,266.7,144.7,266.7,144.7,266.7z
		 M152.6,266.7v-33.7c0,0,0-0.1,0.1-0.1h7.9c0,0,0.1,0,0.1,0.1V262h2.8v-29.1c0,0,0-0.1,0.1-0.1h2.1c0,0,0.1,0,0.1,0.1v33.7
		c0,0,0,0.1-0.1,0.1H157c0,0-0.1,0-0.1-0.1v-26.3h-1.2v26.3c0,0,0,0.1-0.1,0.1h-2.9C152.6,266.7,152.6,266.7,152.6,266.7z"/>
	<path class="st0" d="M127.7,211.8v-0.4c0-2.4,1.3-4.7,3.8-6.9c1.5-1.1,2.9-1.9,4.2-2.5c2.4-0.9,3.9-1.3,4.4-1.3v-4.2h-12.3
		c0,0-0.1,0-0.1-0.1v-7c0,0,0-0.1,0.1-0.1h37.7c0,0,0.1,0,0.1,0.1v7c0,0,0,0.1-0.1,0.1h-20.4v3.5h1.8c4.8,0,9.1,1.1,13.1,3.4
		c1,0.5,2,1.4,3.2,2.6c1.6,1.9,2.4,3.7,2.4,5.4v0.3c0,2.3-1.1,4.4-3.3,6.4c-2.7,2.3-5.9,3.7-9.6,4.4c-1.9,0.4-3.8,0.6-5.8,0.6h-0.6
		c-4.8,0-9.1-1.1-13.1-3.3c-0.9-0.5-2-1.4-3.2-2.6C128.5,215.3,127.7,213.5,127.7,211.8z M146.7,217.9c3.4,0,6.4-0.8,8.9-2.3
		c1.7-1.2,2.6-2.6,2.6-4.1c0-1.8-1.4-3.4-4.1-4.8c-2.3-1-4.8-1.5-7.4-1.5c-3.4,0-6.4,0.8-8.9,2.3c-1.7,1.2-2.6,2.6-2.6,4.1
		c0,1.8,1.4,3.4,4.1,4.7C141.5,217.4,144,217.9,146.7,217.9z"/>
	<path class="st0" d="M127.7,179.6v-21.8c0,0,0-0.1,0.1-0.1h4.9c0,0,0.1,0,0.1,0.1v7.8l32.7-7.7l0.1,0.1v5.9c0,0-0.6,0.2-1.9,0.5
		c-0.7,0.2-7.3,2-19.8,5.3c1.7,0.2,8.9,1.4,21.7,3.4v6.4l-0.1,0.1l-32.7-7.8v5.7c0,0.5,0,1.2-0.1,2.1l-0.1,0.1L127.7,179.6
		C127.7,179.6,127.7,179.6,127.7,179.6z M127.7,152.6v-6.7c0,0,0-0.1,0.1-0.1h37.7c0,0,0.1,0,0.1,0.1v7.4c0,0,0,0.1-0.1,0.1h-13.6
		v5.8c0,0,0,0.1-0.1,0.1h-3.1v-0.1v-6.6h-3.8v6.6c0,0,0,0.1-0.1,0.1h-4.5c-0.1,0-0.1,0-0.1-0.1v-6.5L127.7,152.6
		C127.7,152.6,127.7,152.6,127.7,152.6z"/>
	<path class="st0" d="M127.7,104.7v-0.7c0-4.1,1-8,2.9-11.5c0.4-0.8,1.2-1.8,2.5-3.1c1.5-1.3,3.1-1.9,4.6-1.9h0.3
		c2.5,0,4.7,1.5,6.8,4.5c2.2,3.6,3.3,7.6,3.3,12.1v0.6c0,4.6-1.1,8.7-3.4,12.3c-2,2.8-4.3,4.2-6.7,4.2h-0.2c-2.7,0-5-1.6-7.1-4.9
		C128.7,112.6,127.7,108.8,127.7,104.7z M148.8,121V87.3c0,0,0-0.1,0.1-0.1h4.2c0,0,0.1,0,0.1,0.1v13.6h12.4c0,0,0.1,0,0.1,0.1v7.8
		c0,0,0,0.1-0.1,0.1h-11.7V121c0,0,0,0.1-0.1,0.1L148.8,121C148.8,121.1,148.8,121,148.8,121z M137.9,112c1.6,0,2.9-1.2,3.9-3.5
		c0.6-1.3,0.8-2.7,0.8-4.2c0-2.7-0.8-5-2.3-6.7c-0.7-0.7-1.6-1.1-2.4-1.1c-1.6,0-2.8,1.2-3.8,3.5c-0.5,1.3-0.8,2.8-0.8,4.3
		c0,2.7,0.7,4.9,2.2,6.6C136.3,111.6,137.1,112,137.9,112z"/>
	<path class="st0" d="M127.7,77.4V53.7c0-0.1,0-0.1,0.1-0.1h20.6c0.1,0,0.1,0,0.1,0.1v13.8h12.1V53.7c0-0.1,0-0.1,0.1-0.1h4.9
		c0,0,0.1,0,0.1,0.1v23.8c0,0,0,0.1-0.1,0.1h-21.7v-0.1v-19h-9v19c0,0,0,0.1-0.1,0.1L127.7,77.4C127.7,77.5,127.7,77.5,127.7,77.4z
		 M127.7,50.6v-6.8c0,0,0-0.1,0.1-0.1h37.7c0,0,0.1,0,0.1,0.1v6.8c0,0,0,0.1-0.1,0.1L127.7,50.6C127.7,50.6,127.7,50.6,127.7,50.6z"
		/>
	<path class="st0" d="M187.7,557.9v-33.7c0,0,0-0.1,0.1-0.1h5.7c0.1,0,0.1,0,0.1,0.1v23.4h5.9v-23.4c0,0,0.1-0.1,0.1-0.1h5.3
		c0,0,0.1,0,0.1,0.1v12.1h3.9v-12.1c0,0,0-0.1,0.1-0.1h4.4c0,0,0.1,0,0.1,0.1v11h0.1c0.3-2,0.6-3.6,1-4.8c0.5-1.4,1-2.6,1.5-3.6
		c1.1-1.7,2.2-2.5,3.3-2.5h0.1c1.9,0,3.4,2,4.8,5.9c1,3.3,1.5,6.8,1.5,10.6v0.6c0,5.1-0.8,9.4-2.4,13c-1.2,2.4-2.5,3.6-3.8,3.6h-0.1
		c-1.8,0-3.3-1.9-4.7-5.7c-0.7-2.3-1-3.7-1-4.3c-0.1-0.3-0.2-0.6-0.2-0.8h-0.1v10.8c0,0,0,0.1-0.1,0.1h-4.2c0,0-0.1,0-0.1-0.1v-13.7
		h-4.2v13.7c0,0,0,0.1-0.1,0.1L187.7,557.9C187.7,557.9,187.7,557.9,187.7,557.9z M219.3,549.5c0.9,0,1.7-1,2.3-2.9
		c0.5-1.7,0.8-3.6,0.8-5.6c0-3.1-0.5-5.6-1.6-7.4c-0.5-0.7-1-1.1-1.6-1.1c-0.9,0-1.7,1.1-2.4,3.3c-0.4,1.8-0.7,3.5-0.7,5.2
		c0,2.5,0.4,4.8,1.3,6.8C218,548.9,218.6,549.5,219.3,549.5z"/>
	<path class="st0" d="M187.7,514.3v-6.9c0,0,0-0.1,0.1-0.1h29.8v-12.8c0,0,0-0.1,0.1-0.1h7.8c0,0,0.1,0,0.1,0.1v19.8
		c0,0,0,0.1-0.1,0.1L187.7,514.3C187.7,514.4,187.7,514.4,187.7,514.3z M187.7,492.9v-6c0-0.1,0-0.1,0.1-0.1h37.7c0,0,0.1,0,0.1,0.1
		v4.1c0,0.1,0,0.1-0.1,0.1h-21.9v5.5c0,0,0,0.1-0.1,0.1h-3.9c-0.1,0-0.1,0-0.1-0.1V493h-11.6C187.7,493,187.7,492.9,187.7,492.9z
		 M187.7,484.9v-4.3c0,0,0-0.1,0.1-0.1h37.7c0,0,0.1,0,0.1,0.1v4.3c0,0,0,0.1-0.1,0.1L187.7,484.9
		C187.7,484.9,187.7,484.9,187.7,484.9z"/>
	<path class="st0" d="M187.7,470.8v-20.9c0-0.1,0-0.1,0.1-0.1h22.4c0,0,0.1,0,0.1,0.1v20.9c0,0,0,0.1-0.1,0.1L187.7,470.8
		C187.7,470.8,187.7,470.8,187.7,470.8z M212.8,470.8v-9c0,0,0-0.1,0.1-0.1h9v-24.7c0,0,0.1-0.1,0.1-0.1h3.5c0,0,0.1,0,0.1,0.1v33.7
		c0,0,0,0.1-0.1,0.1L212.8,470.8C212.9,470.8,212.8,470.8,212.8,470.8z M191.6,467.3h15.8v-12.2h-15.8V467.3z M187.7,447.5v-6.6
		c0,0,0-0.1,0.1-0.1h6.5v-3.8c0,0,0-0.1,0.1-0.1h4.3c0.1,0,0.1,0,0.1,0.1v5.4h11.4c0,0,0.1,0,0.1,0.1v4.9c0,0,0,0.1-0.1,0.1
		L187.7,447.5C187.7,447.6,187.7,447.5,187.7,447.5z"/>
	<path class="st0" d="M187.7,415.1v-0.4c0-2.5,0.9-4.9,2.8-7.2c1.3-1.3,2.3-2.2,3-2.5c2.8-1.7,5.7-2.6,8.8-2.6h0.4
		c4,0,7.5,1.3,10.7,3.9c2.7,2.5,4.1,5.3,4.1,8.3v0.3c0,2.5-1,4.9-2.9,7.2c-1.3,1.3-2.3,2.2-2.9,2.6c-2.8,1.7-5.8,2.6-8.9,2.6h-0.4
		c-4,0-7.5-1.3-10.6-3.9C189.1,420.8,187.7,418.1,187.7,415.1z M187.7,399.9v-6.4c0,0,0-0.1,0.1-0.1h37.7c0,0,0.1,0,0.1,0.1v33.7
		c0,0,0,0.1-0.1,0.1h-6.1c-0.1,0-0.1,0-0.1-0.1v-20.9c0-1.3,0-3.4,0.1-6.3L187.7,399.9C187.7,400,187.7,400,187.7,399.9z
		 M202.7,420.8c1.9,0,3.5-0.6,5.1-1.9c1.4-1.5,2.1-3.1,2.1-4.9c0-2.3-1-4.1-3.1-5.7c-1.3-0.9-2.7-1.3-4.2-1.3c-1.9,0-3.6,0.7-5,2
		c-1.5,1.4-2.2,3.1-2.2,5c0,2.2,1,4.1,3.1,5.6C199.8,420.4,201.2,420.8,202.7,420.8z"/>
	<path class="st0" d="M187.7,368.7v-33.7c0,0,0-0.1,0.1-0.1h15.5v0.1v9.3v0.1h-10.9v24.4c0,0,0,0.1-0.1,0.1L187.7,368.7
		C187.7,368.7,187.7,368.7,187.7,368.7z M205.1,368.7v-33.7c0,0,0-0.1,0.1-0.1h4.7c0,0,0.1,0,0.1,0.1v33.7c0,0,0,0.1-0.1,0.1
		L205.1,368.7C205.1,368.7,205.1,368.7,205.1,368.7z M211.2,368.7v-33.7c0,0,0-0.1,0.1-0.1h8.2c0,0,0.1,0,0.1,0.1v26.4h2.4v-26.4
		c0,0,0.1-0.1,0.1-0.1h3.5c0,0,0.1,0,0.1,0.1v33.7c0,0,0,0.1-0.1,0.1h-8.9c-0.1,0-0.1,0-0.1-0.1v-28.1h-2.6v28.1c0,0,0,0.1-0.1,0.1
		L211.2,368.7C211.2,368.7,211.2,368.7,211.2,368.7z"/>
	<path class="st0" d="M187.7,325.1v-16.2c0-0.1,0-0.1,0.1-0.1h15.6c0,0,0.1,0,0.1,0.1v4.7c0,0,0,0.1-0.1,0.1H193v11.4
		c0,0,0,0.1-0.1,0.1L187.7,325.1C187.7,325.2,187.7,325.1,187.7,325.1z M204.1,312.9v-7.5c0,0,0-0.1,0.1-0.1h2.5v-13.9
		c0,0,0.1-0.1,0.1-0.1h4.8c0,0,0.1,0,0.1,0.1v33.7c0,0,0,0.1-0.1,0.1h-5.3c0,0-0.1,0-0.1-0.1V313h-2.1
		C204.1,313,204.1,313,204.1,312.9z M212.5,325.1v-33.7c0,0,0-0.1,0.1-0.1h7.7c0.1,0,0.1,0,0.1,0.1v24.2h1.6v-24.2
		c0,0,0-0.1,0.1-0.1h3.4c0,0,0.1,0,0.1,0.1v33.7c0,0,0,0.1-0.1,0.1h-7.6c-0.1,0-0.1,0-0.1-0.1V301h-1.6v24.1c0,0,0,0.1-0.1,0.1
		L212.5,325.1C212.5,325.2,212.5,325.1,212.5,325.1z M187.7,308.2v-16.8c0,0,0-0.1,0.1-0.1h15.6c0,0,0.1,0,0.1,0.1v4.3
		c0,0.1,0,0.1-0.1,0.1h-9.6v12.4c0,0,0,0.1-0.1,0.1L187.7,308.2C187.7,308.3,187.7,308.3,187.7,308.2z"/>
	<path class="st0" d="M187.7,281.6v-33.7c0,0,0-0.1,0.1-0.1h13.9c0,0,0.1,0,0.1,0.1v26.9h5.3v-26.9c0,0,0.1-0.1,0.1-0.1h6.9
		c0.1,0,0.1,0,0.1,0.1v13.3h5.2v-13.3c0,0,0-0.1,0.1-0.1h6c0,0,0.1,0,0.1,0.1v33.7c0,0,0,0.1-0.1,0.1h-6.8c0,0-0.1,0-0.1-0.1v-13.3
		h-3.9v13.3c0,0,0,0.1-0.1,0.1h-17.2c0,0-0.1,0-0.1-0.1v-27.2h-5.7v27.2c0,0,0,0.1-0.1,0.1L187.7,281.6
		C187.7,281.7,187.7,281.6,187.7,281.6z"/>
	<path class="st0" d="M187.7,223.1v-33.7c0,0,0-0.1,0.1-0.1h5.7c0.1,0,0.1,0,0.1,0.1v23.4h5.9v-23.4c0,0,0.1-0.1,0.1-0.1h5.3
		c0,0,0.1,0,0.1,0.1v12.1h3.9v-12.1c0,0,0-0.1,0.1-0.1h4.4c0,0,0.1,0,0.1,0.1v11h0.1c0.3-2,0.6-3.6,1-4.8c0.5-1.4,1-2.6,1.5-3.6
		c1.1-1.7,2.2-2.5,3.3-2.5h0.1c1.9,0,3.4,2,4.8,5.9c1,3.3,1.5,6.8,1.5,10.6v0.6c0,5.1-0.8,9.4-2.4,13c-1.2,2.4-2.5,3.6-3.8,3.6h-0.1
		c-1.8,0-3.3-1.9-4.7-5.7c-0.7-2.3-1-3.7-1-4.3c-0.1-0.3-0.2-0.6-0.2-0.8h-0.1v10.8c0,0,0,0.1-0.1,0.1h-4.2c0,0-0.1,0-0.1-0.1v-13.7
		h-4.2v13.7c0,0,0,0.1-0.1,0.1L187.7,223.1C187.7,223.1,187.7,223.1,187.7,223.1z M219.3,214.7c0.9,0,1.7-1,2.3-2.9
		c0.5-1.7,0.8-3.6,0.8-5.6c0-3.1-0.5-5.6-1.6-7.4c-0.5-0.7-1-1.1-1.6-1.1c-0.9,0-1.7,1.1-2.4,3.3c-0.4,1.8-0.7,3.5-0.7,5.2
		c0,2.5,0.4,4.8,1.3,6.8C218,214.1,218.6,214.7,219.3,214.7z"/>
	<path class="st0" d="M187.7,179.5v-6.9c0,0,0-0.1,0.1-0.1h29.8v-12.8c0,0,0-0.1,0.1-0.1h7.8c0,0,0.1,0,0.1,0.1v19.8
		c0,0,0,0.1-0.1,0.1L187.7,179.5C187.7,179.6,187.7,179.5,187.7,179.5z M187.7,158.1v-6c0-0.1,0-0.1,0.1-0.1h37.7c0,0,0.1,0,0.1,0.1
		v4.1c0,0.1,0,0.1-0.1,0.1h-21.9v5.5c0,0,0,0.1-0.1,0.1h-3.9c-0.1,0-0.1,0-0.1-0.1v-3.6h-11.6C187.7,158.1,187.7,158.1,187.7,158.1z
		 M187.7,150.1v-4.3c0,0,0-0.1,0.1-0.1h37.7c0,0,0.1,0,0.1,0.1v4.3c0,0,0,0.1-0.1,0.1L187.7,150.1
		C187.7,150.1,187.7,150.1,187.7,150.1z"/>
	<path class="st0" d="M187.7,135.9v-33.7c0,0,0-0.1,0.1-0.1h8.8c0,0,0.1,0,0.1,0.1v26.3h2.7v-26.3c0,0,0-0.1,0.1-0.1h4.4v0.1v33.7
		v0.1h-10.3c-0.1,0-0.1,0-0.1-0.1v-29h-2.1v29v0.1L187.7,135.9C187.7,136,187.7,136,187.7,135.9z M205.4,135.9v-33.7
		c0,0,0-0.1,0.1-0.1h5.2c0,0,0.1,0,0.1,0.1v33.7c0,0,0,0.1-0.1,0.1L205.4,135.9C205.5,136,205.4,136,205.4,135.9z M212.4,135.9
		v-33.7c0,0,0-0.1,0.1-0.1h8c0.1,0,0.1,0,0.1,0.1v26.3h2.2v-26.3c0,0,0-0.1,0.1-0.1h2.6c0,0,0.1,0,0.1,0.1v33.7c0,0,0,0.1-0.1,0.1
		h-7.4c0,0-0.1,0-0.1-0.1v-21.7h-2.6v21.7c0,0,0,0.1-0.1,0.1h-2.9C212.4,136,212.4,136,212.4,135.9z"/>
	<path class="st0" d="M187.7,77.4v-6.1c0-0.1,0-0.1,0.1-0.1h15.6V55.1c0,0,0-0.1,0.1-0.1h6.9c0,0,0.1,0,0.1,0.1v22.3
		c0,0,0,0.1-0.1,0.1L187.7,77.4C187.7,77.4,187.7,77.4,187.7,77.4z M212.8,77.4V43.7v-0.1h8.5c0,0,0.1,0,0.1,0.1v25.4h1.1V43.7
		c0,0,0.1-0.1,0.1-0.1h3c0,0,0.1,0,0.1,0.1v33.7c0,0,0,0.1-0.1,0.1h-6.9c0,0-0.1,0-0.1-0.1V50.7h-2.7v26.7c0,0,0,0.1-0.1,0.1
		L212.8,77.4L212.8,77.4z M187.7,43.7C187.7,43.6,187.7,43.6,187.7,43.7l22.7-0.1c0,0,0.1,0,0.1,0.1v7.4c0,0,0,0.1-0.1,0.1h-4.7
		c-1.5,0-3.7,0-6.7,0.1v5.5h-0.1h-4.4h-0.1v-5.5h-6.6h-0.1V43.7z"/>
	<path class="st0" d="M187.7,33.8V10.1c0-0.1,0-0.1,0.1-0.1h20.6c0.1,0,0.1,0,0.1,0.1v13.8h12.1V10.1c0-0.1,0-0.1,0.1-0.1h4.9
		c0,0,0.1,0,0.1,0.1v23.8c0,0,0,0.1-0.1,0.1h-21.7v-0.1v-19h-9v19c0,0,0,0.1-0.1,0.1L187.7,33.8C187.7,33.9,187.7,33.9,187.7,33.8z
		 M187.7,6.9V0.1c0,0,0-0.1,0.1-0.1h37.7c0,0,0.1,0,0.1,0.1v6.8c0,0,0,0.1-0.1,0.1L187.7,6.9C187.7,7,187.7,7,187.7,6.9z"/>
	<path class="st0" d="M247.7,546.6v-0.4c0-2.2,1.1-4.4,3.3-6.4c2.7-2.2,5.9-3.7,9.6-4.4c1.9-0.4,3.8-0.6,5.8-0.6h0.6
		c4.8,0,9.1,1.1,13.1,3.4c1,0.5,2,1.4,3.2,2.6c1.6,1.9,2.4,3.7,2.4,5.4v0.3c0,2.3-1.1,4.4-3.3,6.4c-2.7,2.3-5.9,3.7-9.6,4.4
		c-1.9,0.4-3.8,0.6-5.8,0.6h-0.6c-4.8,0-9.1-1.1-13.1-3.3c-0.9-0.5-2-1.4-3.2-2.6C248.5,550.1,247.7,548.3,247.7,546.6z
		 M266.7,552.7c3.4,0,6.4-0.8,8.9-2.3c1.7-1.2,2.6-2.6,2.6-4.1c0-1.8-1.4-3.4-4.1-4.8c-2.3-1-4.8-1.5-7.4-1.5
		c-3.4,0-6.4,0.8-8.9,2.3c-1.7,1.2-2.6,2.6-2.6,4.1c0,1.8,1.4,3.4,4.1,4.7C261.5,552.2,264,552.7,266.7,552.7z M247.7,531.2v-7
		c0,0,0-0.1,0.1-0.1h37.7c0,0,0.1,0,0.1,0.1v7c0,0,0,0.1-0.1,0.1L247.7,531.2C247.7,531.2,247.7,531.2,247.7,531.2z"/>
	<path class="st0" d="M247.7,514.3v-33.7c0,0,0-0.1,0.1-0.1H258c0.1,0,0.1,0,0.1,0.1v28.4h3.1v-28.4c0,0,0-0.1,0.1-0.1h2.7
		c0.1,0,0.1,0,0.1,0.1v13.9h2.6v-13.9c0,0,0.1-0.1,0.1-0.1h4.6c0.1,0,0.1,0,0.1,0.1v33.7c0,0,0,0.1-0.1,0.1H266c0,0-0.1,0-0.1-0.1
		v-12.1h-2.1v12.1c0,0,0,0.1-0.1,0.1H254c0,0-0.1,0-0.1-0.1v-29.2h-2.6v29.2c0,0,0,0.1-0.1,0.1L247.7,514.3
		C247.7,514.4,247.7,514.4,247.7,514.3z M273.2,514.3v-4.2c0,0,0-0.1,0.1-0.1h3.8v-23h-3.8c0,0-0.1,0-0.1-0.1v-6.4
		c0,0,0-0.1,0.1-0.1h12.2c0,0,0.1,0,0.1,0.1v33.7c0,0,0,0.1-0.1,0.1L273.2,514.3C273.2,514.4,273.2,514.4,273.2,514.3z M279.8,508.3
		h2.7v-21.2h-2.7V508.3z"/>
	<path class="st0" d="M247.7,470.8v-18.9c0,0,0-0.1,0.1-0.1h12.9v-3.6h-12.9c0,0-0.1,0-0.1-0.1v-4.7c0,0,0-0.1,0.1-0.1h37.7
		c0,0,0.1,0,0.1,0.1v5h-0.1h-18.9v3.2h18.9c0,0,0.1,0,0.1,0.1v6.8c0,0,0,0.1-0.1,0.1h-31.7v12.1c0,0,0,0.1-0.1,0.1L247.7,470.8
		C247.7,470.8,247.7,470.8,247.7,470.8z M247.7,442.3v-5.2c0,0,0-0.1,0.1-0.1h37.7c0,0,0.1,0,0.1,0.1v5.2c0,0,0,0.1-0.1,0.1
		L247.7,442.3C247.7,442.3,247.7,442.3,247.7,442.3z"/>
	<path class="st0" d="M247.7,405.7v-6.3c0-0.1,0-0.1,0.1-0.1h4.6v-8.1c0,0,0-0.1,0.1-0.1h4.1c0,0,0.1,0,0.1,0.1v21.1
		c0,0,0,0.1-0.1,0.1h-4.3c-0.1,0-0.1,0-0.1-0.1v-6.5L247.7,405.7C247.7,405.7,247.7,405.7,247.7,405.7z M256.7,402.4v-0.3
		c0-2.2,1.1-4.3,3.2-6.2c1.7-1.4,4-2.5,7-3.2c1.3-0.3,2.6-0.4,3.9-0.4h0.5c3.9,0,7.4,1.1,10.4,3.2c2.5,2,3.8,4.2,3.8,6.6v0.3
		c0,2.2-1.1,4.2-3.3,6.2c-3.1,2.4-6.8,3.7-11,3.7h-0.4c-4.2,0-7.8-1.2-10.9-3.6C257.8,406.7,256.7,404.7,256.7,402.4z M271.1,407.6
		c2.6,0,4.7-0.8,6.4-2.4c0.8-0.9,1.2-1.9,1.2-2.9c0-1.8-1.2-3.3-3.7-4.5c-1.4-0.5-2.7-0.8-4-0.8c-2.8,0-5.1,0.9-6.7,2.7
		c-0.6,0.9-0.9,1.7-0.9,2.7c0,1.7,1.1,3.1,3.4,4.3C268.2,407.3,269.6,407.6,271.1,407.6z M247.7,385.4
		C247.7,385.4,247.7,385.3,247.7,385.4l11.4-0.1v-6.8c0,0,0-0.1,0.1-0.1h4.1c0,0,0.1,0,0.1,0.1v5.1h22.2c0,0,0.1,0,0.1,0.1v6.3h-0.1
		h-37.7h-0.1V385.4z"/>
	<path class="st0" d="M247.7,368.7v-22.2c0,0,0-0.1,0.1-0.1h5.2c0,0,0.1,0,0.1,0.1v5.7c1-0.2,11.8-1.9,32.5-5.2l0.1,0.1v5.6
		c0,0.1-1,0.3-2.9,0.6c-14.7,2.9-22.8,4.4-24.3,4.7c17.4,2.4,26.5,3.7,27.2,3.8v6.6l-0.1,0.1l-32.2-5.8v0.1c0,2.3,0,4.1,0,5.4v0.6
		c0,0,0,0.1-0.1,0.1L247.7,368.7C247.7,368.7,247.7,368.7,247.7,368.7z M258.2,357.9L258.2,357.9L258.2,357.9z M247.7,344.3v-5.4
		c0,0,0-0.1,0.1-0.1h9.6v-3.9c0,0,0-0.1,0.1-0.1h5.9c0,0,0.1,0,0.1,0.1v4.8h22.1c0,0,0.1,0,0.1,0.1v4.5c0,0,0,0.1-0.1,0.1
		L247.7,344.3C247.7,344.4,247.7,344.4,247.7,344.3z"/>
	<path class="st0" d="M279.6,325.1v-8.4c0,0,0-0.1,0.1-0.1h5.9c0,0,0.1,0,0.1,0.1v8.4c0,0,0,0.1-0.1,0.1L279.6,325.1
		C279.6,325.2,279.6,325.1,279.6,325.1z"/>
</g>
</svg>
