<?xml version="1.0" encoding="utf-8"?>
<!-- Generator: Adobe Illustrator 21.0.2, SVG Export Plug-In . SVG Version: 6.00 Build 0)  -->
<svg version="1.1" id="Layer_1" xmlns="http://www.w3.org/2000/svg" xmlns:xlink="http://www.w3.org/1999/xlink" x="0px" y="0px"
	 viewBox="0 0 3176.9 1864.3" style="enable-background:new 0 0 3176.9 1864.3;" xml:space="preserve">
<style type="text/css">
	.st0{fill:#093D5F;}
	.st1{fill:#333333;}
	.st2{fill:#ABABAB;}
</style>
<path class="st0" d="M3168.2,1154.8c-7.6-48.8-15-97.4-22.4-146.1c-6.8-45.2-13.6-90.3-20.5-135.5c-6.9-45.4-13.9-90.9-20.8-136.3
	c-6.8-45.1-13.7-90.3-20.5-135.5c-3.1-21.1-6.5-42.3-9.4-63.6c-0.8-6.2-3.7-8.8-9.4-10.8c-36.3-12.4-72.5-24.9-108.7-37.3v570.1
	c0,33-27,60-60,60H1638.9c-33,0-60-27-60-60V87.7c0-27.3,18.6-50.6,43.7-57.7c-25.9-8.9-51.7-17.8-77.6-26.7
	c-2.3-0.9-4.5-2.2-6.6-3.2c-0.5,0-1.1,0-1.5,0c-27.6,33.5-55.1,67.1-82.7,100.6c-124.2,150.3-248.5,300.6-372.5,450.6
	c-32.7,39.7-65.4,79.2-98.2,118.8c-1.5,1.7-3.1,3.2-4.6,4.9c-0.6-0.6-1.1-1.1-1.1-1.4c1.1-19.1-10.8-27.9-30.7-21.5
	c-20.2,6.6-36.1,19.6-50.6,34.7c-17.3,18.1-31.8,38-40.4,61.7c-1.9,5.2-3.2,10.6-4.3,16.2c-4.2,22.7,5.4,32.9,29.6,29
	c-13,15.6-25,30.1-37.2,44.9c-2.9-2.2-5.4-3.9-8.3-5.9c-30.4,36.7-60.6,73.3-91.4,110.3c-6.2-5.1-12-9.7-18.5-15
	c-7.3,8.8-14.2,17.1-21.5,25.9c8.6,7.4,17.1,14.5,26.1,22.1c-9.9,11.9-19.3,23.5-29.5,35.8c-46.9-39-93.5-77.8-140.9-117.1
	c-5.6,6.5-10.8,12.8-16.8,20.1c18.2,15.3,36.1,30.2,54.5,45.5c-4,4.9-7.9,9.7-12.5,15.3c-18.2-15-36.1-29.9-54.6-45.2
	c-6,7.1-11.7,14.2-18.1,21.8c47.1,39.2,93.7,77.9,140.7,117.1c-3.2,3.7-5.9,7.1-9.3,11.1c-8.5-6.9-16.7-13.6-25.3-20.7
	c-11,13.3-21.5,25.9-32.6,39.2c-38.6-31.9-76.9-63.7-115.7-96.1c-8,9.6-15.6,18.7-23.9,28.7c47.1,39.2,94,78.2,141.1,117.4
	c-12.3,14.8-24.1,29.2-36,43.5c-0.8-0.6-1.4-0.9-1.4-1.2c-1.5-17.9-10.8-24.1-27.6-16.8c-11.6,4.9-22.1,12.3-33.6,19
	c10.5-13,21-25.8,31.9-39c-6-5.1-11.9-9.9-18.1-15.1c-13.7,16.5-27,32.6-40.7,49.1c-5.4-4.5-10.3-8.6-15.9-13.3
	c13.6-16.5,26.9-32.7,40.4-49.1c-7.3-6-14-11.7-21.6-18.1c-26.4,31.6-52.3,63.1-79,95.2c-8.2-6.6-15.9-13.1-24.1-19.9
	c26.5-32.1,52.5-63.6,78.9-95.4c-8-6.6-15.6-13-23.5-19.6c-37.8,45.7-75.3,90.9-113.4,136.9c23.3,19.3,46.1,38.3,69.4,57.7
	c15.6-18.8,30.7-37,46.3-55.7c5.7,4.8,11.1,9.1,17.1,14c-15.4,18.5-30.6,37-46.1,55.9c5.7,4.8,11.1,9.3,17,14.2
	c10.5-12.8,20.8-25,31-37.3c0.3,0.3,0.8,0.5,1.2,0.8c-1.9,4.2-4,8-5.4,12.2c-2.8,8.2-5.9,16.4-7.6,24.8c-3.4,15.7,4,23.6,19.6,22.4
	c1.2-0.2,2.5-0.3,5.2-0.6c-152.2,184.2-303.6,367.5-454.9,550.7h2488.8c66.9-64,133.8-128.2,200.6-192.3
	c162-155.1,324.1-310.2,486.1-465.3c1.1-1.1,2.3-2,3.5-2.9c0-1.1,0-2,0-3.1C3173.4,1185.4,3170.5,1170.1,3168.2,1154.8z
	 M516.1,1229.4c-8.2,18.4-21,33-37.5,44.4c-2.5,1.7-5.4,2.9-8.2,4c-9.4,3.4-15.3-1.5-13.1-11.4c3.4-15.1,11.3-28.2,22.4-38.6
	c8.5-7.7,18.4-14.4,28.4-20.1c6.3-3.4,11.4,1.1,11.6,10.2C518.9,1220.7,518.1,1225.2,516.1,1229.4z M670.6,1048.9
	c-18.4-15.3-36.4-30.2-54.6-45.4c3.1-3.7,5.7-7.1,9-10.8c18.2,15.1,36,29.8,54.5,45.2C676.5,1041.7,673.7,1045.1,670.6,1048.9z
	 M944.2,713.9c-9.3,16.5-21,31.5-36.7,42.3c-4.6,3.2-10.3,5.6-15.9,6.8c-8.5,1.9-14-2.9-13.4-11.7c0.5-5.9,2-12,4.3-17.6
	c8.5-19.8,22.1-35.2,40.3-46.6c3.5-2.3,7.6-4.2,11.7-5.2c10-2.5,15.9,2.5,15.6,16C948.8,701.4,947.6,708.5,944.2,713.9z"/>
<g>
	<path class="st0" d="M666.7,923.3c-25.5-21.1-50.3-41.8-76.1-63.3c5.9-7.3,11.7-14.2,17.7-21.5c6,4.9,11.7,9.6,18.2,14.7
		c23.6-28.4,46.9-56.6,70.7-85.3c-6-5.1-11.6-9.9-17.7-15.1c8.2-9.9,16-19.4,24.5-29.6c25.5,21.1,50.6,42.1,76.2,63.4
		C742.3,832.1,704.8,877.3,666.7,923.3z M674.4,882.9c22.2-26.9,43.7-52.8,65.4-79.2c-11.4-9.4-21.9-18.1-32.6-27
		c-22.1,26.7-43.7,52.8-65.4,79C652.8,865,663.2,873.6,674.4,882.9z"/>
	<path class="st0" d="M817.4,638c-8.6-7.3-16.8-14.2-25.2-21.3c5.4-6.6,10.6-13,16.5-19.9c31,25.8,61.6,51.2,92.7,77.2
		c-25.3,30.6-50.2,60.5-75.3,91.1c-31-25.8-61.6-51.2-92.7-77.2c5.2-6.3,10.2-12.3,15.6-18.8c8.6,7.1,16.8,13.9,25.5,21
		C788.8,672.4,802.8,655.4,817.4,638z M861.2,673.5c-9.1-7.6-17.1-14.2-25.6-21.3c-12.5,15.1-24.4,29.5-36.7,44.4
		c8.8,7.3,17,14,25.6,21.3C836.8,703,848.7,688.6,861.2,673.5z"/>
	<path class="st0" d="M785.4,790.8c6.9,5.7,13.1,11,20.1,16.8c-14.4,17.4-28.4,34.4-42.6,51.7c6.2,5.2,12,10.2,18.7,15.9
		c-9.9,11.9-19.6,23.8-29.8,36c-5.6-4.5-10.6-8.5-16.4-13.1c-13.4,16.2-26.9,32.3-40.4,48.6c-7.7-6.3-15-12.3-22.8-19
		C709.8,882,747.3,836.6,785.4,790.8z"/>
	<path class="st0" d="M899.1,594.5c-6.8,8.3-13.3,16.2-20.2,24.8c13.3,11.1,26.2,21.9,39.8,33.3c-4.2,5.1-8,10-12.2,15.3
		c-31-25.9-61.9-51.4-92.9-77.2c5.6-6.8,11-13.3,16.8-20.4c9.6,7.9,18.7,15.4,28.4,23.5c5.4-6.3,10.6-12.3,16.4-19
		C883.4,581.3,891.1,587.8,899.1,594.5z"/>
</g>
<path class="st1" d="M3164.1,0H1534.4c-7,0-12.8,5.7-12.8,12.8v1188.3c0,7,5.7,12.8,12.8,12.8h1629.7c7,0,12.8-5.7,12.8-12.8V12.8
	C3176.9,5.7,3171.2,0,3164.1,0z M2930.6,1044.3c0,17.6-14.4,32-32,32H1620.5c-17.6,0-32-14.4-32-32V78c0-17.6,14.4-32,32-32h1278.1
	c17.6,0,32,14.4,32,32V1044.3z"/>
<path class="st2" d="M3107.5,1076.3h-90.1c-6.6,0-12-5.4-12-12V610.5c0-6.6,5.4-12,12-12h90.1c6.6,0,12,5.4,12,12v453.8
	C3119.5,1070.9,3114.1,1076.3,3107.5,1076.3z"/>
</svg>
