<?xml version="1.0" encoding="utf-8"?>
<!-- Generator: Adobe Illustrator 21.0.2, SVG Export Plug-In . SVG Version: 6.00 Build 0)  -->
<svg version="1.1" id="Layer_1" xmlns="http://www.w3.org/2000/svg" xmlns:xlink="http://www.w3.org/1999/xlink" x="0px" y="0px"
	 viewBox="0 0 3176.9 1864.3" style="enable-background:new 0 0 3176.9 1864.3;" xml:space="preserve">
<style type="text/css">
	.st0{fill:#6BA95C;}
	.st1{fill:#333333;}
	.st2{fill:#ABABAB;}
	.st3{fill:#FFFFFF;}
	.st4{fill:none;}
	.st5{fill:#B2D680;}
	.st6{fill:#231F20;}
</style>
<path class="st0" d="M3169.5,1159.7c-9.7-62.2-19-124.2-28.4-186.3c-9.4-62.5-18.9-124.8-28.4-187.1c-9.5-62.6-19-125.3-28.6-187.9
	c-2.9-18.9-5.8-37.8-8.4-56.8c-0.9-5.7-2.6-9.2-8.9-11.4c-27.7-9.6-55.5-19.1-83.2-28.7V1054c0,33-27,60-60,60H1606.7
	c-33,0-60-27-60-60V91.1c0-33,27-60,60-60h15.2c-27.2-9.4-54.3-18.8-81.5-28.2c-1.5-0.5-2.8-1.2-4.1-1.8c-0.5,0-1.1,0-1.5,0
	c-139.1,168.7-278.1,337.4-416.9,506.2c-142,172.2-284,344.6-426,516.8c-137.1,166.1-274,332.3-410.9,498.4
	c-92,111.7-184,223.3-276.1,335c-1.8,2.1-3.4,4.5-4.9,6.8c831.8,0,1663.7,0,2495.5,0c112.8-108.5,225.6-216.9,338.6-325.3
	c112.4-107.9,224.7-215.8,337.1-323.6c1.8-1.7,3.8-3.4,5.7-5.1c0-1.5,0-3.1,0-4.6C3173.1,1190.7,3171.7,1175.2,3169.5,1159.7z"/>
<path class="st1" d="M3164.1,0H1534.4c-7,0-12.8,5.7-12.8,12.8v1188.3c0,7,5.7,12.8,12.8,12.8h1629.7c7,0,12.8-5.7,12.8-12.8V12.8
	C3176.9,5.7,3171.2,0,3164.1,0z M2930.6,1044.3c0,17.6-14.4,32-32,32H1620.5c-17.6,0-32-14.4-32-32V78c0-17.6,14.4-32,32-32h1278.1
	c17.6,0,32,14.4,32,32V1044.3z"/>
<path class="st2" d="M3107.5,1076.3h-90.1c-6.6,0-12-5.4-12-12V610.5c0-6.6,5.4-12,12-12h90.1c6.6,0,12,5.4,12,12v453.8
	C3119.5,1070.9,3114.1,1076.3,3107.5,1076.3z"/>
<g>
	<path d="M852.3,706.8c-5.4-7.4-11.3-13.9-21.1-15.3c-1.1-0.2-2.2-2.7-2.7-4.3c-3.8-11.7-11.8-19.2-23.8-20.6
		c-11.6-1.4-21.3,3-27.9,13.4c-1.5,2.3-4.5,4.4-7.2,5.2c-12.2,3.6-22,14.8-22.6,26.8c-0.7,13.5,7,26.1,19.5,30.1
		c5.6,1.8,7.2,4.2,5.5,9.5c-0.4,1.2-0.5,2.5-0.7,3.8c-1.6,11.3-3.2,22.6-5,35.4c2.2-1.8,3.2-2.4,4.1-3.2
		c14.3-13.6,28.6-27.1,42.7-40.8c2.7-2.6,5.2-3.5,9-2.7c12.8,2.8,25.1-4,30-16.2c0.8-1.9,1.6-3.8,2.4-5.8
		C853.8,716.9,853.1,711.8,852.3,706.8z M850.3,723.7c-3.1,12.7-15.9,20.7-28.6,17.1c-4.3-1.2-6.7-0.2-9.5,2.5
		c-12.1,11.7-24.4,23.3-36.6,35c-1.2,1.1-2.5,2.1-5,4.2c2-14.5,3.9-27.4,5.7-40.7c-2.5-0.6-4.5-1.1-6.6-1.7
		c-12.1-3.4-19.9-14.3-19.5-26.9c0.5-12.4,8.8-22.7,20.9-24.9c4.1-0.8,6.1-2.5,8-6.1c4.8-9.2,14.9-14.2,25.3-12.6
		c10.4,1.6,17.8,7.4,20.5,17.7c1.3,5,3.5,6.9,8.5,8.1C846,698.3,853.3,711.2,850.3,723.7z"/>
	<path d="M755.9,645c1.6,0.8,3.2,3.7,3.1,5.5c-0.5,7-1.8,13.9-3,22.8c9.4-9,17.3-16.8,25.5-24.2c1.9-1.7,5.1-2.8,7.6-2.7
		c7.9,0.3,14.5-3.8,16.6-11.2c2.2-7.5-1.6-15-8.8-18.6c-2.3-1.2-4.7-3.3-5.8-5.5c-5.9-11.8-20.2-13.4-28.4-3.1
		c-1.3,1.7-3.3,3.2-5.3,4c-7.2,2.9-11.9,7.8-12.2,15.7C744.7,635.6,748.5,641.4,755.9,645z M746.7,628.2c0.4-7.1,4.7-12.1,11.6-14.5
		c1.9-0.7,3.9-2.2,5.1-3.9c3.6-4.8,8-7.7,14.2-6.8c6,0.9,9.9,4.3,12.2,10c0.8,1.9,2.9,3.8,4.9,4.7c7.3,3,11.1,9,9.5,16.1
		c-1.6,7.3-7.8,11.2-16,10.6c-2.3-0.1-5.3,0.9-7.1,2.4c-7.3,6.5-14.3,13.4-22.7,21.5c1.2-9.1,2.2-16.2,3.2-23.6
		c-1.8-0.6-3.4-1.1-4.9-1.7C750.3,640.6,746.3,634.7,746.7,628.2z"/>
	<path class="st3" d="M833.5,695.4c-5-1.2-7.2-3.1-8.5-8.1c-2.7-10.3-10.2-16.1-20.5-17.7c-10.4-1.6-20.5,3.4-25.3,12.6
		c-1.9,3.6-3.9,5.3-8,6.1c-12.2,2.3-20.5,12.6-20.9,24.9c-0.5,12.6,7.4,23.5,19.5,26.9c2,0.6,4,1,6.6,1.7
		c-1.9,13.3-3.7,26.3-5.7,40.7c2.5-2.1,3.8-3.1,5-4.2c12.2-11.6,24.5-23.2,36.6-35c2.9-2.8,5.2-3.7,9.5-2.5
		c12.7,3.6,25.5-4.4,28.6-17.1C853.3,711.2,846,698.3,833.5,695.4z"/>
	<path class="st3" d="M756.7,643.2c1.5,0.6,3.1,1.1,4.9,1.7c-1,7.4-2,14.5-3.2,23.6c8.5-8.1,15.4-15,22.7-21.5
		c1.7-1.6,4.7-2.6,7.1-2.4c8.2,0.5,14.3-3.3,16-10.6c1.6-7.1-2.2-13-9.5-16.1c-2-0.8-4.1-2.7-4.9-4.7c-2.3-5.7-6.1-9.2-12.2-10
		c-6.2-0.9-10.6,2-14.2,6.8c-1.3,1.7-3.2,3.3-5.1,3.9c-6.9,2.3-11.2,7.4-11.6,14.5C746.3,634.7,750.3,640.6,756.7,643.2z"/>
	<g>
		<path class="st4" d="M443.2,881.6c11.7-3.5,29.4-20.4,30.4-28.1c-7.4-0.3-14.8-1-22.2-0.6c-1.9,0.1-5.6,4.4-5.2,5.7
			C448.8,866.8,446.9,874.1,443.2,881.6z"/>
		<path d="M701.4,743.2c-2.4-3.6-4.9-7.1-7.4-10.7c6.5-22.1,6.8-43.7-7.4-63.6c-13.7-19.3-35.9-26.1-55.1-17
			c-1.9,0.9-3.8,1.9-5.7,2.9c-25.8-23.9-54.6-44.2-86.4-60.1c-13.1-6.5-26.8-11.9-40.8-16.2c-13-4-26.7-5.6-40-8.6
			c-29-6.4-57.4-3.1-85.6,4.5c-36.3,9.7-64.6,30.8-85.4,61.7c-22.2,32.9-18.2,69.5,9.5,97.7c16.9,17.2,38.6,24.9,61.2,30.5
			c12.6,3.1,25.6,5.2,38.5,7.2c22,3.3,42.4,10.1,59.1,25.7c4.1,3.8,7.8,7.9,12.8,13c-8.1,1.2-14.2,2.3-20.3,2.8
			c-1.8,0.2-4-1-5.5-2.1c-4.7-3.3-8.9-7.3-13.7-10.3c-14.6-9.2-31-7.8-42.6,3.1c-13.2,12.4-15.9,29.4-8.6,45.1
			c6.7,14.4,19.2,18.7,33.1,20.8c3.8,0.6,5.2,1.9,6.5,5.5c1.9,5.2,5.1,9.9,8.4,16.1c-8.1,2.7-17.1,6-26.2,8.8
			c-29.8,9.2-55,25.8-75.3,49.2c-20.9,24.1-30.7,52.9-29.7,84.7c0.9,25.8,9.7,49.2,28.4,67.6c14.6,14.4,32.2,24.8,50.9,32.9
			c24.6,10.7,50.2,16,77.1,17.5c70.8,3.9,132.3-18.9,186.3-63.1c26.3-21.5,48.2-47.4,67.7-75.2c22.3-31.8,36.9-66.8,40.3-105.6
			C750.6,848.1,734.5,792.7,701.4,743.2z M452.7,821.2c1.4-0.8,3.3-0.9,5-0.9c5.6,0.1,11.5-0.7,16.6,1c3.6,1.2,5.2,15.5,3.7,22.3
			c-8.1,0.6-16.3,1.2-24.6,1.8c-1.1-7.6-2.2-14.1-2.9-20.6C450.4,823.7,451.6,821.8,452.7,821.2z M451.3,852.9
			c7.4-0.4,14.8,0.3,22.2,0.6c-1,7.8-18.7,24.6-30.4,28.1c3.7-7.5,5.6-14.8,3-22.9C445.7,857.3,449.4,853,451.3,852.9z M403.3,859
			c-14.9-0.7-27.7-24.8-16.9-41.7c12.2-19,35.8-18.6,47.7,0.7c0.7,1.1,1.3,2.5,2.3,3c9.6,4.7,9,13.4,7.5,21.5
			c-1.5,8.2-11.6,15.8-20.2,17.8C416.9,859.8,410.1,859.3,403.3,859z M425.2,870.4c-0.3-0.9,1.2-3.2,2.4-3.7
			c3.2-1.4,6.7-2.1,11.6-3.6c-0.7,4-0.5,7.3-1.9,9.8c-1.7,2.9-4.7,4.9-7.1,7.3C428.5,876.9,426.5,873.8,425.2,870.4z M697.1,1009.3
			c-17.4,25.1-37.3,48.1-60.3,68.1c-32.4,28.1-69,49-111.3,58.7c-7.9,1.8-15.9,3.4-22.3,4.7c-31.1,3.6-60.6,3.7-89.7-2.7
			c-29-6.4-55.5-18.9-78.5-37.9c-21.9-18.2-31-42.6-31.3-70.4c-0.3-29.2,9.7-55.3,29.2-76.8c18.8-20.8,41.8-35.9,68.9-44.1
			c20.8-6.2,40.9-14,58.7-26.7c40.9-29,29.4-66.6,2.1-91.2c-18.7-16.8-40.9-24.8-65.4-28.7c-17.5-2.7-35.1-6-52-11.2
			c-15-4.6-29.5-11.1-41-22.8c-25.7-26.2-29-59.1-7.9-89.1c19.8-28.1,46.1-47.3,79.6-56c26.7-7,53.5-9,81.2-4.4
			c34.6,5.7,65.2,19.7,94.5,37.9c12.1,7.5,24.6,14.5,36.7,22.1c3.7,2.3,6.8,5.8,10.1,8.8c1.6,1.4,3,3.3,4.9,4.1
			c5.4,2.1,10.2,4.9,14.6,8.1c-10.3,7-19,15.8-25.3,26.9c-11,19.5-20.8,39.7-30.6,59.9c-11.2,23-21.8,46.3-32.5,69.6
			c-0.8,1.8,0.2,4.5,0.4,6.8c2.3-0.7,5.5-0.7,6.6-2.2c4.1-5.7,8.1-11.6,10.9-18c9.4-21.1,18.3-42.4,25.4-58.9
			c7-14.4,11.7-24.3,16.5-34.1c8.7-17.5,19.5-32.9,35.8-44c1.5-1,3.1-2,4.7-3c0.2-0.1,0.3-0.2,0.5-0.3c0.7-0.4,1.4-0.8,2.1-1.2
			c19.1-10,35.7-1.4,46.7,12.9c11.4,14.8,12.8,32,7.7,48.8c-0.1,0.2-0.1,0.5-0.2,0.7c-0.4,1.3-0.8,2.6-1.2,3.9c-0.6,2-1.3,4-2,6.1
			c-5.6,17-11.9,33.8-20,49.7c-11.9,23.4-26.4,45.4-40.2,67.7c-4.7,7.6-10.9,14.2-15.9,21.7c-1.2,1.8-0.3,5-0.4,7.5
			c2.1-0.9,5-1.2,6.3-2.8c8-9.4,16.6-18.6,23.4-28.9c22-33,41.1-67.6,53.8-105.3c0.2,0.3,0.4,0.6,0.7,1
			c26.3,38.2,41.4,80.6,45.1,127.3C740.3,922.5,725.8,967.8,697.1,1009.3z"/>
		<path class="st5" d="M691.2,744.2c-0.2-0.3-0.4-0.6-0.7-1c-12.7,37.7-31.8,72.2-53.8,105.3c-6.8,10.3-15.4,19.4-23.4,28.9
			c-1.3,1.6-4.2,1.9-6.3,2.8c0.1-2.5-0.8-5.7,0.4-7.5c5-7.4,11.2-14.1,15.9-21.7c13.8-22.3,28.4-44.4,40.2-67.7
			c8-15.8,14.4-32.7,20-49.7c0.7-2,1.3-4,2-6.1c0.4-1.3,0.8-2.6,1.2-3.9c0.1-0.2,0.1-0.5,0.2-0.7c5-16.8,3.6-34-7.7-48.8
			c-11-14.3-27.7-22.9-46.7-12.9c-0.7,0.4-1.4,0.7-2.1,1.2c-0.2,0.1-0.3,0.2-0.5,0.3c-1.6,1-3.2,2-4.7,3
			c-16.3,11.1-27.1,26.5-35.8,44c-4.8,9.8-9.5,19.6-16.5,34.1c-7.1,16.5-16,37.8-25.4,58.9c-2.8,6.4-6.9,12.3-10.9,18
			c-1.1,1.5-4.3,1.5-6.6,2.2c-0.2-2.3-1.3-5-0.4-6.8c10.6-23.3,21.3-46.6,32.5-69.6c9.8-20.2,19.6-40.4,30.6-59.9
			c6.3-11.1,14.9-19.9,25.3-26.9c-4.4-3.2-9.2-6-14.6-8.1c-1.9-0.7-3.3-2.6-4.9-4.1c-3.4-2.9-6.4-6.4-10.1-8.8
			c-12.1-7.6-24.6-14.6-36.7-22.1c-29.3-18.2-59.9-32.2-94.5-37.9c-27.7-4.6-54.5-2.6-81.2,4.4c-33.4,8.8-59.8,28-79.6,56
			c-21.2,30-17.8,63,7.9,89.1c11.6,11.8,26.1,18.2,41,22.8c16.9,5.2,34.5,8.5,52,11.2c24.5,3.8,46.7,11.8,65.4,28.7
			c27.3,24.6,38.8,62.3-2.1,91.2c-17.9,12.7-37.9,20.4-58.7,26.7c-27.1,8.2-50.1,23.3-68.9,44.1c-19.5,21.6-29.5,47.6-29.2,76.8
			c0.2,27.7,9.4,52.2,31.3,70.4c23,19,49.5,31.5,78.5,37.9c29.1,6.4,58.6,6.4,89.7,2.7c6.4-1.3,14.4-2.9,22.3-4.7
			c42.3-9.8,78.9-30.7,111.3-58.7c23-19.9,42.9-43,60.3-68.1c28.7-41.4,43.3-86.7,39.2-137.8C732.6,824.8,717.5,782.4,691.2,744.2z
			 M337,636.8c11.3-1.4,19.1,3.7,20.3,13.4c1.3,10.6-5.9,20.5-16,21.9c-9.7,1.4-18.1-4.8-19.5-14.2C320.4,647.9,327.5,638,337,636.8
			z M405.2,692.4c-1.4,13.8-3,27.6-5.2,41.2c-0.4,2.7-3.2,6.6-5.3,6.9c-2.7,0.4-6.7-1.7-8.7-3.9c-6.6-7.2-12.6-15-19.6-23.5
			c-3.8,7.2-7.7,14-10.9,21.1c-3.7,8.1-8.4,9.7-13.4,2.3c-7.3-10.9-13.1-22.9-18.8-34.7c-2.2-4.5,2.7-9.5,8.4-9.2
			c19,0.7,37.3-3,55.7-7c4.5-1,9.7,0,14.3,1C403.3,687,405.4,690.6,405.2,692.4z M392.4,670.8c-8.6,2.7-18.2-1.5-22.8-9.9
			c-3.8-6.9-2-12.5,6.5-20.6c7.5-7.2,15-9.6,20.4-5.2c4,3.3,6.6,8.4,9.8,12.7C406.4,658.9,401.1,668.1,392.4,670.8z"/>
		<path class="st3" d="M443.9,842.5c1.5-8.1,2.1-16.8-7.5-21.5c-1-0.5-1.6-2-2.3-3c-11.9-19.3-35.5-19.7-47.7-0.7
			c-10.9,16.9,1.9,41,16.9,41.7c6.8,0.3,13.6,0.9,20.4,1.4C432.2,858.2,442.4,850.7,443.9,842.5z M413.1,847.2
			c-3.5,2.4-8.3,3.2-12.7,4c-0.8,0.1-2.2-3-3.3-4.6c1.5-0.8,3-1.9,4.6-2.5c1.9-0.7,4-1,6-1.5c0-0.8,0-1.6,0-2.4
			c-2.4-0.5-5-0.8-7.3-1.7c-1.6-0.7-2.8-2.2-4.2-3.4c1.2-1.3,2.3-2.8,3.6-4c1.7-1.6,3.7-2.9,5.5-4.3c-2.1-1.1-4.3-2-6.3-3.3
			c-1.4-0.9-2.6-2.2-3.8-3.4c1.3-1,2.4-2.5,3.8-2.8c8.4-1.9,15.2,5.2,13.3,13.4c-0.4,1.7,0.3,3.9,1.2,5.5
			C416,840.1,416.9,844.6,413.1,847.2z"/>
		<path class="st3" d="M477.9,843.6c1.5-6.8-0.1-21.1-3.7-22.3c-5-1.7-11-0.9-16.6-1c-1.7,0-3.6,0.1-5,0.9c-1.1,0.7-2.3,2.5-2.2,3.7
			c0.7,6.5,1.8,13,2.9,20.6C461.7,844.9,469.9,844.2,477.9,843.6z"/>
		<path class="st3" d="M437.3,872.8c1.4-2.4,1.2-5.8,1.9-9.8c-4.9,1.4-8.4,2.2-11.6,3.6c-1.2,0.5-2.7,2.9-2.4,3.7
			c1.3,3.4,3.2,6.5,4.9,9.7C432.6,877.8,435.7,875.7,437.3,872.8z"/>
		<path d="M401.7,686.7c-4.6-1-9.8-2-14.3-1c-18.4,3.9-36.7,7.7-55.7,7c-5.8-0.2-10.6,4.7-8.4,9.2c5.7,11.9,11.6,23.8,18.8,34.7
			c4.9,7.4,9.7,5.9,13.4-2.3c3.2-7.1,7.2-13.9,10.9-21.1c7,8.5,13,16.3,19.6,23.5c2.1,2.2,6,4.3,8.7,3.9c2.1-0.3,4.9-4.3,5.3-6.9
			c2.2-13.7,3.8-27.5,5.2-41.2C405.4,690.6,403.3,687,401.7,686.7z M348,729.3c-0.6,0.2-1.3,0.3-1.9,0.5
			c-4.6-8.9-9.3-17.8-14.4-27.6c10-0.8,18.7-1.5,27.8-2.2C360.5,712.1,352.3,719.8,348,729.3z M392.4,730.7
			c-9.9-10.4-18.2-19.7-22.8-32c9-1.3,17.4-2.5,26.8-3.9C395,706.8,393.8,717.9,392.4,730.7z"/>
		<path d="M396.5,635.1c-5.4-4.4-12.9-2-20.4,5.2c-8.5,8.1-10.3,13.7-6.5,20.6c4.6,8.4,14.2,12.6,22.8,9.9c8.6-2.7,13.9-12,13.9-23
			C403.1,643.5,400.5,638.4,396.5,635.1z"/>
		<path d="M341.3,672.2c10.1-1.4,17.3-11.3,16-21.9c-1.2-9.7-9-14.9-20.3-13.4c-9.4,1.2-16.5,11.1-15.1,21.1
			C323.1,667.4,331.5,673.5,341.3,672.2z"/>
		<path d="M412.4,830.7c1.9-8.2-4.9-15.3-13.3-13.4c-1.4,0.3-2.5,1.9-3.8,2.8c1.3,1.1,2.4,2.5,3.8,3.4c2,1.3,4.2,2.2,6.3,3.3
			c-1.9,1.4-3.8,2.8-5.5,4.3c-1.3,1.2-2.4,2.6-3.6,4c1.4,1.2,2.6,2.8,4.2,3.4c2.3,0.9,4.8,1.2,7.3,1.7c0,0.8,0,1.6,0,2.4
			c-2,0.5-4.1,0.8-6,1.5c-1.6,0.6-3.1,1.6-4.6,2.5c1.1,1.6,2.5,4.8,3.3,4.6c4.4-0.8,9.2-1.6,12.7-4c3.7-2.6,2.9-7,0.5-11
			C412.7,834.7,412,832.4,412.4,830.7z"/>
		<path class="st3" d="M392.4,730.7c1.4-12.8,2.7-23.8,4-35.9c-9.4,1.4-17.8,2.6-26.8,3.9C374.2,711,382.4,720.3,392.4,730.7z"/>
		<path class="st3" d="M331.7,702.2c5.1,9.8,9.8,18.7,14.4,27.6c0.6-0.2,1.3-0.3,1.9-0.5c4.2-9.4,12.5-17.2,11.5-29.2
			C350.4,700.7,341.7,701.4,331.7,702.2z"/>
	</g>
</g>
<g>
	<g>
		<path class="st6" d="M503,515.7c4.4-5.4,8.7-10.8,13.1-16.2c3.9-4.8,7.8-9.9,12.7-13.8c4.7-3.7,11-6.5,16.7-3.3
			c4.6,2.6,8.3,8.2,4.6,13c1.3-0.2,2.6-0.3,3.9-0.5c-2.9-3.8,11.6-15.9,14.2-18.1c5.7-4.9,12.1-9.1,18.6-12.8
			c12.9-7.2,26.9-12.4,41-16.7c33.8-10.3,68.9-16.8,104.1-20c3.2-0.3,3.2-5.3,0-5c-38.9,3.6-78.1,10.7-115.2,23.3
			c-15.5,5.3-30.9,12-44.3,21.5c-6.5,4.6-12.5,9.9-17.8,15.9c-3.8,4.3-8.6,9.9-4.3,15.4c1.1,1.4,3.1,0.6,3.9-0.5
			c8.2-10.7-6-23.5-16.9-21.7c-7.6,1.3-13.6,6.6-18.6,12.1c-6.8,7.6-13,15.9-19.5,23.8C497.5,514.7,501,518.2,503,515.7L503,515.7z"
			/>
	</g>
</g>
<g>
	<path d="M774,434.1c-0.6,0-1.2-0.1-1.9-0.2c-0.7-0.1-1.4-0.4-2.1-0.6c-0.7-0.3-1.3-0.6-1.7-1.1c-0.5-0.4-0.7-0.9-0.7-1.6
		c0-0.9,0.5-1.6,1.5-2.1c1-0.5,2.1-0.8,3.3-0.8c1.2,0,2.5-0.1,4-0.3c-0.2-2.6-0.5-5.2-0.7-7.9c-0.3-2.7-0.7-5.5-1.2-8.4
		c-0.1-0.9,0-2,0.3-3.3c0.4-1.3,1-2,2-2.1c1.1-0.1,2,0.3,2.7,1.1c0.8,0.8,1.3,1.8,1.6,3c0.7,2.7,1.2,5.5,1.4,8.3
		c0.2,2.8,0.4,5.6,0.6,8.6c2.2-0.3,4.4-0.6,6.5-1c2.2-0.4,4.3-0.8,6.2-1.1c2-0.4,3.7-0.7,5.3-0.9c1.6-0.3,2.8-0.5,3.7-0.6
		c0.5-0.1,1.1-0.1,1.8-0.1c0.7,0,1.4,0.1,2,0.3c0.6,0.2,1.2,0.5,1.6,0.9c0.4,0.4,0.6,0.9,0.6,1.6c0,0.4-0.1,0.8-0.4,1.3
		c-0.2,0.5-0.7,0.9-1.4,1.3c-0.6,0.3-2,0.7-4.4,1.4c-2.4,0.6-5.3,1.3-8.7,2c-3.4,0.7-7.1,1.3-11,1.8
		C781.1,433.8,777.5,434.1,774,434.1z M799.1,383.2c0.1,2.3,0.1,4.8,0,7.5c-0.1,2.7-0.2,5.3-0.5,7.8c-0.2,2.5-0.6,4.8-0.9,6.8
		c-0.4,2-0.8,3.6-1.2,4.6c-0.1,0.4-0.4,0.9-0.6,1.4c-0.3,0.5-0.6,1-0.9,1.5c-0.3,0.5-0.7,0.9-1,1.2c-0.4,0.3-0.7,0.5-1.2,0.5
		c-1,0-1.7-0.4-2.3-1.2c-0.5-0.8-0.7-1.8-0.4-3.1c0.3-1.5,0.5-3.1,0.8-5c0.2-1.9,0.5-3.8,0.7-5.9c-2.3-0.1-4.6-0.1-7.1,0
		c-2.5,0.1-4.4,0.1-5.7,0.2c-1.4,0.1-2.8-0.1-4.1-0.6c-1.3-0.6-2-1.4-2.1-2.5c0-1.9,1.3-3,3.9-3.3c2.2-0.2,4.7-0.4,7.4-0.4
		c2.7-0.1,5.3,0,8,0.1c0.1-1.6,0.2-3.3,0.3-4.9c0-1.7,0.1-3.2,0.1-4.7c-2.7-0.3-5.4-0.4-8.3-0.3s-5.6,0.3-8.2,0.7
		c-1,0.1-1.9-0.1-2.8-0.7c-0.9-0.6-1.4-1.4-1.4-2.4c0-0.6,0.2-1.2,0.7-1.9c0.5-0.7,1.5-1.2,3-1.6c1.1-0.2,2.5-0.4,4-0.6
		c1.5-0.2,3.1-0.3,4.7-0.3c1.6,0,3.2,0,4.6,0.1c1.5,0.1,2.7,0.2,3.7,0.4C796.8,377.5,799,379.8,799.1,383.2z M794.4,441.2
		c0.6-0.6,1.1-0.9,1.7-1.1c0.6-0.1,1.1-0.2,1.6-0.2c0.8,0,1.5,0.3,2.1,0.8c0.6,0.5,1.1,1.2,1.5,2c0.4,0.8,0.7,1.6,0.9,2.6
		c0.2,0.9,0.3,1.8,0.3,2.7c0,1.3-0.3,2.7-0.9,4c-0.6,1.3-1.4,2.6-2.4,3.8c-1,1.2-2.2,2.3-3.5,3.3c-1.3,1-2.7,1.9-4.1,2.6
		c-1.1,0.6-2.2,0.9-3.4,1.2c-1.2,0.2-2.3,0.2-3.3-0.1c-1-0.2-1.8-0.8-2.5-1.6s-0.9-2-0.9-3.6c0-1.4,0.2-2.8,0.6-4.3
		c0.4-1.5,0.9-2.9,1.5-4.3c0.6-1.4,1.3-2.7,2-4c0.7-1.3,1.5-2.4,2.2-3.4c1.2-1.8,2.6-2.3,4.3-1.6c0.9,0.4,1.5,1,1.9,1.9
		C793.9,441.7,794.1,441.5,794.4,441.2z M788.7,454.8c3.2-1.7,6.1-4,8.5-6.9c0.4-0.9-0.5-1.8-2.6-2.7c-0.4-0.1-0.7-0.3-0.9-0.6
		c-1,1.8-1.9,3.5-2.7,5.2S789.3,453.1,788.7,454.8z"/>
	<path d="M832.4,391.3c1.3,0.8,1.9,1.8,1.8,3c-0.1,1.1-0.6,2.2-1.3,3.2c-0.4,0.6-0.9,1.2-1.3,1.8c-0.5,0.6-0.9,1.3-1.3,2.1
		c3.7,1.2,7.3,2.6,10.9,4.1c3.6,1.5,6.5,3.2,8.6,5.1c1.2,1,1.8,1.9,1.9,2.8c0.1,0.9,0,1.6-0.3,2.1c-0.4,0.6-1,0.8-1.8,0.6
		c-0.9-0.1-1.7-0.4-2.6-0.7c-2.7-1.2-5.8-2.6-9.4-4.2c-3.6-1.6-7.1-3-10.5-4.2c-1.1,2.1-2.2,4.3-3.1,6.5c-0.9,2.3-1.7,4.4-2.3,6.4
		c-0.2,0.7-0.5,1.4-0.8,2s-0.7,1.1-1.2,1.5c-0.5,0.4-1,0.6-1.6,0.7c-0.6,0.1-1.3-0.2-2.1-0.7c-0.8-0.5-1.2-1.3-1.3-2.5
		c-0.1-1.2-0.1-2.1,0.1-2.8c1.1-5,2.8-9.6,5.2-13.9c2.4-4.3,5.3-8.4,8.7-12.4c0.5-0.6,1.1-0.9,1.9-1
		C831.3,390.8,831.9,391,832.4,391.3z M859.4,430.1c0,0.7-0.2,1.4-0.6,2c-0.4,0.6-1.2,1-2.2,1.2c-5.5,1-10.7,2.2-15.5,3.6
		c-4.9,1.4-9.8,3-14.9,4.7c-1.5,0.6-2.9,0.6-4.1,0.2c-1.2-0.4-2-1.2-2.3-2.2c-0.3-0.9,0-1.8,0.9-2.6c0.9-0.8,2-1.5,3.3-2
		c3.7-1.4,8.2-2.8,13.5-4.3c5.3-1.4,11.1-2.4,17.4-3c0.4,0,0.9,0.1,1.4,0.2c0.5,0.1,1,0.3,1.5,0.5c0.5,0.2,0.9,0.5,1.2,0.7
		C859.3,429.4,859.4,429.7,859.4,430.1z"/>
	<path d="M894,412.1c-1.1,0.6-2.7,1.2-4.9,2c-2.2,0.7-4.6,1.5-7.2,2.3c-1.3,0.4-2.5,0.7-3.8,1c-1.3,0.3-2.5,0.5-3.7,0.7
		c-0.1,2.7-0.3,5.1-0.4,7.3c-0.1,2.2-0.1,3.7,0.2,4.6c0.1,0.7,0.3,1.2,0.5,1.6c0.2,0.4,0.8,0.4,1.7,0c1.3-0.4,2.8-1.1,4.4-1.9
		c1.6-0.8,3.3-1.8,5-2.7c1.6-1,3.2-2.1,4.7-3.2c1.5-1.2,2.9-2.3,4.1-3.3c1.4-1.3,2.6-2.3,3.6-3c1-0.6,1.8-0.6,2.4,0
		c0.4,0.4,0.4,1.2,0.2,2.4c-0.2,1.3-0.6,2.4-1.3,3.4c-1.3,2.1-3.2,4.1-5.5,6.1c-2.3,1.9-4.7,3.6-7.2,5.1c-2.5,1.5-4.7,2.7-6.9,3.6
		c-2.1,0.9-3.6,1.5-4.5,1.5c-1.7,0.2-3.3-0.1-4.7-0.9c-1.5-0.8-2.5-2.1-3.1-3.8c-0.4-1.1-0.6-2.5-0.7-4.4s-0.1-4,0.1-6.3
		c0-0.9,0-1.8,0.1-2.7c0-0.9,0.1-1.9,0.2-2.8c-0.1,0-0.1,0-0.2-0.1c0,0-0.1-0.1-0.2-0.1c-0.6-0.1-1.3-0.5-2.2-1.1
		c-0.9-0.6-1.3-1.3-1.3-2.3c0-0.9,0.4-1.5,1.3-1.9c0.8-0.4,1.7-0.6,2.4-0.7c0.3,0,0.5,0,0.6-0.1c0.1-0.5,0.1-1,0.2-1.4
		c0-0.5,0.1-0.9,0.3-1.4c0.1-1.4,0.3-2.8,0.5-4.1c0.2-1.3,0.4-2.5,0.5-3.5c-0.6,0.1-1,0.2-1.3,0.2c-0.4,0.1-1,0.1-1.6,0.1
		c-0.7,0-1.3-0.2-1.8-0.4c-1.4-0.5-2.1-1.2-2.1-2.2c0.1-0.9,0.6-1.7,1.7-2.2c1.1-0.6,2-1,2.8-1.3c0.8-0.2,1.8-0.4,3.2-0.7
		c1.3-0.2,2.8-0.5,4.3-0.8c1.5-0.2,3-0.4,4.5-0.5c1.5-0.1,2.9-0.2,4.1-0.1c1.1,0,2.3,0.2,3.6,0.6c1.3,0.4,2,1,2.2,1.8
		c0.1,0.5-0.1,1-0.4,1.4c-0.3,0.5-0.7,0.8-1.1,1.1c-0.5,0.4-1,0.6-1.5,0.8c-0.5,0.2-1,0.3-1.4,0.3c-2.6,0.2-5.3,0.5-8,0.9
		c-0.3,1.4-0.5,3-0.7,4.7c-0.2,1.7-0.4,3.5-0.6,5.4c2.7-0.5,5.4-1,8-1.6c2.6-0.6,5-1.1,7.1-1.7c0.9-0.4,2-0.6,3.2-0.6
		c1.2-0.1,2.2,0.2,3,0.9c0.3,0.3,0.3,0.9,0.2,1.7C896.2,410.6,895.4,411.4,894,412.1z M921.3,395.4c0-2,0.9-3,2.6-2.7
		c0.8,0.1,1.7,0.5,2.6,1c0.9,0.5,1.3,1.2,1.2,2c0.1,2.2,0.1,4.6,0.2,7.3c0.1,2.7,0.1,5.4,0.1,8.1s0,5.4-0.1,8.1
		c0,2.7-0.1,5.1-0.2,7.3c0,1.1-0.4,1.9-1.3,2.5c-0.8,0.6-1.5,0.8-2,0.7c-1.5-0.4-2.4-1.7-2.6-3.8c-0.1-2.7-0.1-5.7-0.2-9.2
		c0-3.4-0.1-6.9-0.2-10.3c-1,0.4-2,0.8-3,1.2c-1,0.5-2,0.9-3,1.3c-2,0.8-3.8,1.7-5.6,2.4c-1.8,0.8-3.3,1.4-4.6,2
		c-1.1,0.4-2.3,0.4-3.4-0.1c-1.3-0.5-1.9-1.2-1.9-2.1c0.1-1.3,1.4-2.7,3.9-4c1.1-0.6,2.6-1.2,4.4-2c1.8-0.8,3.7-1.6,5.7-2.4
		c1.2-0.5,2.4-1,3.6-1.5c1.2-0.5,2.4-0.9,3.6-1.4c0-0.8,0-1.5-0.1-2.2C921.3,396.8,921.3,396.1,921.3,395.4z"/>
</g>
</svg>
