<?xml version="1.0" encoding="utf-8"?>
<!-- Generator: Adobe Illustrator 21.0.2, SVG Export Plug-In . SVG Version: 6.00 Build 0)  -->
<svg version="1.1" id="Layer_1" xmlns="http://www.w3.org/2000/svg" xmlns:xlink="http://www.w3.org/1999/xlink" x="0px" y="0px"
	 viewBox="0 0 629.6 795" style="enable-background:new 0 0 629.6 795;" xml:space="preserve">
<style type="text/css">
	.st0{fill:#FFF0C3;}
	.st1{fill:#0E160F;}
	.st2{fill:#FFF0C4;}
	.st3{fill:#603A17;}
	.st4{fill:#F1604B;}
	.st5{fill:#030303;stroke:#0E160F;stroke-width:2;stroke-miterlimit:10;}
</style>
<g>
	<g>
		<path d="M423.7,402.8c2.2-7.8,3.8-16.4,7.2-23.8c1.5-3.3,3.9-7.2,7.7-7.9c3.4-0.7,8.8,1.6,7.8,5.7c1.2-0.5,2.4-1,3.7-1.5
			c-2.6-1.5,3.6-13.4,4.6-15.2c2.3-4.5,5.2-8.8,8.3-12.8c6.5-8.3,14.2-15.4,22.3-22.1c18.2-15.1,38.1-28.3,58.9-39.5
			c2.8-1.5,0.3-5.9-2.5-4.3c-23.7,12.8-46.5,28-66.6,46c-8.8,7.9-16.9,16.7-22.9,26.8c-3.1,5.3-12.6,20.8-4.7,25.5
			c1.3,0.8,3.3,0.1,3.7-1.5c2.1-9.1-9.3-14.8-16.8-10.8c-4.8,2.5-7.5,7.6-9.3,12.5c-2.6,7-4.3,14.5-6.4,21.8
			C418,404.5,422.8,405.8,423.7,402.8L423.7,402.8z"/>
	</g>
</g>
<g>
	<g>
		<path class="st0" d="M247.5,65.8c-54.6-22.3-126.2,46.1-148.9,89.9c-17.7,31.5-28.5,70.9-23.2,107c5,28.1,21.7,43.6,33.3,67.4
			c-133.8,98.8-156.3,419.6,52,452.7c91.9,14.3,206.6-13.9,287.1-59.7c56.7-32.9,81.3-99.6,67-162.3c-19.1-85.4-84.2-180-162.2-219
			c143.9-76.3,0.1-270.3-122.6-278.2"/>
		<g>
			<path class="st1" d="M248.3,62.9c-42.9-17-89.2,16.4-117.8,45.5c-35.8,36.5-60.8,87.3-59.4,139.2c0.4,16,4.3,30.8,11.8,44.9
				c7.2,13.4,16.4,25.6,23.2,39.2c0.4-1.4,0.7-2.7,1.1-4.1c-26.3,19.5-46.9,45.8-62.6,74.4c-17.2,31.4-28.8,65.8-35.3,101
				C2.7,538.5,1.2,575.2,6,611.1c4.5,33.7,14.8,67,33,95.9c17.8,28.2,43.1,51.1,73.6,64.8c43,19.3,92.8,20.3,139,15.8
				c57.4-5.6,114.1-21.3,166.4-45.7c23.9-11.1,47.1-23.6,65-43.3c16.6-18.2,28.3-40.7,34.2-64.7c12.5-51.1-4-103.4-27-149.2
				c-24.5-48.7-59.6-93.7-103.9-125.8c-10.2-7.4-20.9-14-32.2-19.7c0,1.7,0,3.5,0,5.2c23.8-12.7,44.6-31.4,54.8-56.9
				c9-22.6,8.5-47.7,2.2-70.9c-14.2-52.3-53.8-97.7-98.7-126.5c-24.7-15.9-52.9-27.5-82.4-29.5c-3.9-0.3-3.8,5.7,0,6
				c51.7,3.5,99.3,36.7,132.3,74.7c30.9,35.6,57.4,86.6,44.1,134.8c-7.9,28.6-29.8,49.3-55.3,63c-1.9,1-2,4.2,0,5.2
				c47.2,23.8,85.3,63.9,113.7,107.9c14.6,22.6,26.9,46.7,36.1,72c8.6,23.6,15.2,48.4,14.9,73.7c-0.6,50.3-26.7,98.2-70.8,123.3
				c-48.5,27.5-102.7,45.7-157.5,55.4c-27.6,4.9-55.8,7.4-83.9,6.8c-22.7-0.5-45.7-2.8-67.5-9.3c-31.7-9.5-59.6-28.2-80.3-54
				c-20.4-25.4-33.1-56.4-40-88.1c-7.3-33.9-8.2-69.1-4.2-103.5c4-34.7,13-69.2,27.2-101.2c13.2-29.7,31-57.9,54.6-80.5
				c5.3-5.1,11-9.9,16.9-14.3c1.4-1,1.9-2.5,1.1-4.1c-11.7-23.6-30.6-43.7-33.5-70.9c-3-28.6,3.4-57.8,15.1-83.9
				c17.7-39.8,48.9-75.5,87.4-96.4c20.2-11,44.2-17.5,66.4-8.7C250.3,70.1,251.8,64.3,248.3,62.9L248.3,62.9z"/>
		</g>
	</g>
	<g>
		<path class="st2" d="M135.8,529.6c12.3,5,42.2,14.7,50.7,27.8c8.4,10.5,4.3,6.6,2,20.1c-3.1,27-19.6,55.8-28.1,83"/>
		<g>
			<path class="st1" d="M135,532.5c11.2,4.5,22.6,8.4,33.2,14.1c4.9,2.7,10,5.7,13.8,9.9c2.5,2.7,7.1,6.9,6.3,10.7
				c-0.5,2.2-1.5,4.3-2,6.5c-1,4.2-1.3,8.6-2.2,12.8c-1.7,7.9-4.3,15.7-7.1,23.3c-6.2,16.7-13.9,32.9-19.3,49.9
				c-1.2,3.7,4.6,5.3,5.8,1.6c8.9-28.2,23.4-54,28.2-83.4c0.6-3.9,2.7-7.7,3-11.6c0.2-3.4-2.1-6.1-4-8.7
				c-6.2-8.1-13.7-13.5-22.8-18.1c-10.1-5-20.7-8.7-31.1-12.9C133,525.3,131.4,531.1,135,532.5L135,532.5z"/>
		</g>
	</g>
	<g>
		<path class="st2" d="M388.4,485.9c-20.7,22.2-45.7,39.2-26.1,62.8c18.2,20.9,49.6,34.6,71.7,51.3"/>
		<g>
			<path class="st1" d="M386.3,483.8c-10.1,10.8-22.8,20.7-30,33.8c-6.4,11.5-4.4,23.3,4,33.2c19.2,22.8,48.9,34.2,72.3,51.8
				c3.1,2.3,6.1-2.9,3-5.2c-21.4-16-46.7-26.8-66-45.5c-9.6-9.3-14.9-20-7.4-32.4c7.2-12.1,18.9-21.3,28.4-31.4
				C393.2,485.2,388.9,480.9,386.3,483.8L386.3,483.8z"/>
		</g>
	</g>
	<g>
		<path class="st2" d="M301.9,312.3c-37-15-70.3,6.5-89.6,36.6"/>
		<g>
			<path class="st1" d="M302.7,309.4c-17.4-6.8-36.1-6.4-53.1,1.4c-16.7,7.7-30,21.3-39.9,36.6c-2.1,3.2,3.1,6.3,5.2,3
				c9.1-14,21.3-26.4,36.5-33.8c15.9-7.7,33.4-7.8,49.8-1.4C304.7,316.6,306.3,310.8,302.7,309.4L302.7,309.4z"/>
		</g>
	</g>
	<g>
		<path class="st3" d="M292.3,77.7c-0.6-17.5,8.1-37.9,18.4-51.7c20.6-26.3,43.7-19,71.1-5.1c-29.2,11.8-81.1,27-86.6,63.5"/>
		<g>
			<path class="st1" d="M295.3,77.7c-0.2-11.8,3.2-23.5,8.3-34.1c4.9-10.1,11.3-20.4,20.9-26.7c17.7-11.8,39-2,55.8,6.5
				c0.2-1.8,0.5-3.7,0.7-5.5c-18.2,7.3-36.9,13.5-54,23.4c-16.2,9.4-31.5,22.9-34.7,42.2c-0.6,3.8,5.2,5.4,5.8,1.6
				c3.1-18.8,18.4-31.1,34.1-39.8c16-8.9,33.4-14.8,50.4-21.6c2.2-0.9,3.3-4.2,0.7-5.5c-18.9-9.5-42.2-19.6-61.9-6.5
				c-10.4,6.9-17.7,17.8-23,28.9c-5.6,11.5-9.3,24.2-9.1,37.1C289.3,81.6,295.3,81.6,295.3,77.7L295.3,77.7z"/>
		</g>
	</g>
	<g>
		<path class="st4" d="M303.1,78.7c22.5-10.2,53-22,77.4-17.5c27,4.4,21.3,32.9,1.6,47c-19.7,12.8-61.1-18.1-83-28.1"/>
		<g>
			<path class="st1" d="M304.6,81.3c16.9-7.6,34.6-14.7,53.1-17.3c11.7-1.6,35-3,37.9,12.7c2,11.1-7.3,26-17.5,30.2
				c-11.4,4.7-26.2-2.5-36.4-7.4c-14-6.7-27-15.5-41.1-22c-3.5-1.6-6.5,3.6-3,5.2c14.9,6.9,28.6,16.2,43.5,23.1
				c11.7,5.4,27.4,12.1,40.2,6.2c11.8-5.5,21.7-21.2,20.5-34.3c-1.4-16.1-18.1-20.4-31.8-20.6c-23.8-0.3-47,9.3-68.4,18.9
				C298,77.7,301.1,82.8,304.6,81.3L304.6,81.3z"/>
		</g>
	</g>
	<g>
		<path class="st4" d="M288.4,81.9c-2.1-21.4-8.4-48.1-23.7-63.7c-22.2-20.7-52.3,4.5-76,20.1c39.1,4,77,10.8,102.4,43.5"/>
		<g>
			<path class="st1" d="M291.4,81.9c-1.4-14-4.1-28.1-9.3-41.2c-4.6-11.4-11.5-24.3-22.9-30c-24.9-12.5-52.7,12.3-72,25.1
				c-2.6,1.7-1.4,5.3,1.5,5.6c37.4,3.9,75.7,11.4,100.2,42.6c2.4,3,6.6-1.2,4.2-4.2c-25.5-32.5-65.6-40.4-104.5-44.4
				c0.5,1.9,1,3.7,1.5,5.6c10.5-7,20.6-14.6,31.8-20.4c10.2-5.4,23-10.2,34.1-4.6c10.8,5.4,17.2,18.4,21.2,29.3
				c4.4,11.8,6.8,24.3,8,36.8C285.8,85.7,291.8,85.7,291.4,81.9L291.4,81.9z"/>
		</g>
	</g>
	<g>
		<g>
			<path class="st1" d="M195.7,194.7c-14.2-1.6-28.1-4.5-42.4-5.1c-10.9-0.5-29.6-1.2-35.3,10.7c-2.8,5.8-0.9,13.4,2.5,18.6
				c4.5,7,12.5,11.3,20.6,12.4c7.9,1,16.2-1.3,21.2-7.8c4.4-5.8,6-14.3,0.8-20.2c-11.2-12.4-35.3-4.5-37.4,11.7c-0.2,1.6,1.5,3,3,3
				c6.7,0,17.5,1.1,21.8-5.3c2.1-3.2-3.1-6.2-5.2-3c-2.4,3.6-12.9,2.3-16.6,2.3c1,1,2,2,3,3c1.4-10.9,20.2-15.9,27.2-7.4
				c4.2,5.1-0.3,12.7-5,15.6c-5.6,3.5-13,2.8-18.8,0.3c-8-3.5-18.7-17.7-8-24.3c9-5.5,22.7-4,32.6-3.2c12.1,1,24,3.4,36.1,4.7
				C199.6,201.2,199.5,195.2,195.7,194.7L195.7,194.7z"/>
		</g>
	</g>
	<g>
		<g>
			<path class="st1" d="M159.3,215.8c-3.8-0.1-7.5-1.9-11.3-1.7c-4.3,0.2-6.9,3.3-8.5,7c-0.8,1.8-0.2,3.8,1.8,4.4
				c4,1.3,8.9,2.1,12.1-1.4c2.5-2.7,2.9-6.6,4.8-9.6c2.1-3.3-3.1-6.3-5.2-3c-1.4,2.3-2,4.9-3.2,7.3c-1.4,2.9-4.2,1.8-6.8,0.9
				c0.6,1.5,1.2,2.9,1.8,4.4c1.3-3.1,2.4-4.5,5.8-3.8c3,0.6,5.8,1.4,8.9,1.5C163.2,221.9,163.2,215.9,159.3,215.8L159.3,215.8z"/>
		</g>
	</g>
	<g>
		<g>
			<path class="st1" d="M334.2,189c-11.5,0-22.9-0.4-34.4,0.6c-11.3,1-26.3,2.3-34.7,10.9c-8.1,8.4-3.9,23.3,7.3,26.5
				c11.9,3.3,30.6-4.6,30.3-18.7c-0.2-7.7-5.2-14.7-13.3-14.8c-8-0.1-15.5,5.5-19.2,12.4c-1.1,2,0.3,4.5,2.6,4.5
				c5,0.1,9.3,1.4,14.2-0.1c3.1-0.9,2.7-6.3-0.8-5.9c-4.8,0.6-10,3.5-13.6,6.6c-2.6,2.3,0.7,6.3,3.6,4.7c3.8-2,10.1-5.5,11.9-9.7
				c0.5-1.2-0.3-2.8-1.4-3.4c-1.4-0.8-2.5-0.4-3.9,0.3c-1.7,0.8-1.9,3.5-0.6,4.7c2,1.9,4.6,4,7.5,3.2c2.5-0.7,3.6-3.3,5.7-4.6
				c3.3-2,0.3-7.2-3-5.2c-1.2,0.7-2.1,1.5-3.1,2.6c-1.6,1.7-0.7,1.8-2.9-0.2c-0.2,1.6-0.4,3.1-0.6,4.7c-0.7-0.1-1.4-0.2-2.1-0.3
				c-0.5-1.1-0.9-2.3-1.4-3.4c0.8-1.9-0.2-0.1-1,0.5c-0.9,0.6-1.7,1.3-2.5,2c-1.8,1.3-3.6,2.6-5.6,3.7c1.2,1.6,2.4,3.1,3.6,4.7
				c2.2-1.9,6.4-4.5,9.4-4.9c-0.3-2-0.5-3.9-0.8-5.9c-4.2,1.3-8.3,0-12.6-0.1c0.9,1.5,1.7,3,2.6,4.5c2.6-4.8,7.8-9.3,13.6-9.4
				c6.1-0.1,9.2,6.8,7.2,12.1c-3.2,8.6-20.5,14.6-26.9,6.6c-6-7.4-0.4-14.6,6.7-17.7c9.4-4.1,20.4-4.9,30.5-5.3
				c9.2-0.5,18.4-0.2,27.7-0.1C338.1,195,338.1,189,334.2,189L334.2,189z"/>
		</g>
	</g>
</g>
<ellipse class="st5" cx="140.1" cy="210.6" rx="19.2" ry="15.1"/>
<ellipse class="st5" cx="283.1" cy="209.6" rx="19.2" ry="15.1"/>
<g>
	<path d="M504.8,229.4c0-0.2,0.1-0.4,0.2-0.6s0.2-0.4,0.3-0.7c-0.2,0-0.4,0.1-0.6,0.1c-0.2,0-0.4,0-0.6,0c-0.9,0.1-1.7,0-2.3-0.3
		c-0.6-0.4-1-0.7-1.1-1.2c-0.5,0.2-1.1,0.3-1.8,0.3c-2.1-0.1-4.1-0.2-6-0.3c-1.9-0.1-4.1-0.1-6.6-0.1c-0.5,0-0.9-0.1-1.4-0.3
		s-0.8-0.5-1-0.8c-0.3-0.3-0.5-0.7-0.7-1c-0.2-0.3-0.2-0.6-0.2-0.9c0-0.4,0.2-0.7,0.5-1c0.3-0.3,0.9-0.5,1.6-0.6
		c0.7,0,1.5-0.1,2.5,0c1,0,2,0.1,3.1,0.1c1.1,0.1,2.2,0.2,3.3,0.3c1.1,0.1,2.1,0.3,3,0.6c0.7,0.2,1.5,0.6,2.3,1
		c0.9,0.4,1.5,0.9,1.8,1.4c0.3-0.3,0.6-0.6,1-0.8c0.4-0.2,0.7-0.3,0.9-0.4c1.1-0.2,2.4-0.3,3.8-0.3c1.4,0,2.7,0.2,3.6,0.4
		c0.5,0.1,1.1,0.4,1.8,0.7c0.7,0.3,1.1,0.8,1.2,1.4c0.1,0.5,0.1,0.8-0.1,1.1c-0.2,0.2-0.4,0.4-0.7,0.5c-0.3,0.1-0.7,0.1-1.1,0
		c-0.4,0-0.8-0.1-1.1-0.1h-2.1c0.4,0.4,0.6,0.8,0.7,1.3c0.1,0.5,0.2,1,0.1,1.5c-0.2,0.8-0.4,1.8-0.6,2.9c-0.2,1.1-0.4,2.3-0.6,3.5
		c-0.2,1.2-0.3,2.3-0.5,3.4c-0.2,1.1-0.3,2-0.3,2.9c2.3-1.3,4.2-2.6,5.8-3.9c1.6-1.3,3.1-2.6,4.6-4.1c0.6-0.7,1.2-1.1,1.7-1.2
		c0.5-0.2,0.9-0.2,1,0c0.1,0.1,0.2,0.3,0.2,0.8c0,0.4-0.2,1.1-0.7,2c-0.5,1-1.4,2.2-2.4,3.5c-1.1,1.3-2.2,2.5-3.5,3.7
		c-1.2,1.1-2.5,2.1-3.7,2.9c-1.3,0.8-2.3,1.2-3.2,1.2c-1.6,0.1-2.8-0.4-3.4-1.6s-1-2.4-1-3.7c0-0.5,0.1-1.1,0.1-1.6
		c0-0.5,0.1-1.1,0.2-1.7c-0.9,0.5-2,0.9-3.1,1.3c-1.1,0.4-2.2,0.7-3.3,1c-1.1,0.3-2.1,0.6-3,0.8c-0.9,0.2-1.8,0.4-2.4,0.5
		c-1.1,0.2-2,0.1-2.9-0.5c-0.8-0.6-1.2-1.6-1-3.2c0.4-3.9,1.2-7.1,2.4-9.8c0.2-0.4,0.4-0.9,0.8-1.3c0.3-0.4,0.7-0.6,1.1-0.6
		c0.4,0,0.7,0.1,0.9,0.4c0.2,0.2,0.4,0.5,0.6,0.9s0.2,0.7,0.2,1.1c0,0.4,0,0.7,0,1c-0.4,1.5-0.6,2.9-0.7,4.2c-0.1,1.3-0.2,2.3-0.3,3
		c2-0.3,4-0.8,6-1.4c2-0.6,3.8-1.2,5.4-1.8c0.1,0,0.2,0,0.2-0.1c0.2-1.1,0.4-2.2,0.6-3.2C504.4,230.9,504.6,230.1,504.8,229.4z
		 M529.5,248.8c-0.9,1.1-1.8,2.4-2.7,3.7c-0.9,1.3-1.6,2.9-2.2,4.8c1.4-0.5,2.7-1.1,3.9-1.8c1.2-0.7,2.2-1.5,3.2-2.6
		c0.4-0.4,0.5-0.9,0.4-1.3c-0.1-0.5-0.2-0.9-0.4-1.4c-0.2-0.5-0.3-0.9-0.4-1.3c-0.1-0.4,0.1-0.9,0.5-1.3c0.3-0.3,0.7-0.5,1-0.5
		c0.4,0,0.7,0.1,1,0.3c0.3,0.2,0.6,0.5,0.9,0.8s0.5,0.7,0.7,1c0.6,1.3,0.8,2.6,0.7,3.9c-0.1,1.3-0.7,2.5-1.7,3.6
		c-1.5,1.4-3,2.6-4.5,3.4c-1.5,0.9-3.1,1.5-4.6,1.9c-1.4,0.3-2.5,0.2-3.4-0.5c-0.9-0.7-1.4-1.5-1.5-2.6c-0.1-1.3,0-2.5,0.3-3.7
		c0.3-1.2,0.8-2.4,1.4-3.5c0.6-1.1,1.3-2.2,2.1-3.1c0.8-1,1.7-1.8,2.7-2.6c1.2-0.8,2-1,2.6-0.6c0.6,0.5,0.9,1.1,0.8,1.7
		C530.2,247.7,529.9,248.3,529.5,248.8z M527.7,240c0,0.8-0.4,1.3-0.9,1.6c-0.6,0.3-1.2,0.3-1.8,0.2c-0.3-0.1-0.7-0.4-1.1-0.8
		c-0.4-0.4-0.6-1-0.6-1.7c0-4.5,0.1-8.7,0.4-12.6c0.3-4,0.7-7.5,1.1-10.8c0.1-1,0.3-1.6,0.8-2.1c0.4-0.4,0.9-0.6,1.4-0.6
		c0.3,0,0.6,0.2,0.9,0.5c0.3,0.3,0.6,0.6,0.8,0.9c0.2,0.3,0.4,0.7,0.5,1.1c0.1,0.4,0.1,0.7,0.1,1.1c-0.2,1.3-0.4,2.7-0.5,4
		c-0.1,1.4-0.3,2.7-0.4,4.1c1.6-0.5,3.3-0.8,5.2-1c1.9-0.2,4.2-0.3,6.9-0.2c0.7,0,1.4,0.3,2.1,0.7c0.7,0.4,1,0.9,1,1.5
		c-0.2,0.8-0.7,1.3-1.3,1.6c-0.6,0.2-1.3,0.3-2,0.3c-0.5,0-1,0-1.8,0c-0.7,0-1.5,0.1-2.4,0.2c-0.9,0.1-1.7,0.2-2.7,0.4
		c-0.9,0.2-1.8,0.3-2.6,0.5c-1,0.3-1.9,0.1-2.7-0.4C527.9,232.2,527.8,236,527.7,240z"/>
	<path d="M557,219c0.9,0.6,1.2,1.2,1.1,2c-0.1,0.8-0.4,1.5-0.8,2.1c-0.3,0.4-0.6,0.8-0.8,1.2s-0.6,0.9-0.8,1.4
		c2.3,0.8,4.7,1.7,7,2.8c2.3,1,4.2,2.2,5.5,3.4c0.8,0.7,1.2,1.3,1.2,1.9c0,0.6,0,1.1-0.2,1.4c-0.2,0.4-0.6,0.5-1.2,0.4
		c-0.6-0.1-1.1-0.3-1.7-0.5c-1.7-0.8-3.7-1.7-6-2.8c-2.3-1.1-4.6-2-6.7-2.8c-0.7,1.4-1.4,2.9-2,4.4c-0.6,1.5-1.1,3-1.5,4.4
		c-0.1,0.5-0.3,0.9-0.5,1.4c-0.2,0.4-0.5,0.8-0.8,1c-0.3,0.3-0.7,0.4-1,0.5c-0.4,0-0.8-0.1-1.3-0.5c-0.5-0.3-0.8-0.9-0.8-1.7
		c-0.1-0.8-0.1-1.4,0-1.9c0.7-3.4,1.8-6.5,3.3-9.4c1.6-2.9,3.4-5.7,5.6-8.4c0.3-0.4,0.7-0.6,1.2-0.7
		C556.3,218.7,556.7,218.8,557,219z M574.3,245.3c0,0.5-0.1,0.9-0.4,1.3c-0.3,0.4-0.7,0.7-1.4,0.8c-3.5,0.7-6.8,1.5-9.9,2.4
		c-3.1,1-6.3,2-9.5,3.2c-1,0.4-1.9,0.4-2.6,0.1s-1.3-0.8-1.5-1.5c-0.2-0.6,0-1.2,0.6-1.8c0.6-0.6,1.3-1,2.1-1.4
		c2.4-1,5.3-1.9,8.6-2.9c3.4-1,7.1-1.7,11.1-2c0.3,0,0.6,0,0.9,0.1c0.3,0.1,0.6,0.2,0.9,0.3c0.3,0.1,0.6,0.3,0.8,0.5
		C574.2,244.8,574.3,245,574.3,245.3z"/>
	<path d="M596.5,233.1c-0.7,0.4-1.7,0.8-3.1,1.3c-1.4,0.5-2.9,1-4.6,1.5c-0.8,0.2-1.6,0.5-2.5,0.7c-0.8,0.2-1.6,0.4-2.4,0.5
		c-0.1,1.8-0.2,3.5-0.2,4.9c-0.1,1.5,0,2.5,0.1,3.1c0.1,0.5,0.2,0.8,0.3,1.1c0.1,0.2,0.5,0.2,1.1,0c0.9-0.3,1.8-0.7,2.8-1.3
		c1-0.6,2.1-1.2,3.2-1.9c1-0.7,2-1.4,3-2.2c1-0.8,1.9-1.5,2.6-2.2c0.9-0.9,1.7-1.6,2.3-2c0.6-0.4,1.1-0.4,1.6,0
		c0.2,0.2,0.3,0.8,0.1,1.6c-0.1,0.9-0.4,1.6-0.8,2.3c-0.9,1.4-2,2.8-3.5,4.1c-1.5,1.3-3,2.5-4.6,3.5s-3,1.8-4.4,2.5
		c-1.4,0.6-2.3,1-2.9,1c-1.1,0.1-2.1-0.1-3-0.6s-1.6-1.4-2-2.6c-0.2-0.7-0.4-1.7-0.4-3c-0.1-1.3-0.1-2.7,0-4.3c0-0.6,0-1.2,0-1.9
		c0-0.6,0.1-1.3,0.1-1.9c0,0-0.1,0-0.1,0c0,0-0.1,0-0.1,0c-0.4-0.1-0.8-0.3-1.4-0.7c-0.6-0.4-0.8-0.9-0.8-1.6c0-0.6,0.3-1,0.8-1.3
		c0.5-0.2,1.1-0.4,1.6-0.5c0.2,0,0.3,0,0.4-0.1c0-0.3,0.1-0.7,0.1-1c0-0.3,0.1-0.6,0.2-1c0.1-1,0.2-1.9,0.3-2.7
		c0.1-0.9,0.2-1.7,0.3-2.4c-0.4,0.1-0.6,0.1-0.8,0.1c-0.3,0-0.6,0.1-1,0c-0.4,0-0.8-0.1-1.2-0.3c-0.9-0.3-1.4-0.8-1.4-1.5
		c0-0.6,0.4-1.1,1.1-1.5c0.7-0.4,1.3-0.7,1.8-0.9c0.5-0.1,1.2-0.3,2-0.5c0.9-0.2,1.8-0.3,2.8-0.5c0.9-0.1,1.9-0.3,2.9-0.4
		c1-0.1,1.8-0.1,2.6-0.1c0.7,0,1.5,0.1,2.3,0.4s1.3,0.7,1.4,1.2c0,0.3,0,0.7-0.2,1c-0.2,0.3-0.4,0.6-0.7,0.7c-0.3,0.2-0.6,0.4-1,0.5
		c-0.3,0.1-0.6,0.2-0.9,0.2c-1.7,0.1-3.4,0.4-5.1,0.6c-0.2,1-0.3,2-0.5,3.2c-0.1,1.2-0.3,2.4-0.4,3.7c1.8-0.3,3.5-0.7,5.1-1.1
		c1.7-0.4,3.2-0.8,4.5-1.1c0.6-0.2,1.3-0.4,2-0.4c0.8,0,1.4,0.2,1.9,0.6c0.2,0.2,0.2,0.6,0.1,1.2
		C597.9,232.1,597.4,232.6,596.5,233.1z M614,221.8c0-1.4,0.6-2,1.7-1.9c0.5,0.1,1.1,0.3,1.7,0.7c0.6,0.4,0.8,0.8,0.8,1.3
		c0,1.5,0.1,3.1,0.1,4.9c0,1.8,0.1,3.6,0.1,5.5s0,3.7,0,5.5c0,1.8-0.1,3.5-0.1,4.9c0,0.7-0.3,1.3-0.8,1.7c-0.5,0.4-1,0.6-1.3,0.5
		c-1-0.3-1.6-1.1-1.7-2.6c0-1.8-0.1-3.9-0.1-6.2c0-2.3-0.1-4.7-0.1-7c-0.6,0.2-1.3,0.5-1.9,0.8c-0.7,0.3-1.3,0.6-1.9,0.9
		c-1.3,0.6-2.5,1.1-3.6,1.6c-1.1,0.5-2.1,1-2.9,1.4c-0.7,0.3-1.4,0.3-2.2-0.1c-0.8-0.3-1.2-0.8-1.2-1.4c0-0.9,0.9-1.8,2.5-2.7
		c0.7-0.4,1.7-0.8,2.8-1.4c1.1-0.5,2.4-1.1,3.7-1.6c0.8-0.3,1.5-0.7,2.3-1c0.8-0.3,1.6-0.6,2.3-0.9c0-0.5,0-1,0-1.5
		C614,222.8,614,222.3,614,221.8z"/>
</g>
</svg>
