<?xml version="1.0" encoding="utf-8"?>
<!-- Generator: Adobe Illustrator 21.0.2, SVG Export Plug-In . SVG Version: 6.00 Build 0)  -->
<svg version="1.1" id="Layer_1" xmlns="http://www.w3.org/2000/svg" xmlns:xlink="http://www.w3.org/1999/xlink" x="0px" y="0px"
	 viewBox="0 0 707.6 795" style="enable-background:new 0 0 707.6 795;" xml:space="preserve">
<style type="text/css">
	.st0{fill:#FFFFFF;}
	.st1{fill:#010101;}
	.st2{fill:#EEF3CA;}
	.st3{fill:#D4E48F;}
	.st4{fill:#CA2727;}
</style>
<g>
	<g>
		<path d="M398.4,101.6c7.3-4,14.7-9.2,22.5-11.9c3.7-1.3,8.5-2.1,11.5,1c2.2,2.2,3.6,6.7,0.4,8.7c1.2,0.5,2.4,1,3.7,1.5
			c-0.6-3.1,13.1-7.2,15.1-7.8c5.2-1.5,10.5-2.5,15.9-3c10.3-1,20.6-0.5,30.8,0.6c23.1,2.3,45.9,7.1,68.1,13.8
			c3.1,0.9,4.4-3.9,1.3-4.8C542.3,92,515.6,86.5,489,84.9c-11.8-0.7-23.9-0.4-35.4,2.5c-5.6,1.4-11.2,3.4-16.3,6.2
			c-3.5,1.9-6.5,4.3-5.6,8.6c0.3,1.6,2.4,2.3,3.7,1.5c7.5-4.6,4.3-15.7-2.8-19c-5.1-2.3-11-0.8-15.9,1.3
			c-7.2,3.1-13.9,7.4-20.8,11.2C393,98.9,395.5,103.2,398.4,101.6L398.4,101.6z"/>
	</g>
</g>
<g>
	<path class="st0" d="M313.6,439.4c50.9,6.8,102.9,7.3,152.8,20.3c28.7,7.9,24.8,12.1,11,38.8c-16.2,31.1-39.5,67.4-36.2,105
		c15.9-0.6,31.2-7.7,46.9-6.8c5.1,36.2-46.6,34.1-70.2,33.5c-26.6-1.2-26.6-1.2-23.5-29.6c2.8-26.9,14.9-52.2,14.4-78
		c-2.7-69.6-130.3-13.4-115.7-83.3"/>
	<g>
		<path class="st1" d="M313.6,442.4c49.7,6.5,100.4,7.2,149.3,19.5c6.3,1.6,15.3,3.1,20.3,7.7c3.3,3.1,1.3,7.8-0.3,11.4
			c-7.8,18.2-18.7,35-27.4,52.8c-10.6,21.7-19.2,45.2-17.3,69.7c0.1,1.6,1.3,3.1,3,3c15.8-0.8,30.9-7.4,46.9-6.8c-1-1-2-2-3-3
			c3.9,31.1-37.8,31-58.9,30.7c-6.5-0.1-13.1-0.2-19.6-0.8c-3.5-0.3-8.4-0.5-9.9-4.2c-2-4.8-0.3-12.1,0.3-17
			c1.2-11.5,3.5-22.7,6.4-33.9c6.6-25.6,18.9-63.3-8.7-81c-17.7-11.4-41-11-61.2-13.7c-10-1.3-21.3-2.9-29.7-8.9
			c-9.1-6.5-9.7-17.6-7.6-27.8c0.8-3.8-5-5.4-5.8-1.6c-2,10-2.1,20.9,4.6,29.2c5.8,7.2,15.1,10.5,23.9,12.6c21.8,5,45.7,2.9,66.4,12
			c34.6,15.2,16.6,59.2,10.2,86.3c-2.5,10.6-4,21.2-5,32.1c-0.4,4.9-1.1,10.9,1.4,15.4c2.2,3.9,6.4,5.3,10.6,5.9
			c6.7,1.1,13.6,1.1,20.3,1.3c24.9,0.6,73,0.2,68.4-36.6c-0.2-1.7-1.2-2.9-3-3c-16-0.7-31,5.9-46.9,6.8c1,1,2,2,3,3
			c-1.9-24.6,7.1-48.1,18-69.7c5.1-10.2,10.7-20.1,16-30.2c3.9-7.3,8.1-14.6,11.1-22.3c1.7-4.3,2.7-9.3,0.1-13.4
			c-3-4.8-9.3-6.9-14.4-8.6c-23.1-7.8-48.1-10.9-72.3-13.6c-29.7-3.4-59.5-5.2-89.1-9.1C309.8,435.9,309.8,442,313.6,442.4
			L313.6,442.4z"/>
	</g>
</g>
<g>
	<path class="st0" d="M191.1,468.7c-20.8,50-19.8,115.7-18.8,168.8c0,28.1,3.1,55.2,6.3,83.4c-28.1-21.9-94.8-11.5-91.7,33.4
		c3.1,37.5,46.9,43.8,76.1,39.6c17.7-2.1,35.4-6.2,53.2-10.4c5.2-1,29.2-2.1,34.4-7.3c13.5-13.5-12.5-88.6-15.6-109.4
		c-8.3-47.9-17.7-98-9.4-147c3.1-21.9,8.3-43.8,16.7-63.6"/>
	<g>
		<path class="st1" d="M188.2,467.9c-11.9,29-16.3,60.6-18.2,91.7c-1.9,32.3-1.7,65.1-0.2,97.5c1,21.4,3.4,42.6,5.8,63.9
			c1.5-0.9,3-1.7,4.5-2.6c-24.7-18.8-72-15.5-90,11.4c-9.9,14.8-7.8,35.7,3.6,49c12.2,14.4,32.9,18.8,50.9,19.2
			c11.2,0.2,22.4-1.4,33.4-3.3c8.3-1.4,16.5-3.2,24.7-5c5.7-1.3,11.5-3.1,17.3-3.7c8.9-1,18.5-1.4,27.1-4.5c6-2.2,8.8-6.4,9.8-12.6
			c2.7-16.4-2.4-34.8-6.2-50.7c-4-16.7-9.3-33.1-12.5-50c-5.7-30.6-11.1-61.6-12.5-92.8c-1.5-32.4,2.4-65.1,11.6-96.2
			c2.2-7.5,4.8-14.9,7.9-22.2c1.5-3.6-4.3-5.1-5.8-1.6c-11.2,26.9-17.2,56.5-19.3,85.4c-2.2,29.8,1.1,59.6,5.7,89
			c3.1,20.1,6.4,40,11.5,59.7c4.5,17.3,9.3,34.7,12.3,52.4c1.3,7.5,2.4,15.3,1.8,22.9c-0.4,6.2-1.9,9.8-8.2,11.6
			c-8.1,2.3-16.7,2.7-25,3.8c-13,1.7-25.9,5.9-38.8,8.2c-20,3.6-41,6-60.7-0.6c-17.6-5.9-30.4-20.5-28.6-39.9
			c1.7-18.6,18.5-29.5,35.4-33.2c17.1-3.8,37.5-2,51.8,8.9c1.7,1.3,4.8-0.4,4.5-2.6c-2-18.4-4.1-36.7-5.3-55.2
			c-1.1-16.7-1.1-33.5-1.3-50.3c-0.4-31.8,0.1-63.9,5.2-95.3c2.8-17.3,7.1-34.4,13.8-50.6C195.5,465.9,189.7,464.3,188.2,467.9
			L188.2,467.9z"/>
	</g>
</g>
<g>
	<path class="st0" d="M70.2,240.4c-46.9-54.2-107.4,46.9-40.6,70.9c51.1,17.7,69.8-61.5,28.1-76.1"/>
	<g>
		<path class="st1" d="M72.4,238.3C58.9,223,38.7,216,20.7,227.9c-15.2,10-24.7,29.1-23.6,47.3c1.4,22,19.7,38.2,41,41.2
			c20.7,2.8,37.4-11,43.2-30.3c6.4-21.1-0.9-45.8-22.8-53.8c-3.6-1.3-5.2,4.5-1.6,5.8c33.8,12.3,23.5,72-12.3,72.8
			C26,311.3,7,298,3.6,279.3c-2.8-15.5,4.1-32.5,15.8-42.8c6.2-5.5,14.2-9.1,22.6-8.8c10.6,0.4,19.4,7.2,26.2,14.9
			C70.7,245.4,74.9,241.2,72.4,238.3L72.4,238.3z"/>
	</g>
</g>
<g>
	<path class="st0" d="M456.9,186.2c-25,6.3-52.1,32.3-38.6,61.5c9.4,20.8,52.1,26.1,69.8,12.5c34.4-27.1,0-90.7-40.6-74"/>
	<g>
		<path class="st1" d="M456.1,183.3c-21.3,5.6-43,23.3-44.3,46.7c-0.6,10.2,3.1,21.4,10.9,28.2c7.2,6.3,16.7,9.8,26.1,11.4
			c18.4,3.1,39.2,0,50.1-16.7c9.9-15,7.5-35.1-1.6-49.9c-10.6-17.4-30.7-27.5-50.6-19.7c-3.6,1.4-2,7.2,1.6,5.8
			c31.1-12.2,59.4,25.5,48.7,54.3c-6.1,16.4-22.4,21.9-38.6,21.3c-16.7-0.6-35.3-7.1-39.7-25c-6.1-24.6,17.5-44.9,39-50.6
			C461.4,188.1,459.8,182.3,456.1,183.3L456.1,183.3z"/>
	</g>
</g>
<g>
	<path class="st2" d="M273.5,37.2c-60.5-13.5-120.9,26.1-155.3,75c-39.6,57.3-46.9,144.9-39.6,212.6c5.2,45.9,22.9,105.3,67.7,126.1
		c41.7,19.8,101.1,10.4,144.9,1c38.6-8.3,76.1-19.8,107.4-45.9c30.2-26.1,36.5-74,32.3-111.5c-7.3-71.9-16.7-170.9-74-219.9
		c-40.6-34.4-74-46.9-128.2-42.7"/>
	<g>
		<path class="st1" d="M274.3,34.3c-46-10-91.6,9.4-125.9,39.7c-17,15-31.8,32.9-42.7,52.9c-10.6,19.5-18,40.8-23,62.4
			c-10.3,44.1-12.1,90.7-7.1,135.6c4.3,38.3,15.4,80.3,42.5,109.1c31.2,33.1,80.4,34.5,122.7,29.7c23.3-2.7,46.6-7.2,69.3-12.9
			c24-6.1,47.8-14.3,69.1-27.1c19.2-11.6,34.9-25.9,44.1-46.6c8.4-19,11.7-39.9,11.8-60.6c0.1-20-2.9-40.3-5.2-60.1
			c-2.5-21-5.5-42.1-9.9-62.8c-8.4-39.3-21.9-79.8-49.5-110C356.1,68.1,338,54.8,319.5,45c-17.7-9.3-36.9-14.7-56.9-16.3
			c-11.3-0.9-22.7-0.6-34,0.2c-3.8,0.3-3.9,6.3,0,6c21-1.6,42.3-1,62.7,5c18.9,5.5,36,15.5,51.6,27.4c16,12.1,29.5,26,40,43.2
			c10.5,17.2,17.9,36,23.7,55.3c11.3,38.1,16,77.9,20,117.3c4,38.6,4.4,83.3-23.4,114.1c-15.4,17.2-38.3,28.7-59.6,36.8
			c-21.9,8.3-44.8,13.6-67.8,18c-22.3,4.3-45,7.5-67.7,7.6c-22,0-44.9-2.8-64.5-13.3c-34.4-18.5-50.2-59.2-57.9-95.4
			c-8.6-40.5-8.8-83.7-3.7-124.6c5.3-42.9,17.9-86.8,45.1-121.2c27.2-34.5,67.4-63.5,112.3-67.2c11.1-0.9,22.2-0.2,33.1,2.2
			C276.4,40.9,278,35.1,274.3,34.3L274.3,34.3z"/>
	</g>
</g>
<g>
	<g>
		<path class="st1" d="M106.7,207.1c16-16.4,37.8-27.9,59.6-34.2c22.1-6.4,47.7-8,67,6.5c3.1,2.3,6.1-2.9,3-5.2
			c-20.1-15.1-47.2-14-70.3-7.5c-23.3,6.5-46.6,18.7-63.6,36.1C99.8,205.6,104,209.9,106.7,207.1L106.7,207.1z"/>
	</g>
</g>
<g>
	<g>
		<path class="st1" d="M287.1,174.8c30.3-24.1,78.4-27.8,102.6,6.7c2.2,3.1,7.4,0.1,5.2-3c-26.6-37.9-78.6-34.5-112.1-7.9
			C279.8,173,284.1,177.2,287.1,174.8L287.1,174.8z"/>
	</g>
</g>
<g>
	<g>
		<path class="st3" d="M395.5,219.6c0.1,23.9,4.9,47.5,7.2,71.2c2.1,22,4.2,48.2-7.8,68c-2,3.3,3.2,6.3,5.2,3
			c12.1-19.9,10.8-45.8,8.9-68.1c-2.1-24.7-7.3-49.3-7.4-74.2C401.5,215.7,395.5,215.7,395.5,219.6L395.5,219.6z"/>
	</g>
</g>
<g>
	<g>
		<path class="st3" d="M375.1,383.7c1.8,4,6.6,7.3,11.1,7.5c5.5,0.2,7.6-4.6,6.8-9.4c-0.8-4.7-4.3-8.3-9.2-8.7
			c-5.3-0.4-9.8,2.5-12.9,6.6c-2.3,3.1,2.9,6.1,5.2,3c2.4-3.1,9-6,10.8-0.8c0.7,2.2,0.8,3.8-1.7,3c-2.2-0.6-4-2.2-4.9-4.3
			C378.7,377.1,373.5,380.2,375.1,383.7L375.1,383.7z"/>
	</g>
</g>
<g>
	<path class="st4" d="M338.1,370.2c-42.1,7.3-89.8,27.5-131.9,27.5l3.7,3.2c36.5,33.4,121.9,25,135.5-30.2"/>
	<g>
		<path class="st1" d="M337.3,367.3c-43.8,7.8-86.1,27.1-131.1,27.4c-2.4,0-4.2,3.4-2.1,5.1c7.6,6.5,15.1,12.3,24.4,16.2
			c10.8,4.6,22.5,6.9,34.1,7.5c23.1,1.1,47.8-4.8,65.8-20.1c9.8-8.3,16.7-19.5,19.9-31.9c1-3.7-4.8-5.3-5.8-1.6
			c-11.4,44.8-69.3,55.9-107.6,42.2c-10.3-3.6-18.5-9.5-26.6-16.5c-0.7,1.7-1.4,3.4-2.1,5.1c45.6-0.3,88.3-19.7,132.7-27.6
			C342.7,372.4,341.1,366.7,337.3,367.3L337.3,367.3z"/>
	</g>
</g>
<g>
	<g>
		<path class="st1" d="M222.4,236.2c-13.9,17.9-33.6,30.9-53.4,41.4c-20.2,10.7-41.9,19.4-64.3,23.7c-3.8,0.7-2.2,6.5,1.6,5.8
			c22.9-4.5,45.2-13.4,65.8-24.4c20.2-10.7,40.5-24.1,54.7-42.4C228.9,237.4,224.7,233.1,222.4,236.2L222.4,236.2z"/>
	</g>
</g>
<g>
	<g>
		<path class="st1" d="M277.9,242.7c24.4,18.4,56.8,24.3,86.6,18.6c3.8-0.7,2.2-6.5-1.6-5.8c-28.3,5.4-58.9-0.6-82-18
			C277.9,235.2,274.9,240.4,277.9,242.7L277.9,242.7z"/>
	</g>
</g>
<g>
	<path d="M561.9,129.4c-0.1-0.4,0.1-0.9,0.4-1.6c0.3-0.7,1.1-1.1,2.2-1.1c1.2-0.1,2.7-0.1,4.7,0c2,0.1,4.1,0.2,6.2,0.4
		c2.2,0.2,4.2,0.4,6.2,0.7c2,0.3,3.6,0.6,4.7,0.9c1,0.3,1.7,0.8,2,1.5c0.4,0.7,0.5,1.2,0.4,1.5c0,0.8-0.4,1.3-1.1,1.6
		c-0.7,0.3-1.4,0.5-2.2,0.4c-1.5-0.1-3.2-0.2-5-0.4c-1.8-0.1-3.6-0.3-5.4-0.4c-1.8-0.1-3.6-0.2-5.3-0.4c-1.7-0.1-3.2-0.2-4.5-0.3
		c-1.1-0.1-1.9-0.4-2.6-1C562.4,130.7,562,130.1,561.9,129.4z M574.9,173.4c-0.4,0.1-0.8,0.1-1.4,0.1c-0.6,0-1.1,0-1.6-0.1
		c-0.6-0.1-1.1-0.4-1.5-0.7s-0.7-0.9-0.8-1.6c-0.1-0.6,0.1-1.1,0.8-1.6c0.6-0.5,1.5-0.8,2.5-0.9c1.2-0.1,2.5-0.3,3.9-0.4
		c1.4-0.2,2.8-0.4,4.3-0.5c0.1-0.8,0.3-1.7,0.5-2.7c0.2-1,0.4-2,0.6-3.1c0.1-0.6,0.2-1.2,0.3-1.5c0.1-0.4,0.2-0.7,0.3-1
		c0.1-0.3,0.2-0.5,0.3-0.8c0.1-0.3,0.1-0.6,0.1-0.9c-0.5,0.1-0.8,0.2-0.9,0.2c-1.6,0.4-3.1,0.7-4.6,1c-1.5,0.3-2.7,0.5-3.6,0.5
		c-1.8,0.2-3.2,0-4.4-0.5c-1.2-0.5-1.8-1.5-1.9-3c-0.2-2.2-0.3-4.6-0.3-7.4c-1-0.1-1.9-0.4-2.6-0.9c-0.7-0.5-1.2-1-1.3-1.6
		c-0.3-1.4,0.5-2.2,2.4-2.5c0.3-0.1,0.6-0.1,0.8-0.1c0.2,0,0.5,0,0.8,0c0.1-1.2,0.1-2.5,0.2-3.7c0.1-1.2,0.1-2.4,0.3-3.6
		c0.1-0.6,0.4-1.2,0.9-1.6c0.5-0.4,1-0.6,1.5-0.7c0.8-0.1,1.5,0.1,2.1,0.8c0.6,0.6,0.9,1.2,0.9,1.8c-0.1,0.9-0.1,1.9-0.1,3
		c0,1.1,0,2.2,0,3.5c1.6-0.1,3.3-0.2,4.9-0.3c1.6-0.1,3.2-0.1,4.8-0.1c1.6,0.1,2.8,0.2,3.8,0.5c0.9,0.3,1.4,0.7,1.5,1.1
		c0,0.2-0.1,0.4-0.3,0.8c-0.2,0.4-0.4,0.7-0.8,1.1c-0.4,0.4-1,0.7-1.6,0.9c-0.7,0.3-1.5,0.4-2.4,0.5c-1.7,0.1-3.4,0.2-5,0.4
		c-1.6,0.1-3.3,0.2-4.9,0.4c0,1.1,0,2.2,0,3.2c0,1,0.1,1.9,0.1,2.8c2.5-0.3,5-0.7,7.6-1.2c2.5-0.5,4.9-1,7.1-1.4
		c1.5-0.3,2.5-0.3,3.2,0c0.7,0.3,1.1,0.6,1.2,1c0.2,0.5,0.1,1.1-0.3,1.7c-0.4,0.6-1,1.2-2,1.6c-0.3,0.1-0.6,0.2-1.1,0.4
		c-0.4,0.1-0.8,0.3-1.3,0.5v1.7c0,0.4,0,0.7-0.1,0.9c-0.1,0.2-0.1,0.4-0.1,0.7c0,0.2-0.1,0.5-0.1,0.8c-0.1,0.3-0.1,0.7-0.2,1.3
		c-0.1,0.9-0.2,1.8-0.4,2.6c-0.1,0.9-0.2,1.7-0.4,2.5c3.6-0.5,6.7-1,9.6-1.6c0.7-0.1,1.4-0.1,2.1,0c0.7,0.1,1.1,0.6,1.2,1.4
		c0.2,0.7-0.1,1.4-0.9,2c-0.8,0.6-1.6,1.1-2.3,1.3c-1.1,0.3-2.5,0.6-4.2,1c-1.8,0.4-3.6,0.7-5.6,1c-2,0.4-4.1,0.6-6.1,0.9
		C578.2,173.1,576.4,173.3,574.9,173.4z M592.9,178.1c0.9,0.1,1.6,0.4,2.2,0.7s1.1,0.8,1.3,1.3c0.3,0.5,0.3,1.1,0.1,1.7
		c-0.2,0.6-0.7,1.2-1.4,1.9c-1.1,0.8-2.1,1.7-3,2.5s-1.9,1.8-2.9,2.9c2.2,0.2,3.9,0.5,5.1,0.9c1.6,0.5,2.7,1.4,3.1,2.7
		c0.4,1.3,0.2,2.4-0.6,3.2c-1.2,1.3-2.4,2.6-3.5,3.9c-1.1,1.3-2.2,2.6-3.3,4.2c2.2-0.5,4.5-1.1,6.8-1.9c2.3-0.8,4.4-1.5,6.2-2.2
		c0.7-0.3,1.5-0.4,2.4-0.3c0.9,0.1,1.4,0.4,1.7,0.9c0.2,0.4,0.2,1,0.2,1.7c-0.1,0.7-0.4,1.2-1.1,1.6c-1.3,0.8-2.8,1.5-4.4,2.2
		c-1.7,0.7-3.4,1.3-5.1,1.9c-1.8,0.6-3.4,1.1-5.1,1.5c-1.6,0.4-3.1,0.8-4.4,1c-2,0.3-3.5-0.1-4.3-1.3c-0.4-0.5-0.6-1.1-0.6-2
		c-0.1-0.8,0.1-1.6,0.4-2.2c0.3-0.6,0.8-1.3,1.4-2.2c0.6-0.9,1.4-1.9,2.2-2.8c0.8-1,1.7-2,2.6-2.9c0.9-1,1.8-1.9,2.7-2.7
		c-1.5-0.2-2.8-0.2-4.2-0.1c-1.3,0.1-2.4,0.1-3.3,0.1c-1.2,0.1-2-0.2-2.6-0.9c-0.6-0.6-0.4-1.6,0.5-3c0.8-1.2,1.9-2.5,3.2-3.8
		c1.3-1.3,2.6-2.4,3.8-3.4c-1.4,0.1-2.9,0.4-4.4,0.7c-1.5,0.4-2.9,0.7-4,1c-1.2,0.3-2.1,0.1-2.7-0.5c-0.6-0.6-1-1.2-1.1-1.9
		c-0.1-0.6,0.1-1.2,0.6-1.6c0.5-0.4,1.1-0.8,1.8-1c2.5-0.8,5-1.4,7.4-1.7C588.8,177.8,590.9,177.8,592.9,178.1z"/>
	<path d="M617.6,141.6c1.1,0.7,1.6,1.5,1.5,2.5c-0.1,0.9-0.5,1.8-1.1,2.6c-0.4,0.5-0.7,1-1.1,1.5c-0.4,0.5-0.7,1.1-1.1,1.8
		c3,1,6.1,2.1,9.1,3.4c3,1.3,5.4,2.7,7.1,4.2c1,0.8,1.5,1.6,1.6,2.4c0.1,0.8,0,1.3-0.3,1.8c-0.3,0.5-0.8,0.6-1.5,0.5
		c-0.7-0.1-1.4-0.3-2.1-0.6c-2.2-1-4.8-2.1-7.8-3.5c-3-1.3-5.9-2.5-8.7-3.5c-0.9,1.8-1.8,3.6-2.6,5.4c-0.8,1.9-1.4,3.7-1.9,5.3
		c-0.2,0.6-0.4,1.1-0.7,1.7c-0.3,0.5-0.6,1-1,1.3c-0.4,0.3-0.9,0.5-1.4,0.6c-0.5,0.1-1.1-0.1-1.7-0.6c-0.6-0.4-1-1.1-1.1-2.1
		c-0.1-1-0.1-1.7,0-2.3c0.9-4.1,2.3-8,4.3-11.5c2-3.5,4.4-7,7.2-10.3c0.4-0.5,0.9-0.7,1.6-0.8C616.6,141.2,617.2,141.3,617.6,141.6z
		 M640,173.9c0,0.6-0.2,1.1-0.5,1.6c-0.4,0.5-1,0.8-1.8,1c-4.6,0.8-8.9,1.8-12.9,3c-4,1.2-8.1,2.5-12.4,3.9
		c-1.3,0.5-2.4,0.5-3.4,0.2s-1.6-1-1.9-1.8c-0.2-0.8,0-1.5,0.8-2.2c0.8-0.7,1.7-1.3,2.7-1.7c3.1-1.2,6.8-2.4,11.2-3.5
		c4.4-1.2,9.2-2,14.5-2.5c0.4,0,0.7,0,1.1,0.1c0.4,0.1,0.8,0.2,1.2,0.4c0.4,0.2,0.7,0.4,1,0.6C639.9,173.2,640,173.5,640,173.9z"/>
	<path d="M668.8,158.9c-0.9,0.5-2.2,1-4,1.6c-1.8,0.6-3.8,1.2-6,1.9c-1.1,0.3-2.1,0.6-3.2,0.8c-1.1,0.3-2.1,0.5-3.1,0.6
		c-0.1,2.2-0.2,4.2-0.3,6c-0.1,1.8,0,3.1,0.1,3.9c0.1,0.6,0.3,1,0.4,1.3c0.2,0.3,0.6,0.3,1.4,0c1.1-0.4,2.3-0.9,3.7-1.6
		c1.3-0.7,2.7-1.5,4.1-2.3c1.3-0.8,2.7-1.7,3.9-2.7c1.3-1,2.4-1.9,3.4-2.8c1.2-1.1,2.2-1.9,3-2.5c0.8-0.5,1.5-0.5,2,0
		c0.3,0.3,0.4,1,0.2,2c-0.2,1.1-0.5,2-1.1,2.8c-1.1,1.8-2.6,3.4-4.6,5c-1.9,1.6-3.9,3-6,4.3c-2,1.2-3.9,2.2-5.7,3
		c-1.8,0.8-3,1.2-3.8,1.3c-1.4,0.2-2.7-0.1-3.9-0.8c-1.2-0.7-2.1-1.8-2.5-3.2c-0.3-0.9-0.5-2.1-0.6-3.7c-0.1-1.6-0.1-3.3,0-5.3
		c0-0.8,0-1.5,0-2.3c0-0.8,0.1-1.5,0.1-2.4c-0.1,0-0.1,0-0.1,0c0,0-0.1,0-0.1,0c-0.5-0.1-1.1-0.4-1.8-0.9c-0.7-0.5-1.1-1.1-1.1-1.9
		c0-0.8,0.4-1.3,1.1-1.6c0.7-0.3,1.4-0.5,2-0.6c0.2,0,0.4,0,0.5-0.1c0.1-0.4,0.1-0.8,0.1-1.2c0-0.4,0.1-0.8,0.2-1.2
		c0.1-1.2,0.3-2.3,0.4-3.4c0.2-1.1,0.3-2.1,0.4-2.9c-0.5,0.1-0.8,0.2-1.1,0.2c-0.4,0.1-0.8,0.1-1.4,0c-0.6,0-1.1-0.1-1.5-0.3
		c-1.2-0.4-1.8-1-1.8-1.8c0.1-0.8,0.5-1.4,1.4-1.8c0.9-0.5,1.7-0.8,2.4-1.1c0.6-0.2,1.5-0.4,2.6-0.6c1.1-0.2,2.3-0.4,3.6-0.7
		c1.2-0.2,2.5-0.3,3.7-0.4c1.3-0.1,2.4-0.1,3.4-0.1c0.9,0,1.9,0.2,3,0.5c1.1,0.4,1.7,0.8,1.8,1.5c0.1,0.4,0,0.8-0.3,1.2
		c-0.3,0.4-0.6,0.7-0.9,0.9c-0.4,0.3-0.8,0.5-1.3,0.7c-0.4,0.1-0.8,0.2-1.2,0.2c-2.2,0.2-4.4,0.4-6.7,0.8c-0.2,1.2-0.4,2.5-0.6,3.9
		c-0.2,1.4-0.4,2.9-0.5,4.5c2.3-0.4,4.5-0.8,6.7-1.3c2.2-0.5,4.1-0.9,5.9-1.4c0.8-0.3,1.6-0.5,2.6-0.5c1-0.1,1.8,0.2,2.5,0.8
		c0.2,0.2,0.3,0.7,0.1,1.4C670.6,157.6,669.9,158.3,668.8,158.9z M691.5,145c0-1.7,0.7-2.5,2.2-2.3c0.7,0.1,1.4,0.4,2.1,0.8
		c0.7,0.4,1.1,1,1,1.6c0.1,1.8,0.1,3.8,0.2,6c0.1,2.2,0.1,4.5,0.1,6.7s0,4.5,0,6.7c0,2.2-0.1,4.2-0.1,6c0,0.9-0.4,1.6-1.1,2.1
		c-0.7,0.5-1.3,0.7-1.7,0.6c-1.3-0.4-2-1.4-2.2-3.2c-0.1-2.2-0.1-4.8-0.1-7.6c0-2.9-0.1-5.7-0.1-8.6c-0.8,0.3-1.7,0.6-2.5,1
		c-0.8,0.4-1.7,0.7-2.5,1.1c-1.6,0.7-3.2,1.4-4.7,2c-1.5,0.6-2.8,1.2-3.8,1.7c-0.9,0.4-1.9,0.3-2.8-0.1c-1.1-0.4-1.6-1-1.6-1.8
		c0.1-1.1,1.1-2.2,3.2-3.3c0.9-0.5,2.1-1,3.6-1.7c1.5-0.6,3.1-1.3,4.8-2c1-0.4,2-0.8,3-1.2c1-0.4,2-0.8,3-1.1c0-0.6,0-1.3,0-1.8
		C691.5,146.2,691.5,145.6,691.5,145z"/>
</g>
</svg>
