<?xml version="1.0" encoding="utf-8"?>
<!-- Generator: Adobe Illustrator 21.0.2, SVG Export Plug-In . SVG Version: 6.00 Build 0)  -->
<svg version="1.1" id="Layer_1" xmlns="http://www.w3.org/2000/svg" xmlns:xlink="http://www.w3.org/1999/xlink" x="0px" y="0px"
	 viewBox="0 0 736.1 795" style="enable-background:new 0 0 736.1 795;" xml:space="preserve">
<style type="text/css">
	.st0{fill:#1C1C1C;}
	.st1{fill:#1D1C1C;}
	.st2{fill:#1E1D1D;}
	.st3{fill:#1F1F1E;}
	.st4{fill:#0B0B0B;}
	.st5{fill:#1E1E1D;}
	.st6{fill:#080808;}
	.st7{fill:#FBFAFA;}
	.st8{fill:#6D3434;}
	.st9{fill:#F7EC38;}
	.st10{fill:#F4F4F4;}
	.st11{fill:#F3F4F4;}
	.st12{fill:#080807;}
	.st13{fill:#111111;}
	.st14{fill:#090908;}
	.st15{fill:#0D0C0C;}
	.st16{fill:#0F0E0E;}
	.st17{fill:#0C0C0C;}
	.st18{fill:#121111;}
	.st19{fill:#0B0A0A;}
	.st20{fill:#F3F3F4;}
	.st21{fill:#1D1D1D;}
	.st22{fill:#1E1D1C;}
</style>
<g>
	<path class="st0" d="M482.2,533.8c-2.5,42.5-12.2,83-34.7,119.5c-15.8,25.6-36.2,47.2-62.8,62.2c-0.9,0.5-1.7,1.3-2.8,2.3
		c9.6,4.1,18.7,8.3,25,16.7c7.6,10.2,10.5,30.1,1.8,41.6c-5,6.6-12.3,8.6-19.4,10c-15.8,3-31.7,1.4-47.5-1.8
		c-7.2-1.5-14.6-2.3-21.9-3.5c-8.7-1.3-16.5-4.4-22.1-11.6c-2.3-3.3,0.2-6.3,0.6-9.5c0.2-1.7,0.9-3.5-0.7-4.9
		c-0.5-0.5-1.3-0.2-1.8,0.3c-1.4,1.3-1.6,3.1-1.4,4.9c0.3,3.1,2.6,5.7,2,8.9c-8.4,10.4-19.5,15.3-32.6,16.3
		c-4.7,0.3-9.5,1.1-14.2,1.7c-3.3,0.8-6.8-0.4-10.1,0.9c-14.5-0.5-29-1.8-43.2-5.3c-11.4-2.8-19-10.3-22.2-20.7
		c-3.5-11.3,0-22,8-31.1c6.7-7.6,16-9.7,25.8-13.2c-3.9-2.5-7.4-4.6-10.8-6.9c-17.3-11.9-31.5-26.8-43.9-43.9
		c-16.6-23-24.9-49-31.6-75.9c-1.4-5.5-2.9-11-4.4-16.5c-0.3-2.8,1.8-1.9,3-1.6c2.8,0.7,5.7,0.4,8.4,1.4c3.5,3.3,4.1,7.8,5.1,12.1
		c4.1,16.7,8.4,33.3,15.9,48.7c17.2,35.1,42.5,62.2,78.7,78.3c23.4,10.4,47.8,17.1,73.7,15.6c15.7-0.9,31.5-1.9,46.1-9.2
		c2.2-1.1,4.5-2.1,7-1.4c1.7,3.7,4.3,6.8,5.7,10.7c-6.7,5-14.4,7.8-22.3,9.6c-11.4,2.6-22.9,5.2-34.7,3.8c-2.2-1.2-2.2-3.6-3.2-5.5
		c-0.7-1.4-1.7-2.6-3.5-2.6c-2.1-0.1-3.1,1.3-3.8,3c-0.8,2-0.7,4.4-2.8,5.7c-23-0.3-44.8-5.5-65.1-16.2c-1.9-9.1-3-9.9-11.1-8
		c2.8,3.3,8.7,2.5,10.1,7.6c-2.2,2.6-5.5,2.7-8.5,3.3c-5.9,1.3-11.7,2.6-17.2,5.1c-7.7,3.5-13.1,12.1-12.5,19.6
		c0.6,7.7,6.4,14.1,15.6,16.1c17.2,3.7,34.7,5.1,52.3,3c5.9-0.7,11.9-0.8,17.8-2.5c9.1-2.6,14.4-8.3,15.8-17.7
		c0.6-3.9,0.5-8.1,3.8-11.1c3.2-2,6.5-1.7,9.9-0.4c2.4,2,2,4.8,2.2,7.4c0.7,9,5.4,15.4,14,17.5c22,5.4,44.4,9.1,67.2,7.1
		c7.1-0.6,13.9-2.7,15.7-11c2.1-9.4-0.5-17.7-7.6-24.2c-4.8-4.3-10.5-7.3-17.3-7.7c-4.4-0.3-8.8-0.8-13.1-2.2
		c-1.6-3.3,1.4-3.4,3.1-4c4.2-1.4,8.1-3.2,11.1-5.4c-4.4-0.4-9.2-1.1-13.6-3.3c-0.2-2.6,1.8-3.5,3.5-4.3c7.6-3.4,13.8-8.9,21-12.9
		c15.3-8.6,26.4-21.7,37.2-35c17.6-21.6,28.4-46.4,35.6-73.2c5.9-22.1,9.7-44.4,9.2-67.2c-0.9-38.5-10-75.1-26.7-110
		c-6.6-13.8-15.2-26-24.7-37.9c-1.5-1.9-3.1-3.8-3.3-6.4c2.5-3.9,6.6-4.4,10.6-5.1c0.3,0.2,0.5,0.4,0.8,0.6
		c5.3,7.1,10.9,14,15.8,21.3c16.8,25.5,27.2,53.6,33.1,83.3c1.2,5.9,2.5,8.7,9.6,9.2c12.2,1,24.6,2.4,36.2,7.2
		c0.6,1.3,2.4,0.6,3,1.8c-2.7,6.8-2.7,6.8,5.4,10.6c0.3,1.4-0.1,2.7-0.8,3.8c-9.1,15.5-2.9,29.1,6.5,41.2c6.6,8.5,16.6,7.7,25.9,4.6
		c9.6-3.3,14.7-10.8,15.6-20.6c1-10.5-3.4-19-11.5-25.7c-2-1.7-4.6-2.8-5.9-5.3c-0.2-0.6-0.1-1.3,0-1.9c2.6-2.3,5.3-4.4,8.6-5.8
		c13.7,6.4,18.7,18.6,21.7,32.2c0.5,3.1,0.4,6.2,0.1,9.2c-5.7,25.4-22.8,34.1-47,31.7c-12-1.2-18.6-9.9-24.1-19.5
		c-0.5-0.9-1-1.9-1.5-2.9c0.2-0.2,0.4-0.5,0.5-0.7c5-4.8,4.8-6.5-1.3-9.2c-1.2-0.5-2.5-0.8-3.5-1.7c-0.5-0.5-0.9-1-1.2-1.6
		c-3.1-8.1-2-16.2,0.8-24c1.9-5.1,0.1-6.8-4.6-7.6c-6.6-1.1-13.1-2.1-19.6-3.4c-4.8-1-5.5,1-5.6,5.2c-0.2,8.4,2.7,16.7,1.1,25.1
		c-0.2,0.6-0.5,1.2-0.8,1.7c-2.1,1.7-6.5-0.4-6.9,3.6c-0.4,4.1,4.1,3.8,6.4,5.5C482.6,532.7,482.6,533.2,482.2,533.8z"/>
	<path class="st0" d="M113.2,492.4c0.6-11.3,1.1-22.7,1.7-34c1.3-3.7,0-7.7,0.9-11.4c4.9-40.3,19-77.4,40.2-111.9
		c-15.9-3.7-29.5-11.2-41.7-21.8c-15.6-13.5-26.6-30.1-32.7-49.7c-6.9-22.1-5.2-44,2.4-65.6c8.8-25,24.6-43.2,48.3-56
		c13-7,26.2-8.9,40-10.5c3.1-0.7,6.2-0.7,9.3,0c17.2,3.6,35,5.6,49.5,16.6c22.5,16.9,39.3,38.2,46.7,66c0.4,1.6,1.2,3.1,2.4,6.4
		c14.9-37.9,42.5-58.2,80.5-65.1c3.1-0.9,6.4,0.5,9.5-0.9c9,0,18,0.2,27,2.2c11.6,2.5,21.6,7.9,30.3,15.2
		c16.4,13.8,32.1,28.4,40.5,49.2c10.8,26.9,16.6,54.7,9.6,83.1c-6.9,27.9-22.7,49.8-51.1,60.3l-0.5-0.3c-4-2.1-5.8-5.5-5.6-10
		c0.9-1.7,2.6-2.3,4.3-2.9c16-6.2,26.5-17.6,34.2-32.9c9.9-19.6,10.3-39.9,6.8-60.6c-4.1-24.1-12.9-46.3-31.8-63.2
		c-4.8-4.3-9.6-8.7-14.5-12.8c-11.2-9.6-24.5-14.1-39.2-14.9c-2.7-0.1-5.4,0-7.9,1c-6.6,2.5-13.2,5.7-20.6,3
		c-0.8-0.3-1.8,0.1-2.6,0.4c-18.1,6.7-34.4,16.1-45.4,32.4c-9.2,13.6-14.3,29.1-17.1,45.2c-0.4,2.2,0.6,5.7-3.6,5.7
		c-2.4-3.9-1.2-8.2-1.4-12.3c-0.3-4.6,0.4-9.2-1.4-14.7c-1.7,5.4-2.6,10-3.9,14.6c-0.6,2.2-0.3,5-3.3,6c-2.5-1.7-1.9-4.3-2.2-6.7
		c-3-24.4-11.1-46.3-27.4-65.4c-16.6-19.5-37.9-28.8-62.6-31.9c-7-0.9-13.7,1.1-20.6,1.4c-0.4,0-1.1,0.1-1.2,0.4
		c-4.9,8.9-14.8,6.6-22.2,9.7c-13.3,5.6-23.3,14.6-30.8,26.6c-20.2,32.6-21.5,72.1,1.2,104.3c10.6,15,24.8,26,41.8,33.2
		c4.7,2,10.1,1.4,14.8,3.6c1.7,1.6,0.1,2.7-0.6,3.9c-3.6,5.9-3.6,5.9,2.8,7.3c1.6,0.4,3.6,0.2,4.1,2.5c-3.7,7.6-8.2,14.7-12.6,21.9
		c-9.3,15.4-14,32.6-20,49.3c-7.8,21.5-8.4,43.9-10.3,66.3c-1.1,13.7,0.2,27.5-2.1,41.2c-4.6,1.4-8.2-2.4-12.4-2.6
		c-0.7-0.5-0.8-1.1-0.4-1.8c0-3.9,0-7.7,0.1-11.6C113.3,497.4,112.3,494.8,113.2,492.4z"/>
	<path class="st1" d="M90.8,568.6c-4.1,9.5-11,17.1-20.9,19.6c-14.8,3.9-28.9,1.6-41.7-8.2c-14.3-10.9-22.4-24.8-25.8-42.4
		c-4.2-22,3-37.5,20.1-49.1c4.6-3.1,9.8-5.3,14.7-7.8c0.4,0.5,0.6,1.1,0.5,1.7c-0.6,1.6-2,2.2-3.3,3c-6.3,4-6.4,4.5-2.2,10.3
		c-0.3,2.2-2.1,3.3-3.7,4.5c-16.7,12.8-17.3,24.5-11.9,42.5c3.6,12,10.7,21.9,21.6,28.8c7.3,4.7,15.5,5.8,23.7,5.5
		c6.9-0.3,12.4-4.5,15.5-11.2c0.9-1.9,0.7-4.5,3.1-5.7c2.7,3.1,5.8,5.9,9.7,7.6C90.5,568.1,90.6,568.4,90.8,568.6z"/>
	<path class="st2" d="M37.3,481.8c0-0.4,0-0.7-0.1-1.1c4.1-0.7,8.3-0.9,12.4-0.2c1.8,0.3,4.3,1.1,5.2,2.4
		c6.7,10.9,20.1,13.4,27.9,22.8c-0.2,0.2-0.5,0.5-0.7,0.7c-3.8,0.8-7.3,2.4-10.9,3.9c-0.9-0.1-1.8-0.1-2.5-0.7
		c-9.1-7.2-19.2-11.2-31-10.5c-2.2,0.1-4.3-1-4.8-3.6c1.8-4.4,6.4-4,9.8-5.7c2.1-1,5.4-1.3,5-4.3c-0.4-2.8-3.4-2-5.5-2.2
		C40.4,483.2,38.7,483.2,37.3,481.8z"/>
	<path class="st3" d="M482.2,533.8c0-0.4-0.1-0.9-0.1-1.3c-2.1-3-2.3-6.1-0.1-9.2c0.2-0.2,0.4-0.3,0.5-0.5
		c10.5-1.9,20.6-0.8,30.1,4.2l0.4,0.4c2.3,3.5,4,7.2,4,11.5l-0.2,0.2c-9.9-1.6-19.8-3.1-29.7-4.9
		C485.6,533.9,483.9,533.6,482.2,533.8z"/>
	<path class="st4" d="M567.8,488.3c-1.9,3-3.9,5.8-8.1,5.5c-1.1,1-2.5,1.1-3.7,0.6c-6-2.2-9.5-7.6-14.1-11.6c-1-0.8-0.5-2.5,0.6-3.6
		c1-1.4,1.9-3.1,4-3.2c2.2-0.4,4.4-0.5,6.6,0.1C559.4,478.3,564.9,481.8,567.8,488.3z"/>
	<path class="st5" d="M112.2,511.3c0,0.4,0,0.8,0.1,1.2c2.3,3.3,2.1,6.7,0.4,10.2c-3.9,3.1-7.9,0.6-11.9,0.1
		c-3.6-0.5-7.4-1-10.7-2.8c-3.1-4.4-5-9.4-7.5-14.1l0.1-0.2C92.5,507.6,102,511.3,112.2,511.3z"/>
	<path class="st3" d="M542.4,479.1c0.1,1.1-0.1,2.8,0.5,3.1c6.3,2.9,9.1,10.9,16.9,11.5c0,0.6-0.1,1.2-0.1,1.7
		c-3.9,1.8-7.8,0-11.6-0.1c-5.7-0.2-11.3-0.5-16.8,1.5c-2.3-3.4-2.2-8.6-7.5-9.7c-1.1-0.1-2.2-0.4-2.6-1.7c4.2,1.2,7.6-0.3,11-2.6
		C535.2,480.9,538.6,479.4,542.4,479.1z"/>
	<path class="st3" d="M116.1,572.7c-4.1-3.4-9.3-0.8-13.8-2.6c-3.5-1.4-7.6-1-11.5-1.4l-0.2-0.3c0.4-3.9,0.5-7.9,3.4-11
		c7.2-0.5,14.3,0.1,21,3C116.9,564.3,118,568.4,116.1,572.7z"/>
	<path class="st6" d="M116.1,572.7c-1.3-4-1.3-8.2-1.6-12.4c0.3-0.2,0.6-0.4,0.9-0.6c5.2-1.2,9.3,1,12.7,4.7
		c1.8,3.2,2.7,6.3,0.1,9.5c-3.5,3.3-7.2-1.7-10.7,0.1C117,573.5,116.5,573.1,116.1,572.7z"/>
	<path class="st6" d="M296.5,768.7c-1.8-3.7-4.6-7.1-4-11.6c0.4-3.3,2.1-5.6,5.5-5.3c3.7,0.3,2.6,3.7,2.3,5.8
		c-0.5,3.9-1.7,7.7-2.6,11.5C297.4,769,296.9,768.9,296.5,768.7z"/>
	<path class="st7" d="M115.8,447c-0.3,3.8,0.6,7.7-0.9,11.4C115.2,454.6,113.7,450.6,115.8,447z"/>
	<path class="st7" d="M181.5,131.4c-3.1,0-6.2,0-9.3,0C175.3,129.6,178.4,129.7,181.5,131.4z"/>
	<path class="st7" d="M370.2,154.4c-3,1.8-6.3,0.6-9.5,0.9C363.7,153.4,367,154.7,370.2,154.4z"/>
	<path class="st7" d="M589.5,529.8c0-3.1,0-6.2-0.1-9.2C591,523.6,591,526.7,589.5,529.8z"/>
	<path class="st7" d="M239.6,787.6c3.2-1.7,6.7-0.6,10.1-0.9C246.5,788.7,243,787.4,239.6,787.6z"/>
	<path class="st7" d="M113.2,492.4c-0.2,2.5,0.5,5-0.9,7.3C112.3,497.3,111.3,494.7,113.2,492.4z"/>
	<path class="st7" d="M553,476.1c-2.2,0-4.4-0.1-6.6-0.1C548.6,474.5,550.8,474.5,553,476.1z"/>
	<path class="st8" d="M128.1,573.9c-0.1-3.2,0.6-6.5-1.4-9.3c-3.7-4.6-4.3-10.1-4.5-15.6c-0.3-8.4-0.4-16.8,0.1-25.2
		c0.4-2.5,0.5-5,1.7-7.3c-0.4-29.3,0.1-58.8,5.9-87.4c4.5-22.4,11.3-44.7,22.8-65.1c5.4-9.5,9.8-19.4,16.9-27.8
		c0.5-0.5,1.2-0.8,1.9-0.9c16.8,2.7,33.6,3.1,50.2-1.7c20-5.8,36-16.9,46.2-35.5c0.8-1.6,1.4-3.3,2.6-4.7c1.9-2.3,3.8-2,5.3,0.4
		c1.1,1.7,1.4,3.7,1.9,5.7c9.1,37.6,33.8,58.7,70.8,66.8c3.3,0.7,6.7,0.8,9.8,1.8c17,5.4,33.8,3.8,50.6-0.7c1.5-0.4,3-0.6,4.6-0.3
		c0.7,0.2,1.3,0.6,1.7,1.2c4.3,5.7,8.4,11.4,12.8,17c19.7,25.5,29.4,55.3,36.9,86.1c4.9,20.2,7.2,40.6,6.4,61.3
		c-1.2,32.2-8.6,63-21.3,92.7c-10.8,25.3-27.8,45.9-47.3,64.5c-9,8.6-20.5,13.9-30.9,20.7c-2.8,1.8-5.7,3.3-8.6,5
		c-2.1,2.5-4.7,3.6-8,2.8c-19,9.3-39.2,11.9-60,11.9c-28.7,0-54.9-8.8-79.9-22c-28.5-15-48.6-38.6-64-66
		c-9.7-17.2-14.6-36.6-19.2-55.8C131.1,582.3,129.5,578.1,128.1,573.9z"/>
	<path class="st9" d="M291.2,742.2c-0.5,4-0.7,8-1.5,11.9c-2.5,12.6-11.2,18.6-27.4,20.3c-19.1,2-38.1,2.2-57-1.4
		c-8.4-1.6-16.6-4.3-19.8-13.6c-3.6-10.4,2.2-22.1,12.5-26.8c8.6-3.9,18-4.3,26.7-7.4c0.2,0,0.5,0,0.7,0
		c19.4,9.1,39.8,14.3,61.3,15.7C288.3,741,289.7,741.8,291.2,742.2C291.2,742.2,291.2,742.2,291.2,742.2z"/>
	<path class="st9" d="M303.2,741.1c19.9-1.1,39.5-3.8,57.4-13.5c0.4-0.4,0.8-0.5,1.3-0.2c9.8,1.2,19.8,0.6,28.7,6.6
		c9.5,6.4,13.4,15.4,12.4,26.2c-1,10.6-4.8,14.1-21.7,15.6c-13.5,1.2-27.1-0.1-40.4-3.1c-6-1.4-12.3-1.2-18.4-2.6
		c-16.2-3.8-21.8-11.1-20.7-27.8C302.2,741.7,302.6,741.3,303.2,741.1z"/>
	<path class="st10" d="M530.5,496.7c9.4-7.1,19.3-2.4,29.1-1.2c15.4,9.2,22.2,23.8,17.7,37.6c-3.7,11.1-11.8,17.2-24.5,18.1
		c-11.1,0.9-18.7-3.5-23.9-14.2c-4.3-8.8-7.9-17.8-5.4-28.1c1-4.3,3.7-7.5,5.9-11C529.5,497.3,529.8,496.9,530.5,496.7z"/>
	<path class="st11" d="M512.7,526.9c-10-1.4-20.1-2.8-30.1-4.2c-0.8-10.4-1.3-20.8-2.4-31.2c-0.3-3.3,1.2-3.4,3.4-3
		c10.1,1.7,20.1,3.5,30.1,5.4c1.9,0.4,4.1,0.9,2.3,3.9C510.8,507,511.1,516.9,512.7,526.9z"/>
	<path class="st12" d="M362,727.4c-0.4,0.1-0.9,0.1-1.3,0.2c-4.8-1.3-6-4.7-5.3-9.2c2.7-0.9,5.3-1.9,8-2.8
		c5.4-0.6,10.2,1.2,15.3,3.3C374.2,724.4,367.6,725,362,727.4z"/>
	<path class="st13" d="M415.3,368.2c-0.4,0-0.8-0.1-1.2-0.2c-4.5-2.4-6.4-6.3-6.4-11.2c2.8-7.4,6-8,13.1-2.3
		c1.7,3.2,3.5,6.3,5.2,9.5C422.7,366.2,419,367.3,415.3,368.2z"/>
	<path class="st14" d="M303.2,741.1c-0.4,0.4-0.8,0.8-1.2,1.2c-3.6,0-7.2-0.1-10.8-0.1l0-0.1c0-1.5-0.2-3.1,0.1-4.6
		c0.7-3,1.6-5.9,5.7-6c4-0.1,5.2,2.6,6,5.6C303.3,738.5,303.2,739.8,303.2,741.1z"/>
	<path class="st15" d="M530.5,496.7c-0.4,0.4-0.8,0.8-1.1,1.1c-0.2,0-0.4,0-0.7,0c-3.4-0.4-8,1.1-9.7-2.6c-1.7-3.8,3.6-5,4.7-8
		C531.3,487.6,532.1,488.7,530.5,496.7z"/>
	<path class="st6" d="M225.5,725.2l-0.4,0.2c0,0-0.3-0.2-0.3-0.2c-5.2-1.4-9.7-4.1-15.4-7.5c5.8-1.1,10.2-4.4,15-0.1
		C227.1,720,227.4,722.4,225.5,725.2z"/>
	<path class="st6" d="M517.2,538.9c-2.4-3.5-4-7.2-4-11.5c2.1-0.6,3.8,0.6,5.7,1.1c3,0.8,4.6,3.2,4.2,5.9
		C522.7,537.2,521,539.8,517.2,538.9z"/>
	<path class="st6" d="M482.1,523.2c0,3.1,0,6.1,0.1,9.2c-3.8,0.7-6.4-1-8.4-4c-1.3-1.9,0-3.5,1.2-4.7
		C477.1,521.7,479.5,521.2,482.1,523.2z"/>
	<path class="st10" d="M420.7,354.5c-1-0.3-2.1-0.4-3-0.9c-4.8-2.5-7.9-1.7-8.8,4.1c-1.2,1.8-2.9,2.8-4.9,3.2
		c-11.1,2.2-22,5-33.5,2.4c-16.2-3.6-32.6-6.4-47.7-14.2c-9.4-4.9-17-11.3-23-19.7c-12.4-17.3-18.4-36.8-18.4-58.1
		c0-3.8,0-7.5,0-11.3c0.1-1.9,0.3-3.8,1.9-5.1c1.7-7.5,3.2-15.1,5.3-22.6c8.5-31.3,28.5-51.8,59-62.4c2.6-0.9,4.7-1.9,7.7,0.1
		c2.1,1.4,5.5,0.6,8.3-0.8c15.2-7.8,30.6-4.9,44,2.8c34.4,19.8,55.3,49.3,60.4,89.6c2.8,21.9,1,42.5-9.8,61.9
		c-7.9,14.3-19.4,24.7-35.1,29.9C422.2,353.7,421.5,354.1,420.7,354.5z"/>
	<path class="st10" d="M164.2,324.3c-32.6-4.4-53.2-24.1-67.3-52.3c-18.5-37-4.8-88.5,27.1-111.6c7.4-5.3,15.5-9.4,25-8.8
		c2.9,0.2,5.3-1.2,5.5-3.6c0.4-4.2,3-3.9,5.9-4.4c14.1-2.7,27.8-0.2,41.5,3.1c17.1,4.1,30.2,14.4,41.7,27.2c18.9,21.1,27.8,46,29,74
		c3.1,5.2-0.2,10.3-0.1,15.4c-1.8,10.1-5.4,19.5-10,28.7c-9.7,19.6-25.9,30.4-46.5,35.3c-13.3,3.2-26.7,3.9-40.2,0.7
		C172.2,326.2,168.2,325,164.2,324.3z"/>
	<path class="st12" d="M271,263.6c0.5-5.3,1.1-10.5,1.6-15.8c3-8.1,3.2-17,8-25.7c4.1,11.3,1.9,22.1,2.7,32.7
		c-0.1,1.7-0.2,3.4-0.4,5.1c-0.7,5.5-0.6,11-1.5,16.5c-0.5,3.1-1.6,6-3,8.8c-1.1,2.1-2.1,5-5.1,4.4c-2.6-0.5-2.4-3.4-2.8-5.5
		C269.5,277.2,269.7,270.4,271,263.6z"/>
	<path class="st16" d="M164.2,324.3c4.2-2.2,7.7-0.7,10.8,2.2c2.7,4.9,0.2,7.6-4.1,9.6c-0.4,0-0.8,0.1-1.2,0.1c-0.6,0-1.3,0-1.9,0
		c-3.3-0.2-8.2,1.3-9.3-2.5C157.4,329.9,160.7,326.5,164.2,324.3z"/>
	<path class="st6" d="M124.1,516.5c1.2,1.8,1.2,3.6,0,5.4c-2.9,5.1-5.1,5.5-11.5,2.4c-0.2-0.3-0.3-0.7-0.5-1
		c0.1-3.5,0.1-7.1,0.2-10.6C116.8,512.1,121.1,512.2,124.1,516.5z"/>
	<path class="st10" d="M32.9,495.3c1.6,1.6,3.4,3,5.8,2.6c13.4-2.1,23.4,4.6,33,12.4c3,1.7,4.9,4.3,7,6.8
		c4.6,12.5,8.5,25.1,5.4,38.7c-0.4,1.8-1.1,3.5-3,4.4c-2.8,14.9-13.8,22.3-34.4,17.1C31.6,573.5,16.6,554.3,13,536
		c-3.8-19,4.7-31.1,19.4-40.8L32.9,495.3z"/>
	<path class="st17" d="M32.9,495.3c0,0-0.5,0-0.5,0c-2.1-0.8-5.3-0.4-5.1-3.7c0.2-2.5,1-5,4-6.2c2.2-0.9,4.1-2.4,6.1-3.6
		c2.4,0,4.9-0.1,7.3-0.1c2.5,0,5.1-0.1,5.8,3.1c0.7,3.5-1.8,4.8-4.4,5.7C41.7,492.2,37.3,493.7,32.9,495.3z"/>
	<path class="st18" d="M81.2,560.2c-0.1-1.4,0.4-2.7,1.5-3.7c3.5-2.3,6.9-2.4,10.3,0.2c0.2,0.3,0.3,0.7,0.5,1
		c-0.1,3.8,0.6,7.7-2.9,10.6C86,567.3,80.6,567.1,81.2,560.2z"/>
	<path class="st19" d="M77.1,516.6c-2.7-1.3-4.7-3.2-5.3-6.3c2.1-5.1,6.5-4.8,10.8-4.3c4.9,3.1,6.8,7.7,6.9,13.3
		c-0.3,0.2-0.6,0.4-0.8,0.6C84.3,520.6,80.3,519.9,77.1,516.6z"/>
	<path class="st20" d="M114.5,560.3c-7.1,0-14.1-0.9-21-2.5l0,0c-1.2-1.4-1.9-3.1-1.5-4.9c2.1-9.7-0.2-18.9-2.9-28.1
		c-0.5-1.9-1.3-3.9,0.4-5.6l0,0c7.7,0,15,3,22.6,3.9l0,0c1.2,1.8,3,3.4,3.1,5.7c0.5,9.9,0.4,19.9,0.4,29.8
		C115.6,559.4,114.9,559.8,114.5,560.3L114.5,560.3z"/>
	<path class="st21" d="M114.5,560.3c-2-12.3,0.2-24.9-2.4-37.2c4.2,1.6,8.4,2.9,12-1.4c0.4,14.3-1.2,28.7,2.7,42.8
		C123.1,561.7,119,560.5,114.5,560.3z"/>
	<path class="st0" d="M170.9,336.1c2.1-2.9,4.9-5.4,4.1-9.6c12.8,2.4,25.6,2.4,38.4-0.3c31.9-6.6,49.2-27.6,56.4-58.2
		c0.3-1.5,0-3.2,1.3-4.3c-0.3,8.4,1.3,16.6,2.1,26.6c6.2-8.6,7.4-17,8.6-25.3c0.3-1.7-0.3-3.6,1.2-5c-0.2,16,1.1,31.8,6.6,47.1
		c10.5,29.3,32.6,44.1,61.7,50.5c6.5,1.4,13,2.9,19.5,4c13,2.2,25.6-0.1,38-3.8c0.7,4,3.1,7.1,5.3,10.4c-6,1.3-12,3.3-18.1,3.9
		c-32.6,3-63.1-3.9-89.9-23c-16.2-11.5-24.4-28.8-29.7-47.6c-0.8-2.9-0.6-6.2-3.6-9.4c-8.6,21.9-25.3,35-46.2,42.1
		C208.5,340,189.6,341.2,170.9,336.1z"/>
	<path class="st0" d="M289.8,475c-2.3,24.4-1.3,48.8-1.2,73.2c0,6.8,0.5,13.6,2.7,20.2c-0.2,0.3-0.4,0.5-0.6,0.8
		c-3.5,1.2-7.2,1.8-10.9,2.5c-0.3-0.2-0.5-0.3-0.8-0.5c-0.8-13.9-2.1-27.8-2.2-41.7c-0.1-15.9,1-31.8,1.6-47.7
		c0.1-1.8,0.4-3.5,0.5-5.3c0.2-0.3,0.4-0.6,0.7-0.9C282.9,473.8,286.2,472.3,289.8,475z"/>
	<path class="st1" d="M291.3,579.4c1.6,21.3,3.1,42.5,15.6,61c2.3,3.3,3.2,7.4-0.9,10c-4.4,2.7-6.7-1.7-8.4-4.3
		c-7.6-11.9-12.4-25-14.3-39.1c-1.1-8.3-1.9-16.7-2.8-25.1c0.2-0.2,0.4-0.5,0.6-0.7c3-1.7,6.1-2.5,9.6-2.4
		C290.8,579,291,579.2,291.3,579.4z"/>
	<path class="st1" d="M280.3,464.2c0.7-14.6,2.6-28.9,6.8-42.9c0.7-2.5,2-4.9,3.4-7.2c1.6-2.5,4.2-2.4,6.6-1.4
		c2.2,0.9,3.9,2.8,3.3,5.2c-1.4,5.4-5,10.4-2.6,16.4c-8,6.1-3.5,15.8-6.4,23.3c-0.6,1.5-0.1,3.5-0.1,5.3c-0.2,0.2-0.4,0.5-0.6,0.7
		c-3.1,1.1-6.3,1.7-9.6,1.2C280.8,464.7,280.6,464.4,280.3,464.2z"/>
	<path class="st0" d="M291.3,568.4c13.3-3.3,26.9-4.9,40.5-6.2c2.9-0.3,6,1.2,6,4.9c0,4.5-3.7,6.2-7.2,6.5
		c-5.7,0.4-11.5,0.5-17.2,1.6c-7.4,1.4-14.7,2.8-22.1,4.2c0,0-0.1-0.1-0.1-0.1c-2.7-3.5-2.4-7.1,0-10.6L291.3,568.4z"/>
	<path class="st1" d="M279,476.5c-8.5-0.4-16.6,2.4-25,3.2c-3.3,0.4-6.6,0.6-9.9,0.7c-3,0.1-6,0-6.4-4c-0.5-4.5,2.5-6,6-6.5
		c7.4-1.1,14.9-1.8,22.3-2.9c4.8-0.7,9.5-1.8,14.3-2.8c0,0,0.1,0.2,0.1,0.2c0.9,4.1,0.4,8.1-1.3,12L279,476.5z"/>
	<path class="st22" d="M280.4,582c-8.5,0.8-16.2,4.3-24.1,6.9c-3.9,1.3-7.3,1.5-8.8-2.7c-1.5-4,1.6-6.3,4.9-7.4
		c8.7-3,17.3-6.7,26.7-7.7c0,0,0.2,0.2,0.2,0.2c2.4,3.3,2.3,6.9,1.4,10.6L280.4,582z"/>
	<path class="st1" d="M291.2,462.9c8.6-1.1,17.2-1.4,25.8-1.3c3.7,0.1,7,0.7,7.3,5c0.3,4.4-3.4,5.8-6.7,5.6
		c-8.9-0.4-17.6,1.4-26.5,1.5c-2.7-3.5-2.5-7.1,0-10.7L291.2,462.9z"/>
	<path class="st12" d="M291.1,463c0,3.6,0,7.1,0,10.7c-0.5,0.4-0.9,0.9-1.4,1.3c-3.7-0.6-7,1.3-10.6,1.3c-0.4-4.1-0.5-8.1,1.3-12
		C283.9,463.3,287.5,462.7,291.1,463z"/>
	<path class="st0" d="M332.7,282.5c0.1-11.2,7.7-18.1,20.1-18.1c11.6,0,20.1,8.2,20,19.4c-0.1,10.7-10.4,20.1-21.6,19.9
		C340.5,303.4,332.6,294.3,332.7,282.5z"/>
	<path class="st0" d="M205,284.4c-10.2,0-17.6-7-17.5-16.9c0-10.9,8.7-22.3,16.8-22.3c12,0,22.7,8.8,22.7,18.8
		C227,275,216.9,284.3,205,284.4z"/>
	<path class="st5" d="M89.5,519.2c4.2,12.6,6.5,25.3,4,38.6c-3.4-1.9-7.2-1.1-10.8-1.3c2.7-14-1.2-27-5.6-40
		C81.2,517.5,85.4,518.3,89.5,519.2z"/>
	<path class="st12" d="M280.5,581.9c-2.2-3.3-1.2-7-1.4-10.6c3.6-2.5,7.7-3.1,12-2.7c0,3.5,0,7.1,0,10.6
		C287.7,580.7,284.2,581.5,280.5,581.9z"/>
</g>
<g>
	<g>
		<path d="M404.6,133.2c5-6.1,9.7-12.8,15.3-18.4c2.7-2.7,6.8-5.9,10.9-5.2c3.8,0.7,7.5,5.1,4.9,8.7c1.4,0,2.9,0,4.3,0
			c-1.8-2.7,7.8-10.5,9.7-12.1c3.8-3.2,8-6,12.4-8.4c9.1-5.1,18.9-8.7,28.8-11.6c22.9-6.9,46.6-11.3,70.5-13.5c3.2-0.3,3.2-5.3,0-5
			c-27.1,2.5-54.4,7.5-80.1,16.3c-10.6,3.7-21.1,8.3-30.3,14.9c-4.4,3.2-8.5,6.7-12,10.8c-2.7,3.1-6,7.1-3.3,11.1
			c1.1,1.6,3.2,1.6,4.3,0c5.5-7.6-3.4-16.8-11.4-16.2c-5.4,0.4-9.9,4-13.5,7.8c-5.1,5.4-9.5,11.5-14.2,17.3
			C399,132.1,402.6,135.7,404.6,133.2L404.6,133.2z"/>
	</g>
</g>
<g>
	<path d="M617.7,71.3c-0.1,1-0.3,1.7-0.7,2.2c-0.4,0.4-0.9,0.7-1.4,0.8c-0.2,0-0.5,0-0.8,0c-0.4,0-0.7-0.1-1.1-0.3
		c-0.4-0.2-0.7-0.4-0.9-0.8c-0.3-0.4-0.4-0.8-0.5-1.4c-0.1-0.6-0.1-1.6-0.2-2.8c-0.1-1.2-0.1-2.7-0.2-4.3c-1.1,0.2-2.2,0.4-3.6,0.5
		c-1.3,0.2-2.6,0.3-4,0.4c-1.3,0.1-2.6,0.2-3.9,0.3c-1.3,0.1-2.4,0.1-3.4,0c-0.8-0.1-1.5-0.3-2-0.7c-0.5-0.4-0.8-1.1-0.8-1.9
		c0-0.5,0.2-1,0.5-1.6c0.4-0.6,1-0.9,2-1.1c2.6-0.2,5.1-0.4,7.4-0.5c2.3-0.2,4.8-0.4,7.6-0.8c-0.1-2.2-0.2-4.2-0.3-6.1
		c-0.1-1.9-0.2-3.4-0.3-4.4c-0.6,0.1-1.7,0.4-3.1,0.7c-1.4,0.4-2.9,0.8-4.5,1.3c-1.6,0.5-3.2,1-4.6,1.5c-1.5,0.5-2.6,0.9-3.3,1.1
		c-1.1,0.4-2.1,0.4-3,0.2c-0.9-0.2-1.4-0.7-1.7-1.3c-0.3-0.7-0.3-1.4,0-2.2c0.3-0.8,0.9-1.4,1.9-1.9c0.8-0.4,2-0.9,3.7-1.4
		c1.6-0.5,3.3-1.1,5.2-1.6c1.8-0.5,3.5-1,5.2-1.4c1.6-0.4,2.8-0.6,3.7-0.7c1.2-0.2,2.3-0.1,3.1,0.2c0.9,0.3,1.5,0.7,2.1,1.3
		c0.5,0.6,0.9,1.2,1.1,2c0.2,0.8,0.4,1.5,0.4,2.3c0.1,1,0.1,2.6,0.2,4.8c0.1,2.2,0.1,4.4,0.2,6.8c0,2.4,0.1,4.6,0.1,6.7
		C617.8,68.9,617.8,70.4,617.7,71.3z M624.5,83.5c1-0.4,1.8-0.3,2.5,0.2c0.6,0.5,1,1.1,1,1.7c0,1.1-0.5,2-1.4,2.5
		c-0.9,0.6-1.8,1-2.6,1.3c-3.6,1.1-7.5,2-11.8,2.7c-4.3,0.7-8.6,1.2-13,1.5c-0.5,0-1,0-1.5-0.1c-0.5-0.1-1-0.2-1.5-0.4
		c-0.5-0.2-0.9-0.4-1.2-0.7c-0.3-0.3-0.5-0.8-0.6-1.4c-0.1-0.9,0.2-1.6,0.8-2.2c0.7-0.6,1.6-0.9,2.8-1.1h0.7
		c0.6-1.3,1.2-2.7,1.5-4.3c0.4-1.6,0.7-3.1,0.9-4.6c0.2-1.5,0.4-2.9,0.4-4.2c0.1-1.3,0.2-2.3,0.2-3.2c0.1-0.8,0.3-1.5,0.6-2.1
		c0.4-0.6,0.8-0.8,1.3-0.8c0.9,0,1.5,0.3,2,1c0.4,0.6,0.8,1.4,1,2.1c0.4,2.5,0.5,5,0.2,7.5c-0.3,2.5-0.9,5.1-1.7,7.9
		c3.5-0.3,6.7-0.7,9.7-1.3C618.1,85.1,621.2,84.4,624.5,83.5z"/>
	<path d="M645.2,47.4c1.1,0.7,1.6,1.5,1.5,2.5c-0.1,0.9-0.5,1.8-1.1,2.6c-0.4,0.5-0.7,1-1.1,1.5c-0.4,0.5-0.7,1.1-1.1,1.8
		c3.1,1,6.1,2.1,9.1,3.4c3,1.3,5.4,2.7,7.2,4.2c1,0.8,1.5,1.6,1.6,2.4c0.1,0.8,0,1.4-0.3,1.8c-0.3,0.5-0.8,0.6-1.5,0.5
		c-0.7-0.1-1.5-0.3-2.2-0.6c-2.2-1-4.9-2.2-7.9-3.5c-3-1.3-5.9-2.5-8.8-3.5c-0.9,1.8-1.8,3.6-2.6,5.5c-0.8,1.9-1.4,3.7-1.9,5.4
		c-0.2,0.6-0.4,1.1-0.7,1.7c-0.3,0.5-0.6,1-1,1.3c-0.4,0.3-0.9,0.5-1.4,0.6c-0.5,0.1-1.1-0.1-1.7-0.6c-0.6-0.4-1-1.1-1.1-2.1
		c-0.1-1-0.1-1.7,0-2.3c0.9-4.2,2.3-8,4.4-11.6c2-3.6,4.4-7,7.3-10.3c0.4-0.5,0.9-0.7,1.6-0.8C644.3,47,644.8,47.1,645.2,47.4z
		 M667.8,79.8c0,0.6-0.2,1.1-0.5,1.6c-0.4,0.5-1,0.8-1.8,1c-4.6,0.8-8.9,1.8-12.9,3c-4,1.2-8.2,2.5-12.4,4c-1.3,0.5-2.4,0.5-3.4,0.2
		c-1-0.4-1.6-1-1.9-1.8c-0.2-0.8,0-1.5,0.8-2.2c0.8-0.7,1.7-1.3,2.7-1.7c3.1-1.2,6.9-2.4,11.3-3.6c4.4-1.2,9.2-2,14.5-2.5
		c0.4,0,0.7,0,1.1,0.1c0.4,0.1,0.8,0.2,1.2,0.4c0.4,0.2,0.7,0.4,1,0.6C667.6,79.1,667.8,79.4,667.8,79.8z"/>
	<path d="M696.6,64.7c-0.9,0.5-2.2,1-4.1,1.6c-1.8,0.6-3.8,1.2-6,1.9c-1.1,0.3-2.1,0.6-3.2,0.8c-1.1,0.3-2.1,0.5-3.1,0.6
		c-0.1,2.2-0.2,4.3-0.3,6.1c-0.1,1.8,0,3.1,0.1,3.9c0.1,0.6,0.3,1,0.4,1.3c0.2,0.3,0.6,0.3,1.4,0c1.1-0.4,2.3-0.9,3.7-1.6
		c1.3-0.7,2.7-1.5,4.1-2.3c1.3-0.8,2.7-1.7,4-2.7c1.3-1,2.4-1.9,3.4-2.8c1.2-1.1,2.2-1.9,3-2.5c0.8-0.5,1.5-0.5,2,0
		c0.3,0.3,0.4,1,0.2,2c-0.2,1.1-0.5,2-1.1,2.8c-1.1,1.8-2.6,3.4-4.6,5.1c-1.9,1.6-3.9,3-6,4.3c-2.1,1.2-4,2.2-5.7,3
		c-1.8,0.8-3,1.2-3.8,1.3c-1.4,0.2-2.7-0.1-4-0.8c-1.2-0.7-2.1-1.8-2.6-3.2c-0.3-0.9-0.5-2.1-0.6-3.7s-0.1-3.3,0-5.3
		c0-0.8,0-1.5,0-2.3c0-0.8,0.1-1.6,0.1-2.4c-0.1,0-0.1,0-0.1,0c0,0-0.1,0-0.1,0c-0.5-0.1-1.1-0.4-1.8-0.9c-0.7-0.5-1.1-1.1-1.1-1.9
		c0-0.8,0.4-1.3,1.1-1.6c0.7-0.3,1.4-0.5,2-0.6c0.2,0,0.4,0,0.5-0.1c0.1-0.4,0.1-0.8,0.1-1.2c0-0.4,0.1-0.8,0.2-1.2
		c0.1-1.2,0.3-2.3,0.4-3.4c0.2-1.1,0.3-2.1,0.4-2.9c-0.5,0.1-0.8,0.2-1.1,0.2c-0.4,0.1-0.8,0.1-1.4,0c-0.6,0-1.1-0.1-1.5-0.3
		c-1.2-0.4-1.8-1-1.8-1.8c0.1-0.8,0.5-1.4,1.4-1.8c0.9-0.5,1.7-0.8,2.4-1.1c0.6-0.2,1.5-0.4,2.6-0.6c1.1-0.2,2.3-0.4,3.6-0.7
		c1.2-0.2,2.5-0.3,3.7-0.4c1.3-0.1,2.4-0.1,3.4-0.1c0.9,0,1.9,0.2,3,0.5c1.1,0.4,1.7,0.9,1.8,1.5c0.1,0.4,0,0.8-0.3,1.2
		c-0.3,0.4-0.6,0.7-0.9,0.9c-0.4,0.3-0.8,0.5-1.3,0.7c-0.4,0.1-0.8,0.2-1.2,0.2c-2.2,0.2-4.4,0.4-6.7,0.8c-0.2,1.2-0.4,2.5-0.6,3.9
		c-0.2,1.4-0.4,2.9-0.5,4.5c2.3-0.4,4.5-0.9,6.7-1.3c2.2-0.5,4.1-0.9,5.9-1.4c0.8-0.3,1.6-0.5,2.6-0.5c1-0.1,1.8,0.2,2.5,0.8
		c0.2,0.2,0.3,0.7,0.1,1.5C698.5,63.5,697.8,64.2,696.6,64.7z M719.4,50.8c0-1.7,0.7-2.5,2.2-2.3c0.7,0.1,1.4,0.4,2.2,0.8
		c0.7,0.4,1.1,1,1,1.6c0.1,1.8,0.1,3.8,0.2,6.1c0.1,2.2,0.1,4.5,0.1,6.8c0,2.3,0,4.5,0,6.8c0,2.2-0.1,4.3-0.1,6.1
		c0,0.9-0.4,1.6-1.1,2.1c-0.7,0.5-1.3,0.7-1.7,0.6c-1.3-0.4-2-1.4-2.2-3.2c-0.1-2.2-0.1-4.8-0.1-7.7c0-2.9-0.1-5.8-0.1-8.6
		c-0.8,0.3-1.7,0.6-2.5,1c-0.9,0.4-1.7,0.7-2.5,1.1c-1.6,0.7-3.2,1.4-4.7,2c-1.5,0.6-2.8,1.2-3.8,1.7c-0.9,0.4-1.9,0.3-2.8-0.1
		c-1.1-0.4-1.6-1-1.6-1.8c0.1-1.1,1.1-2.2,3.3-3.3c0.9-0.5,2.2-1,3.7-1.7c1.5-0.6,3.1-1.3,4.8-2c1-0.4,2-0.8,3-1.2
		c1-0.4,2-0.8,3-1.1c0-0.6,0-1.3,0-1.8C719.5,52,719.4,51.4,719.4,50.8z"/>
</g>
</svg>
