<?xml version="1.0" encoding="utf-8"?>
<!-- Generator: Adobe Illustrator 21.0.2, SVG Export Plug-In . SVG Version: 6.00 Build 0)  -->
<svg version="1.1" xmlns="http://www.w3.org/2000/svg" xmlns:xlink="http://www.w3.org/1999/xlink" x="0px" y="0px"
	 viewBox="0 0 685.3 595.3" style="enable-background:new 0 0 685.3 595.3;" xml:space="preserve">
<style type="text/css">
	.st0{fill-rule:evenodd;clip-rule:evenodd;fill:#CCCCCC;}
</style>
<g id="레이어_3">
</g>
<g id="레이어_2">
</g>
<g id="레이어_1">
	<g>
		<path class="st0" d="M345.5,595.3c-1.7,0-3.4,0-5.1,0c-1.6-0.4-3.2-0.1-4.7-0.2c-1,0-2.1,0-3.1,0c-1,0-2,0-3,0c-0.7,0-1.3,0-1.9,0
			c-16.6,0.1-33-1.9-49.3-5c-15.6-3-31-6.9-46.1-12c-13.1-4.4-25.9-9.7-38.4-15.6c-13.6-6.5-26.7-13.9-39.4-22
			c-11.1-7.2-21.8-14.9-32-23.4c-6.5-5.4-12.8-11-18.9-16.8c-12.2-11.4-23.1-23.9-33.4-36.9c-8.8-11.1-16.7-22.8-24-34.9
			c-10.7-17.8-19.7-36.5-27-56c-5.3-14.1-9.6-28.5-13.1-43.2c-2.2-9.2-4-18.5-5.3-27.9c-0.4-3.3-0.5-6.8-0.7-10.2
			c0.4-1.7,1.6-1,2.5-0.7c4,1.5,7.9,3.1,11.9,4.6c14.8,5.6,29.7,10.6,44.8,15.2c15,4.5,30.1,8.5,45.3,12.1
			c18.8,4.5,37.8,8.2,56.9,11.4c5.7,0.9,11.5,1.7,17.2,2.9c0.8,0.1,1.6,0,2.4,0.1c13,2,26.1,3.6,39.2,4.9c0.8,0.1,1.5,0.3,2.2,0.2
			c0.6,0.1,1.3,0.1,1.9,0.2c0.7,0.1,1.4,0.3,2.1,0.2c0.7,0.1,1.5,0.1,2.2,0.1c0.7,0.1,1.4,0.3,2.1,0.2c0.6,0.1,1.3,0.1,1.9,0.2
			c0.8,0.2,1.6,0.3,2.4,0.2c0.8,0,1.5,0.1,2.2,0.1c0.8,0.2,1.6,0.4,2.5,0.2c0.7,0.1,1.5,0.1,2.2,0.2c0.8,0.2,1.6,0.3,2.5,0.2
			c0.9,0.1,1.7,0.1,2.6,0.2c0.8,0.2,1.6,0.4,2.5,0.2c0.9,0.1,1.8,0.1,2.6,0.1c0.9,0.2,1.9,0.4,2.9,0.2c1,0.1,2,0.1,3,0.1
			c1,0.2,1.9,0.4,2.9,0.2c1.1,0.1,2.3,0.1,3.4,0.2c1.1,0.2,2.2,0.5,3.3,0.2c1.3,0.1,2.6,0.1,3.8,0.1c1.2,0.2,2.4,0.5,3.7,0.2
			c1.5,0.1,3.1,0,4.6,0.1c1.5,0.3,2.9,0.6,4.5,0.2c1.9,0.2,3.9,0,5.8,0.2c1.9,0.4,3.7,0.7,5.6,0.2c2.9,0.2,5.7,0,8.6,0.2
			c3.8,0.8,7.6,0.8,11.4,0.2c5.6,0.2,11.2,0.2,16.8,0c2.2,0.4,4.4,0.5,6.6,0.4c7.5,0.3,14.9-0.6,22.3-0.7c5.7-0.1,11.4-0.4,17-0.7
			c7.2-0.4,14.5-0.8,21.7-1.4c3.8-0.3,7.6-0.6,11.3-0.9c6.6-0.6,13.3-1.2,19.9-1.9c6.1-0.7,12.2-1.3,18.3-2.1c9-1.1,18-2.3,27-3.6
			c11.4-1.7,22.7-3.7,34-5.8c13.6-2.6,27.2-5.5,40.7-8.8c16.7-4,33.2-8.6,49.5-13.7c19.4-6.1,38.5-13.1,57.3-21
			c4-1.7,8.1-3.4,12-5.4c0.4-0.1,0.8-0.2,1.2-0.4c3.8-2.2,8-4,12-5.8c2-0.9,2.6-0.3,2.5,1.8c-0.2,3.3-0.3,6.6-0.5,10
			c-0.4,6.7-1.5,13.4-2.6,20c-2.3,14.2-5.5,28.2-9.6,42c-3.9,13.1-8.5,26-13.9,38.6c-3.3,7.8-7,15.5-11,23
			c-6.8,13.1-14.5,25.6-22.9,37.7c-6.4,9.2-13.2,17.9-20.4,26.4c-4,4.7-8,9.3-12.4,13.7c-2.3,2.3-4.3,4.8-6.6,7
			c-15.4,14.9-31.7,28.7-49.4,40.8c-11.5,7.8-23.4,14.9-35.7,21.3c-15.3,7.9-31,14.6-47.3,20.2c-16.6,5.7-33.6,10-50.8,13.2
			c-8.6,1.6-17.3,2.9-26,3.6c-6.4,0.5-12.8,0.6-19.2,0.7c-0.6,0-1.3,0-1.9,0c-0.9,0-1.8,0-2.7,0c-1,0-2,0-3.1,0
			C348.4,595.2,346.9,594.9,345.5,595.3z"/>
		<path class="st0" d="M658.3,249.1c0.5-0.3,0.9-0.6,1.4-0.9c2.3-1.2,4.4-2.8,6.8-3.8l-0.1,0c0.6-0.6,1.3-0.9,2-1.2l-0.1,0
			c0.8-0.8,1.8-1.3,2.8-1.8c0.7-0.4,1.3-0.1,1.3,0.8c-0.1,3.8,0.3,7.7-0.2,11.5c0,0.5,0,1,0,1.4c0.1,2.8,0,5.6-0.3,8.4
			c0,0.4,0,0.7,0,1.1c0.3,3.4-0.6,6.8-0.5,10.2c0,0.6-0.2,1.1-0.4,1.7c-7,3.5-14.3,6.5-21.6,9.4c-36.8,14.9-74.7,26-113.4,34.6
			c-22.1,4.9-44.3,8.9-66.6,12c-17.8,2.5-35.6,4.6-53.5,6.1c-24.7,2.2-49.4,3.4-74.2,3.8c-0.8,0-1.6,0-2.4-0.1
			c0.4-0.9,1.3-0.6,2-0.7c1.9-0.2,3.7-0.1,5.6-0.4c0.2,0,0.4,0,0.7-0.1c7.2-1,14.5-1.9,21.8-2.7l0.1,0.1l0.1-0.1
			c4-0.9,8.1-1,12.1-1.8c2.3-0.5,4.6-0.7,7-1l0.1,0.1l0.1-0.1c3.3-0.8,6.6-1.1,9.9-1.6l0,0c2.3-0.8,4.8-0.9,7.1-1.2h0
			c0.8-0.6,1.7,0.1,2.5-0.4c0.1,0.1,0.2,0.1,0.3,0c2.8-0.8,5.6-1.1,8.4-1.5l0.1,0l0.1-0.1c2.7-0.7,5.5-1.2,8.4-1.6
			c0.1,0.1,0.2,0.1,0.3,0c5.8-1.3,11.6-2.4,17.4-3.5l0,0c2.4-0.8,4.9-1.1,7.4-1.7c2.5-0.5,5-1.1,7.4-1.9
			c15.8-4.3,31.9-7.9,47.6-12.4c15.9-4.6,31.7-9.6,47.4-15c12.1-4.1,24.1-8.7,36-13.5c10.7-4.3,21.3-9,31.8-14
			c7.9-3.7,15.6-7.7,23.4-11.6c0.9-0.4,1.8-0.8,2.8-1.1c1.8-0.5,3.4-1.6,5.2-2.4l0,0C653.9,251.2,656.1,250.2,658.3,249.1z"/>
		<path class="st0" d="M310.9,324.3c-1.3,0.2-2.3,0.9-3.4,1.5c-1,0.5-1.4,0.3-1.4-0.9c0.1-2.7,0.1-5.4,0.2-8
			c0.9-27.3,0.8-54.6,0.5-82c-0.1-11.5-0.4-23.1-0.7-34.6c-0.5-18.9-1-37.9-1.6-56.8c-0.6-20.2-1-40.5-1.2-60.7
			c-0.1-12.3-0.2-24.6-0.1-37c0.2-14.7,0.6-29.3,0.9-44c0-1-0.3-2.5,1.7-1.6l0,0c0.9,0.4,1.7,0.9,2.4,1.6l0,0
			c0.9,0.4,1.7,0.9,2.4,1.6l0,0c1.5,0.9,3.1,1.6,4.3,2.8l0,0c1.1,0.6,2.2,1.2,3.2,2.1c0.1,0.1,0.2,0.2,0.3,0.2
			c1.8,0.9,3.5,2,5.2,3.2l0,0c0.5,0.4,1.3,0.5,1.6,1.2c0.1,0.3,0.4,0.4,0.7,0.4c1.4,0.7,2.8,1.4,4,2.5c0.2,0.4,0.5,0.7,1,0.6
			c1.6,0.8,3.1,1.6,4.5,2.8l0,0c0.7,0.4,1.4,0.6,2,1.2l0,0c1.1,0.6,2.2,1.1,3.2,2l0,0c0.7,0.4,1.4,0.6,2,1.2l0,0
			c1.1,0.6,2.3,1.1,3.2,2l0,0c1.7,1,3.6,1.9,5.2,3.2l0,0c1.7,0.8,3.3,1.8,4.7,2.9c0.1,0.1,0.2,0.2,0.4,0.2c3.1,1.5,5.9,3.3,8.7,5.2
			c0.1,0.3,0.4,0.3,0.6,0.3c1.7,0.7,3.3,1.8,4.9,2.8l0,0c1.3,0.8,2.8,1.3,4,2.4l0,0c0.9,0.6,2,0.8,2.8,1.6l0,0
			c2.1,1.3,4.5,2.1,6.3,3.9c0.3,0.2,0.7,0.3,1,0.5c2.3,0.9,4.3,2.3,6.4,3.5l0,0c2.1,1.1,4.3,2.3,6.3,3.6l0,0
			c1.6,0.9,3.3,1.6,4.8,2.7l0,0c1.3,0.5,2.6,1,3.5,2.1c0.1,0.3,0.4,0.3,0.7,0.3c1.3,0.5,2.6,1,3.7,2.1c0.1,0.3,0.4,0.3,0.7,0.3
			c1.6,0.6,3,1.4,4.4,2.4l0,0c1.5,0.6,2.9,1.5,4.3,2.4l0,0c1.5,0.6,3,1.4,4.4,2.4l0,0c2.6,1.1,5.1,2.4,7.5,4.1
			c0.1,0.3,0.4,0.3,0.7,0.3c2,1.1,4.2,1.8,6,3.3c0.1,0.3,0.3,0.3,0.6,0.3c1.7,1,3.8,1.4,5.3,2.9c0.2,0.3,0.4,0.3,0.7,0.3
			c3.7,1.7,7.3,3.4,10.7,5.6c0.2,0.3,0.4,0.3,0.7,0.3c4.1,1.6,7.7,4,11.6,5.8c0.3,0.1,0.6,0.3,0.7,0.6c0.1,0.3,0.4,0.3,0.7,0.3
			c1.5,0.4,2.8,1.1,4.1,2l0,0c2.4,1.3,4.8,2.4,7.1,3.6l-0.1,0c2.7,1.6,5.7,2.6,8.3,4.5c0.2,0.3,0.4,0.3,0.7,0.3c1.5,0.5,2.9,1,4,2.1
			c0.2,0.1,0.4,0.2,0.7,0.3c2.3,1.2,4.7,2.1,6.8,3.6c0.1,0.3,0.4,0.4,0.7,0.3c1.7,0.6,3.4,1.3,4.8,2.5c0.4,0.4,0.9,0.7,1.5,0.7
			c2,1.1,4.2,1.8,6,3.2c0.2,0.1,0.4,0.2,0.7,0.3c3.5,1.4,6.7,3.4,10,5.1l0,0c1.4,0.9,3.1,1.3,4.3,2.5c0.4,0.4,0.9,0.7,1.5,0.7
			c1.6,0.6,3.1,1.3,4.4,2.4c0.1,0.3,0.4,0.3,0.7,0.3c2.7,1.1,5.2,2.4,7.6,4.1c0.1,0.1,0.3,0.2,0.3,0.2c3,1.1,5.6,2.8,8.3,4.4l0,0
			c1.4,0.9,3.2,1.3,4.4,2.6c0.3,0.1,0.5,0.3,0.8,0.4c2.7,1,5.1,2.4,7.4,4.1c0.2,0.3,0.4,0.3,0.7,0.3c1.3,0.5,2.6,1.2,3.7,2l0,0
			c0.9,0.6,2,0.8,2.8,1.7c0.1,0.3,0.4,0.3,0.7,0.3c2.2,1.1,4.4,2.2,6.4,3.7c0.1,0.1,0.2,0.2,0.3,0.2c1.4,0.4,2.6,1.1,3.6,2.1
			c0.1,0.3,0.3,0.3,0.6,0.3c0.8,0.3,1.5,0.7,2.1,1.2l0,0c1.1,0.7,2.3,1.2,3.4,1.9c1.1,0.8,0.9,1.2-0.1,1.8c-1.2,0.8-2.5,1.4-3.8,2.1
			l0,0c-2.5,1.5-5,3-7.5,4.4l0.1,0c-2.4,1.6-5,3-7.5,4.4l0,0c-2.8,1.8-5.7,3.7-8.7,5.1c-0.1,0.1-0.2,0.2-0.3,0.3
			c-0.4,0.6-1.1,0.6-1.7,0.9c-0.4,0.3-0.7,0.5-1.1,0.8c-2.4,1.5-4.7,3-7.1,4.3l0.1,0c-0.6,0.6-1.4,0.8-2,1.2l0.1,0
			c-3.7,2.3-7.3,4.7-11.1,6.7c-0.4,0.3-0.7,0.5-1.1,0.8c-1.1,0.6-2.1,1.4-3.2,1.9l0,0c-3.5,2.3-6.9,4.7-10.7,6.7l0,0
			c-1.1,0.7-2,1.6-3.3,2c-0.3,0.3-0.7,0.5-1,0.8c-3.3,2.1-6.5,4.3-9.9,6.3l0,0c-1.8,1.2-3.6,2.5-5.5,3.6l0,0
			c-2.3,1.5-4.4,3.1-6.8,4.4c-0.3,0.3-0.7,0.5-1,0.8c-2.3,1.4-4.4,3.1-6.8,4.3l0.1,0c-5.2,3.5-10.4,6.9-15.8,10.2l0,0
			c-1.7,1.1-3.2,2.5-5.2,3.2c-0.1,0.1-0.2,0.2-0.3,0.2c-1.3,1.3-2.8,2.1-4.4,2.9c-0.3,0.3-0.7,0.5-1,0.8c-0.6,0.5-1.4,0.8-2,1.2l0,0
			c-0.6,0.6-1.4,0.8-2,1.2c-0.1,0.1-0.2,0.2-0.3,0.3c-1,0.8-2.1,1.4-3.2,2l0,0c-1.8,1.2-3.6,2.5-5.5,3.6l0,0
			c-1.8,1.2-3.4,2.5-5.4,3.2c-0.3,0.3-0.6,0.5-0.9,0.8c-1.1,0.7-2.1,1.4-3.2,2l0,0c-2.4,1.5-4.5,3.3-7.2,4.3c-0.3,0.3-0.7,0.5-1,0.8
			c-2.7,1.8-5.5,3.5-8.3,5.1l0,0c-1.1,0.8-2.2,1.6-3.5,2h0c-0.7,0.7-1.5,1.3-2.4,1.5l0,0c-1,0.7-2.1,1.4-3.2,2l0,0
			c-1.7,1.2-3.6,2.2-5.5,3.2c-0.4,0.3-0.8,0.5-1.1,0.8c-0.6,0.5-1.3,0.7-2,1.1l0,0c-1.5,1-3,2.1-4.8,2.8c-0.4,0.3-0.7,0.5-1.1,0.8
			c-1.5,1-3.1,1.9-4.8,2.7l0,0c-0.6,0.6-1.4,0.8-2.1,1.2c-0.2,0.2-0.4,0.3-0.7,0.4c-1.6,1-3.1,2-4.7,2.7l0,0c-0.6,0.5-1.3,0.8-2,1.2
			l0,0c-0.8,0.7-1.9,1-2.8,1.6l0,0c-0.6,0.6-1.3,0.9-2.1,1.2c-0.2,0.1-0.4,0.3-0.6,0.4c-1.2,0.7-2.3,1.6-3.7,1.9
			c-0.4,0.3-0.7,0.5-1.1,0.8c-1.1,0.9-2.4,1.3-3.6,2l0,0c-0.4,0.5-1,0.6-1.6,0.8l0,0c-1.7,1.3-3.7,2.1-5.5,3.2l0,0
			c-2.3,1.4-4.7,2.8-7.1,3.9l0,0c-1.6,1.1-3.4,1.9-5.1,2.8l0,0c-0.6,0.5-1.4,0.8-2,1.2l0,0c-0.4,0.5-1,0.6-1.6,0.8l0,0
			c-1.6,1.1-3.3,2-5.1,2.8l0,0c-0.4,0.5-1.1,0.5-1.6,0.8l0,0c-0.6,0.5-1.4,0.8-2,1.1l0.1,0c-1,0.6-2,1.3-3.1,1.6h0
			c-0.9,0.6-1.9,1-2.8,1.5l0.1,0c-0.5,0.4-1.1,0.5-1.6,0.8l0,0c-1.6,1.2-3.5,1.8-5.1,2.8l0.1,0c-0.8,0.4-1.5,1-2.4,1.2l0,0
			c-1.7,1.2-3.6,2-5.5,2.8h0c-2.2,1.3-4.5,2.5-6.8,3.5C311.3,324,311.1,324.1,310.9,324.3z"/>
		<path class="st0" d="M647.1,250.4c-18.1,9.4-36.6,18.1-55.5,25.9c-11.2,4.6-22.5,9-33.9,13c-14.8,5.2-29.7,10.1-44.8,14.5
			c-11.6,3.3-23.2,6.5-34.9,9.4c-6,1.5-12.1,2.9-18.1,4.3c-0.6,0.2-1.3,0.2-1.9,0.3c0.8-1.4,2.5-1.3,3.7-1.9
			c0.3-0.1,0.5-0.2,0.7-0.4c2.6-1.4,5.2-2.6,7.9-3.6l0,0c3.1-1.6,6.2-3.2,9.5-4.3l0,0c0.8-0.7,1.8-0.9,2.8-1.4
			c2-0.7,3.8-1.7,5.5-2.8c6.1-3.1,12.3-6,18.4-9.2c0.4-0.2,0.9-0.2,1.3-0.4l0,0c3.6-2.2,7.4-3.9,11.1-5.9c0.1,0,0.2,0,0.3-0.1
			c1.3-0.5,2.4-1.4,3.7-2.1c0.6-0.4,1.2-0.8,1.9-1l-0.1,0c0.4-0.6,1-0.6,1.6-0.8l0,0c2.3-1.5,4.6-2.9,7.1-4l0,0
			c0.7-0.6,1.6-0.8,2.3-1.2l0,0c2.5-1.9,5.3-3.2,8-4.6c0.2-0.1,0.4-0.3,0.6-0.4c1.9-1.4,3.9-2.5,6-3.5l0,0c0.6-0.6,1.3-0.9,2-1.2
			l-0.1,0.1c2.3-1.7,4.8-3,7.3-4.5c2.7-1.7,5.3-3.5,8.1-5c0.1,0,0.3,0,0.4-0.1c2.9-2.3,6.2-4.1,9.3-6.2c3.7-2.5,7.4-5.1,11.3-7.5
			l0,0c2.7-2.1,5.6-4.1,8.5-6c0.2-0.1,0.3-0.3,0.5-0.4c2.7-2,5.3-4.1,8.2-5.9c0.1-0.1,0.3-0.3,0.5-0.4c2.6-2,5.1-4.1,7.9-5.9l0,0
			c5.4-4.4,10.8-8.6,16.2-13c2.4-1.9,4.6-4,7.1-5.9l-0.1,0c1-0.8,1.8-1.8,2.7-2.5c0.8-0.6,1.5-0.6,1.7,0.6c0.6,3.8,1.6,7.5,1.8,11.4
			c0,0.1,0,0.3,0,0.4c1.3,7.1,2.1,14.3,2.8,21.4c0.3,2.9,0.6,5.8,0.6,8.7C646.5,249.2,646.9,249.7,647.1,250.4z"/>
	</g>
</g>
</svg>
