<?xml version="1.0" encoding="utf-8"?>
<!-- Generator: Adobe Illustrator 21.0.2, SVG Export Plug-In . SVG Version: 6.00 Build 0)  -->
<svg version="1.1" id="Layer_1" xmlns="http://www.w3.org/2000/svg" xmlns:xlink="http://www.w3.org/1999/xlink" x="0px" y="0px"
	 viewBox="0 0 580.9 394" style="enable-background:new 0 0 580.9 394;" xml:space="preserve">
<style type="text/css">
	.st0{fill-rule:evenodd;clip-rule:evenodd;fill:#CCCCCC;}
	.st1{fill:#CCCCCC;}
</style>
<g>
	<path class="st0" d="M528.9,0c4.3,0.3,7.4,2.6,9.9,5.8c3.9,5,6,10.9,7.5,16.9c0.4,1.4,0.9,1.5,2.1,1.3c7-1.2,14.1-1.7,21.2-0.2
		c3.1,0.6,6.1,1.7,8.5,3.9c2.7,2.6,3.1,5.9,2.4,9.5c-0.7,3.2-2.2,6.1-3.9,8.9c-3.2,5.4-7.3,10.2-11.5,14.8
		c-5.2,5.7-10.7,11.1-16.1,16.8c-7.6,8.1-16.2,15.1-24.8,22c-6.5,5.2-13.1,10.3-20.2,14.6c-3.9,2.4-8,4.5-12.6,5.3
		c-4.3,0.7-7.6-1.2-8.9-5.3c-1.2-3.6-1.3-7.3-1.1-11c0.4-11.4,2.2-22.7,4.5-33.9c2.4-11.7,6.9-22.7,11.7-33.5
		c3.9-8.8,8.6-17.1,14.6-24.6c3.3-4.1,7-7.9,12.1-10C525.7,0.7,527.4,0.4,528.9,0z"/>
	<g>
		<path class="st1" d="M485.8,135.8c-1.3-3.2-3.6-4.5-6.9-3.4c-2.9,1-5.8,2.3-8.5,3.8c-9.9,5.6-19.6,11.5-29.7,16.8
			c-10.9,5.7-22.6,9.2-34.8,10.9c-21.8,3.1-42.4-1.1-61.5-11.5c-11.9-6.5-23-14.2-34.6-21.2c-8.7-5.3-17.5-10.6-26.5-15.3
			c-13.6-7.1-28-12.6-42.9-16.4c-13.3-3.4-26.8-5.5-40.5-6c-14.3-0.6-28.5,0.5-42.5,3.2c-22.2,4.3-42.8,12.4-62,24.2
			c-14.1,8.6-26.8,19-38.3,30.9c-19.7,20.5-34.4,44.1-44.3,70.7c-8,21.5-12.4,43.6-12.8,73c0,3.4,0.2,8,0.8,13.1
			c2.4,0.1,4.8,0.2,7.1,0.4c26.7,1.8,53.4,2.6,80.2,2.2c16.9-0.3,33.7-0.9,50.6-1.8c14-0.7,28-1.8,42-3.1c23.1-2.2,46.1-5.4,69-9.4
			c35.5-6.2,70.5-14.5,104.6-26.1c27.3-9.3,53.7-20.6,78.4-35.8c12.6-7.8,24.4-16.5,34.9-26.9c0,0,0.1-0.1,0.1-0.1
			c2.5-4.8,5-9.7,7.2-14.7c6-13.7,10.5-27.9,12-42.9C487.4,145.5,487.7,140.5,485.8,135.8z M77.4,275.6c-0.3-0.1-0.6-0.3-0.8-0.3
			c-14.8-4.1-29.9-6.3-45.2-6.7c-1.6-0.1-3.3-0.1-5-0.2c0-0.2,0-0.3,0.1-0.4c3.1-9.4,9.4-15.4,18.9-17.9c1.2-0.3,2.4-0.5,3.6-0.7
			c1.7,0,3.3,0,5,0c0.2,0.1,0.4,0.1,0.6,0.2c3.7,0.4,7.3,1.6,10.5,3.5c8.3,5.2,12.6,12.8,12.8,22.6
			C77.7,275.6,77.6,275.6,77.4,275.6z"/>
		<path class="st1" d="M433.2,238.8c-24.6,15.2-51,26.5-78.4,35.8c-34.1,11.6-69.1,19.9-104.6,26.1c-22.9,4-45.9,7.1-69,9.4
			c-14,1.3-28,2.4-42,3.1c-16.8,0.9-33.7,1.5-50.6,1.8c-26.8,0.4-53.5-0.4-80.2-2.2c-2.3-0.2-4.7-0.3-7.1-0.4
			c0.7,7,2.1,15.2,4.2,23.2c3.1,12,7.8,23.4,14.9,33.7c11,15.8,25.9,24.3,45.3,24.7c15,0.3,29.5-2.9,43.9-6.2
			c9.6-2.2,19.1-4.8,28.5-7.4c13.7-3.8,27.3-7.7,40.9-11.6c13.7-3.9,27.4-7.8,41.1-11.7c9.2-2.6,18.5-5,27.7-7.5
			c8.7-2.4,17.5-4.8,26.2-7.3c13.3-3.9,26.5-7.6,39.7-11.8c14.7-4.7,29-10.3,43-16.8c20.7-9.7,40-21.4,57.5-36.1
			c22.3-18.7,40.4-40.5,53.9-65.9c0,0-0.1,0-0.1,0.1C457.6,222.3,445.8,231,433.2,238.8z"/>
	</g>
</g>
</svg>
