<?xml version="1.0" encoding="utf-8"?>
<!-- Generator: Adobe Illustrator 21.0.2, SVG Export Plug-In . SVG Version: 6.00 Build 0)  -->
<svg version="1.1" id="Layer_1" xmlns="http://www.w3.org/2000/svg" xmlns:xlink="http://www.w3.org/1999/xlink" x="0px" y="0px"
	 viewBox="0 0 841.9 328.5" style="enable-background:new 0 0 841.9 328.5;" xml:space="preserve">
<style type="text/css">
	.st0{fill:#FFFFFF;}
</style>
<g id="레이어_3">
</g>
<g id="레이어_2">
</g>
<g id="레이어_1">
	<g>
		<g>
			<path class="st0" d="M766.9,130.5c-0.3,0-0.8,0-1.1,0c-0.3-0.1-0.7,0-1,0c-0.2,0-0.5,0-0.7,0s-0.5,0-0.7,0c-0.1,0-0.2,0-0.5,0
				c-3.7,0-7.2-0.5-10.9-1.1c-3.4-0.7-6.9-1.5-10.1-2.6c-2.9-1-5.7-2.2-8.5-3.4c-3-1.4-5.8-3.1-8.7-4.8c-2.4-1.6-4.8-3.3-7-5.1
				c-1.4-1.1-2.7-2.4-4.1-3.7c-2.6-2.5-5-5.3-7.3-8.1c-1.9-2.4-3.7-5-5.3-7.7c-2.4-3.9-4.3-8-5.9-12.3c-1.1-3.1-2.1-6.3-2.9-9.5
				c-0.5-2.1-0.9-4.1-1.1-6.2c-0.1-0.7-0.1-1.5-0.1-2.3c0.1-0.3,0.3-0.2,0.6-0.1c0.9,0.3,1.7,0.7,2.6,1c3.2,1.3,6.5,2.3,9.8,3.3
				c3.3,1,6.6,1.8,9.9,2.6c4.1,1,8.3,1.8,12.5,2.5c1.3,0.2,2.5,0.3,3.8,0.6c0.2,0,0.3,0,0.6,0c2.9,0.5,5.7,0.8,8.6,1
				c0.1,0,0.3,0.1,0.5,0c0.1,0,0.2,0,0.5,0c0.1,0,0.3,0.1,0.5,0c0.1,0,0.3,0,0.5,0c0.1,0,0.3,0.1,0.5,0c0.1,0,0.2,0,0.5,0
				c0.2,0,0.3,0.1,0.6,0c0.1,0,0.3,0,0.5,0c0.2,0,0.3,0.1,0.6,0c0.1,0,0.3,0,0.5,0c0.2,0,0.3,0.1,0.6,0c0.2,0,0.3,0,0.6,0
				c0.2,0,0.3,0.1,0.6,0c0.2,0,0.3,0,0.6,0c0.2,0,0.5,0.1,0.7,0c0.2,0,0.5,0,0.7,0s0.5,0.1,0.7,0c0.2,0,0.5,0,0.8,0
				c0.2,0,0.5,0.1,0.7,0c0.2,0,0.6,0,0.8,0c0.2,0,0.6,0.1,0.8,0c0.3,0,0.7,0,1,0c0.3,0.1,0.7,0.1,1,0c0.5,0,0.8,0,1.3,0
				c0.5,0.1,0.8,0.1,1.3,0c0.7,0,1.3,0,1.8,0c0.8,0.2,1.7,0.2,2.5,0c1.3,0,2.4,0,3.7,0c0.5,0.1,0.9,0.1,1.5,0.1
				c1.6,0.1,3.3-0.1,4.9-0.1c1.3,0,2.5-0.1,3.8-0.1c1.6-0.1,3.2-0.2,4.8-0.3c0.8-0.1,1.6-0.1,2.5-0.2c1.5-0.1,2.9-0.2,4.3-0.5
				c1.4-0.1,2.6-0.3,4-0.5c1.9-0.2,4-0.5,5.9-0.8c2.5-0.3,5-0.8,7.4-1.3c3-0.6,5.9-1.3,8.9-1.9c3.7-0.9,7.3-1.9,10.9-3
				c4.2-1.4,8.5-2.9,12.6-4.6c0.9-0.3,1.7-0.8,2.6-1.1c0.1,0,0.2,0,0.2-0.1c0.8-0.5,1.7-0.9,2.6-1.3c0.5-0.2,0.6-0.1,0.6,0.5
				c0,0.7-0.1,1.5-0.1,2.2c-0.1,1.5-0.3,3-0.6,4.3c-0.5,3.1-1.3,6.2-2.1,9.3c-0.8,2.9-1.8,5.7-3.1,8.5c-0.7,1.7-1.5,3.4-2.4,5
				c-1.5,2.9-3.2,5.6-5,8.2c-1.4,2.1-2.9,3.9-4.5,5.8c-0.9,1-1.7,2.1-2.7,3c-0.5,0.5-0.9,1-1.5,1.5c-3.4,3.3-7,6.3-10.9,8.9
				c-2.5,1.7-5.1,3.3-7.9,4.7c-3.3,1.7-6.9,3.2-10.4,4.5c-3.7,1.3-7.3,2.2-11.2,2.9c-1.9,0.3-3.8,0.7-5.7,0.8
				c-1.4,0.1-2.9,0.1-4.2,0.1c-0.1,0-0.2,0-0.5,0c-0.2,0-0.3,0-0.6,0c-0.2,0-0.5,0-0.7,0C767.6,130.4,767.2,130.4,766.9,130.5z"/>
			<path class="st0" d="M835.6,54.5c0.1-0.1,0.2-0.1,0.3-0.2c0.5-0.2,0.9-0.6,1.5-0.8l0,0c0.1-0.1,0.3-0.2,0.5-0.2l0,0
				c0.2-0.1,0.5-0.2,0.6-0.3c0.1-0.1,0.3,0,0.2,0.2c0,0.8,0.1,1.7,0,2.5c0,0.1,0,0.2,0,0.3c0,0.6,0,1.3-0.1,1.8c0,0.1,0,0.1,0,0.2
				c0.1,0.8-0.1,1.5-0.1,2.3c0,0.1,0,0.2-0.1,0.3c-1.5,0.8-3.1,1.4-4.7,2.1c-8.1,3.3-16.3,5.7-24.9,7.5c-4.8,1-9.7,1.9-14.6,2.6
				c-3.9,0.6-7.8,1-11.8,1.4c-5.4,0.5-10.9,0.7-16.2,0.8c-0.2,0-0.3,0-0.6,0c0.1-0.2,0.2-0.1,0.5-0.1c0.5,0,0.8,0,1.3-0.1h0.1
				c1.6-0.2,3.2-0.5,4.8-0.6l0,0l0,0c0.9-0.2,1.8-0.2,2.6-0.3c0.5-0.1,1-0.1,1.5-0.2l0,0l0,0c0.7-0.1,1.5-0.2,2.2-0.3l0,0
				c0.5-0.1,1-0.2,1.6-0.2l0,0c0.1-0.1,0.3,0,0.6-0.1c0,0,0,0,0.1,0c0.6-0.2,1.3-0.2,1.8-0.3l0,0l0,0c0.6-0.1,1.3-0.2,1.8-0.3
				c0,0,0,0,0.1,0c1.3-0.3,2.5-0.6,3.8-0.8l0,0c0.6-0.2,1-0.2,1.6-0.3c0.6-0.1,1.1-0.2,1.6-0.5c3.4-0.9,7-1.7,10.4-2.7
				c3.5-1,7-2.1,10.4-3.3c2.6-0.9,5.3-1.9,7.9-3c2.4-0.9,4.7-1.9,7-3.1c1.7-0.8,3.4-1.7,5.1-2.5c0.2-0.1,0.3-0.1,0.6-0.2
				c0.5-0.1,0.8-0.3,1.1-0.6l0,0C834.6,55,835.2,54.7,835.6,54.5z"/>
			<path class="st0" d="M759.4,71.1c-0.2,0-0.5,0.2-0.7,0.3s-0.3,0.1-0.3-0.2c0-0.6,0-1.1,0-1.7c0.2-5.9,0.2-12,0.1-17.9
				c0-2.5-0.1-5-0.1-7.5c-0.1-4.1-0.2-8.3-0.3-12.5c-0.1-4.5-0.2-8.9-0.2-13.4c0-2.7,0-5.4,0-8.1c0-3.2,0.1-6.4,0.2-9.6
				c0-0.2-0.1-0.6,0.3-0.3l0,0c0.2,0.1,0.3,0.2,0.6,0.3l0,0c0.2,0.1,0.3,0.2,0.6,0.3l0,0c0.3,0.2,0.7,0.3,0.9,0.6l0,0
				c0.2,0.1,0.5,0.2,0.7,0.5c0,0,0,0,0.1,0c0.5,0.2,0.8,0.5,1.1,0.7l0,0c0.1,0.1,0.3,0.1,0.3,0.2c0,0.1,0.1,0.1,0.1,0.1
				c0.3,0.1,0.6,0.3,0.9,0.6c0,0.1,0.1,0.1,0.2,0.1c0.3,0.1,0.7,0.3,1,0.6l0,0c0.1,0.1,0.3,0.1,0.5,0.2l0,0c0.2,0.1,0.5,0.2,0.7,0.5
				l0,0c0.1,0.1,0.3,0.1,0.5,0.2l0,0c0.2,0.1,0.5,0.2,0.7,0.5l0,0c0.3,0.2,0.8,0.5,1.1,0.7l0,0c0.3,0.2,0.7,0.3,1,0.7c0,0,0,0,0.1,0
				c0.7,0.3,1.3,0.7,1.9,1.1c0,0.1,0.1,0.1,0.1,0.1c0.3,0.1,0.7,0.3,1,0.6l0,0c0.3,0.1,0.6,0.3,0.9,0.6l0,0c0.2,0.1,0.5,0.1,0.6,0.3
				l0,0c0.5,0.2,1,0.5,1.4,0.8c0.1,0,0.1,0.1,0.2,0.1c0.5,0.2,0.9,0.5,1.4,0.8l0,0c0.5,0.2,0.9,0.5,1.4,0.8l0,0
				c0.3,0.2,0.7,0.3,1,0.6l0,0c0.2,0.1,0.6,0.2,0.8,0.5c0,0.1,0.1,0.1,0.1,0.1c0.3,0.1,0.6,0.2,0.8,0.5c0,0.1,0.1,0.1,0.1,0.1
				c0.3,0.1,0.7,0.3,1,0.6l0,0c0.3,0.1,0.7,0.3,0.9,0.6l0,0c0.3,0.1,0.7,0.3,0.9,0.6l0,0c0.6,0.2,1.1,0.6,1.6,0.9
				c0,0.1,0.1,0.1,0.1,0.1c0.5,0.2,0.9,0.3,1.4,0.7c0,0.1,0.1,0.1,0.1,0.1c0.3,0.2,0.8,0.3,1.1,0.6c0,0.1,0.1,0.1,0.1,0.1
				c0.8,0.3,1.6,0.8,2.4,1.3c0,0,0.1,0.1,0.1,0c0.9,0.3,1.7,0.9,2.5,1.3c0.1,0,0.1,0.1,0.1,0.1l0.1,0.1c0.3,0.1,0.6,0.2,0.9,0.5l0,0
				c0.6,0.2,1,0.6,1.6,0.8l0,0c0.6,0.3,1.3,0.6,1.8,1c0,0,0.1,0.1,0.1,0c0.3,0.1,0.7,0.2,0.9,0.5c0,0,0.1,0,0.1,0.1
				c0.5,0.2,1,0.5,1.5,0.8c0,0.1,0.1,0.1,0.1,0.1c0.3,0.1,0.7,0.2,1,0.6c0.1,0.1,0.2,0.1,0.3,0.1c0.5,0.2,0.9,0.3,1.4,0.7
				c0,0,0.1,0,0.1,0.1c0.8,0.3,1.5,0.7,2.2,1.1l0,0c0.3,0.2,0.7,0.3,0.9,0.6c0.1,0.1,0.2,0.1,0.3,0.1c0.3,0.1,0.7,0.2,1,0.6
				c0,0.1,0.1,0.1,0.1,0.1c0.6,0.2,1.1,0.6,1.7,0.9c0,0,0,0,0.1,0c0.7,0.2,1.3,0.6,1.8,0.9l0,0c0.3,0.2,0.7,0.2,0.9,0.6
				c0.1,0,0.1,0.1,0.2,0.1c0.6,0.2,1.1,0.6,1.6,0.9c0,0.1,0.1,0.1,0.1,0.1c0.3,0.1,0.6,0.2,0.8,0.5l0,0c0.2,0.1,0.5,0.2,0.6,0.3
				c0,0.1,0.1,0.1,0.1,0.1c0.5,0.2,1,0.5,1.4,0.8c0,0,0,0,0.1,0c0.3,0.1,0.6,0.2,0.8,0.5c0,0.1,0.1,0.1,0.1,0.1
				c0.1,0.1,0.3,0.1,0.5,0.2l0,0c0.2,0.1,0.5,0.2,0.8,0.5c0.2,0.1,0.2,0.2,0,0.5c-0.2,0.1-0.6,0.3-0.8,0.5l0,0
				c-0.6,0.3-1.1,0.7-1.6,0.9l0,0c-0.6,0.3-1.1,0.7-1.6,0.9l0,0c-0.6,0.3-1.3,0.8-1.9,1.1c0,0,0,0-0.1,0.1c-0.1,0.1-0.2,0.1-0.3,0.2
				c-0.1,0.1-0.1,0.1-0.2,0.2c-0.6,0.3-1,0.7-1.6,0.9l0,0c-0.1,0.1-0.3,0.2-0.5,0.2l0,0c-0.8,0.5-1.6,1-2.4,1.5
				c-0.1,0.1-0.1,0.1-0.2,0.2c-0.2,0.1-0.5,0.3-0.7,0.5l0,0c-0.8,0.5-1.5,1-2.3,1.5l0,0c-0.2,0.1-0.5,0.3-0.7,0.5
				c-0.1,0-0.1,0.1-0.2,0.2c-0.7,0.5-1.5,0.9-2.2,1.4l0,0c-0.5,0.2-0.8,0.6-1.3,0.8l0,0c-0.5,0.3-0.9,0.7-1.5,0.9
				c-0.1,0-0.1,0.1-0.2,0.2c-0.5,0.3-0.9,0.7-1.5,0.9l0,0c-1.1,0.8-2.3,1.5-3.4,2.3l0,0c-0.3,0.2-0.7,0.6-1.1,0.7c0,0,0,0-0.1,0
				c-0.2,0.2-0.6,0.5-1,0.7c-0.1,0.1-0.1,0.1-0.2,0.2c-0.1,0.1-0.3,0.1-0.5,0.2l0,0c-0.1,0.1-0.3,0.1-0.5,0.2c0,0,0,0-0.1,0.1
				c-0.2,0.1-0.5,0.3-0.7,0.5l0,0c-0.5,0.2-0.8,0.6-1.3,0.8l0,0c-0.3,0.2-0.8,0.6-1.1,0.7c-0.1,0.1-0.1,0.1-0.2,0.1
				c-0.2,0.1-0.5,0.3-0.7,0.5l0,0c-0.6,0.3-1,0.7-1.6,0.9c-0.1,0-0.1,0.1-0.2,0.1c-0.6,0.3-1.3,0.8-1.8,1.1l0,0
				c-0.2,0.2-0.5,0.3-0.8,0.5l0,0c-0.1,0.1-0.3,0.2-0.6,0.3l0,0c-0.2,0.1-0.5,0.3-0.7,0.5l0,0c-0.3,0.2-0.8,0.5-1.3,0.7
				c-0.1,0.1-0.1,0.1-0.2,0.2c-0.1,0.1-0.3,0.1-0.5,0.2l0,0c-0.3,0.2-0.7,0.5-1,0.6c-0.1,0.1-0.1,0.1-0.2,0.2
				c-0.3,0.2-0.7,0.5-1,0.6l0,0c-0.1,0.1-0.3,0.2-0.5,0.2l-0.1,0.1c-0.3,0.2-0.7,0.5-1,0.6l0,0c-0.1,0.1-0.3,0.1-0.5,0.2l0,0
				c-0.2,0.1-0.5,0.2-0.6,0.3l0,0c-0.1,0.1-0.3,0.2-0.5,0.2l-0.1,0.1c-0.2,0.1-0.5,0.3-0.8,0.5c-0.1,0-0.1,0.1-0.2,0.1
				c-0.2,0.2-0.6,0.2-0.8,0.5l0,0c-0.1,0.1-0.2,0.1-0.3,0.2l0,0c-0.3,0.3-0.8,0.5-1.3,0.7l0,0c-0.5,0.3-1,0.6-1.6,0.9l0,0
				c-0.3,0.2-0.8,0.5-1.1,0.6l0,0c-0.1,0.1-0.3,0.1-0.5,0.2l0,0c-0.1,0.1-0.2,0.1-0.3,0.2l0,0c-0.3,0.2-0.7,0.5-1.1,0.6l0,0
				c-0.1,0.1-0.2,0.1-0.3,0.2l0,0c-0.1,0.1-0.3,0.1-0.5,0.2l0,0c-0.2,0.1-0.5,0.2-0.7,0.3l0,0c-0.2,0.1-0.5,0.2-0.6,0.3l0,0
				c-0.1,0.1-0.2,0.1-0.3,0.2l0,0c-0.3,0.2-0.8,0.3-1.1,0.6l0,0c-0.2,0.1-0.3,0.2-0.6,0.2l0,0c-0.3,0.2-0.8,0.5-1.3,0.6l0,0
				c-0.5,0.2-1,0.6-1.5,0.8C759.5,71,759.4,71,759.4,71.1z"/>
			<path class="st0" d="M833.1,54.8c-4,2.1-8,4-12.1,5.7c-2.5,1-4.9,1.9-7.4,2.9c-3.2,1.1-6.5,2.2-9.8,3.2c-2.5,0.7-5.1,1.4-7.7,2.1
				c-1.4,0.3-2.6,0.7-4,0.9c-0.1,0-0.2,0-0.5,0.1c0.2-0.3,0.6-0.2,0.8-0.5c0,0,0.1,0,0.1-0.1c0.6-0.3,1.1-0.6,1.7-0.8l0,0
				c0.7-0.3,1.4-0.7,2.1-0.9l0,0c0.2-0.1,0.5-0.2,0.6-0.3c0.5-0.1,0.8-0.3,1.3-0.6c1.4-0.7,2.7-1.3,4-2.1c0.1,0,0.2,0,0.3-0.1l0,0
				c0.8-0.5,1.6-0.9,2.4-1.3c0,0,0,0,0.1,0c0.3-0.1,0.6-0.3,0.8-0.5c0.1-0.1,0.2-0.1,0.5-0.2l0,0c0.1-0.1,0.2-0.1,0.3-0.2l0,0
				c0.5-0.3,1-0.7,1.6-0.9l0,0c0.1-0.1,0.3-0.2,0.5-0.2l0,0c0.6-0.5,1.1-0.7,1.7-1l0.1-0.1c0.5-0.3,0.9-0.6,1.3-0.8l0,0
				c0.1-0.1,0.3-0.2,0.5-0.2l0,0c0.5-0.3,1-0.7,1.6-1c0.6-0.3,1.1-0.8,1.7-1.1c0,0,0,0,0.1,0c0.7-0.5,1.4-0.9,2.1-1.4
				c0.8-0.6,1.6-1.1,2.5-1.6l0,0c0.6-0.5,1.3-0.9,1.8-1.3l0.1-0.1c0.6-0.5,1.1-0.9,1.8-1.3l0.1-0.1c0.6-0.5,1.1-0.9,1.7-1.3l0,0
				c1.1-0.9,2.4-1.9,3.5-2.9c0.6-0.5,1-0.9,1.6-1.3l0,0c0.2-0.1,0.3-0.3,0.6-0.6c0.1-0.1,0.3-0.1,0.3,0.1c0.1,0.8,0.3,1.6,0.3,2.5
				c0,0,0,0,0,0.1c0.3,1.6,0.5,3.1,0.6,4.7c0.1,0.7,0.1,1.3,0.1,1.9C833,54.5,833.1,54.6,833.1,54.8z"/>
		</g>
		<g>
			<path class="st0" d="M95.6,101.5c0,27,0.2,53.8-0.1,80.8c-0.2,18.5-8.8,32.5-24.8,41.7c-7.8,4.5-16.3,6.3-25.4,5.8
				C23,228.6,4.9,212.6,0.8,191.2c-0.3-1.7-0.6-3.4-0.8-5.3c0-2.5,0-5,0-7.7c0.1-0.2,0.2-0.3,0.2-0.6c0.7-7.3,2.9-14.2,6.7-20.4
				c8.7-13.9,21.4-21.6,37.7-23c8-0.7,15.7,0.8,22.9,4.1c0.9,0.3,1,0.8,1,1.7c0,8.2,0,16.6,0,24.8c0,0.3,0,0.8,0,1.4
				c-0.3-0.3-0.5-0.5-0.6-0.6c-6.9-8.6-18.6-12-29.3-8c-11.5,4.2-18.6,16.3-16.6,28.6c3.3,19.4,26,28.4,41.5,16.2
				c6.9-5.4,10.1-12.6,10.1-21.2c0-22.6,0-45.4,0-68c0-0.8,0.2-1.4,0.8-1.9c3.1-3,6.2-6.1,9.1-9.1c0.2-0.2,0.5-0.6,0.7-0.9
				C88.1,101.5,91.8,101.5,95.6,101.5z"/>
			<path class="st0" d="M738.9,194.4c-15.8,0-31.7,0-47.4,0c-0.8,0-1.4-0.2-1.9-0.8c-3.1-3.1-6.2-6.2-9.3-9.4
				c-0.3-0.5-0.7-1.1-0.7-1.7c-0.1-3.2,0-6.5,0-9.8c11.7,0,23.3,0,35.1,0c-0.1-0.3-0.1-0.6-0.2-0.8c-4.3-8.1-11.1-13.1-20.4-14.1
				c-13.6-1.4-25.4,7.3-28.2,20.7c-2.2,10.2,2.6,21.4,11.4,27c11.2,7.2,26,4.6,34.1-5.4c0.2-0.2,0.7-0.5,0.9-0.5
				c7.9,0,15.8,0,23.7,0c0.1,0,0.1,0,0.3,0.1c-0.3,0.8-0.6,1.5-0.9,2.3c-6.1,13.8-16.2,23.1-30.6,27.4c-10.9,3.3-21.7,2.6-32.1-1.9
				c-15.8-7-25.5-19.1-28.4-36.1c-3.4-20.2,6.3-40,24.2-49.8c8-4.3,16.7-6.3,25.8-5.7c21.6,1.4,39.4,16.9,43.9,38.2
				c0.5,1.9,0.7,4,0.9,5.9C738.9,184.9,738.9,189.6,738.9,194.4z"/>
			<path class="st0" d="M353.2,235.9c0,0.3,0,0.7,0,0.9c0,7.5,0,15.1,0,22.6c0,0.7-0.2,1.1-0.7,1.6c-6.2,5.4-9.3,12.2-9,20.5
				c0.2,12.3,9.5,22.9,21.6,24.9c14.3,2.4,27.6-7.1,30-21.5c1.9-11.4-4.2-23-14.7-27.8c-7.1-3.2-14.2-3.1-21.3-0.2
				c-0.1,0-0.2,0.1-0.6,0.2c0-4.8,0-9.6,0-14.3s0-9.4,0-14.2c-14.7-3.9-25.7-12.6-32.4-26.4c-4.9-10.5-5.8-21.5-2.9-32.6
				c6.4-23.3,27.9-36.9,49.5-35.2c25.6,2.1,43.3,22.5,44.4,45.4c1.1,25-16.1,42.2-31.8,47.2c0-0.3,0-0.7,0-1c0-7.4,0-15,0-22.4
				c0-0.7,0.2-1.1,0.7-1.6c6.6-5.8,9.9-13.3,9.1-22.1c-1-10.6-6.7-18.2-16.7-22.1c-14.4-5.7-31.2,3.3-34.5,18.5
				c-2.5,11.7,3,23.6,13.4,28.8c7.2,3.7,14.5,3.9,22.1,0.8c0.1,0,0.2-0.1,0.3-0.1c0.1,0,0.2,0,0.5-0.1c0,4.7,0,9.5,0,14.2
				s0,9.4,0,14.1c26.1,6.5,39.3,30.2,36.7,52.1c-3,24.9-24.5,43.3-49.5,42.2c-23.2-1-42.1-18.2-45.3-40.9
				C318.6,261.8,335.3,241.9,353.2,235.9z"/>
			<path class="st0" d="M609.8,231.5c0-0.6,0-1,0-1.4c0-15.3,0-30.6,0-46c0-11.2-6.4-20.7-16.8-24.7c-14.3-5.5-31,2.7-34.5,18.6
				c-2.6,11.8,3.2,23.9,13.7,28.9c11.2,5.4,23.9,2.6,31.9-7c0.1-0.1,0.2-0.2,0.5-0.5c0,0.5,0.1,0.7,0.1,1c0,8.5,0,16.8,0,25.3
				c0,0.8-0.2,1.1-0.9,1.4c-7.1,3.2-14.6,4.7-22.4,4.2c-22.3-1.3-40.4-17.3-44.5-38.6c-3.8-20,5.3-39.9,22.8-50.3
				c8.3-4.9,17.4-7,27-6.4c21.6,1.3,39.8,17,43.9,38.2c0.6,3.1,0.9,6.2,0.9,9.3c0.1,12,0,24.1,0.1,36.1c0,0.8-0.2,1.3-0.8,1.8
				c-3.2,3.1-6.3,6.3-9.5,9.4c-0.3,0.3-1,0.6-1.5,0.6C616.6,231.5,613.4,231.5,609.8,231.5z"/>
			<path class="st0" d="M152.3,134.5c0,7.3,0,14.5,0,21.8c-8.1,1.1-14.7,5-19.2,12c-3.4,5.4-4.7,11.3-3.8,17.6
				c2.1,13.6,13.7,22.8,26.5,22.3c13.9-0.6,23.7-11,25-22.9c1.7-13.7-8-27.2-23.2-29c0-7.2,0-14.4,0-21.7
				c19.5,0.6,42.1,15.9,44.9,42.5c3,27.9-18.1,51.4-44.8,52.8c-27.8,1.4-49.6-20-50.4-46.1C106.4,155.7,128.7,135.6,152.3,134.5z"/>
			<path class="st0" d="M309.9,229.9c-7.3,0-14.5,0-21.7,0c0-0.5,0-0.9,0-1.3c0-15.9,0-31.8,0-47.8c0-3.7-0.2-7.2-1.1-10.7
				c-1.8-7.3-6.5-11.5-13.8-13c-5.3-1-10.6-1-15.9-0.7c-3.7,0.2-7.3,0.7-10.6,2.3c-1.7,0.8-3.4,2.1-5,3.1c0-0.1,0-0.5,0-0.8
				c0-7.5,0-15.2,0-22.8c0-0.8,0.2-1.1,1-1.4c4.9-1.5,9.9-2.3,15.1-2.4c4.9,0,9.8-0.1,14.7,0.5c13,1.5,24,6.7,31.1,18.4
				c3.2,5.3,5,11,5.7,17c0.5,3.9,0.7,7.8,0.7,11.5c0.1,15.5,0,31.1,0,46.5C309.9,229,309.9,229.4,309.9,229.9z"/>
			<path class="st0" d="M524.3,229.9c-7.3,0-14.5,0-21.7,0c0-0.5,0-0.9,0-1.4c0-15.9,0-31.8,0-47.8c0-3.7-0.3-7.2-1.1-10.7
				c-1.8-7.3-6.5-11.5-13.8-13c-5.3-1-10.6-1-15.9-0.7c-3.7,0.2-7.3,0.7-10.6,2.3c-1.7,0.8-3.3,1.9-5,3c0,0-0.1-0.2-0.1-0.5
				c0-7.8,0-15.4,0-23.2c0-0.7,0.2-0.9,0.8-1.1c4.9-1.6,9.9-2.4,15.1-2.4c4.9,0,9.9-0.1,14.9,0.5c13,1.5,24,6.7,31.1,18.4
				c3.2,5.3,5,11,5.7,17c0.5,3.9,0.7,7.8,0.7,11.5c0.1,15.5,0,31.1,0,46.5C524.3,229,524.3,229.4,524.3,229.9z"/>
			<path class="st0" d="M236.3,134.4c0,31.9,0,63.7,0,95.5c-7.2,0-14.4,0-21.7,0c0-0.3,0-0.8,0-1.1c0-27.4,0-55,0-82.4
				c0-0.8,0.2-1.3,0.8-1.8c3.2-3.1,6.3-6.3,9.4-9.4c0.5-0.3,1.1-0.7,1.7-0.7C229.7,134.4,233,134.4,236.3,134.4z"/>
			<path class="st0" d="M429,229.9c0-0.5,0-0.9,0-1.3c0-27.4,0-54.8,0-82.2c0-0.9,0.2-1.5,0.9-2.1c3.1-3.1,6.2-6.2,9.4-9.3
				c0.3-0.3,1-0.7,1.6-0.7c3.3-0.1,6.6,0,9.9,0c0,31.9,0,63.6,0,95.5C443.5,229.9,436.3,229.9,429,229.9z"/>
		</g>
	</g>
</g>
</svg>
