<?xml version="1.0" encoding="utf-8"?>
<!-- Generator: Adobe Illustrator 21.0.2, SVG Export Plug-In . SVG Version: 6.00 Build 0)  -->
<svg version="1.1" xmlns="http://www.w3.org/2000/svg" xmlns:xlink="http://www.w3.org/1999/xlink" x="0px" y="0px"
	 viewBox="0 0 841.9 246.4" style="enable-background:new 0 0 841.9 246.4;" xml:space="preserve">
<style type="text/css">
	.st0{fill-rule:evenodd;clip-rule:evenodd;fill:#FFFFFF;}
</style>
<g id="레이어_3">
</g>
<g id="레이어_2">
</g>
<g id="레이어_1">
	<g>
		<g>
			<path class="st0" d="M123.7,0c0,29.2,0.2,58.5-0.1,87.7c-0.2,20.1-9.5,35.3-27,45.3c-8.5,4.9-17.8,6.8-27.5,6.3
				c-24.2-1.4-43.8-18.7-48.2-42c-0.4-1.9-0.6-3.8-0.9-5.7c0-2.8,0-5.5,0-8.3c0.1-0.2,0.2-0.4,0.2-0.6c0.7-7.9,3.1-15.3,7.3-22.1
				C37,45.6,50.6,37.2,68.4,35.8c8.6-0.7,17,0.9,24.9,4.5c0.9,0.4,1.2,0.9,1.2,1.8c0,9,0,18,0,26.9c0,0.4,0,0.8,0,1.5
				c-0.3-0.4-0.5-0.5-0.6-0.6c-7.5-9.3-20.2-13-31.8-8.7c-12.5,4.6-20.2,17.7-18,31c3.6,21.1,28.2,30.8,45.1,17.7
				c7.4-5.8,10.9-13.6,11-23c0-24.6,0-49.2,0-73.8c0-0.9,0.2-1.5,0.8-2.1c3.3-3.3,6.6-6.6,9.9-9.9c0.3-0.3,0.5-0.7,0.8-1
				C115.7,0,119.7,0,123.7,0z"/>
			<path class="st0" d="M821.9,100.9c-17.2,0-34.3,0-51.5,0c-0.9,0-1.5-0.3-2.1-0.9c-3.3-3.4-6.7-6.7-10.1-10.1
				c-0.4-0.4-0.7-1.2-0.7-1.8c-0.1-3.5,0-7.1,0-10.7c12.7,0,25.3,0,38.1,0c-0.1-0.4-0.2-0.6-0.3-0.9c-4.8-8.9-12.1-14.2-22.1-15.3
				c-14.8-1.5-27.5,7.9-30.7,22.5c-2.4,11,2.9,23.2,12.4,29.2c12.2,7.8,28.1,5,37-5.8c0.2-0.3,0.7-0.5,1-0.5c8.5,0,17.1,0,25.6,0
				c0.1,0,0.2,0,0.4,0.1c-0.3,0.8-0.6,1.7-1,2.5c-6.6,15-17.6,25-33.3,29.8c-11.8,3.6-23.6,2.9-34.9-2.1
				c-17.1-7.5-27.6-20.7-30.8-39.2c-3.8-21.9,6.8-43.4,26.3-54c8.7-4.8,18.1-6.8,28-6.2c23.5,1.5,42.9,18.3,47.7,41.4
				c0.4,2.1,0.7,4.3,1,6.5C821.9,90.5,821.9,95.7,821.9,100.9z"/>
			<path class="st0" d="M403.3,145.8c0,0.4,0,0.7,0,1c0,8.2,0,16.4,0,24.6c0,0.7-0.2,1.2-0.8,1.7c-6.7,5.9-10,13.3-9.8,22.2
				c0.3,13.4,10.3,24.8,23.5,27c15.5,2.6,29.9-7.7,32.5-23.3c2.1-12.4-4.6-24.9-16.1-30.1c-7.7-3.5-15.3-3.4-23.1-0.2
				c-0.1,0.1-0.3,0.1-0.6,0.3c0-5.3,0-10.4,0-15.5c0-5.1,0-10.2,0-15.4c-16-4.3-28-13.6-35.1-28.7c-5.4-11.4-6.4-23.3-3-35.4
				c6.9-25.3,30.3-40,53.8-38.2c27.8,2.2,47,24.4,48.1,49.3c1.2,27.2-17.5,45.8-34.4,51.2c0-0.4,0-0.8,0-1.2c0-8.1,0-16.2,0-24.3
				c0-0.7,0.2-1.2,0.8-1.7c7.2-6.4,10.8-14.3,9.9-24c-1.1-11.6-7.3-19.7-18.1-24c-15.7-6.3-33.9,3.6-37.4,20.1
				c-2.8,12.7,3.2,25.6,14.5,31.3c7.8,3.9,15.8,4.2,23.9,0.9c0.1,0,0.2-0.1,0.3-0.1c0.1,0,0.2,0,0.4-0.1c0,5.1,0,10.2,0,15.3
				c0,5.1,0,10.2,0,15.3c28.3,7,42.7,32.8,39.8,56.6c-3.2,27-26.5,47-53.7,45.8c-25.1-1.1-45.7-19.7-49.1-44.4
				C365.7,173.9,383.9,152.3,403.3,145.8z"/>
			<path class="st0" d="M681.8,141c0-0.6,0-1.1,0-1.5c0-16.6,0-33.2,0-49.8c0-12.1-6.9-22.5-18.2-26.8c-15.6-6-33.6,3-37.5,20.2
				c-2.9,12.8,3.4,25.9,14.9,31.4c12.2,5.9,25.9,2.8,34.6-7.6c0.1-0.1,0.3-0.3,0.5-0.6c0,0.5,0.1,0.8,0.1,1.1c0,9.1,0,18.3,0,27.4
				c0,0.8-0.2,1.2-1,1.5c-7.7,3.5-15.8,5.1-24.3,4.6c-24.1-1.4-43.8-18.7-48.2-42c-4.2-21.7,5.7-43.3,24.7-54.6
				c9.1-5.3,18.9-7.6,29.3-7c23.4,1.4,43.1,18.5,47.7,41.5c0.7,3.3,1,6.7,1,10.1c0.1,13.1,0,26.1,0.1,39.2c0,0.8-0.2,1.4-0.8,2
				c-3.5,3.4-6.8,6.8-10.3,10.2c-0.4,0.4-1.1,0.7-1.6,0.7C689.1,141,685.6,141,681.8,141z"/>
			<path class="st0" d="M185.3,35.8c0,7.9,0,15.7,0,23.7c-8.9,1.2-16,5.4-20.8,13c-3.7,5.8-5.1,12.2-4.1,19.1
				c2.2,14.8,14.8,24.7,28.7,24.2c15.2-0.6,25.6-11.9,27.2-24.9c1.8-14.9-8.7-29.6-25.2-31.5c0-7.8,0-15.7,0-23.5
				c21.2,0.6,45.6,17.2,48.7,46.2c3.2,30.3-19.6,55.8-48.6,57.3c-30.1,1.5-53.8-21.7-54.7-50C135.5,58.8,159.7,36.9,185.3,35.8z"/>
			<path class="st0" d="M356.3,139.3c-7.9,0-15.7,0-23.6,0c0-0.5,0-1,0-1.4c0-17.3,0-34.6,0-51.8c0-3.9-0.3-7.9-1.2-11.7
				c-1.9-7.9-7.1-12.5-15-14.1c-5.7-1.2-11.5-1.1-17.3-0.8c-4,0.2-7.9,0.8-11.5,2.5c-1.9,0.9-3.7,2.2-5.5,3.3c0-0.2,0-0.5,0-0.8
				c0-8.2,0-16.4,0-24.7c0-0.9,0.3-1.2,1.1-1.5c5.3-1.6,10.8-2.5,16.3-2.6c5.3,0,10.7-0.1,16,0.5c14.2,1.6,26,7.3,33.7,20
				c3.5,5.7,5.5,11.9,6.2,18.5c0.5,4.2,0.7,8.4,0.7,12.6c0.1,16.8,0,33.7,0,50.5C356.3,138.3,356.3,138.7,356.3,139.3z"/>
			<path class="st0" d="M589,139.3c-7.9,0-15.7,0-23.6,0c0-0.5,0-1,0-1.4c0-17.3,0-34.6,0-51.8c0-3.9-0.3-7.9-1.3-11.7
				c-1.9-7.9-7.1-12.5-15-14.1c-5.7-1.2-11.5-1.1-17.3-0.8c-4,0.2-7.9,0.8-11.5,2.5c-1.9,0.9-3.6,2.2-5.4,3.3c0,0-0.1-0.2-0.1-0.5
				c0-8.4,0-16.8,0-25.1c0-0.7,0.2-1,0.9-1.2c5.4-1.7,10.8-2.6,16.4-2.6c5.4,0,10.8-0.1,16.1,0.5c14.1,1.6,26,7.3,33.7,20
				c3.5,5.7,5.5,11.9,6.2,18.5c0.5,4.2,0.7,8.4,0.7,12.6c0.1,16.8,0,33.7,0,50.5C589,138.3,589,138.7,589,139.3z"/>
			<path class="st0" d="M276.5,35.7c0,34.6,0,69.1,0,103.6c-7.8,0-15.6,0-23.6,0c0-0.4,0-0.8,0-1.2c0-29.8,0-59.7,0-89.5
				c0-0.8,0.2-1.4,0.8-1.9c3.4-3.4,6.8-6.8,10.2-10.1c0.4-0.4,1.2-0.7,1.8-0.7C269.3,35.6,272.8,35.7,276.5,35.7z"/>
			<path class="st0" d="M485.5,139.3c0-0.5,0-0.9,0-1.4c0-29.7,0-59.4,0-89.2c0-0.9,0.3-1.6,0.9-2.3c3.4-3.3,6.7-6.7,10.1-10.1
				c0.4-0.4,1.1-0.7,1.7-0.7c3.6-0.1,7.1,0,10.8,0c0,34.6,0,69,0,103.6C501.3,139.3,493.5,139.3,485.5,139.3z"/>
		</g>
	</g>
</g>
</svg>
