<?xml version="1.0" encoding="utf-8"?>
<!-- Generator: Adobe Illustrator 21.0.2, SVG Export Plug-In . SVG Version: 6.00 Build 0)  -->
<svg version="1.1" xmlns="http://www.w3.org/2000/svg" xmlns:xlink="http://www.w3.org/1999/xlink" x="0px" y="0px"
	 viewBox="0 0 592 595.3" style="enable-background:new 0 0 592 595.3;" xml:space="preserve">
<style type="text/css">
	.st0{fill-rule:evenodd;clip-rule:evenodd;fill:#CCCCCC;}
	.st1{fill:#333333;}
</style>
<g id="레이어_3">
</g>
<g id="레이어_2">
</g>
<g id="레이어_1">
	<polygon class="st0" points="283.1,17.6 1.1,248.5 133.5,588 497.4,567 589.8,214.5 	"/>
	<g>
		<path class="st1" d="M159.4,301.5h96.5c0.1,0,0.2,0.1,0.2,0.2v20.8c0,0.3-2.4,0.6-7.3,0.8c-1.5,0.2-12.4,1.2-32.7,2.9
			c0.4,6,1.9,33.9,4.4,83.4l-0.3,0.2h-29.6c-0.2,0-0.3-0.1-0.3-0.2l8.3-81.7c-0.5,0-13.6,1.1-39.1,3.3l-0.2-0.2v-29.4
			C159.2,301.6,159.3,301.5,159.4,301.5z"/>
		<path class="st1" d="M330.7,301.5h2.9c19.7,0,33.3,6.5,40.8,19.4c4.1,7.4,6.2,16.6,6.2,27.7v14.1c0,21.4-7.7,35.7-23.2,42.8
			c-7.1,2.9-15,4.3-23.7,4.3h-3c-17.7,0-30.6-5.5-38.6-16.4c-5.5-8.1-8.3-18.2-8.3-30.5v-14.6c0-21.1,7.6-35.2,22.9-42.3
			C313.7,303,321.7,301.5,330.7,301.5z M303.5,346.7v18c0,10.4,2.8,17.3,8.3,20.8c3.8,2.8,9.1,4.1,15.9,4.1c11.3,0,18.6-4,21.9-12.1
			c1.4-3.2,2.1-7.5,2.1-13v-17.8c0-10.5-2.8-17.5-8.4-21c-3.7-2.6-9-4-15.9-4c-11.3,0-18.6,4-21.9,12.1
			C304.2,336.9,303.5,341.2,303.5,346.7z"/>
		<path class="st1" d="M444.6,301.5h24.5c13.5,0,23.3,4.1,29.6,12.4c4.3,6.1,6.5,14.1,6.5,23.8v2.5c0,14.6-4.8,25-14.3,31
			c-5.8,3.5-13.1,5.2-21.9,5.2h-24c-5.3,0-10.1-0.6-14.3-1.9l1.4,35v0.2h-23.5c-0.1,0-0.2-0.1-0.2-0.2v-71.8c0-14.6,4.8-25,14.3-31
			C428.6,303.3,436,301.5,444.6,301.5z M428.9,339c0,7,2.4,11.5,7.2,13.7c2.1,1,5.1,1.4,8.9,1.4h24c7.6,0,12.4-2.3,14.3-7
			c1.1-2.1,1.6-4.9,1.6-8.3c0-6.8-2.4-11.3-7.2-13.5c-2.1-1-5.1-1.4-8.9-1.4h-24.2c-7.5,0-12.2,2.3-14.1,7
			C429.4,333.1,428.9,335.8,428.9,339z"/>
	</g>
</g>
</svg>
