<?xml version="1.0" encoding="utf-8"?>
<!-- Generator: Adobe Illustrator 21.0.2, SVG Export Plug-In . SVG Version: 6.00 Build 0)  -->
<svg version="1.1" id="레이어_1" xmlns="http://www.w3.org/2000/svg" xmlns:xlink="http://www.w3.org/1999/xlink" x="0px"
	 y="0px" viewBox="0 0 1108 776" style="enable-background:new 0 0 1108 776;" xml:space="preserve">
<style type="text/css">
	.st0{fill-rule:evenodd;clip-rule:evenodd;fill:#003A5D;}
	.st1{fill-rule:evenodd;clip-rule:evenodd;fill:#D85C72;}
	.st2{fill-rule:evenodd;clip-rule:evenodd;fill:#D1D3D3;}
	.st3{fill-rule:evenodd;clip-rule:evenodd;fill:#A0D9B3;}
</style>
<g>
	<g>
		<path class="st0" d="M1.1,591.4c0.8-55.8,9.1-98.1,24.4-138.9c18.9-50.6,46.9-95.6,84.3-134.7c21.8-22.7,46-42.4,72.8-58.8
			c36.6-22.4,75.9-37.9,118.1-46c26.8-5.1,53.8-7.2,81-6.2c26.1,1,51.8,5,77.1,11.5c28.4,7.3,55.7,17.7,81.6,31.2
			c17.2,9,33.8,19.2,50.5,29.2c22.1,13.3,43.4,28,65.9,40.4c36.4,20,75.6,27.8,117,22c23.2-3.3,45.5-9.9,66.3-20.8
			c19.1-10.1,37.6-21.5,56.5-32.1c5.2-2.9,10.7-5.3,16.3-7.3c6.3-2.1,10.7,0.2,13.1,6.4c3.5,9,3,18.4,2,27.8
			c-2.9,28.5-11.5,55.4-22.9,81.6c-26.3,60.5-65.7,111.2-116.3,153.4c-33.3,27.9-70.2,50.3-109.5,68.6c-26.6,12.4-53.9,23-81.9,32
			c-25,8-50.3,15.2-75.5,22.5c-16.6,4.8-33.2,9.3-49.9,13.9c-17.6,4.8-35.2,9.4-52.8,14.3c-26.1,7.3-52.2,14.8-78.3,22.2
			c-26,7.4-51.9,14.9-77.9,22.1c-18,5-36.1,9.9-54.3,14.1c-27.5,6.3-55.1,12.4-83.6,11.8c-36.9-0.7-65.3-17-86.2-47
			c-13.6-19.5-22.5-41.2-28.4-64.1C3.6,633.9,1,606.7,1.1,591.4z"/>
		<path class="st1" d="M1008.1,28.9c8.3,0.6,14.1,4.9,18.9,11c7.4,9.5,11.4,20.7,14.3,32.2c0.7,2.6,1.8,2.9,4,2.5
			c13.4-2.3,26.9-3.2,40.3-0.4c6,1.2,11.7,3.2,16.2,7.5c5.2,5,6,11.3,4.5,18c-1.3,6.2-4.2,11.7-7.5,17
			c-6.2,10.2-13.8,19.4-21.8,28.2c-9.9,10.9-20.5,21.2-30.6,31.9c-14.5,15.3-30.8,28.7-47.3,41.9c-12.3,9.9-24.9,19.6-38.5,27.7
			c-7.5,4.5-15.2,8.6-24,10.1c-8.2,1.4-14.4-2.3-17-10.1c-2.2-6.8-2.4-13.8-2.1-20.9c0.8-21.7,4.1-43.2,8.5-64.5
			c4.6-22.3,13.1-43.1,22.3-63.8c7.5-16.7,16.3-32.6,27.8-46.9c6.3-7.9,13.3-15.1,22.9-19C1002,30.2,1005.1,29.7,1008.1,28.9z"/>
		<path class="st2" d="M1,616.3c5.2,0.3,10.2,0.5,15.1,0.9c50.8,3.5,101.7,5,152.6,4.2c32.1-0.5,64.2-1.7,96.3-3.4
			c26.7-1.4,53.3-3.4,79.9-6c44-4.2,87.9-10.2,131.4-17.8c67.6-11.8,134.2-27.6,199.1-49.8c52-17.7,102.3-39.2,149.2-68.1
			c23.9-14.8,46.5-31.4,66.5-51.2c0.5-0.5,1.1-0.9,2.3-0.9c-3.9,6.8-7.6,13.7-11.7,20.4c-19.3,32.1-42.8,61-69.9,86.9
			c-21.5,20.5-44.8,38.7-69.9,54.7c-22.9,14.6-46.5,27.8-71.6,38.2c-24.2,10-48.7,19.5-73.4,28c-21.1,7.3-42.7,13.1-64.1,19.2
			c-19.2,5.5-38.5,10.5-57.8,15.8c-32.3,8.9-64.6,17.6-96.9,26.7c-30.4,8.5-60.6,17.6-91.1,26.1c-26.8,7.4-53.5,14.9-80.6,21.2
			c-27.2,6.4-54.6,12.1-82.8,11.6c-37.3-0.7-65.9-17-87-47.3c-13.5-19.5-22.7-40.9-28.1-63.8c-3.2-13.6-5.1-27.5-7.6-41.3
			C1,619.2,1.1,617.9,1,616.3z"/>
		<g>
			<path class="st3" d="M149.2,553.5c-0.2,0-0.4,0-0.7,0c-0.5-0.2-1.1-0.5-1.6-0.7c-28.1-7.9-56.9-11.9-86-12.8
				c-3.1-0.1-6.3-0.2-9.5-0.4c0-0.4,0-0.6,0.1-0.8c5.9-17.8,17.9-29.3,36.1-34.2c2.2-0.6,4.5-0.9,6.8-1.4c3.2,0,6.3,0,9.5,0
				c0.4,0.1,0.7,0.3,1.1,0.3c7.1,0.8,13.9,3,19.9,6.7C140.8,520.3,148.9,534.8,149.2,553.5z"/>
		</g>
	</g>
</g>
</svg>
