<?xml version="1.0" encoding="utf-8"?>
<!-- Generator: Adobe Illustrator 21.0.2, SVG Export Plug-In . SVG Version: 6.00 Build 0)  -->
<svg version="1.1" id="Layer_1" xmlns="http://www.w3.org/2000/svg" xmlns:xlink="http://www.w3.org/1999/xlink" x="0px" y="0px"
	 viewBox="0 0 477 115" style="enable-background:new 0 0 477 115;" xml:space="preserve">
<style type="text/css">
	.st0{fill:#FFFFFF;}
</style>
<g>
	<g>
		<path class="st0" d="M8.4,58c6.9-3.8,13.9-7.6,20.8-11.4c2.7-1.5,8-5,10.3-1c1.1,1.8,0.6,4.5,1.5,6.5c1.9,4.5,6.1,4.2,10.2,3
			c6.8-1.9,15-5.6,21.4-0.4c2.5,2,6-1.5,3.5-3.5c-5.4-4.3-11.7-4.7-18.2-3.2c-2.3,0.5-10.4,4.5-12.4,1.9c-1.4-1.8-0.7-5.5-2.1-7.7
			c-2.9-4.5-8.4-3.8-12.7-2c-8.6,3.6-16.7,9-24.9,13.5C3.1,55.2,5.6,59.6,8.4,58L8.4,58z"/>
	</g>
</g>
<g>
	<g>
		<path class="st0" d="M64.2,99.6c2.2-1.3,4.4-2.7,6.6-4c2.7-1.6,5.4-3.9,8.3-1.7c2.8,2.2,4,5.2,7.6,6.5c3.5,1.2,7.3,0.7,10.8-0.3
			c3.8-1.1,17.6-8.9,18.2-1.1c0.3,3.2,5.3,3.2,5,0c-0.4-4.6-3.7-8-8.4-8.5c-7.4-0.8-13.5,5.4-20.8,5.5c-6.6,0.1-7.8-7.6-13.7-8.7
			c-5.4-1-12,5.2-16.3,7.8C59,97,61.5,101.3,64.2,99.6L64.2,99.6z"/>
	</g>
</g>
<g>
	<g>
		<path class="st0" d="M342.9,22.3c4.2-4.1,9.1-9.6,14.3-12.3c3.9-2.1,4.6,1,6.4,4.2c1.6,2.7,3,5.5,4.7,8.2c1.6,2.5,3.5,4.6,6.8,4.3
			c3.3-0.3,10.7-8.9,12.2-2.5c0.8,3.1,5.6,1.8,4.8-1.3c-1.1-4.7-5.7-7.5-10.3-5.7c-2.1,0.8-3.5,2.9-5.5,3.7c-3.9,1.6-6.7-6.1-8.3-9
			c-2.4-4.1-4.5-10.2-10.3-8c-3.1,1.2-6.5,4.7-9,6.7c-3.2,2.6-6.3,5.4-9.2,8.3C337,21,340.6,24.5,342.9,22.3L342.9,22.3z"/>
	</g>
</g>
<g>
	<g>
		<path class="st0" d="M398.7,101.8c2.5-0.9,4.4-2.4,6.1-4.4c1.8-2.1,3.3-5.5,5.9-6.6c4-1.8,9.9,4.6,12.8,6.8
			c3.5,2.7,7.1,6.3,11,8.4c6.1,3.2,8.9-5.9,10.6-10.2c0.8-2,1.1-4.9,2.3-6.7c2.4-3.5,5.9-1.4,8,0.9c2.6,2.8,4.2,6.5,7,9.2
			c2.3,2.3,5.8-1.3,3.5-3.5c-5-5-8.2-14.7-17.1-13.3c-3.3,0.5-5.3,3-6.5,5.9c-1.2,2.8-3.1,12.8-5.8,13.2c-1.1,0.2-5.9-4.6-6.7-5.2
			c-2.2-1.7-4.5-3.4-6.7-5.2c-3.1-2.4-6.5-5.7-10.7-5.6c-7.7,0.1-8.7,9.3-14.9,11.6C394.4,98.1,395.7,103,398.7,101.8L398.7,101.8z"
			/>
	</g>
</g>
</svg>
