<?xml version="1.0" encoding="utf-8"?>
<!-- Generator: Adobe Illustrator 21.0.2, SVG Export Plug-In . SVG Version: 6.00 Build 0)  -->
<svg version="1.1" xmlns="http://www.w3.org/2000/svg" xmlns:xlink="http://www.w3.org/1999/xlink" x="0px" y="0px"
	 viewBox="0 0 670.9 595.3" style="enable-background:new 0 0 670.9 595.3;" xml:space="preserve">
<style type="text/css">
	.st0{fill:#6794CE;}
	.st1{fill:#A2D4B1;}
	.st2{fill:#003A5D;}
</style>
<g id="레이어_2">
</g>
<g id="레이어_1">
	<g>
		<path class="st0" d="M669.9,0.8c0.1,0,0.1,0.1,0.1,0.3l0.8-1.1l-1.5,1.1C669.6,1,669.8,0.8,669.9,0.8z"/>
		<path class="st0" d="M194.5,407.6C282.1,331.8,625.3,34.9,666,3.5L141.8,383.4l0,0l-17.5,99.9l50.1-58.4L194.5,407.6z"/>
		<polygon class="st0" points="670.9,0 670.9,0 670.9,0 		"/>
		<path class="st1" d="M174.1,425.2c0,0,7.4-6.4,20.3-17.6l-20,17.1l-50.1,58.4l58.2-47.5C177.3,429.1,174.1,425.2,174.1,425.2z"/>
		<path class="st2" d="M669.9,0.8c-0.1,0-0.3,0.1-0.6,0.3l1.5-1.1l0,0l0,0l0,0c0,0-664.2,196-664.2,202.1
			c0,6.1,135.1,181.3,135.2,181.3l0,0L666,3.5c-40.8,31.4-383.9,328.2-471.6,404.1c-12.9,11.2-20.3,17.6-20.3,17.6s3.1,3.9,8.4,10.4
			c30.4,37.7,133.4,164.2,141.2,159.5c9-5.5,345-580.2,346.3-594.1C670.1,0.9,670,0.8,669.9,0.8z"/>
	</g>
</g>
</svg>
