<?xml version="1.0" encoding="utf-8"?>
<!-- Generator: Adobe Illustrator 21.0.2, SVG Export Plug-In . SVG Version: 6.00 Build 0)  -->
<svg version="1.1" id="Layer_1" xmlns="http://www.w3.org/2000/svg" xmlns:xlink="http://www.w3.org/1999/xlink" x="0px" y="0px"
	 viewBox="0 0 762 774" style="enable-background:new 0 0 762 774;" xml:space="preserve">
<style type="text/css">
	.st0{fill:#FCEFEC;}
	.st1{fill:#EEE1F0;}
	.st2{fill:#E5F3EE;}
	.st3{fill:#FED6FE;}
	.st4{fill:#FEFEEE;}
	.st5{fill:#EFFEFE;}
	.st6{fill:#DDFEEA;}
	.st7{fill:#ECECFD;}
	.st8{fill:#FEEFF8;}
	.st9{fill:#F4F0FE;}
	.st10{fill:#E6F4EB;}
	.st11{fill:#E8E8F6;}
	.st12{fill:#F3E0E9;}
	.st13{fill:#FEE4FE;}
	.st14{fill:#EBDDE2;}
	.st15{fill:#FAFEE7;}
	.st16{fill:#E9F7F7;}
	.st17{fill:#F4F8D6;}
	.st18{fill:#FEDBE3;}
	.st19{fill:#EDE3F6;}
	.st20{fill:#E1FEED;}
	.st21{fill:#DEF2FE;}
	.st22{fill:#FDFEEC;}
	.st23{fill:#FCFDEC;}
	.st24{fill:#FBEAF0;}
	.st25{fill:#E2E2EF;}
	.st26{fill:#FDE9F2;}
	.st27{fill:#E4E7E6;}
	.st28{fill:#F4FEE9;}
	.st29{fill:#FBC8ED;}
	.st30{fill:#D7DEFD;}
	.st31{fill:#F4FEFE;}
	.st32{fill:#F3F8FE;}
	.st33{fill:#FEF6EB;}
	.st34{fill:#FEE2FE;}
	.st35{fill:#FEF7E4;}
	.st36{fill:#F7FEE4;}
	.st37{fill:#FAE7FE;}
	.st38{fill:#F5FEF7;}
	.st39{fill:#E8FEFC;}
	.st40{fill:#E3F8E5;}
	.st41{fill:#FEECF9;}
	.st42{fill:#E8FEFE;}
	.st43{fill:#E8EBFE;}
	.st44{fill:#EDFDFE;}
	.st45{fill:#EFEAED;}
	.st46{fill:#E9E9D3;}
	.st47{fill:#FEFEE2;}
	.st48{fill:#D0FDF6;}
	.st49{fill:#FEFEE7;}
	.st50{fill:#FEF4FD;}
	.st51{fill:#F9E5D1;}
	.st52{fill:#F6E1F9;}
	.st53{fill:#FEF5F5;}
	.st54{fill:#DAE2D6;}
	.st55{fill:#FEDEF4;}
	.st56{fill:#FEE7DE;}
	.st57{fill:#FEF3F0;}
	.st58{fill:#FEEBF9;}
	.st59{fill:#EDEFF6;}
	.st60{fill:#FAF0FE;}
	.st61{fill:#FDEAFD;}
	.st62{fill:#F3EFFE;}
	.st63{fill:#FEFEEB;}
	.st64{fill:#F3EFE3;}
	.st65{fill:#F2EADD;}
	.st66{fill:#F8EBEF;}
	.st67{fill:#F2F3FE;}
	.st68{fill:#FEFEE8;}
	.st69{fill:#FDFDE7;}
	.st70{fill:#EFE1F6;}
	.st71{fill:#CBE9F3;}
	.st72{fill:#F1FEFE;}
	.st73{fill:#F9EAED;}
	.st74{fill:#DBF3FE;}
	.st75{fill:#ECFEFE;}
	.st76{fill:#FEFEE9;}
	.st77{fill:#DAE1FD;}
	.st78{fill:#F8EDF0;}
	.st79{fill:#E6E5EA;}
	.st80{fill:#FEDBFE;}
	.st81{fill:#DCFDF9;}
	.st82{fill:#FCF2EB;}
	.st83{fill:#FDEFFD;}
	.st84{fill:#FAFBEC;}
	.st85{fill:#E7F3E8;}
	.st86{fill:#FEE0FD;}
	.st87{fill:#F6EDF0;}
	.st88{fill:#F8E4D6;}
	.st89{opacity:0.5;fill:none;enable-background:new    ;}
</style>
<g>
	<path class="st0" d="M372.9,418.5c-7.2-2.4-12.1-7.1-14.9-14.3c9.3-2.5,14.7-8.3,17-18.4c-5.6,0-10.6,0-17.8,0
		c3.4-4.6,5.6-7.4,7.7-10.3c0.3,0.4,0.5,0.7,0.8,1.1c4.8-1.7,9.5-3.4,14.3-5.1c3.9,1.2,7.3,3,9,7c-1.1,4.4-1.6,9-3.4,13.1
		c-2.9,6.6-6.7,12.7-10.2,19.1c4.3-1,9.5-2.1,14.6-3.2c0.4,0.9,0.2,1.8-0.4,2.2C384.3,413.3,379.4,417.5,372.9,418.5z"/>
	<path class="st1" d="M637,126.5c2.9,2.4,6.3,4.5,8.7,7.4c5.3,6.4,10,13.2,15.9,21.1c-2.7,3.6-5.6,7.3-9.1,11.9
		c-6.9-8.4-12.7-15.4-18.5-22.4C633.4,138.3,634.2,132.2,637,126.5z"/>
	<path class="st2" d="M389,378.5c-3-2.3-6-4.7-9-7c2-1.5,4.4-2.6,5.8-4.5c4.3-5.7,9.9-4.9,16.1-4c-0.3,2.3-0.5,4.4-0.8,6.7
		c10.1,3,20,5.9,29.9,8.8c-1.3,1.2-2.6,1.2-4,0c-3.3,2.5-6.6,5-9.5,7.2C407.9,383.3,398.4,380.9,389,378.5z"/>
	<path class="st3" d="M358.2,426.2c-12.9,0-25.8,0.4-38.6-0.2c-6.1-0.3-7.4-5-3.6-11.4c11.2,0,22.6,0,34.3,0
		c-0.4-1.3-0.7-2.2-0.9-3.1c0.4-0.2,0.7-0.5,1.1-0.7c3,4.4,6,8.8,9,13.2C359,424.7,358.6,425.4,358.2,426.2z"/>
	<path class="st4" d="M762.4,450.7c-1.2,13-2.3,25.1-3.5,37.5c-4.5,0-8.4,0-12.8,0c1.2-13,2.5-25.6,3.7-38.9
		C754.3,449.7,757.8,450.1,762.4,450.7z"/>
	<path class="st5" d="M642.6,670c3.9,3,4.7,10.4,1.2,12.9c-8.9,6.3-17.9,12.4-27.6,19.2c-3-2.5-6-5.1-9.3-7.8
		C619.2,685.9,630.8,678,642.6,670z"/>
	<path class="st6" d="M334.6,225.5c-3.2,2.2-5.9,4.1-9.7,6.8c-10.6-7.5-21.5-15.1-32.7-23.1c3.2-3.5,5.5-6,7.6-8.2
		C311.2,209.1,322.5,217.1,334.6,225.5z"/>
	<path class="st7" d="M631,510.5c2.5-13.5,5.1-27.1,7.9-42.5c4.2,3.2,7.3,5.5,10.4,7.8c-2.2,12-4.3,23.3-6.3,34.6
		C639,510.7,635,513,631,510.5z"/>
	<path class="st8" d="M730,322.5c-3.6-10.1-7.3-20.2-11.2-31.2c3.5-1.7,6.8-3.3,10.9-5.4c4.6,13,8.9,25.3,13.2,37.6
		C738.4,325.7,734.1,325.6,730,322.5z"/>
	<path class="st9" d="M572,62.5c10.8,7.6,21.7,15.2,33.5,23.5c-5.6,4.3-9.9,7.6-14.5,11.1c-2.3-2.5-4.2-4.5-6-6.6
		c-4.8-6.8-8.5-14.2-12.3-21.6C571.7,67,570.1,64.9,572,62.5z"/>
	<path class="st10" d="M414,332.5c-2.2,3.4-4.4,6.9-6.7,10.4c-3.3-0.3-6.7-0.5-10.9-0.8c-3.1-6.9-6.2-14-9.3-20.9
		c9.5-5.3,10.9-4.6,16.4,2.1c2.4,2.9,6.9,4.2,10.4,6.2C414.7,330.5,414.9,331.5,414,332.5z"/>
	<path class="st11" d="M259,137.5c1.7,4.1,3.2,8.3,5,12.4c3,6.8,6.1,13.6,9.2,20.6c-2.1,2.5-4.4,5.2-8.1,9.5
		c-4.4-10-8.2-18.7-12.1-27.5C252.2,146.4,254.5,141.5,259,137.5z"/>
	<path class="st12" d="M493,623.5c-7.4-12.5-9.6-26.3-11-41.3c7.3,2.1,10.7,7,12.9,12.7c2.1,5.7,3.4,11.7,5.1,17.6
		C498.6,616.8,497.8,621.4,493,623.5z"/>
	<path class="st13" d="M623.8,598.5c-8.9-5.9-9.2-20.9-1.6-38.4c7.7,1.3,10.7,5.3,8.8,12.4C628.7,581.2,626.2,589.7,623.8,598.5z"/>
	<path class="st7" d="M414,332.5c0-1,0-2,0-3c6.9,1.3,13.8,2.6,21.4,4.1c-1.8-4.3-3.5-8.1-5.3-12.4c3.3-1.4,6.5-2.8,11-4.7
		c2.5,7.2,4.7,13.6,6.9,20c-2.2,2.1-5.1,2.3-7.9,2.6c-5.4,0.6-10.5,3.1-16.1,2.4C420.7,338.5,417.3,335.5,414,332.5z"/>
	<path class="st14" d="M751,361.5c1.1,1.9,2.9,3.7,3.3,5.7c2.4,13,4.4,26.2,6.6,39.1c-8.8,2.2-12.8-1.3-12.9-9.8
		C746.9,384.7,746.8,372.9,751,361.5z"/>
	<path class="st15" d="M308,345.5c0.2-8-0.5-16.2,0.8-24c1-6.1,9.8-8.6,15.1-5.2c-6.2,9-7.6,18.8-4,29.1
		C316,347.9,312,347.9,308,345.5z"/>
	<path class="st16" d="M363.8,253.4c3.5-3.2,5.7-5.2,8.1-7.3c5.6,3.3,11.4,6.4,17,10c6.3,3.9,6.8,8.8,1.6,15.6
		C381.8,265.7,373.1,259.8,363.8,253.4z"/>
	<path class="st17" d="M539.9,374.8c-3.5,9.8-7,19.6-10.8,30.2c-3.8-2.1-6.8-3.9-10.8-6.1c3.9-8.3,7.2-16.6,11.6-24.2
		c1-1.7,5.5-1.3,8.3-1.9C538.8,373.4,539.3,374.1,539.9,374.8z"/>
	<path class="st18" d="M354.3,19.6c-13,5.5-23.3,9.8-33.5,14.1c2.1-11.3,13-21.5,24.5-21.5C347.8,12.2,350.5,16.4,354.3,19.6z"/>
	<path class="st19" d="M133,543.5c-2.2,6.4-4.3,12.8-6.5,19.2c-3.8-0.9-5.7-1.3-9.3-2.2c2.6-10.8,5.2-21.4,7.8-32
		c1-1.7,2.3-1.4,3.1-0.1C130.9,533.1,134.4,537.5,133,543.5z"/>
	<path class="st20" d="M23.9,220.6c-6.3,1-9.8,1.6-14,2.3c5.6,5.8,10.8,11.2,16.3,16.9c-0.9,1.6-1.8,3.2-3.9,6.8
		c-7.1-7.7-13.6-14.4-19.7-21.4c-0.8-1-0.8-4.4-0.3-4.6c4.5-2,9.1-4,13.8-4.8C17.8,215.5,20.1,218.2,23.9,220.6z"/>
	<path class="st21" d="M261.8,417.4c-2.2,17.2-2.2,12.6-19.6,16c-1.9,0.4-3.9,0.1-5.8,0.1c-1.7-2.3-3.2-4.3-5.6-7.5
		C241.5,423,251.2,420.4,261.8,417.4z"/>
	<path class="st22" d="M689.9,224.5c-4.3-7.3-8.6-14.7-13-22c0.7-2.6,2.6-4,5-5c9.1,0.2,17.3,14.9,14,25
		C694.4,224.5,692.5,225.4,689.9,224.5z"/>
	<path class="st23" d="M746,541.5c-4.4,11.7-8.7,23.4-13.4,35.9c-4.1-1.9-7.3-3.4-10.9-5.1c5-8,9.7-15.4,14.3-22.8
		C737.8,545,741.2,542.4,746,541.5z"/>
	<path class="st24" d="M372.9,418.5c5.7-3.7,11.3-7.3,17-11c1.3-0.3,2.5-0.6,4-1c3.8,2.5,7.6,5,13,8.5c-12.3,3.3-23.2,6.3-35.1,9.6
		C372.4,421.3,372.7,419.9,372.9,418.5z"/>
	<path class="st25" d="M44,306.5c0-1.6,0-3.3,0-5.4c2.1-0.8,4.1-1.6,6.5-2.5c0.5,7.2,1,13.9,1.5,22.5c5-4.5,8.7-7.7,12.7-11.2
		c1.9,1.4,3.4,2.5,5.5,4c-5,4.3-9.5,8.4-14.3,12c-1.4,1-3.9,0.5-5.9,0.6C45.7,320.5,45.6,313.3,44,306.5z"/>
	<path class="st26" d="M390,772.5c-7-0.1-14,0-21-0.2c-3.1-0.1-6.2-0.8-9.6-1.3c1.1-3.6,2.2-7.1,3.5-11.2c4,0.3,8.1,0.5,12.1,0.8
		c5.1,1.7,9,5.4,13.4,8.4C389.3,769.9,390.6,770.8,390,772.5z"/>
	<path class="st27" d="M304,759.5c-6.8-1.9-13.6-3.8-21-5.9c2.1-4.2,3.8-7.6,5.7-11.5c4,1.5,7.6,3,11.3,4.4c2.9,1.9,6.3,2.9,8.9,5.3
		c1.4,1.3,3.3,2.4,2.5,4.9C309.5,759.1,306.8,759.6,304,759.5z"/>
	<path class="st28" d="M260,72.5c2.7-4,5.3-8,8-12c2.5,0.4,3.2-3.1,5.7-2.7c3.8-0.1,7.5-1.8,11.3-0.3c-1.6,2.4-3.1,4.9-4.8,7.3
		c-4.3,6-8.8,11.8-13.2,17.7C263.7,79.8,261.7,76.2,260,72.5z"/>
	<path class="st29" d="M637,126.5c-1,6-2,12-3,18c-5.7-6.1-11.5-12.3-17.1-18.3C621.4,120,627.7,120.3,637,126.5z"/>
	<path class="st30" d="M424,341.5c8-1.7,16-3.3,23.9-5c0.8,5,1.6,10,2.7,16.1c-4.6-0.5-8.1-0.9-11.6-1.3c0.2-0.7,0.5-1.3,0.7-2
		c-4.9-2-9.8-3.9-14.7-5.9c-0.3-0.3-0.7-0.6-1-1l0,0c-0.2-0.2-0.3-0.4-0.2-0.6C423.8,341.6,423.9,341.5,424,341.5L424,341.5z"/>
	<path class="st31" d="M572,62.5c3.8,7.8,7.5,15.7,11.3,23.5c0.7,1.4,1.2,3,1.7,4.5c-8.8-8.2-17.7-16.3-27.1-25
		C562.7,63.7,566,58,572,62.5z"/>
	<path class="st32" d="M133,543.5c-2-4.9-3.9-9.8-6-14.6c-0.1-0.3-1.3-0.2-2.1-0.3c1.9-4.2,3.8-8.4,6-13.2c3.9,0.5,7.6,0.9,11.5,1.3
		C139.2,525.9,136.1,534.7,133,543.5z"/>
	<path class="st33" d="M182.5,298.7c2.1-0.6,4.3-1.3,6.9-2.1c0,5.7,0,10.9,0,16.4c1.5,0,2.9,0,4.7,0c0.7,1.3,1.4,2.7,2.3,4.6
		c-2.4,2-4.7,3.9-6.8,5.7C181.1,322,179.8,317.5,182.5,298.7z"/>
	<path class="st34" d="M511.6,458.7c-10.8-3.7-12.3-12.3-4.9-22.9c3.3,1.9,6.7,3.9,10.2,5.9C515.1,447.5,513.4,453,511.6,458.7z"/>
	<path class="st35" d="M413,6.5c0.4,2,0.8,4,1.4,6.9c-9.4-0.4-18.7,3.1-25.3-5.8c1.4-2.9,4.4-3.7,7-5c3-0.3,6-0.6,9-1
		C407.7,3.1,412.1,2,413,6.5z"/>
	<path class="st36" d="M427,378.5c1.3,0,2.7,0,4,0c1-0.3,2-0.7,3-1c3.7-2.3,7.7-3.3,12-1.9c-3,5.6-6,11.3-9,16.9
		c-5.6-0.7-9.5-4-13-8C425,382.5,426,380.5,427,378.5z"/>
	<path class="st37" d="M424,384.5c4.3,2.7,8.7,5.4,13,8c-3.5,4-6.9,8-10.6,12.2c-4-3-6.7-5-10.2-7.6c2.5-2.3,4.6-4.3,7.1-6.5
		c-0.6-0.8-1.2-1.7-2.3-3.2C421.9,386.4,422.9,385.4,424,384.5z"/>
	<path class="st38" d="M223.5,726.1c3.7-3,6.6-5.4,9.7-8c4.3,2.4,8.5,4.7,13.4,7.4c-1.5,3.4-2.9,6.5-4.7,10.5
		C235.7,732.7,230.1,729.7,223.5,726.1z"/>
	<path class="st39" d="M260,72.5c2.3,3.3,4.7,6.7,7,10c-1.5,4.2-3,8.4-4.6,13c-3.6-0.9-6.8-1.7-11.5-2.9C254.1,85.6,257,79,260,72.5
		z"/>
	<path class="st40" d="M646,422.5c1.9-5.1,3.5-10.4,5.7-15.3c1.1-2.4,3.4-4.2,5-6.3c6.6,4.8,6.6,9,1.2,19.6
		C654.3,423.1,650.4,424.7,646,422.5z"/>
	<path class="st41" d="M91.8,179.1c-2.7,1.2-4.1,1.9-5.7,2.6c-1.8-2.7-3.5-5.2-5.7-8.5c-1.1,2.3-1.9,3.9-2.6,5.6
		c-0.8,1.8-1.5,3.6-2.4,5.8c-1.6-0.8-2.9-1.5-5.3-2.7c2.6-6.4,5.2-12.7,7.7-18.9c0.9,0,1.8,0,2.7,0
		C84.1,168.1,87.7,173.2,91.8,179.1z"/>
	<path class="st42" d="M390,772.5c-0.7-1-1.3-2-2-3c0.9-3.5,2.9-6.2,6-8c4,0,7.9,0,12.1,0c1.2,3.4,2.4,6.6,3.9,11
		C403,772.5,396.5,772.5,390,772.5z"/>
	<path class="st43" d="M146.9,231.5c-1.9,0-3.7,0-6.5,0c3.7-5.8,6.8-10.7,10.7-16.7c-5.8,0-10,0-14.2,0c-0.3-0.8-0.5-1.6-0.8-2.4
		c3.9-1.6,7.7-4.3,11.7-4.5c3-0.1,6.1,3,9.1,4.6c-1.4,6.8-5.6,12.2-9,18l0,0C147.6,230.8,147.3,231.1,146.9,231.5z"/>
	<path class="st44" d="M191,454.5c0.9,0.6,1.8,1.2,3.2,2.1c-7.3,5.8-14.1,11.3-23.3,18.7c-2-3-4-5.9-5.9-8.8
		C173.2,461.7,181.4,456.5,191,454.5z"/>
	<path class="st45" d="M746,541.5c-3.3,2.7-6.7,5.3-10,8c-1.3-0.4-2.6-0.8-4.1-1.2c1.6-6.1,3.1-11.7,4.9-18.3
		c3.9,1.2,7.6,2.4,11.8,3.8C747.5,536.9,746.7,539.2,746,541.5z"/>
	<path class="st46" d="M59.7,212.2c1.4-3.7,2.6-7.1,4.1-11c1.8,0.9,3.4,1.6,6.2,2.9c-2.2,6-4.3,11.7-6.4,17.4
		c-4.9-1-8.8-1.8-13.3-2.7c0.6-1.8,1.2-3.7,1.9-5.9C54.6,212.6,56.9,212.5,59.7,212.2z"/>
	<path class="st47" d="M702.8,604.8c3.9,1.8,7.1,3.4,11.1,5.3c-2.9,4-5.6,7.8-8.5,11.9c-3.8-1.5-7.2-2.9-11.5-4.6
		C697.2,612.6,699.9,608.9,702.8,604.8z"/>
	<path class="st48" d="M524,654.5c1.7-2.9,3.4-5.7,5-8.3c8,2.3,14.7,4.2,21.9,6.2c-1.4,1.8-2.6,3.4-3.9,5
		c-5.4,1.7-10.7-0.2-15.9-0.9C528.7,656.2,526.3,655.4,524,654.5z"/>
	<path class="st49" d="M221.1,292.7c-3.1,0.7-4.7,1.1-8.2,1.9c1.9-4.8,3.3-8.5,4.9-12.8c-2.8,0.2-5.4,0.4-8,0.7
		c-0.3-0.5-0.7-1-1-1.5c2.2-1.8,4.2-4.6,6.6-5.1c2.7-0.6,8.4,1.2,8.4,1.6C223.3,282.7,222.1,287.9,221.1,292.7z"/>
	<path class="st50" d="M188.9,279.6c-1.7,2.7-2.6,4.2-3.5,5.7c-1.9,0.2-3.7,0.3-5.9,0.5c0.7,1.2,1.2,2.2,2,3.6
		c-2.2,0.8-4.3,1.6-7.4,2.7c-2.4-3.5-4.7-6.9-7-10.4c0.5-0.7,1-1.4,1.5-2C174.9,279.6,181.1,279.6,188.9,279.6z"/>
	<path class="st51" d="M95,289.4c6.2,0.6,12.4,1.2,18.6,1.8c1.2,2.4,2.2,4.4,3.6,7.2c-9.4-0.7-17.8-1.4-26.3-2
		C89.9,292.7,91,290.3,95,289.4z"/>
	<path class="st52" d="M689.9,224.5c2-0.7,4-1.3,6-2c3.1,5.5,6.1,11,9.5,17c-3.2,1.7-4.7,2.4-7.4,3.8
		C695.2,236.7,692.6,230.6,689.9,224.5z"/>
	<path class="st53" d="M191,454.5c-8.7,4-17.3,8-26,12c7.4-6.7,14.8-13.3,23.6-21.2C189.8,449.9,190.4,452.2,191,454.5z"/>
	<path class="st54" d="M123.9,259.5c0.1-2.5-0.6-5.4,0.4-7.3c2-3.7,4.7-7.3,7.8-10.2c1.8-1.7,5-1.9,7.5-2.8c0.2,0.6,0.5,1.2,0.7,1.9
		c-3.5,5.1-7,10.2-10.5,15.3C128.6,258.8,127.2,261.1,123.9,259.5z"/>
	<path class="st55" d="M751,361.5c-1,11.7-2,23.3-3,35c-1.8-10.6-3.7-21.2-5.5-32.1C745.4,363.4,748.2,362.5,751,361.5z"/>
	<path class="st56" d="M218,307.5c1.8-2.1,3.7-4.1,6.5-7.4c2.8,4.9,5,8.7,8.2,14.3c-8,0-13.4,0-18.7,0
		C212.5,310.5,215.6,309.2,218,307.5z"/>
	<path class="st57" d="M114.6,217.7c-6.3,1-12.8-5.6-14.6-14.3c1-1,2.1-2.3,3.6-3.9c1.8,2.9,3.5,5.1,4.6,7.7
		c1.2,2.8,1.7,5.8,2.5,8.7c1.3-1.2,2.6-2.4,3.9-3.6C114.6,214,114.6,215.7,114.6,217.7z"/>
	<path class="st58" d="M462.4,754.9c8.2-2,16.1-4,24.2-6C485.3,758.1,471.3,761.5,462.4,754.9z"/>
	<path class="st59" d="M547.9,59.3c2-3.5,3.5-6.1,5.4-9.3c3.7,2.3,6.8,4.3,10.6,6.7c-1.8,0.6-3.1,1-4.2,1.4
		c-0.8,2.4-1.6,4.7-2.5,7.5C553.7,63.2,550.9,61.3,547.9,59.3z"/>
	<path class="st60" d="M577.7,644.3c6.7-6.3,12.6-11.9,19.4-18.3C596.9,636.9,589,644.2,577.7,644.3z"/>
	<path class="st61" d="M175.7,672.5c1.5,1.8,2.4,2.9,3.7,4.4c-2,3.2-4,6.3-6.5,10.1c-2.9-3.4-5.3-6.2-8.5-9.9
		C168.4,675.5,171.9,674.1,175.7,672.5z"/>
	<path class="st62" d="M646,422.5c4-0.7,8-1.3,12-2c-0.5,3.1-1,6.1-1.5,9.6c-3.8,0-7.2,0-11.4,0C645.4,427.5,645.7,425,646,422.5z"
		/>
	<path class="st63" d="M481.9,21.5c8.6,1.2,16.2,4,21.3,13.1c-8.1-3.3-15.2-6.2-22.3-9.1C479.8,23.8,480.5,22.6,481.9,21.5z"/>
	<path class="st64" d="M95,289.4c-1.3,2.3-2.7,4.7-4,7c-1.9,0.7-3.8,1.5-6.7,2.6c-0.9-0.6-2.6-1.7-5.1-3.3c3.8-3.6,7-6.6,10.7-10
		C92,287.2,93.5,288.3,95,289.4z"/>
	<path class="st65" d="M524,654.5c7.6,1,15.3,2,22.9,2.9c1,1.7,2,3.3,2.9,5c-0.3,0.6-0.7,1.2-1,1.9C540.6,661,532.3,657.8,524,654.5
		z"/>
	<path class="st66" d="M308,345.5c4,0,8,0,12,0c0.5,1.6,1,3.1,1.6,5.1c-3.2,1.6-6.4,3.2-10.4,5.3C309.9,352,309,348.8,308,345.5z"/>
	<path class="st67" d="M304,759.5c2.3-1,4.7-2,7-3c1.4-1.5,2.9-2.6,5-1c2.2,2.4,4.4,4.9,6.7,7.3c-0.5,0.6-1,1.3-1.5,1.9
		C315.4,763,309.7,761.2,304,759.5z"/>
	<path class="st68" d="M218,307.5c-1.3,2.3-2.7,4.6-4,7c-2.9-0.4-5.9-0.9-9.5-1.4c-0.7-1.5-1.7-3.5-3.2-6.7
		C207.6,306.8,212.8,307.2,218,307.5z"/>
	<path class="st69" d="M393.9,761.5c-2,2.7-4,5.3-6,8c-4.3-3-8.7-6-13-9C381.3,760.8,387.6,761.2,393.9,761.5z"/>
	<path class="st70" d="M631,510.5c4,0,8,0,12,0c-0.1,1.6-0.2,3.3-0.3,6c-4-0.3-7.6-0.5-11.4-0.8C631.1,513.4,631.1,512,631,510.5z"
		/>
	<path class="st71" d="M481.9,21.5c-0.3,1.3-0.7,2.6-1,3.9c-3.8-1.1-7.6-2.2-11.5-3.3c0-1.9,0-3.6,0-6.8
		C474.2,17.7,478,19.6,481.9,21.5z"/>
	<path class="st72" d="M259,137.5c-2,5-4,10-6,15c-1.3-4.6-2.6-9.3-4.2-15C252.6,137.5,255.8,137.5,259,137.5z"/>
	<path class="st73" d="M316,755.5c-1.7,0.3-3.3,0.7-5,1c-3.7-3.3-7.3-6.7-11-10c5.8,1.5,11.7,3.1,18.2,4.8
		C317.2,753.1,316.6,754.3,316,755.5z"/>
	<path class="st74" d="M284.9,57.5c-4,0.3-8,0.7-12,1c-0.5-0.5-0.7-1.1-0.5-1.8c0.1-0.4,0.2-0.9,0.5-1.2c1.7-1.9,3.5-3.9,5.5-6.1
		C280.8,52.4,282.9,54.9,284.9,57.5z"/>
	<path class="st75" d="M493,623.5c2.3-3.7,4.7-7.3,7-11c0.9,2.1,1.8,4.2,3.1,7.1c-2.1,2.2-4.6,4.8-7.6,8
		C494.4,626,493.7,624.7,493,623.5z"/>
	<path class="st76" d="M204.6,266.3c-0.6,2.9-1.2,5.8-2.1,10.3c-2.1-3.5-3.3-5.5-4.7-7.9c-0.8,1.6-1.5,2.8-2.1,4.1
		c-0.4-0.1-0.8-0.2-1.3-0.2c0.2-1.4,0-3.6,0.8-4.2c2.2-1.6,4.9-2.5,7.3-3.7C203.2,265.2,203.9,265.8,204.6,266.3z"/>
	<path class="st77" d="M446,375.6c-4,0.6-8,1.3-12,1.9c0.8-1.8,1.5-3.6,2.2-5.3C444,370.6,446.6,371.5,446,375.6z"/>
	<path class="st78" d="M340.3,348.8c-2.4,1.6-4.9,3.3-9.5,6.4c0.8-4.3,0.4-7.5,1.6-8.2c1.8-1.1,4.7-0.7,7.1-0.9
		C339.8,347,340.1,347.9,340.3,348.8z"/>
	<path class="st79" d="M123.9,259.5c2-1,4-2,6-3.1c1,2.9,1.9,5.7,3,8.9c-1.5,0.4-3.3,0.8-5.7,1.4C126,264.2,125,261.9,123.9,259.5z"
		/>
	<path class="st51" d="M134.2,300.2c-2.8,0-4.4,0-6.3,0c-0.8-2.1-1.6-4-2.5-6.4c2.4,0,4.5,0,7.3,0
		C133.1,295.6,133.6,297.6,134.2,300.2z"/>
	<path class="st80" d="M44.6,275.7c2,4.8,5.2,9.6,0,14.5C44.6,285.4,44.6,280.5,44.6,275.7z"/>
	<path class="st81" d="M730,322.5c4.3,0.3,8.6,0.7,13,1c-3.3,1.7-6.7,3.4-10.6,5.5C731.4,326.4,730.7,324.4,730,322.5z"/>
	<path class="st82" d="M44,306.5c2,6.7,4,13.3,6,20C42.6,321.4,44.7,313.5,44,306.5z"/>
	<path class="st83" d="M682,197.5c-1.7,1.7-3.3,3.3-5,5c-1.6-1.4-3.1-2.8-4.7-4.2c0.2-0.8,0.4-1.5,0.6-2.3
		C675.9,196.5,678.9,197,682,197.5z"/>
	<path class="st84" d="M147.9,230.5c3-6,6-12,9-18C153.9,218.5,150.9,224.5,147.9,230.5z"/>
	<path class="st85" d="M413,6.5c-2.7-1.7-5.3-3.3-8-5c4.7,0.4,9.4,0.8,16,1.4C417.2,4.6,415.1,5.5,413,6.5z"/>
	<path class="st86" d="M396,2.5c-2.3,1.7-4.7,3.4-7,5c-0.8-1.2-1.5-2.5-3.1-5C390.2,2.5,393.1,2.5,396,2.5z"/>
	<path class="st87" d="M536.5,359.2c1.9-1.5,3.9-2.9,6.3-4.7c0.7,1.7,1.2,3,2.1,5.1c-3,0.4-5.4,0.7-7.9,1
		C536.8,360.2,536.7,359.7,536.5,359.2z"/>
	<path class="st88" d="M272.9,56.5c0,0.7,0,1.3,0,2c-1.7,0.7-3.3,1.3-5,2c1.3-1.3,2.7-2.7,4-4C272.3,56.1,272.6,56.1,272.9,56.5z"/>
	<path class="st7" d="M424,342.5c0.3,0.3,0.7,0.7,1,1C424.6,343.1,424.3,342.8,424,342.5z"/>
	<path class="st7" d="M424,341.5c0,0.3,0,0.6,0,1c-0.1-0.2-0.3-0.5-0.4-0.7C423.6,341.7,423.9,341.6,424,341.5z"/>
	<path class="st84" d="M146.9,231.5c0.3-0.3,0.7-0.7,1-1C147.6,230.8,147.3,231.2,146.9,231.5z"/>
	<path class="st28" d="M272.9,56.5c-0.3,0-0.6,0-0.9,0c0.3-0.3,0.6-0.6,1-1C272.9,55.8,272.9,56.2,272.9,56.5z"/>
</g>
<path class="st89" d="z"/>
</svg>
