<?xml version="1.0" encoding="utf-8"?>
<!-- Generator: Adobe Illustrator 21.0.2, SVG Export Plug-In . SVG Version: 6.00 Build 0)  -->
<svg version="1.1" id="Layer_1" xmlns="http://www.w3.org/2000/svg" xmlns:xlink="http://www.w3.org/1999/xlink" x="0px" y="0px"
	 viewBox="0 0 1618.3 89" style="enable-background:new 0 0 1618.3 89;" xml:space="preserve">
<style type="text/css">
	.st0{fill:#6794CE;}
</style>
<path class="st0" d="M28.7,5.1c8.3-2.3,17-3.1,25.4-5c8.3,0,16.7,0,25,0c20.9,2.6,40.7,10.1,61,14.9c21.4,5,42.5,3.4,63.6-2.8
	c46.4-13.8,93-13.5,139.3,0.3c20.2,5.9,40.4,7.1,61,2.8c0-0.1,0-0.1,0-0.2c9.3-4.2,18.9-7.3,28.7-10c8.3-2.3,17-3.1,25.4-5
	c8.3,0,16.7,0,25,0c20.9,2.6,40.7,10.1,61,14.9c21.4,5,42.5,3.4,63.6-2.8c46.4-13.8,93-13.5,139.3,0.3c20.5,6,41.1,7.2,62,2.6
	c9.3-4.2,18.9-7.3,28.7-10c8.3-2.3,17-3.1,25.4-5c8.3,0,16.7,0,25,0c20.9,2.6,40.7,10.1,61,14.9c21.4,5,42.5,3.4,63.6-2.8
	c46.4-13.8,93-13.5,139.3,0.3c20.2,5.9,40.4,7.1,61,2.8c0-0.1,0-0.1,0-0.2c9.3-4.2,18.9-7.3,28.7-10c8.3-2.3,17-3.1,25.4-5
	c8.3,0,16.7,0,25,0c20.9,2.6,40.7,10.1,61,14.9c21.4,5,42.5,3.4,63.6-2.8c46.4-13.8,93-13.5,139.3,0.3c20.5,6,41.1,7.2,62,2.6
	c0,24.7,0,49.3,0,74c-134.7,0-269.3,0-404,0c-0.3,0-0.7,0-1,0c-134.7,0-269.3,0-404,0s-269.3,0-404,0c-0.3,0-0.7,0-1,0
	c-134.7,0-269.3,0-404,0c0-24.7,0-49.3,0-74C9.3,10.9,18.9,7.8,28.7,5.1z"/>
</svg>
