<?xml version="1.0" encoding="utf-8"?>
<!-- Generator: Adobe Illustrator 21.0.2, SVG Export Plug-In . SVG Version: 6.00 Build 0)  -->
<svg version="1.1" id="Layer_1" xmlns="http://www.w3.org/2000/svg" xmlns:xlink="http://www.w3.org/1999/xlink" x="0px" y="0px"
	 viewBox="0 0 1618.3 89" style="enable-background:new 0 0 1618.3 89;" xml:space="preserve">
<style type="text/css">
	.st0{fill:#003A5D;}
</style>
<g>
	<path class="st0" d="M62,12.5c46.3-13.8,92.9-14.1,139.3-0.3c21.1,6.2,42.2,7.8,63.6,2.8c20.3-4.8,40.1-12.3,61-14.9
		c8.3,0,16.7,0,25,0c8.4,1.9,17.1,2.7,25.4,5c9.8,2.7,19.4,5.8,28.7,10c0,24.7,0,49.3,0,74c-135,0-270,0-405,0c0-24.7,0-49.3,0-74
		C20.9,19.7,41.5,18.5,62,12.5z"/>
</g>
<g>
	<path class="st0" d="M466,12.5c46.3-13.8,92.9-14.1,139.3-0.3c21.1,6.2,42.2,7.8,63.6,2.8c20.3-4.8,40.1-12.3,61-14.9
		c8.3,0,16.7,0,25,0c8.4,1.9,17.1,2.7,25.4,5c9.8,2.7,19.4,5.8,28.7,10c0,24.7,0,49.3,0,74c-135,0-270,0-405,0c0-24.7,0-49.3,0-74
		C424.9,19.7,445.5,18.5,466,12.5z"/>
</g>
<g>
	<path class="st0" d="M871,12.5c46.3-13.8,92.9-14.1,139.3-0.3c21.1,6.2,42.2,7.8,63.6,2.8c20.3-4.8,40.1-12.3,61-14.9
		c8.3,0,16.7,0,25,0c8.4,1.9,17.1,2.7,25.4,5c9.8,2.7,19.4,5.8,28.7,10c0,24.7,0,49.3,0,74c-135,0-270,0-405,0c0-24.7,0-49.3,0-74
		C829.9,19.7,850.5,18.5,871,12.5z"/>
</g>
<g>
	<path class="st0" d="M1275,12.5c46.3-13.8,92.9-14.1,139.3-0.3c21.1,6.2,42.2,7.8,63.6,2.8c20.3-4.8,40.1-12.3,61-14.9
		c8.3,0,16.7,0,25,0c8.4,1.9,17.1,2.7,25.4,5c9.8,2.7,19.4,5.8,28.7,10c0,24.7,0,49.3,0,74c-135,0-270,0-405,0c0-24.7,0-49.3,0-74
		C1233.9,19.7,1254.5,18.5,1275,12.5z"/>
</g>
</svg>
