<?xml version="1.0" encoding="utf-8"?>
<!-- Generator: Adobe Illustrator 21.0.2, SVG Export Plug-In . SVG Version: 6.00 Build 0)  -->
<svg version="1.1" id="Layer_1" xmlns="http://www.w3.org/2000/svg" xmlns:xlink="http://www.w3.org/1999/xlink" x="0px" y="0px"
	 viewBox="0 0 675 694.3" style="enable-background:new 0 0 675 694.3;" xml:space="preserve">
<style type="text/css">
	.st0{fill:#84C06F;}
	.st1{fill:#6BAD4B;}
	.st2{fill:#483618;}
	.st3{fill:#7E6B2A;}
	.st4{fill:#75B655;}
	.st5{fill:#529A36;}
	.st6{fill:#BFDB89;}
	.st7{fill:#60A643;}
	.st8{fill:#FCF9C5;}
	.st9{fill:#F9F6C4;}
	.st10{fill:#FDFACB;}
	.st11{fill:#F4F3C1;}
	.st12{fill:#F6F4BD;}
	.st13{fill:#F1EFB7;}
	.st14{fill:#F5F4BC;}
	.st15{fill:#F3F1B9;}
	.st16{fill:#EEECB4;}
	.st17{fill:#7F6D38;}
	.st18{fill:#7A6739;}
	.st19{fill:#7C6938;}
	.st20{fill:#7A673A;}
	.st21{fill:#7C693B;}
	.st22{fill:#776437;}
	.st23{fill:#8A7741;}
	.st24{fill:#83703C;}
	.st25{fill:#EAF2D1;}
	.st26{fill:#FAF7C3;}
	.st27{fill:#181711;}
	.st28{fill:#1E1E16;}
	.st29{fill:#EDF4DA;}
	.st30{fill:#CAE1A0;}
	.st31{fill:#C8C19A;}
	.st32{fill:#D1DFAD;}
	.st33{fill:#FDF9C7;}
	.st34{fill:#F6F4BC;}
	.st35{fill:#EDEBB3;}
	.st36{fill:#EFEDB5;}
	.st37{fill:#F4F3BB;}
	.st38{fill:#FDFACE;}
	.st39{fill:#F4F2BA;}
	.st40{fill:#F2F0B8;}
	.st41{fill:#F1F0B7;}
	.st42{fill:#F0EEB6;}
	.st43{fill:#F1EFB6;}
	.st44{fill:#EFEDB9;}
	.st45{fill:#FDFACD;}
	.st46{fill:#ECEAB2;}
	.st47{fill:#F7F5BE;}
	.st48{fill:#E7DFB0;}
	.st49{fill:#FD1259;}
	.st50{fill:#A96C20;}
	.st51{fill:#CCC9B6;}
	.st52{fill:#D1CCAD;}
	.st53{fill:#D0CDBD;}
	.st54{fill:#FCFCFC;}
	.st55{fill:#D1CEBE;}
	.st56{fill:#C4C0A9;}
	.st57{fill:#C5C2AF;}
	.st58{fill:#CEC9AC;}
	.st59{fill:#D0CDBC;}
	.st60{fill:#CECBBC;}
	.st61{fill:#CFCDBF;}
	.st62{fill:#CCC8B5;}
	.st63{fill:#CAC7B6;}
	.st64{fill:#C6C3B3;}
	.st65{fill:#CCC9B5;}
	.st66{fill:#CAC7B5;}
	.st67{fill:#C9C7B9;}
	.st68{fill:#CDCBBC;}
	.st69{fill:#CECBBB;}
	.st70{fill:#CECCBF;}
	.st71{fill:#CCC9B8;}
	.st72{fill:#CDCABA;}
	.st73{fill:#C4C2B5;}
	.st74{fill:#C8C5B2;}
	.st75{fill:#C8C4B0;}
	.st76{fill:#C6C2AE;}
	.st77{fill:#CCC9B9;}
	.st78{fill:#CCCABA;}
	.st79{fill:#CDC9B2;}
	.st80{fill:#CAC7B7;}
	.st81{fill:#CECCBD;}
	.st82{fill:#FDF3B8;}
	.st83{fill:#DBD4AB;}
	.st84{fill:#E8C7A3;}
	.st85{fill:#E9B09A;}
	.st86{fill:#1B1A13;}
	.st87{fill:#1B1A14;}
	.st88{fill:#1C1B14;}
	.st89{fill:#1B1913;}
	.st90{fill:#1C1B15;}
	.st91{fill:#1D1B15;}
</style>
<g id="레이어_2">
</g>
<g id="레이어_1">
	<g>
		<path class="st0" d="M415.7,413.3c-2.4,3.4-4.7,6.9-7.7,11.3c-5.4-25.3-6.1-49.9-4.6-74.6c-1.4-1.8-1-3.9-0.9-5.9
			c2.8-36.7,11.8-71.7,27.4-105c6.3-13.5,13.4-26.6,20.6-37.7c-3.1,3.2-8.2,6.9-11.8,12c-3.9,3.8-4.3,3.9-8.8,1.4
			c-11.9-6.8-23.1-14.5-34.3-22.2c-0.3-0.2-0.5-0.5-0.7-0.9c0-1.9-1.8-2.3-3-3.2c-42.2-32.4-72.1-74.2-92.8-122.8
			c-0.2-0.6-0.4-1.2-0.2-2.2c33,13.2,61.5,33.5,88.9,57.7c-12.6-34.5-18.5-69-19.1-105.7c10.1,8.5,17.6,18,25,27.6
			c7.5,9.5,14.1,19.6,20.9,30.3c0.4-2.2,0.6-3.7,0.8-5.2c0.4,0.3,0.9,0.7,0.8,1.2c-0.4,6.2,3.5,10.8,6.3,15.7
			c15.2,26.9,25.5,55.6,31.6,85.9c0.6,3.1,0.4,6.3,1.1,8.9c-1.1-6.1,0.1-12.4,0.8-18.8c1.6-14.2,4.2-28.3,8.1-42.1
			c0.4-1.5,0.7-3,2.1-4c10.5-35.8,27.4-68.4,49.6-98.3c0.4-0.6,0.9-1.2,1.9-1.8c5.1,29,3.2,58-1,86.8c-4.2,29.1-13,56.9-25.6,83.6
			c9.9-10.7,19.7-21.4,30.6-31.1c10.9-9.7,22.4-18.6,34.7-26.5c12.3-8,25.2-15.1,38.6-21.2c13.2-6.1,26.8-11.2,41.4-15.8
			c-2.9,8.6-8.1,15.3-12.7,22.9c7.1-1.7,13.7-3.4,21.1-5.2c-3.1,6.5-6.9,11.5-10.7,16.4c-19.6,25.3-42.3,47.4-68.3,66.3
			c-0.8,0.6-2.3,0.7-2,2.2c-0.3,1.8-1.8,1.5-3,1.7c-32.3,5.3-62.7,16.3-91.7,31.3c-0.3,0.2-0.7,0.3-1,0.5c-6.5,4.1-7.9,2.4-6.3,12.1
			c0.3,1.8-0.4,3.6-0.1,5.3c0.1,0.4,0.2,0.8,0.2,1.3c0.1,7.5,0.7,15.1-0.7,22.6c-0.2,26.2-5.1,51.7-13,76.6
			c-5.3,16.1-11.7,31.7-19.4,46.8c-3.4,6.7-7.3,13.1-11,19.6C417.3,412.1,416.8,413,415.7,413.3z"/>
		<path class="st1" d="M460.9,243.9c0.5-3.5-0.6-7-0.7-10.5c-0.1-2.3,0.7-3.6,2.8-4.8c26.8-14.8,55-25.7,84.9-32.2
			c5.3-1.1,10.6-2.1,15.9-3.1c36.1-5.5,71.9-4,108.7,3.2c-3.4,2.3-5.9,4.2-8.6,5.9c-17.1,10.4-35.2,18.5-53.9,25.4
			c-1.5,0.6-3.2,0.8-4.5,2.1c-0.9,1.3-2.3,1.5-3.6,1.9c-23.2,7.7-46.9,13-71.4,14.8c-14.3,1.1-28.6,0.6-42.8,0.5
			c-8.2-0.1-16.5-1.2-24.7-2.3C462.1,244.7,461.5,244.4,460.9,243.9z"/>
		<path class="st0" d="M331.2,255.4c-2.8-2-6.1-1.1-9.1-1.2c-32-0.8-63-7.3-93.3-17.4c-0.5-0.2-0.9-0.4-1.6-0.8
			c1.3-1.6,3.1-2.3,4.7-3c19.8-9.2,40.6-15,61.8-19.7c1.1-0.2,2.4,0,2.9-1.4c0.4-0.4,0.8-0.6,1.3-0.7c14.9-2.3,29.7-4.5,44.8-5.4
			c24.4-1.4,48.4,1.2,72.3,5.5c5.3,1,10.6,1.9,15.6,3.8c1.2,0.5,3.3,0.4,2.9,2.8c-4,6-9.4,11-13.8,16.7c-2.4,3.1-4.3,6.7-7.8,8.8
			c-13.8,4.3-27.9,7.2-42.1,9.2c-10,1.4-20,2.6-30.1,2.4C336.9,254.9,334.1,256.6,331.2,255.4z"/>
		<path class="st2" d="M496.4,426.6c-0.2,23.1-1.2,46.1-2.2,69.2c-0.2,5.8,0.3,11.7-1,17.5c-2.6,1.6-5.5,1.4-8.3,1.8
			c-1.9,0-3.9-0.2-5.8,0.5c-1.3,0.3-2.7,0.4-4,0.3c-4.4,0-8.7,0-13.1,0c-1.6,0.1-3.1,0-4.7-0.3c-1.6-0.6-3.3-0.6-5.1-0.5
			c-8.9-1-17.7-2.3-26.3-4.9c-2.3-0.7-4.7-1.2-6.5-3.1c-1.2-6.8-0.9-13.7-1.2-20.6c-0.9-21-2-42-2.1-63c-0.3-3.1,2-2.4,3.5-2.2
			c4.1,0.7,8.2,1.4,12.3,2.1c1.6,0.5,3.3,0.6,5,0.5c1.1,0,2.2,0.1,3.2,0.3c2.6,0.7,5.2,0.4,7.8,0.3c4.1,0,8.3,0,12.4,0
			c2.7,0.1,5.4,0.4,8-0.4c7.1-0.6,14.2-1.6,21.1-3.4C496.7,418.9,497,419.2,496.4,426.6z"/>
		<path class="st3" d="M440.1,425c-1,0-2,0-3-0.1c-1.4-0.9-3.2,0.2-4.6-0.7c-4.4,0-8.7-1.1-13-1.9c-1.5-0.3-2.7-0.7-3.3,1.2
			c-0.2-3.4-0.4-6.8-0.6-10.2c6.4-11.9,13.3-23.5,18.8-35.8c4.7-10.6,8.7-21.4,12.7-32.3c1.4-1,2.8-0.1,4.2,0.1
			c5.2,0.6,10.5,0.5,15.7,0c1.2-0.3,2.3-0.6,3.6-0.6c1.6,0.3,3.1,0.2,4.6-0.3c5.3-1.4,10.6-2.7,15.9-4.2c3.4-0.9,5-2.9,4.9-6.6
			c-0.1-2.8-1-5.9,1.1-8.4c1.1,11,0.4,21.9,0.4,32.9c0,21.5-0.4,42.9-0.7,64.4c0,1.4-0.3,2.8-0.4,4.1c-0.6-6.6-0.6-6.4-7.1-4.6
			c-6.7,1.8-13.6,3.1-20.6,3c-2.5,1-5.2-0.3-7.7,0.7c-4.4,0-8.7,0-13.1,0C445.4,424.7,442.7,426,440.1,425z"/>
		<path class="st4" d="M331.2,255.4c2.5-0.5,5-1.4,7.5-1.4c23.6-0.1,46.5-4.5,69.2-10.4c1.6-0.4,3.2-0.8,4.8-1.3
			c0.5,1.5-0.5,2.4-1.2,3.4c-7.3,9.8-13.7,20.1-19.8,30.7c-0.7,1.2-1.3,2.5-2.9,2.9c-1.4-0.2-2.4,0.8-3.5,1.4
			c-32.2,18.2-66.6,29.5-103.1,34.7c-11.4,1.6-22.8,2.7-34.5,3.2c0.4-2.4,2-3.6,3.3-4.9C274.4,289.7,301.4,270.6,331.2,255.4z"/>
		<path class="st5" d="M388.7,279.3c4.9-7.9,9.6-15.9,14.6-23.8c2.9-4.5,6.1-8.8,9.2-13.2c6.1-7.4,12.2-14.9,18.3-22.3
			c0.5-0.6,1.1-1,1.7-1.5c2.7-0.9,5.2-2.1,5.3-5.5c4.1-6.3,10.4-10.4,15.9-15.4c-3.4,5.6-6.8,11.1-10,16.8
			c-17.2,30.2-29.7,62.2-35.9,96.5c-2.3,12.9-4,25.8-4.5,39c-6.5,8.1-12.5,16.7-19.4,24.6c-9.4,10.8-19.4,21-30.3,31.1
			c-0.8-4.7-0.4-8.9,0.1-13.1c4.9-39.3,16-76.7,34.4-111.9C388.5,280.2,388.6,279.7,388.7,279.3z"/>
		<path class="st6" d="M342.1,560c-6.1-8.3-4.5-17.6,3.9-23.7c4.7-3.4,9.8-5.3,15.6-5.6c4.2-0.2,8.3-1.2,12.2-2.9
			c6-2.5,7.6-6.7,4.6-12.6c-2.5-4.8-6.9-7.4-11.5-9.7c-2.6-1.3-5.3-2.5-8-3.8c-6.4-3-10.7-7.9-10.5-15.2c0.2-7.8,4.6-13.4,11.7-16.6
			c8.7-3.8,17.4-2.8,26,0.8c17.8,7.5,28.1,21,32,39.7c0.2,1.2,0,2.6,1.3,3.5c0.3,0.3,0.6,0.6,0.7,1c0.5,1.9,0.2,3.8,0.3,5.7
			c0,1.9-0.2,3.8,0.5,5.6c0.5,3.1,1.6,6.2,0.7,9.4c-1.9,3.9-2.3,8.4-4.7,12.1c-1.9,3-3.4,6.3-6.6,8.3c-3.4,1-7.1-0.3-10.5,0.9
			c-11.3,0.7-22.6,1.5-33.8,2.6c-2.6,0-5.2-0.4-7.8,0.3c-0.6,0.2-1.3,0.3-1.9,0.4c-3.4,0.1-6.8,0.4-10.2,0.7
			C344.9,561.2,343.3,561.2,342.1,560z"/>
		<path class="st7" d="M460.9,243.9c8,0.7,15.9,1.6,23.9,2.1c5.1,0.3,10.2,0.2,15.3,0.2c6.3,0,12.5,0.1,18.8,0
			c18.1-0.4,35.9-3,53.5-7.1c10.2-2.3,20.2-5.2,30-8.7c0.9-0.3,2-0.3,3-0.5c6.1,1.5,12.3,2.9,18.4,4.6c17.6,5,34.6,11.6,51.1,19.4
			c-4.9,3.8-10.9,4.8-16.7,6.4c-16.5,4.5-33.2,7.5-50.2,9.1c-0.4,0-0.8,0-1.1,0c-1.3,0.6-2.8-0.1-4.1,0.5c-1.7,0.1-3.3,0.2-5,0.2
			c-1.6,0.6-3.3-0.1-4.9,0.5c-3.2,0.1-6.5,0.2-9.7,0.2c-5.8,0.4-11.6,0.4-17.4,0c-3-0.1-6-0.2-9-0.2c-1.6-0.6-3.3,0.1-4.9-0.5
			c-1.9-0.1-3.9-0.1-5.8-0.2c-14.9,0.8-29-3.3-43.3-6.7c-9.6-2.7-18-8.2-27.2-11.7c-3.8-1.5-7.5-3.1-11.3-4.5
			c-1.3-0.5-2.6-0.9-3.4-2.3C460.9,244.4,460.9,244.2,460.9,243.9z"/>
		<path class="st5" d="M437.8,213.1c1.1,4.5,0.2,5.5-5.3,5.5c1.7-2.9-1.2-2.6-2.3-2.8c-9.1-1.9-18.1-4-27.3-5.4
			c-16.3-2.5-32.8-4.1-49.4-3.9c-17.9,0.2-35.7,2.2-53.4,5.5c-1.3,0.3-2.5,0.2-3.7-0.1c-20.1-7.2-39.1-16.9-57.2-28.2
			c-2.7-1.7-5.3-3.3-8.5-5.4c7.2-2.6,14.1-3.3,20.9-4c37-3.7,73.8-2.1,110,6.8c11.3,2.7,22.4,5.9,33.1,10.5
			c5.9,2.3,10.3,6.8,15.7,10c6.6,4,13.2,8.1,19.7,12.3C433.1,215.9,435.6,216.1,437.8,213.1z"/>
		<path class="st4" d="M466.3,114.9c-6.1,21.6-9.5,43.6-11,65.9c-2-10.8-4.5-21.4-7.4-31.9c-6-22-14.6-42.9-25.9-62.7
			c-1.9-3.4-4-6.8-5.8-10.3c-1.3-2.5-0.1-5.3-0.7-7.9c0-22.9,3.6-45.4,8.7-68c2.8,2,4,4.9,5.5,7.5c16.1,29.2,26.9,60.4,33.6,93.1
			C464.3,105.4,464.3,110.3,466.3,114.9z"/>
		<path class="st3" d="M419.6,514.5c0.1-0.2,0.1-0.4-0.1-0.5c0-2.3,0.1-4.6,0.1-7c5.8,1.6,11.6,3.4,17.5,4.7
			c5.1,1.1,10.3,1.6,15.4,2.3c1.5,0.9,3.2-0.2,4.6,0.7c1.5,0,3.1,0.1,4.6,0.1c4.6,0.5,9.1,0.5,13.7,0c1.3,0,2.6-0.1,3.9-0.1
			c1.7-0.9,3.7,0.2,5.4-0.7c2.9-0.1,5.6-1.3,8.6-0.8c-0.3,10.7-0.7,21.4-1,32.1c-0.4,1-0.2,2-0.3,3c-0.1,4.9-0.1,5.1-4.8,5
			c-7.6-0.2-15.2,0.5-22.8,0.9c-1,0.1-1.9,0.1-2.9,0c-11.5,0.1-23.1,0.7-34.6,1.4c-1.7,0.1-3.6,0.3-5.2-0.8
			c-1.9-6.2-2.4-12.4-0.8-18.7c0.5-3.3-0.4-6.6-0.7-9.9c-0.6-1.7-0.2-3.5-0.3-5.2C419.7,518.8,420.2,516.6,419.6,514.5z"/>
		<path class="st4" d="M460.9,244.7c12,4.4,23.7,9.5,35.1,15.2c2,1,4.2,1.6,6.3,2.4c25.7,12.8,48.3,29.8,68.7,50
			c17.8,17.6,33,37.2,46.2,58.5c0.8,1.3,1.8,2.5,1.5,4.2c1.9,3.3,3.8,6.6,5.7,10c0.1,0.1,0,0.3,0,0.6c-3,0.2-5.7-0.9-8.3-1.8
			c-43.8-15.4-82.9-38.6-116.3-71.1c-0.9-0.9-1.9-1.7-2.8-2.6c-4.5-2.9-7.8-7-11.3-11c-8.1-9.1-15.8-18.5-22.8-28.6
			c-0.7-1-1.4-1.8-2.7-2C461.3,260.7,460.8,252.7,460.9,244.7z"/>
		<path class="st2" d="M460.3,268.6c0.8-2.1,1.4-1.4,2.3,0c5.7,8.2,11.7,16.1,18.3,23.6c5.3,6.1,10.8,11.9,16.2,17.9c0,5,0,10,0,15
			c-0.1,3.7-0.2,7.4-0.1,11c0,2.1-0.6,3.1-2.7,3.9c-6.4,2.4-12.9,4-19.6,5.1c-1.2,0.5-2.5,0.4-3.7,0.1c-1.1,0.2-2.1,0.5-3.2,0.7
			c-5.6,0.5-11.1,0.5-16.7,0c-1.3-0.3-2.5-0.6-3.8-0.8c3.7-13.1,7.4-26.2,9.5-39.7C458.6,293.3,460.3,281,460.3,268.6z"/>
		<path class="st0" d="M618.7,375c-10.1-16.5-21.1-32.3-34-46.8c-21.4-24.1-45.6-44.7-73.8-60.5c-2.9-1.6-6.4-2.6-8.7-5.4
			c11.4,2.6,22.8,4.9,34.3,6.6c3.1,0.5,6.4-0.6,9.4,0.9c-3,0.8-0.2,1.6,0.2,1.9c5.1,4.5,10.4,8.7,15.4,13.3
			c26.1,23.9,46.8,51.9,63.3,83.2c1.5,2.9,3.1,5.9,4.7,9.1C625.4,378,622.4,375.1,618.7,375z"/>
		<path class="st8" d="M515.4,552.4c5.9,0,11.8,0,17.7,0c1.1,1.1,3,0.2,3.9,1.7c0.1,0.3,0,0.6-0.3,0.9c-0.8,0.6-1.6,1.2-2.5,1.7
			c-0.5,0.2-1.1,0.2-1.6,0.1c-1.9-0.8-3.6-0.7-5.5,0.3c-2.4,1.4-5.1,1.6-7.8,1.6c-2.6-0.4-5.3,2-7.8-0.2c0-1.8-1.7-1.7-2.6-2.3
			c-0.8-0.6-2.1-0.7-1.9-2s1.5-1.2,2.4-1.3c1.8-0.3,3.7-0.5,5.5,0.2C516.4,553.7,514.7,552.2,515.4,552.4z"/>
		<path class="st9" d="M481.6,555.4c-4.5-2.3-9.3-1.2-14-1c-1.5,0.1-2.8,0.3-3.6-1.2c7.9-0.3,15.7-0.7,23.6-0.7
			c3.3,0,4.6-0.9,4.2-4.2c-0.1-1,0.3-2,0.5-3c0,1.5,0.1,3,0.1,4.5c0,1.2,0,2.3,1.5,2.5c-0.5,2.4-1.9,1-3.1,0.8
			c-0.4-0.1-1.1-0.3-0.7,0.6c0.1,0.3,0.5,0.6,0.7,0.8l0,0c-3.3-0.4-6.4-2.6-9.8-1.2c0,0,0.1,0.3,0.3,0.4c0.4,0.1,0.7,0.1,1.1,0.1
			C482.9,554.8,482.1,555,481.6,555.4z"/>
		<path class="st10" d="M533.1,556.2c0.5,0,1,0,1.5,0c0.6-0.8,1.7-0.7,2.3-1.5l0,0c1-1.8-2.3-0.6-1.5-2.2c6.2,0.3,12.4-0.9,18.5,0.7
			c-2.2,1.8-4.7,0.8-7.1,1c-1,0.1-2.2-0.9-2.9,0.6c0,0.5,0,1,0,1.5c-0.7,0.7-1.6,0.9-2.5,0.6c-1.6-0.6-2.7-0.4-4.1,0.8
			C535.7,558.9,533.8,558.8,533.1,556.2z"/>
		<path class="st11" d="M543.8,554.7c-0.6-0.1-1.5-0.1-1.6-0.8c-0.2-1,0.8-0.7,1.3-0.7c3.4,0,6.9,0,10.3-0.1c1.3,0,2.5,0,3.8,0
			c1.1,1.5,3,0.2,4.4,1.4c-2.3,2.1-4.6-0.6-6.7,0.1c-3.3,0.1-6.6,1.3-10,0C544.8,554.6,544.3,554.6,543.8,554.7z"/>
		<path class="st12" d="M515.4,552.4c0.5,0.3,1,0.7,2.1,1.4c-3.7-0.2-7-1.7-9.9,0.5c0.1,1.1,1.4,1,1.7,1.8c0.3,0.2,0.4,0.3,0.3,0.5
			s-0.2,0.3-0.3,0.3c-2.9-1.3-5-4.2-8.4-4.5C505.7,552.4,510.6,552.4,515.4,552.4z"/>
		<path class="st13" d="M603.6,554.7c-0.3,0.4-0.6,1-1,1.1c-4.1,0.8-8.3,1.1-12.4-0.4c2.6,0.4,5-0.9,7.6-0.3c1.4,0.3,3,0.8,4.3-0.5
			C602.6,554.6,603.1,554.7,603.6,554.7z"/>
		<path class="st1" d="M565.8,270.8c5.8,0,11.6,0,17.4,0C577.4,271.6,571.6,271.6,565.8,270.8z"/>
		<path class="st14" d="M535.4,552.4c0.5,0.2,1.1,0.5,1.6,0.7s1.7-0.4,1.5,0.8c-0.1,0.3-1,0.5-1.6,0.7c-0.9-1.3-3.2-0.3-3.8-2.2
			C533.8,552.4,534.6,552.4,535.4,552.4z"/>
		<path class="st15" d="M625.1,555.5c-0.8,1.2-1.7,2.3-3,3l0,0c-0.1-1.3,1-2,1.5-3C624.1,555.5,624.6,555.5,625.1,555.5z"/>
		<path class="st1" d="M592.9,270.6c1.5-1.1,3.3-0.5,4.9-0.5C596.3,270.8,594.6,270.7,592.9,270.6z"/>
		<path class="st1" d="M551.9,270.1c1.7,0,3.4-0.6,4.9,0.5C555.1,270.7,553.5,270.8,551.9,270.1z"/>
		<path class="st16" d="M641.2,558.5c-0.7,0-1.6-0.1-1.7-0.9c-0.1-0.6,0.6-0.5,1-0.6C641.2,557.2,641.2,557.8,641.2,558.5z"/>
		<path class="st1" d="M602.9,269.9c1.3-1.1,2.7-0.6,4.1-0.5C605.7,270,604.3,270,602.9,269.9z"/>
		<path class="st17" d="M475.5,514.8c-4.6,1.1-9.1,1.1-13.7,0C466.3,514.8,470.9,514.8,475.5,514.8z"/>
		<path class="st18" d="M440.1,425c2.6,0.3,5.2-0.7,7.7,0.7C445.3,425.5,442.6,426.5,440.1,425z"/>
		<path class="st19" d="M460.9,425.7c2.4-1.4,5.1-0.4,7.7-0.7C466.2,426.5,463.5,425.5,460.9,425.7z"/>
		<path class="st20" d="M484.7,514c-1.6,1.4-3.6,0.4-5.4,0.7C481,513.4,482.9,514.2,484.7,514z"/>
		<path class="st21" d="M457.2,514.7c-1.6-0.2-3.3,0.6-4.6-0.7C454.1,514.1,455.8,513.5,457.2,514.7z"/>
		<path class="st22" d="M432.5,424.2c1.5,0.2,3.2-0.6,4.6,0.7C435.6,424.8,433.9,425.5,432.5,424.2z"/>
		<path class="st23" d="M451,346c5.6,0,11.2,0,16.7,0C462.2,347.2,456.6,347.2,451,346z"/>
		<path class="st24" d="M471,345.3c1.2,0,2.5-0.1,3.7-0.1C473.5,346.3,472.2,346.2,471,345.3z"/>
		<path class="st25" d="M363.4,493.2c-1.8,2.5-3,1.9-3.8-0.7c-1.6-5.2-0.8-6.2,4.6-5.1c2,0.4,4,0.4,6,0.9c2.2,0.5,2.9,1.9,1.4,3.9
			c-0.7,0.9-1.4,1.8-2.1,2.7c-1.9,2.3-3.1,2-3.7-0.9c0.4-1.2,1-2.7-0.8-3C364.1,490.8,363.1,491.8,363.4,493.2z"/>
		<path class="st26" d="M411.1,555.4c0.7,0,1.5,0,2.2,0c1.1-0.2,3-1.4,2.2,1.4c-0.2,0.5-0.5,1.1-0.5,1.7c-0.3,0.6-0.9,0.7-1.5,0.8
			c-0.4,0.4-0.9,0.5-1.4,0.5c-1.1-0.3-2,0-3,0.5c-0.3,0.1-0.7,0.1-1,0c-0.6-0.3-1-0.8-1.4-1.3c-0.1-0.1-0.1-0.3-0.2-0.5
			c-1.3-2.8-4.5-0.6-6.2-2.3C403.8,554.7,407.5,555.8,411.1,555.4z"/>
		<path class="st27" d="M366.2,479.5c-0.1,1.8-1.1,2.8-2.7,2.9c-1.9,0-3.1-1.2-3.1-3.1c0-1.6,1-2.7,2.6-2.7
			C364.9,476.5,365.9,477.8,366.2,479.5z"/>
		<path class="st28" d="M375.6,482.4c-0.4,1.5-1.1,2.7-2.8,2.6c-1.9-0.1-2.8-1.4-2.9-3c-0.1-1.8,1.2-2.8,3-2.7
			C374.9,479.3,375.2,480.9,375.6,482.4z"/>
		<path class="st29" d="M363.4,493.2c-1.4-1.6-0.3-2.8,0.9-3.6c0.9-0.5,2.1-0.2,2.5,0.8c0.5,1.3,1.2,2.9-1,3.5
			C365.3,493.1,364.8,491.8,363.4,493.2z"/>
		<path class="st30" d="M392.6,527c0.1,3.6-0.5,6.9-3.5,9.5C390.3,533.3,391.5,530.2,392.6,527L392.6,527z"/>
		<path class="st30" d="M392.6,527c-0.6-2-0.1-3.8,1.1-6.5C394.4,523.6,394.4,525.4,392.6,527L392.6,527z"/>
		<path class="st31" d="M419.6,514.5c1,2.1,0.7,4.3,0.6,6.4c-0.2,0.3-0.4,0.3-0.6,0C419.5,518.7,419.6,516.6,419.6,514.5z"/>
		<path class="st32" d="M419.5,520.9c0.2,0,0.4,0,0.6,0c0,1.8,0,3.5,0,5.3C418.9,524.6,419.7,522.7,419.5,520.9z"/>
		<path class="st33" d="M358,559.2c0.8,0.2,1.7-0.3,2.5,0.6c-1.4,0.3-2.8,0.7-3.9-0.5C357.1,559.2,357.5,559.2,358,559.2z"/>
		<path class="st26" d="M418.8,554.7c1,0,2.1-0.1,3.1-0.1c13.3-0.6,26.5-1.4,39.8-1.4c-1.5,2-3.4,3.4-6.1,3c-1.1,0.8,0,2.1-0.6,3
			c-1.1,1-2.2,1-3.3-0.1c0.6-2.3-0.8-2-2.1-1.5c-2.1,0.9-4.1,1.3-6.3,0.5c-1.5-0.9-2.7,0.2-3.9,0.6c-2.8,0.9-5.4,0.7-8-0.6
			c-0.3-0.2-0.3-0.6-0.7-0.6c0.1,0.4,0.1,0.7-0.1,1.1c-2,1.2-3.8,0.9-5.4-0.6c-0.5-0.5-0.9-1.1-1.7-0.5c0.7,1,2.6,0.7,2.5,2.4
			c-0.9,0.2-1.2,0.8-1,1.7c-1.2,0.7-2.5,0.9-3.8,0.8c-1.4-0.7-2.9-1.5-4.6-0.8c-1-0.1-1.9-0.3-0.8-1.5c0.8-0.6,2-0.3,2.5-1.4
			c0.5-0.5,1.2-1,1.1-1.8C419.5,556,418.5,555.5,418.8,554.7z"/>
		<path class="st34" d="M368,563c2.5-3.1,5.2-3.9,8.6-2.5C373,559.3,371.4,563.8,368,563z"/>
		<path class="st15" d="M404.2,560.8c0.3-0.6,0.9-0.8,1.5-0.8c0.8-0.6,1.5-0.6,2.3,0c0.3,0,0.5,0,0.8,0c1-0.2,1.8-1.3,3.1-0.8
			c0.5,0,1,0,1.5,0C410.8,562.6,407.4,561.2,404.2,560.8z"/>
		<path class="st35" d="M431.8,561.5c-1.5,0-3.1,0-4.6,0c-0.8,0-1.5,0-2.3,0c-0.4-0.8-0.6-1.6,0.8-1.5c0.8-0.8,1.7-0.8,2.7-0.6
			c1.2,0.4,2.7,0.4,3.5,1.6C431.8,561.2,431.8,561.4,431.8,561.5z"/>
		<path class="st36" d="M414.9,558.5c-0.6-0.3-0.8-0.9-0.8-1.5c1.3-0.4,2.8-1.4,3.4,1c-0.1,0.2-0.2,0.4-0.3,0.6
			C416.4,558.5,415.7,558.5,414.9,558.5z"/>
		<path class="st37" d="M418.7,559.2c-0.8,1.1-2,0.7-3.1,0.8c0.5-0.5,1-1,1.5-1.5l0,0C418.1,558,418.4,558.7,418.7,559.2z"/>
		<path class="st14" d="M539.2,559.2c-2.6,0-5.5,1-7.5-1.7c-0.1-0.2-0.4-0.2-0.7-0.3c-0.4,3.6-2.8,1.1-4.1,1.2
			c-2.2,0.1-4.2,0.5-6.2,1.3c-0.2,0.1-0.5,0.2-0.7,0.3c-0.4-0.4-1.2-0.6-0.8-1.5c0-0.3,0-0.5,0-0.8c3.1,0.1,6-0.2,8.6-2.1
			c1.8-1.4,3.6-0.3,5.3,0.6c1.5,1.5,3,2.3,4.6,0c2-2.7,4.1,1,6.1-0.1c-0.6,2.5-2.5,1.5-3.9,1.4C537.3,557.3,539.3,558.7,539.2,559.2
			z"/>
		<path class="st10" d="M545.3,554.6c3.3,0.1,6.6-1.8,10,0c0,0.3,0,0.5,0,0.8c-1.1,1.1-2.8-0.5-3.8,0.8c-0.4,2.2-3.8,1.3-3.8,3.8
			c-0.3,0.2-0.5,0.2-0.8,0c-1.7-2.2,1.4-2.4,1.5-3.8c-0.9-0.9-2.2,0.1-3.1-0.8C545.3,555.2,545.3,554.9,545.3,554.6z"/>
		<path class="st36" d="M609,559.2c-3.8-0.8-7.7-1.2-11.5,0c-0.7,0.4-0.9-0.1-1.1-0.6c0-0.4,0.1-0.7,0.4-0.9c3,0,5.8-0.1,8.6-1.5
			C606.2,555.8,608.2,557.6,609,559.2z"/>
		<path class="st33" d="M596.7,557.7c0,0.3,0,0.5,0,0.8c-1,1.1-2.1,2.2-3.8,1.5c-2.3,0.2-4.5-0.2-6.3-1.8l0.1-0.3
			c0.2-0.1,0.5-0.1,0.7-0.2c0.5-0.5,1-0.5,1.5,0C591.6,560,594.2,557,596.7,557.7z"/>
		<path class="st38" d="M571.4,561.5c0.6,1.3,0.3,2-1,1.4c-2.1-0.9-3.9,0.1-5.9,0.1c-0.8,0-1.5,0-2.3,0c-0.3,0.3-0.5,0.3-0.8,0
			c0.7-1.2,2.4-0.3,3.1-1.5c0.8-1.2,1.7-1.7,3.1-0.8C568.8,561.5,570.1,561.6,571.4,561.5z"/>
		<path class="st39" d="M616.7,559.2c-2.4,0.4-4.6-0.6-6.9-0.8c-0.4-0.6-0.7-1.3-1.2-2.2c2.7,0.2,4.9,2.4,7.4,0.7
			C616.2,557.7,616.4,558.5,616.7,559.2L616.7,559.2z"/>
		<path class="st40" d="M575.9,554.5c2.3,2.7,6.8,0.2,8.9,3.6C582.1,556.1,577.9,558.3,575.9,554.5z"/>
		<path class="st41" d="M546.9,560c0.3,0,0.5,0,0.8,0c0.9,0,1.8-0.1,2.9,1.3c-1.8,0.1-2.9,1.8-4.7,0.3c-0.4-0.3-1.2-0.8-0.4-1.4
			C545.7,559.9,546.4,560,546.9,560z"/>
		<path class="st35" d="M582.2,561.5c-0.8,0-1.5,0-2.3,0c-0.2-0.7-0.6-1.5,0.7-1.5c2.2-0.1,4.4,0,6.2,1.5l0,0
			C585.2,561.9,583.7,562.7,582.2,561.5z"/>
		<path class="st15" d="M567.6,560.8c-1.1-0.1-2.1,0.3-3.1,0.8c-1,0-2,0-3.1,0c1.6-2.5,4.2-1.3,6.4-1.8
			C567.7,560.1,567.7,560.4,567.6,560.8z"/>
		<path class="st36" d="M575.3,556.3c-1.7,0.6-2.5-0.1-4.1-0.9C573.1,554.4,574.1,554.5,575.3,556.3z"/>
		<path class="st39" d="M564.5,557.7c1-0.8-0.8-1.7,0.1-2.7c1.7,0.2,1.3,2.2,2.7,2.7C566.1,559,565.3,557.9,564.5,557.7L564.5,557.7
			z"/>
		<path class="st36" d="M592.9,560c1.3-0.5,2.6-1,3.8-1.5c0.3,0.3,0.5,0.5,0.8,0.8c-1.7,1-3.4,1.9-5.4,2.3
			C592.4,561,592.7,560.5,592.9,560z"/>
		<path class="st13" d="M551.5,556.2c-0.3-0.2-1.4-0.1-0.6-0.7c1.3-1,2.9-0.1,4.4-0.1C554.3,557.1,553,557,551.5,556.2z"/>
		<path class="st39" d="M569.1,556.9c-0.8-0.2-2.2,0-1.6-1.3c0.4-0.9,2-1,2.7-0.3C570.8,556,569.3,556.2,569.1,556.9L569.1,556.9z"
			/>
		<path class="st39" d="M572.2,558.5c-1.2-0.1-2.8,0.5-3.1-1.5l0,0C570.3,557.1,571.9,556.4,572.2,558.5L572.2,558.5z"/>
		<path class="st39" d="M564.5,557.7c-0.1,1-0.5,1.8-1.6,0.9c-0.4-0.3-1.3-0.8-0.7-1.4C562.9,556.5,563.7,557.5,564.5,557.7
			L564.5,557.7z"/>
		<path class="st42" d="M545.3,555.4c1.1,0.1,2.3-0.4,3.1,0.8c-0.6,0.1-1.2,0.2-1.8,0.3c-0.5,0.1-0.7,1.3-1.4,0.7
			C544.9,556.9,545.3,556,545.3,555.4z"/>
		<path class="st43" d="M589.1,557.7c-0.5,0-1,0-1.5,0c-0.1-0.5-0.8-1.3,0.3-1.4C588.7,556.2,589.7,556.3,589.1,557.7z"/>
		<path class="st37" d="M572.2,558.5c0.5,0.3,1.3,0.6,0.9,1.2c-0.2,0.3-1.1,0.1-1.6,0.1C571.7,559.4,571.9,558.9,572.2,558.5
			L572.2,558.5z"/>
		<path class="st15" d="M622.1,558.5c1,2.6,4,0.7,5.7,2.4c-1.7,1.2-3.1,2-4.9,0.4C622,560.5,620.5,560,622.1,558.5L622.1,558.5z"/>
		<path class="st34" d="M600.4,563c2.5-3.1,5.2-3.9,8.6-2.5C605.5,559.3,603.9,563.8,600.4,563z"/>
		<path class="st39" d="M616.7,556.9c1.4,0.1,2.7-1.6,4.5,0.1C619.5,557.9,618.1,558.2,616.7,556.9L616.7,556.9z"/>
		<path class="st40" d="M498.5,554.4c2.4,2.7,6.6,0.3,9,3.2C503.8,557.8,500,556.6,498.5,554.4z"/>
		<path class="st39" d="M461.7,559.2c-2.3-0.3-4.6-0.5-6.9-0.8c-0.4-1-2.4-2.5,0.8-2.3c0.9,1,2,1.8,3.2,1.3
			C460.8,556.7,461.1,558.1,461.7,559.2z"/>
		<path class="st41" d="M467.3,560.2c2-0.3,3.7-0.6,5.5,0.6C470.8,562.3,469.1,563,467.3,560.2z"/>
		<path class="st42" d="M504.7,561.6c-0.8,0-1.5,0-2.3,0c-0.2-0.7-0.6-1.5,0.7-1.5c2.2-0.1,4.4,0,6.2,1.5
			C507.7,561.9,506.2,562.7,504.7,561.6z"/>
		<path class="st15" d="M484.4,560.8c2-0.1,3.9-1.2,6.9-1.4C488.5,561.2,486.6,561.9,484.4,560.8z"/>
		<path class="st36" d="M494,555.4c1-0.8,1.7-0.8,2.4-0.5c0.6,0.2,1,0.7,1,1.6C496.1,556.7,495,556.3,494,555.4z"/>
		<path class="st39" d="M487,557.7c0.8-0.8-0.5-1.7-0.1-2.7c1.8,0.3,1.8,2,2.8,2.9C488.6,559,487.9,557.9,487,557.7L487,557.7z"/>
		<path class="st39" d="M464.8,561.6c-1.8,0.3-2.5-0.9-3.1-2.3C463.1,559.4,465,559.1,464.8,561.6z"/>
		<path class="st39" d="M462.2,557.6c1.2-1.4,2.3-1.8,3.9-0.8C465,558.2,463.7,557.6,462.2,557.6z"/>
		<path class="st13" d="M473.9,555.5c0.5,0,1.7,0,3.1,0C475.8,558.7,474.4,555.2,473.9,555.5z"/>
		<path class="st39" d="M491.6,556.9c-2.1-0.1-2.2-1-0.8-2.3l0,0C492.3,555,493.9,555.3,491.6,556.9L491.6,556.9z"/>
		<path class="st39" d="M494.7,558.5c-1.2-0.1-2.8,0.5-3.1-1.5l0,0C492.8,557.1,494.4,556.4,494.7,558.5L494.7,558.5z"/>
		<path class="st39" d="M487,557.7c-0.1,1-0.5,1.8-1.6,0.9c-0.4-0.3-1.3-0.8-0.7-1.4C485.4,556.5,486.2,557.5,487,557.7L487,557.7z"
			/>
		<path class="st13" d="M481.6,555.4c0.3-0.5,0.5-1,0.8-1.5c0.7,0.1,2-0.2,1.8,0.7C484,556,482.5,555.2,481.6,555.4z"/>
		<path class="st43" d="M511.6,557.7c-0.5,0-1,0-1.5,0c-0.3-0.3-0.5-0.5-0.8-0.8c0-0.3,0-0.5,0-0.8
			C510.2,556.4,511.9,555.6,511.6,557.7z"/>
		<path class="st42" d="M512.3,560c0.3,0.2,1.2,0.3,0.5,0.6c-0.8,0.4-1.9,0.1-2.9,0.1C510.6,559.9,511.5,560,512.3,560z"/>
		<path class="st37" d="M494.7,558.5c0.5,0.3,1.3,0.6,0.9,1.2c-0.2,0.3-1.1,0.1-1.6,0.1C494.2,559.4,494.4,558.9,494.7,558.5
			L494.7,558.5z"/>
		<path class="st13" d="M512.8,555.5c4.2-0.7,8.4,0.2,12.6-0.1C521.2,556.4,517,557.2,512.8,555.5z"/>
		<path class="st14" d="M536.9,554.6c-0.1,1.6-1.2,1.5-2.3,1.5C534.7,554.6,535.8,554.6,536.9,554.6z"/>
		<path class="st33" d="M418.7,559.2c-0.5-0.3-1-0.5-1.5-0.8c-0.2-2.1-1.9-1.4-3.1-1.5c0.3-0.5,0.6-0.9,0.9-1.4
			c-0.6-0.1-1.1-0.2-1.7-0.2c1.4-1.2,3.1-0.5,4.7-0.6c-0.5,1.4,1.2,1.4,1.6,2.2C421.8,558.6,418.4,558.3,418.7,559.2z"/>
		<path class="st44" d="M419.5,556.9c-0.7-0.6-3.8,0.5-1.6-2.2c0.3,0,0.5,0,0.8,0C419.3,555.4,420.3,555.8,419.5,556.9z"/>
		<path class="st33" d="M411.8,559.2c-1.1,0.2-1.8,1.7-3.1,0.8C409.5,558.8,410.4,557.7,411.8,559.2z"/>
		<path class="st33" d="M408,560c-0.8,0-1.5,0-2.3,0c0.3-0.5,0.5-1,0.8-1.5C407.4,558.5,408,559,408,560z"/>
		<path class="st33" d="M430.2,558.5c0.2-1.4-1.3-1.3-1.8-2.1c0.7-1.1,1.4-0.5,1.9,0c3.4,2.7,7,2.6,10.5,0.5c1.4-0.8,2-0.9,2.4,0.8
			c-0.4,0.6-1,1-1.6,1.4c-1.3,0.5-2.5,1.3-3.9,1.6c-2.3-0.2-4.6-0.6-6.9-1C430.4,559.4,430,559.2,430.2,558.5z"/>
		<path class="st45" d="M430.2,558.5c0.3,0.3,0.5,0.5,0.8,0.8c-0.2,1.9-1.4,1-2.3,0.8c-1,0-2,0-3.1,0c-0.9-1.9-2.5-1.7-4.7-0.2
			c0.9-1.6,1.3-2.2,1.7-2.8c1-0.7,2.1-0.5,3.1,0C426.7,558.9,428.6,558.3,430.2,558.5z"/>
		<path class="st36" d="M441.8,558.5c0.3-0.6,0.9-0.8,1.5-0.8c2.4,0.1,4.9,0.2,6.8-1.5c1.1-1,1.4-0.1,1.2,0.6
			c-0.1,0.7,2.7,0.7,0.4,1.7c-3.1,0-6.2-0.2-9.2,0.8C441.7,559.5,441.6,559.2,441.8,558.5z"/>
		<path class="st46" d="M425.6,557c-1,0-2,0-3.1,0C423.6,554.3,424.6,556.4,425.6,557z"/>
		<path class="st26" d="M428.7,560c0.8,0,1.8,0.1,2.3-0.8c2.5-1.1,4.5,1.7,6.9,0.8c0.5,0.9-0.4,1.1-0.8,1.5c-1.8-1-3.6-1-5.4,0
			C431.1,560.3,429.4,561.2,428.7,560z"/>
		<path class="st34" d="M522.9,563c2.5-3.1,5.2-3.9,8.6-2.5C528,559.3,526.4,563.8,522.9,563z"/>
		<path class="st36" d="M519.2,558.5c0.3,0.5,0.5,1,0.8,1.5c-1.7-0.2-3.1,0.9-5.3,1.7C516,559.4,517.5,558.8,519.2,558.5z"/>
		<path class="st34" d="M445.5,563c2.5-3.1,5.2-3.9,8.6-2.5C450.5,559.3,448.9,563.8,445.5,563z"/>
		<path class="st36" d="M437.2,561.5c0.3-0.5,0.5-1,0.8-1.5c1.3-0.5,2.6-1,3.8-1.5c0.3,0.3,0.5,0.5,0.8,0.8
			C440.8,560.3,439.1,561.1,437.2,561.5z"/>
		<g>
			<path class="st47" d="M641.2,692L641.2,692c0-0.5,0-1,0-1.5l0,0c0-0.5,0-1.1,0-1.6s0-1,0-1.5c0-1.3,0-2.6,0-3.8c0-0.5,0-1,0-1.5
				l0,0c0-4.6,0-9.2,0-13.8l0,0c0-1.8,0-3.6,0-5.4l0,0c0-5.1,0-10.2,0-15.3l0,0c0-0.3,0-0.5,0-0.8c0-1.3,0-2.6,0-3.9
				c0-0.5,0-1,0-1.5l0,0c0-1.3,0-2.6,0-3.9c0.1-0.2,0.1-0.5,0-0.7l0,0c0-0.8,0-1.6,0-2.3c0-0.5,0-1,0-1.5l0,0c0-0.3,0-0.5,0-0.8
				c0-0.7,0-1.5,0-2.2l0,0c0-1.5,0-3.1,0-4.6l0,0l0,0c0-1.5,0-3,0-4.6l0,0l0,0c0-0.5,0-1.1,0-1.6l0,0l0,0c0-0.5,0-1,0-1.5l0,0
				c0-0.5,0-1.1,0-1.6s0-1,0-1.5c0-1.3,0-2.6,0-3.8l0,0c0-0.5,0-1,0-1.5l0,0c0-4.6,0-9.2,0-13.8l0,0c0-1.8,0-3.6,0-5.4l0,0
				c0-5.1,0-10.2,0-15.3l0,0c0-0.3,0-0.5,0-0.8l0,0c0-1.3,0-2.6,0-3.9l0,0c0-0.5,0-1,0-1.5l0,0c0-1.3,0-2.6,0-3.9
				c0.1-0.2,0.1-0.5,0-0.7l0,0c0-1.8,0-3.6,0-5.4c-0.4-0.4-0.9-0.8-0.7-1.5c-5.1-1.3-10.3-0.7-15.4-1.4c-1.3,0.7-2.3,1.8-3,3.1v-0.1
				c0.4-1.1,1.9-1.6,1.5-3c-2.3,0-4.6-0.1-6.9-0.1l0,0c-4.3-1-8.7-0.7-13.1-0.7c-0.6,0.5-1.1,0.7-1.7,0.9c0.1-0.2,0.2-0.5,0.2-0.9
				c-14.8-1.2-29.6-1.7-44.5-1.5c-0.4,0.9,0.5,1,0.9,1.4c-0.7-0.2-1.4-0.5-2.2-0.5c-0.2,0-0.5,0.1-0.7,0.1c-0.3,0.1-0.6,0.3-0.9,0.6
				c-0.7,1.9-2.4,0.9-3.6,1.3c-1.6,0.9-3.6,1.5-3.7,3.9c0.2,0.5,0.7,0.6,1.1,1c-0.5,0.4-1.1,0.4-1.6,0.1c-0.9-0.4,0-0.7,0.2-1
				c-0.8-1.8,2-2.3,1.4-3.9c-0.7-0.5-1.4-0.5-2.1-0.2c-0.4,0.2-0.5,0.6-0.8,0.8c0.2-0.5,0.4-0.9,0.3-1.4c-0.1-0.3-0.3-0.6-0.5-0.9
				c-0.5-0.2-1-0.2-1.6,0c-0.4,0.4-0.7,0.8-0.9,1.3c-0.7,1.4-1.9,1-3,1c-1.9,0-2.1,0.9-1.4,2.3c-2.3-0.7-5-0.5-7-2.3
				c-0.2-0.2-0.5-0.2-0.7-0.1c-3.3,2-7.3,0.7-10.7,2.3c-0.9,0.3-1.8,0.4-2.6,0.8c0.6-0.4,1.4-0.5,1.9-1.1c0.1,0,0.1-0.1,0.1-0.3
				s-0.1-0.4-0.2-0.6c-2.6-0.7-5.1,2.3-7.7,0c-0.4-0.4-0.9-0.5-1.4-0.2c0-0.1,0.1-0.1,0-0.2c-0.1-0.5-0.4-0.9-0.8-1.2
				c-2.5-2-5.1-3.8-8.6-3.8c-2.3,0-4.6,0-6.9,0c-1.1,1.1-2.4,0.1-3.6,0.3c-0.5,0.1-1.1,0.1-1.1,0.7c0,0.2,0,0.3,0.1,0.4
				c-2.5-1.6-5.3-1.2-8.1-1.1c-1.7,0.1-1.6,0.9-0.2,1.6c0.3,0,0.4,0.1,0.5,0.3c-0.2-0.1-0.4-0.2-0.5-0.2c-3-1.4-6-1.4-9.3-1.1
				c-2.5,0.3-5.3,1.2-7.8-0.2c-0.8,0-1.6,0-2.3,0c-2,1-4.1,1.8-6.1,2.8c-0.3,1.4,0.5,1.9,1.4,2.1c-0.7,0.1-1.5,0.2-2.2,0.4
				c-1,1.1-2,1.1-3.1,0c-3-1.7-6.1,0.2-9.1,0c-1.9,0.6-3.6,1.9-5.7,1.8c-1.9-0.3-3.9-1-5.2,1.3l0,0c0,0,0,0-0.1,0
				c0-0.1-0.1-0.2-0.2-0.3c-2.9-1.1-3-1.1-4.3,0.3c0,0.1-0.1,0.1-0.1,0.2c0-0.2,0-0.3,0-0.5c-0.7-0.4-1.4-0.5-2.2-0.4
				c-1.3,0.2-2.6,0.5-3.9,0.6c-0.2,0-0.4,0.1-0.6,0.1c-0.9-0.9-1.9-1-3-0.5c-0.3-0.2-0.6-0.4-0.6-0.9c0.2-0.7,0.9-1.3,0.1-2
				c-0.6-0.3-1.3-0.3-2-0.1s-1.3,0.5-2,0.9c-2.2,1.8-4.7,1.4-7.2,1.4c0.1,0,0.2-0.1,0.3-0.1c0.5-0.5,1-0.9,0.5-1.7
				c-0.1,0-0.1,0-0.2,0c0.1-0.1,0.2-0.3,0.3-0.4c-1.3-3.1-4.1-1.5-6.3-1.9c-11.6,0-23,1.5-34.5,2.4c-2.6,0.2-5.3-0.7-7.8,0.7
				c0.2,0.2,0.4,0.3,0.7,0.4c-0.6,0.1-1.4,0.2-2.1-0.3c-4.8,0.2-9.7,0.5-14.5,0.7c-0.8,1.1-2.1,0.7-3.1,0.9l0,0
				c-3.6,0.8-7.3,0.2-10.8,1.4c-0.5,0-1,0.1-1.5,0.1l0,0l0,0c-7.3-0.1-14.3,1.4-21.5,2.3c-1,0-2,0.1-3,0.1l0,0l0,0
				c-3.1,0.5-6.2,1-9.3,1.4l0,0c-0.3,0-0.5,0-0.8,0l0,0c-1.9-0.4-3.6,0.8-5.4,0.7c-3.6,0.5-7.2,1-10.7,1.5l0,0
				c-0.9,0.1-1.8,0-2.7,0.2c-10.9,1.7-21.7,3.5-32.6,5.2c-0.6-0.1-1.2,0.1-1.6,0.6l0.1,0.1l0,0l0,0l0,0v-0.1
				c-1.5,0.2-3.2-0.5-4.6,0.8c-1.5,0.1-3.1-0.1-4.5,0.8l0,0c-0.5,0-1,0-1.5,0.1l0,0c-0.9,0-1.8-0.2-2.4,0.7c-1.3,0-2.6,0.1-3.8,0.8
				l0,0c-1.3,0.2-2.8-0.4-3.9,0.8c-0.7,0-1.5,0.1-2.2,0.1l0,0c-3.1,0.7-6.2,1.5-9.3,2.2c-4.5,0.1-8.6,1.8-12.9,2.4
				c-1.7,0.7-3.7,0.3-5.4,1.4c-1.6-0.2-3.1,0.5-4.6,0.9l0,0l0,0c-2.3,0.5-4.6,1-6.9,1.5l0,0l0,0c-0.8,0.2-1.6,0.5-2.3,0.7l0,0l0,0
				c-2.3,0.5-4.6,1.1-6.8,1.6c0.1,0.1,0.2,0.1,0.2,0.2c-0.1,0-0.2-0.1-0.2-0.2c-6.4,1.7-13,2.9-19.3,5.3c-0.5,0-1,0.1-1.4,0.1l0,0
				l0,0c-5.9,1.8-11.8,3.5-17.7,5.3l0,0l0,0c-4.5,1.3-8.9,2.5-13.1,4.5c-1,0.3-2,0.6-3,0.8l0,0l0,0c-1.4,0.3-2.8,0.5-3.9,1.5
				c-1.1-0.1-2.1,0.3-3,0.8l0,0l0,0c-1.2,0.1-2.3,0.6-3.2,1.4c-0.5,0-1,0.1-1.5,0.1l0,0l0,0c-1.2,0.1-2.3,0.5-3.1,1.4
				c-1,0.3-2,0.6-3,0.9l0,0c-4.7,1.9-9.6,3.2-13.9,6l0,0c-0.8,0-1.7,0-2.3,0.8l0,0c-2.3,1-4.6,2.1-6.9,3.1l0,0
				c-1.3,0.5-2.5,1-3.8,1.6l0,0l0,0c-0.8,0.5-1.6,1-2.4,1.4l0,0c-0.6,0-1.2,0.2-1.5,0.8c-3.9,1-7.3,3.2-10.7,5.4
				c-1.3,0.7-2.5,1.5-3.8,2.2l0,0c-9.6,4.5-18.2,10.7-26.1,17.7c-0.5,0.5-1,1-1.5,1.5l0,0c-2.3,1.5-4.5,3.1-6.1,5.5
				c-0.8,0.3-1.2,0.9-1.5,1.6l0,0l0,0c-1.4,0.5-1.7,1.9-2.4,3c-1.7,1.2-2.9,2.7-3.8,4.6l0,0c-4,4.7-6.5,10.3-8.3,16.1
				c0,0.5-0.1,1-0.1,1.5l0,0l0,0c-1.1,0.8-0.7,2-0.8,3.1c0,0.2-0.1,0.5-0.1,0.7l0,0c-1.3,1.9-0.4,4.1-0.7,6.2c7.4,0,14.8,0,22.3,0
				c1.8,0,3.6,0,5.4,0c9,0,17.9,0,26.9,0c2,0,4.1,0,6.1,0c13,0,26.1,0,39.1,0c1.8,0,3.6,0,5.4,0c9,0,17.9,0,26.9,0c2,0,4.1,0,6.1,0
				c13,0,26.1,0,39.1,0c1.8,0,3.6,0,5.4,0c9,0,17.9,0,26.9,0c2,0,4.1,0,6.1,0c13,0,26.1,0,39.1,0c1.8,0,3.6,0,5.4,0
				c9,0,17.9,0,26.9,0c2,0,4.1,0,6.1,0c13,0,26.1,0,39.1,0c1.8,0,3.6,0,5.4,0c9,0,17.9,0,26.9,0c2,0,4.1,0,6.1,0c13,0,26.1,0,39.1,0
				c1.8,0,3.6,0,5.4,0c9,0,17.9,0,26.9,0c2,0,4.1,0,6.1,0c13,0,26.1,0,39.1,0c1.8,0,3.6,0,5.4,0c9,0,17.9,0,26.9,0c2,0,4.1,0,6.1,0
				c13,0,26.1,0,39.1,0c1.8,0,3.6,0,5.4,0c9,0,17.9,0,26.9,0c2,0,4.1,0,6.1,0c1,0,2,0,3.1,0c1.8,0,3.6,0,5.4,0c1,0,2,0,3.1,0
				s2,0,3.1,0c3.8,0,7.7,0,11.5,0c0.8,0,1.5,0,2.3,0c3.6,0,7.2,0,10.7,0C641.2,693.5,641.2,692.7,641.2,692z M45.8,639L45.8,639
				L45.8,639L45.8,639L45.8,639C45.8,639.1,45.9,639.1,45.8,639C45.8,639.1,45.8,639,45.8,639L45.8,639L45.8,639L45.8,639L45.8,639
				L45.8,639z M273,571.5L273,571.5L273,571.5C273,571.5,273,571.6,273,571.5C272.9,571.6,272.9,571.6,273,571.5
				C272.9,571.5,273,571.5,273,571.5z M638.2,633C638.2,632.9,638.2,632.9,638.2,633C638.1,632.9,638.1,632.9,638.2,633
				C638.2,632.9,638.2,632.9,638.2,633C638.2,632.9,638.2,633,638.2,633z M78,622.8c0.1,0.1,0.1,0.3,0.2,0.4c-0.1,0-0.2,0-0.2-0.1
				C77.9,623,77.9,622.9,78,622.8z M135.8,604.5C135.7,604.2,135.9,604.3,135.8,604.5L135.8,604.5z M435.6,564.6L435.6,564.6
				L435.6,564.6L435.6,564.6L435.6,564.6L435.6,564.6z M631.7,599.3c0.1,0.1,0.2,0.3,0.3,0.4c-0.1,0-0.1,0.1-0.2,0.1
				C631.7,599.6,631.7,599.4,631.7,599.3z M632.2,641.2L632.2,641.2c0,0.1,0,0.1-0.1,0.1C632.1,641.3,632.1,641.2,632.2,641.2z
				 M631.7,672.2c0.1,0.1,0.2,0.3,0.3,0.4c-0.1,0-0.1,0.1-0.2,0.1C631.7,672.5,631.7,672.3,631.7,672.2z M116.3,619.7
				c0,0.1,0.1,0.1,0.1,0.2l0,0l0,0c-0.1,0-0.1-0.1-0.2-0.1C116.3,619.7,116.3,619.7,116.3,619.7z M463.2,574.6L463.2,574.6
				L463.2,574.6L463.2,574.6L463.2,574.6z M518.8,572.3c0.2,0.3,0.3,0.5,0.4,0.8c-0.1,0-0.2,0.1-0.3,0.1
				C518.9,572.9,518.8,572.6,518.8,572.3z M535.2,565.3C535.2,565.4,535.2,565.4,535.2,565.3L535.2,565.3z M534.3,567.7
				c0-0.1,0-0.2,0-0.3C534.3,567.6,534.3,567.7,534.3,567.7z M618.2,574.6L618.2,574.6L618.2,574.6L618.2,574.6L618.2,574.6z
				 M533.8,573.1L533.8,573.1L533.8,573.1L533.8,573.1L533.8,573.1z M497.6,667.6c0.1-0.1,0.1-0.1,0.2-0.2l0,0
				C497.7,667.5,497.7,667.6,497.6,667.6L497.6,667.6z M420,667.6c0.1-0.1,0.2-0.1,0.2-0.2l0,0c0,0.1-0.1,0.2-0.1,0.2
				C420.1,667.7,420.1,667.6,420,667.6z M386.5,676.6l-0.1-0.1c0,0,0,0-0.1-0.1C386.4,676.4,386.5,676.5,386.5,676.6
				C386.6,676.6,386.5,676.6,386.5,676.6L386.5,676.6z M308.9,676.5L308.9,676.5c0.1,0,0.2,0.1,0.3,0.1h-0.1
				C309,676.6,308.9,676.5,308.9,676.5z M231.4,676.5L231.4,676.5c0.1,0,0.2,0.1,0.3,0.1h-0.1C231.5,676.6,231.4,676.5,231.4,676.5z
				 M187.6,667.6c0.1-0.1,0.1-0.1,0.2-0.2l0,0C187.8,667.5,187.7,667.6,187.6,667.6C187.6,667.7,187.6,667.6,187.6,667.6z
				 M153.9,676.5L153.9,676.5c0.1,0,0.2,0.1,0.2,0.1L153.9,676.5C154,676.6,153.9,676.5,153.9,676.5z M110.1,667.6
				c0.1-0.1,0.1-0.1,0.2-0.2l0,0C110.3,667.5,110.2,667.6,110.1,667.6C110.1,667.7,110.1,667.6,110.1,667.6z M76.5,676.6L76.5,676.6
				c0,0,0.1,0,0.2,0.1C76.7,676.6,76.6,676.6,76.5,676.6L76.5,676.6z M127.1,613C127.1,613,127.1,613.1,127.1,613
				C127,613.1,127,613.1,127.1,613z M222.8,594.3c0.1,0.1,0.2,0.1,0.3,0.2l0,0c-0.1,0-0.1,0-0.2,0
				C222.9,594.5,222.8,594.4,222.8,594.3z M303.8,577.3L303.8,577.3L303.8,577.3L303.8,577.3z M446.4,586.1
				C446.4,586.1,446.3,586.1,446.4,586.1C446.3,586.1,446.3,586.1,446.4,586.1L446.4,586.1z M536.3,577.3L536.3,577.3L536.3,577.3
				L536.3,577.3z M342.5,667.6c0.1-0.1,0.2-0.1,0.2-0.2l0,0c0,0.1-0.1,0.2-0.1,0.2S342.6,667.6,342.5,667.6z M265,667.6
				c0.1-0.1,0.2-0.1,0.2-0.2l0,0c0,0.1-0.1,0.2-0.1,0.2S265.1,667.6,265,667.6z M614.4,658.1c-0.1-0.1-0.2-0.2-0.2-0.3
				C614.2,657.9,614.3,658,614.4,658.1z M365.4,580.6c0.1,0,0.3,0.1,0.4,0.1c0,0,0,0-0.1,0C365.6,580.7,365.4,580.7,365.4,580.6z
				 M368.8,586C368.8,586.1,368.8,586.1,368.8,586C368.8,586.1,368.8,586.1,368.8,586C368.8,586.1,368.8,586.1,368.8,586z
				 M477.3,651.3c-0.1,0-0.1,0-0.2,0c0-0.1,0-0.1,0-0.2C477.1,651.2,477.2,651.2,477.3,651.3z M399.8,651.3c-0.1,0-0.1,0-0.2,0
				c0-0.1,0-0.1,0-0.2C399.6,651.2,399.7,651.2,399.8,651.3z M167.3,651.3c-0.1,0-0.1,0-0.2,0l0,0c0-0.1,0-0.1,0-0.2
				C167.2,651.2,167.2,651.2,167.3,651.3z M554.8,651.3c-0.1,0-0.1,0-0.2,0c0-0.1,0-0.1,0-0.2C554.6,651.2,554.7,651.2,554.8,651.3z
				 M322.3,651.3c-0.1,0-0.1,0-0.2,0l0,0c0-0.1,0-0.1,0-0.2C322.2,651.2,322.2,651.2,322.3,651.3z M244.8,651.3c-0.1,0-0.1,0-0.2,0
				l0,0c0-0.1,0-0.1,0-0.2C244.7,651.2,244.7,651.2,244.8,651.3z M164.6,656.4h-0.1C164.5,656.4,164.5,656.4,164.6,656.4
				C164.5,656.4,164.6,656.4,164.6,656.4z M271.3,619.7c0,0.1,0.1,0.1,0.1,0.2l0,0l0,0c-0.1,0-0.1,0-0.2-0.1
				C271.3,619.7,271.3,619.7,271.3,619.7z M127.9,642.9c0,0.1,0,0.1-0.1,0.2C127.9,643,127.9,643,127.9,642.9L127.9,642.9z
				 M131.7,640c0-0.2,0-0.3-0.1-0.4c0.2,0,0.5,0,0.8-0.1C132.2,639.6,131.9,639.8,131.7,640z M151.2,656.2c0,0.1-0.1,0.2-0.2,0.3
				c-0.1-0.1-0.2-0.2-0.3-0.3C150.9,656.2,151.1,656.2,151.2,656.2z M125.6,637.5L125.6,637.5L125.6,637.5L125.6,637.5L125.6,637.5
				L125.6,637.5z M467.8,594.5L467.8,594.5L467.8,594.5L467.8,594.5z M295,604.6c0.1,0,0.1-0.1,0.2-0.1l0,0l0,0l0,0l0,0
				C295.1,604.5,295.1,604.5,295,604.6z M463.9,603.6c0.1,0,0.1,0.1,0.2,0.1C464.1,603.7,464,603.7,463.9,603.6
				C464,603.7,464,603.7,463.9,603.6C464,603.7,464,603.7,463.9,603.6C463.9,603.7,463.9,603.7,463.9,603.6z M379.8,652L379.8,652
				L379.8,652C379.7,652.1,379.7,652,379.8,652z M384.2,632.1L384.2,632.1L384.2,632.1L384.2,632.1L384.2,632.1L384.2,632.1
				L384.2,632.1z M306.7,632.1L306.7,632.1L306.7,632.1L306.7,632.1L306.7,632.1L306.7,632.1L306.7,632.1z M302.3,652L302.3,652
				L302.3,652C302.2,652.1,302.2,652,302.3,652z M536.3,650.2L536.3,650.2C536.2,650.2,536.3,650.2,536.3,650.2L536.3,650.2z
				 M458.8,650.2L458.8,650.2L458.8,650.2L458.8,650.2z M457.2,652.1c0,0,0-0.1,0.1-0.1C457.2,652,457.2,652.1,457.2,652.1
				L457.2,652.1z M461.7,632.1L461.7,632.1L461.7,632.1L461.7,632.1L461.7,632.1L461.7,632.1L461.7,632.1z M534.7,652L534.7,652
				L534.7,652L534.7,652z M539.2,632.1L539.2,632.1L539.2,632.1L539.2,632.1L539.2,632.1L539.2,632.1L539.2,632.1z M456.3,616.8
				L456.3,616.8L456.3,616.8L456.3,616.8L456.3,616.8L456.3,616.8L456.3,616.8z M533.8,616.8L533.8,616.8L533.8,616.8L533.8,616.8
				L533.8,616.8L533.8,616.8L533.8,616.8z M378.8,616.8L378.8,616.8L378.8,616.8L378.8,616.8L378.8,616.8L378.8,616.8L378.8,616.8z
				 M386.5,603.7L386.5,603.7L386.5,603.7L386.5,603.7z M386.5,603.7c0-0.1-0.1-0.1-0.1-0.1l0,0c0.1,0.1,0.2,0.1,0.3,0.2
				C386.6,603.7,386.5,603.7,386.5,603.7z M301.3,616.8L301.3,616.8L301.3,616.8L301.3,616.8L301.3,616.8L301.3,616.8L301.3,616.8z
				 M224.8,652L224.8,652L224.8,652C224.7,652.1,224.7,652,224.8,652z M229.2,632.1L229.2,632.1L229.2,632.1L229.2,632.1
				L229.2,632.1L229.2,632.1L229.2,632.1z M228.3,656.2c0.1,0,0.3,0,0.4,0c0,0.1-0.1,0.2-0.2,0.3
				C228.5,656.4,228.4,656.3,228.3,656.2z M305.8,656.2c0.1,0,0.3,0,0.4,0c0,0.1-0.1,0.2-0.2,0.3
				C305.9,656.4,305.9,656.3,305.8,656.2z M503.8,619.7c0,0.1,0.1,0.1,0.1,0.2l0,0l0,0c-0.1,0-0.1,0-0.2-0.1
				C503.7,619.7,503.8,619.7,503.8,619.7z M372.7,604.5L372.7,604.5L372.7,604.5L372.7,604.5L372.7,604.5z M309,603.7L309,603.7
				C308.9,603.7,308.9,603.7,309,603.7c0-0.1,0.1,0,0.1,0H309L309,603.7z M205.4,642.9c0,0.1,0,0.1-0.1,0.2
				C205.4,643,205.4,643,205.4,642.9L205.4,642.9z M282.9,642.9c0,0.1,0,0.1-0.1,0.2C282.8,643,282.8,643,282.9,642.9L282.9,642.9z
				 M360.4,642.9c0,0.1,0,0.1-0.1,0.2C360.3,643,360.3,643,360.4,642.9L360.4,642.9z M383.3,656.2c0.1,0,0.3,0,0.4,0
				c0,0.1-0.1,0.2-0.2,0.3C383.4,656.4,383.4,656.3,383.3,656.2z M437.9,642.9c0,0.1,0,0.1-0.1,0.2C437.8,643,437.8,643,437.9,642.9
				L437.9,642.9z M460.8,656.2c0.1,0,0.3,0,0.4,0c0,0.1-0.1,0.2-0.2,0.3C460.9,656.4,460.8,656.3,460.8,656.2z M515.4,642.9
				c0,0.1,0,0.1-0.1,0.2C515.3,643,515.3,643,515.4,642.9L515.4,642.9z M538.7,656.2c0,0.1-0.1,0.2-0.2,0.3
				c-0.1-0.1-0.2-0.2-0.3-0.3C538.4,656.2,538.5,656.2,538.7,656.2z M586.8,639.4c-0.1,0-0.2,0-0.3,0l0,0
				C586.6,639.3,586.7,639.3,586.8,639.4z M592.9,643c0,0,0-0.1,0-0.2l0,0C592.9,642.9,592.9,643,592.9,643z M581.3,619.7
				c0,0.1,0.1,0.1,0.1,0.2l0,0l0,0c-0.1,0-0.1,0-0.2-0.1C581.2,619.7,581.3,619.7,581.3,619.7z M491.6,619.8L491.6,619.8
				L491.6,619.8c0.1-0.1,0.1-0.2,0.1-0.3c0,0.1,0,0.2,0,0.3C491.7,619.8,491.7,619.8,491.6,619.8z M426.3,619.7
				c0,0.1,0.1,0.1,0.1,0.2l0,0l0,0c-0.1,0-0.1,0-0.2-0.1C426.3,619.7,426.3,619.7,426.3,619.7z M414.1,619.8L414.1,619.8
				L414.1,619.8c0.1-0.1,0.1-0.2,0.1-0.3c0,0.1,0,0.2,0,0.3C414.2,619.8,414.2,619.8,414.1,619.8z M361.2,606
				C361.2,606,361.2,606.1,361.2,606C361.2,606.1,361.2,606.1,361.2,606C361.2,606.1,361.1,606.1,361.2,606
				C361.1,606,361.2,606,361.2,606z M348.8,619.7c0,0.1,0.1,0.1,0.1,0.2l0,0l0,0c-0.1,0-0.1,0-0.2-0.1
				C348.8,619.7,348.8,619.7,348.8,619.7z M194.7,634.4L194.7,634.4L194.7,634.4c0,0.1-0.1,0.1-0.1,0.2c0-0.1,0-0.1,0-0.2
				C194.6,634.4,194.6,634.4,194.7,634.4z M272.2,634.4L272.2,634.4L272.2,634.4c0,0.1-0.1,0.1-0.1,0.2c0-0.1,0-0.1,0-0.2
				C272.1,634.4,272.1,634.4,272.2,634.4z M349.7,634.4L349.7,634.4L349.7,634.4c0,0.1-0.1,0.1-0.1,0.2c0-0.1,0-0.1,0-0.2
				C349.6,634.4,349.6,634.4,349.7,634.4z M504.7,634.4L504.7,634.4L504.7,634.4c0,0.1-0.1,0.1-0.1,0.2c0-0.1,0-0.1,0-0.2
				C504.6,634.4,504.6,634.4,504.7,634.4z M569.1,619.8L569.1,619.8L569.1,619.8c0.1-0.1,0.1-0.2,0.1-0.3
				C569.2,619.6,569.2,619.7,569.1,619.8C569.2,619.8,569.2,619.8,569.1,619.8z M545.3,594.5L545.3,594.5L545.3,594.5L545.3,594.5z
				 M516.2,606.1C516.2,606.1,516.1,606.1,516.2,606.1C516.1,606,516.1,606,516.2,606.1C516.1,606,516.2,606.1,516.2,606.1
				L516.2,606.1z M450.2,604.5L450.2,604.5L450.2,604.5L450.2,604.5L450.2,604.5z M438.7,606C438.7,606,438.7,606.1,438.7,606
				C438.7,606.1,438.7,606.1,438.7,606C438.7,606.1,438.6,606.1,438.7,606C438.6,606,438.6,606,438.7,606z M390.3,594.5L390.3,594.5
				L390.3,594.5L390.3,594.5z M336.6,619.8L336.6,619.8L336.6,619.8c0.1-0.1,0.1-0.2,0.1-0.3c0,0.1,0,0.2,0,0.3
				C336.7,619.8,336.7,619.8,336.6,619.8z M223.8,616.8L223.8,616.8L223.8,616.8L223.8,616.8L223.8,616.8L223.8,616.8L223.8,616.8z
				 M427.2,634.4L427.2,634.4L427.2,634.4c-0.1,0.2-0.2,0.3-0.3,0.5c0-0.1,0.1-0.3,0.1-0.5C427,634.4,427.1,634.4,427.2,634.4z
				 M596.3,646.2c-0.1-0.2-0.1-0.4-0.2-0.6h0.1c0.1,0.2,0.2,0.3,0.3,0.4C596.5,646.1,596.4,646.1,596.3,646.2z M594.4,597.6
				L594.4,597.6L594.4,597.6L594.4,597.6z M474,593.8L474,593.8L474,593.8L474,593.8L474,593.8z M433.3,596.8L433.3,596.8
				L433.3,596.8L433.3,596.8z M355.9,596.9C355.8,596.8,355.8,596.8,355.9,596.9C355.8,596.8,355.8,596.8,355.9,596.9
				C355.8,596.8,355.8,596.8,355.9,596.9C355.8,596.8,355.8,596.8,355.9,596.9L355.9,596.9C355.8,596.8,355.8,596.8,355.9,596.9z
				 M133.2,653.6h0.1l0,0l0,0C133.3,653.7,133.2,653.7,133.2,653.6C133.2,653.7,133.2,653.6,133.2,653.6z M136.3,658.9
				C136.3,658.9,136.4,659,136.3,658.9C136.3,659,136.3,659,136.3,658.9C136.3,659,136.3,658.9,136.3,658.9z M210.7,653.6h0.1l0,0
				l0,0C210.8,653.7,210.7,653.7,210.7,653.6C210.7,653.7,210.7,653.6,210.7,653.6z M213.8,658.9C213.8,658.9,213.9,659,213.8,658.9
				C213.8,659,213.8,659,213.8,658.9C213.8,659,213.8,658.9,213.8,658.9z M262.6,639.5L262.6,639.5L262.6,639.5z M288.2,653.6h0.1
				l0,0l0,0C288.3,653.7,288.2,653.7,288.2,653.6C288.2,653.7,288.2,653.6,288.2,653.6z M291.3,658.9
				C291.3,658.9,291.3,659,291.3,658.9C291.3,659,291.3,659,291.3,658.9C291.3,659,291.3,658.9,291.3,658.9z M340.1,639.5
				L340.1,639.5L340.1,639.5z M365.7,653.6h0.1l0,0l0,0C365.8,653.7,365.7,653.7,365.7,653.6C365.7,653.7,365.7,653.6,365.7,653.6z
				 M368.8,658.9C368.8,658.9,368.8,659,368.8,658.9C368.8,659,368.8,659,368.8,658.9C368.8,659,368.8,658.9,368.8,658.9z
				 M443.2,653.6h0.1l0,0l0,0C443.3,653.7,443.2,653.7,443.2,653.6C443.2,653.7,443.2,653.6,443.2,653.6z M446.3,658.9
				C446.3,658.9,446.3,659,446.3,658.9C446.3,659,446.3,659,446.3,658.9C446.3,659,446.3,658.9,446.3,658.9z M495.1,639.5
				L495.1,639.5L495.1,639.5z M520.6,653.6L520.6,653.6L520.6,653.6L520.6,653.6C520.7,653.7,520.7,653.7,520.6,653.6
				C520.7,653.7,520.7,653.6,520.6,653.6z M523.8,658.9C523.8,658.9,523.8,659,523.8,658.9C523.8,659,523.8,659,523.8,658.9
				C523.8,659,523.8,658.9,523.8,658.9z M599,662.8L599,662.8L599,662.8L599,662.8z M604.4,662.7c-0.2-0.5-0.3-0.8-0.2-1
				C604.3,662,604.3,662.3,604.4,662.7L604.4,662.7z M588.3,596.8C588.3,596.8,588.3,596.9,588.3,596.8L588.3,596.8L588.3,596.8
				L588.3,596.8z M551.5,593.8L551.5,593.8L551.5,593.8L551.5,593.8L551.5,593.8z M433.3,596.8L433.3,596.8L433.3,596.8L433.3,596.8
				L433.3,596.8z M396.5,593.8L396.5,593.8L396.5,593.8L396.5,593.8L396.5,593.8z M319,593.8L319,593.8L319,593.8L319,593.8z
				 M309.8,599.1L309.8,599.1L309.8,599.1C309.8,599.2,309.8,599.2,309.8,599.1C309.7,599.2,309.7,599.2,309.8,599.1
				C309.7,599.1,309.8,599.1,309.8,599.1z M283.7,606C283.7,606,283.7,606.1,283.7,606C283.7,606.1,283.7,606.1,283.7,606
				C283.7,606.1,283.7,606.1,283.7,606C283.6,606,283.7,606,283.7,606z M259.1,619.8L259.1,619.8L259.1,619.8
				c0.1-0.1,0.1-0.2,0.1-0.3c0,0.1,0,0.2,0,0.3C259.2,619.8,259.2,619.8,259.1,619.8z M151.7,632.2
				C151.7,632.1,151.7,632.1,151.7,632.2C151.7,632.1,151.7,632.1,151.7,632.2C151.7,632.1,151.7,632.1,151.7,632.2
				C151.7,632.1,151.7,632.1,151.7,632.2C151.7,632.1,151.7,632.1,151.7,632.2C151.7,632.1,151.7,632.1,151.7,632.2z M185.1,639.5
				L185.1,639.5L185.1,639.5z M245.4,659.2C245.4,659.2,245.5,659.2,245.4,659.2c0.1,0,0.1,0,0.1,0.1
				C245.5,659.3,245.5,659.2,245.4,659.2z M266.8,641.4L266.8,641.4L266.8,641.4c0,0.1,0,0.1,0,0.2
				C266.8,641.5,266.8,641.4,266.8,641.4L266.8,641.4z M322.9,659.2L322.9,659.2c0.1,0,0.1,0,0.1,0.1
				C323,659.3,323,659.2,322.9,659.2z M344.3,641.4L344.3,641.4L344.3,641.4c0,0.1,0,0.1,0,0.2C344.3,641.5,344.3,641.4,344.3,641.4
				L344.3,641.4z M417.6,639.5L417.6,639.5L417.6,639.5z M555.2,659.2c0.1,0,0.1,0,0.2,0c0.1,0,0.1,0.1,0.2,0.1
				C555.5,659.3,555.4,659.3,555.2,659.2z M593.7,606.1C593.6,606.1,593.6,606.1,593.7,606.1C593.6,606,593.6,606,593.7,606.1
				C593.7,606,593.7,606,593.7,606.1L593.7,606.1z M497.8,594.5c0,0.1-0.1,0.2-0.1,0.2h-0.1C497.6,594.7,497.7,594.6,497.8,594.5
				L497.8,594.5z M355.8,596.8L355.8,596.8L355.8,596.8L355.8,596.8L355.8,596.8L355.8,596.8L355.8,596.8z M321.5,599.1
				c0.3,0.2,0.4,0.4,0.6,0.8L322,600c-0.1,0-0.2,0-0.3,0C321.5,599.5,321.5,599.3,321.5,599.1z M284.4,597.6L284.4,597.6
				C284.4,597.6,284.5,597.6,284.4,597.6C284.5,597.6,284.5,597.6,284.4,597.6z M121.8,634.4L121.8,634.4L121.8,634.4L121.8,634.4
				L121.8,634.4L121.8,634.4L121.8,634.4C121.8,634.4,121.8,634.5,121.8,634.4C121.7,634.5,121.7,634.4,121.8,634.4
				C121.7,634.4,121.8,634.4,121.8,634.4z M111.8,641.4c0.1,0,0.1,0,0.2,0C112,641.3,111.9,641.3,111.8,641.4c0,0.1,0,0.2,0,0.2
				C111.8,641.5,111.8,641.4,111.8,641.4L111.8,641.4z M168,659.2L168,659.2c0.1,0,0.1,0,0.1,0.1C168,659.3,168,659.2,168,659.2z
				 M189.3,641.4L189.3,641.4L189.3,641.4c0,0.1,0,0.1,0,0.2C189.3,641.5,189.3,641.4,189.3,641.4L189.3,641.4z M400.4,659.2
				L400.4,659.2c0.1,0,0.1,0,0.1,0.1C400.5,659.3,400.5,659.2,400.4,659.2z M421.8,641.4L421.8,641.4L421.8,641.4c0,0.1,0,0.1,0,0.2
				C421.8,641.5,421.7,641.4,421.8,641.4C421.7,641.4,421.8,641.4,421.8,641.4z M477.9,659.2L477.9,659.2c0.1,0,0.1,0,0.1,0.1
				C478,659.3,478,659.2,477.9,659.2z M499.3,641.4L499.3,641.4L499.3,641.4c0,0.1,0,0.1,0,0.2C499.3,641.5,499.2,641.4,499.3,641.4
				C499.2,641.4,499.3,641.4,499.3,641.4z M572.6,644C572.6,644.1,572.7,644.1,572.6,644C572.5,644.2,572.5,644.1,572.6,644z
				 M575.3,594.5c0,0.1-0.1,0.2-0.1,0.2h-0.1C575.1,594.7,575.2,594.6,575.3,594.5L575.3,594.5z M420.3,594.5c0,0.1-0.1,0.2-0.1,0.2
				h-0.1C420.1,594.7,420.2,594.6,420.3,594.5L420.3,594.5z M342.8,594.5c0,0.1-0.1,0.2-0.1,0.2h-0.1
				C342.6,594.7,342.7,594.6,342.8,594.5L342.8,594.5z M300.4,594.7L300.4,594.7c0.1-0.1,0.1-0.1,0.2-0.1
				C300.5,594.6,300.5,594.6,300.4,594.7z M117.2,634.4L117.2,634.4L117.2,634.4c0,0.1-0.1,0.1-0.1,0.2
				C117.1,634.6,117.1,634.5,117.2,634.4L117.2,634.4z M58.9,659L58.9,659C58.8,659,58.8,658.9,58.9,659
				C58.8,658.9,58.9,659,58.9,659z M88.1,656.5L88.1,656.5L88.1,656.5L88.1,656.5z M55.7,653.6L55.7,653.6L55.7,653.6L55.7,653.6
				C55.8,653.7,55.8,653.7,55.7,653.6C55.7,653.7,55.7,653.6,55.7,653.6z M90.3,659.2c0.1,0,0.1,0,0.2,0s0.1,0.1,0.1,0.1
				C90.5,659.3,90.4,659.3,90.3,659.2z M89.6,651.1c0.1,0.1,0.1,0.1,0.2,0.2c-0.1,0-0.1,0-0.2,0l0,0
				C89.6,651.2,89.6,651.2,89.6,651.1z M80.4,667.4L80.4,667.4L80.4,667.4L80.4,667.4z M157.9,667.4L157.9,667.4L157.9,667.4
				L157.9,667.4z M235.4,667.4L235.4,667.4L235.4,667.4L235.4,667.4z M241.5,666.7L241.5,666.7L241.5,666.7L241.5,666.7z
				 M312.8,667.4L312.8,667.4C312.9,667.4,312.9,667.4,312.8,667.4C312.9,667.4,312.9,667.4,312.8,667.4z M319,666.7L319,666.7
				L319,666.7L319,666.7z M390.3,667.4L390.3,667.4L390.3,667.4L390.3,667.4z M467.8,667.4L467.8,667.4L467.8,667.4L467.8,667.4z
				 M607.8,653.9c0.1,0,0.2,0,0.3,0v0.1C608,654,607.9,654,607.8,653.9z M611.3,616.8L611.3,616.8L611.3,616.8L611.3,616.8
				L611.3,616.8z M605.2,604.6C605.2,604.6,605.2,604.5,605.2,604.6C605.2,604.5,605.2,604.5,605.2,604.6
				C605.2,604.5,605.2,604.5,605.2,604.6C605.2,604.5,605.2,604.5,605.2,604.6C605.2,604.5,605.2,604.5,605.2,604.6
				C605.2,604.5,605.2,604.6,605.2,604.6z M474.7,578.4L474.7,578.4L474.7,578.4L474.7,578.4z M386.5,583.8L386.5,583.8L386.5,583.8
				L386.5,583.8L386.5,583.8z M193.8,619.7c0,0.1,0.1,0.1,0.1,0.2l0,0l0,0c-0.1,0-0.1,0-0.2-0.1
				C193.8,619.7,193.8,619.7,193.8,619.7z M181.6,619.8L181.6,619.8L181.6,619.8c0.1-0.1,0.1-0.2,0.1-0.3c0,0.1,0,0.2,0,0.3
				C181.7,619.8,181.7,619.8,181.6,619.8z M73.7,656.2c0,0.1-0.1,0.2-0.2,0.3c-0.1-0.1-0.2-0.2-0.3-0.3
				C73.4,656.2,73.6,656.2,73.7,656.2z M56.6,669.7c0,0.1,0,0.1,0,0.2C56.5,669.9,56.5,669.8,56.6,669.7
				C56.5,669.7,56.6,669.7,56.6,669.7z M86.5,666.7L86.5,666.7L86.5,666.7L86.5,666.7L86.5,666.7z M164,666.7
				C164,666.7,164,666.6,164,666.7L164,666.7L164,666.7L164,666.7z M396.5,666.7L396.5,666.7L396.5,666.7L396.5,666.7L396.5,666.7z
				 M474,666.7L474,666.7L474,666.7L474,666.7L474,666.7z M545.3,667.4L545.3,667.4L545.3,667.4L545.3,667.4z M551.5,666.6
				C551.5,666.7,551.5,666.7,551.5,666.6C551.5,666.7,551.5,666.7,551.5,666.6C551.5,666.7,551.5,666.7,551.5,666.6
				C551.5,666.7,551.5,666.7,551.5,666.6z M605.2,677.5C605.2,677.4,605.2,677.4,605.2,677.5C605.2,677.4,605.2,677.4,605.2,677.5
				C605.2,677.4,605.2,677.4,605.2,677.5C605.2,677.4,605.2,677.4,605.2,677.5C605.2,677.4,605.2,677.4,605.2,677.5
				C605.2,677.4,605.2,677.4,605.2,677.5z M612.1,653L612.1,653L612.1,653L612.1,653L612.1,653C612.1,652.9,612.1,652.9,612.1,653z
				 M613,595.7c0.1,0.1,0.2,0.2,0.2,0.4c0,0.1-0.1,0.1-0.1,0.2C613.1,596.1,613.1,595.9,613,595.7z M604.4,589.8L604.4,589.8
				c-0.3-0.4-0.3-0.8-0.2-1C604.3,589.1,604.3,589.4,604.4,589.8z M534.7,579.3C534.7,579.3,534.7,579.2,534.7,579.3
				c0-0.1,0-0.1,0-0.2C534.7,579.2,534.7,579.2,534.7,579.3z M320.4,583.5C320.3,583.5,320.3,583.5,320.4,583.5s0.2,0,0.3,0.1
				C320.6,583.6,320.5,583.6,320.4,583.5z M278.3,596.8L278.3,596.8L278.3,596.8C278.3,596.8,278.3,596.9,278.3,596.8L278.3,596.8
				L278.3,596.8L278.3,596.8L278.3,596.8z M217.7,604.5L217.7,604.5L217.7,604.5c-0.1,0-0.2,0-0.3,0
				C217.5,604.5,217.6,604.5,217.7,604.5L217.7,604.5L217.7,604.5z M206.2,606.1L206.2,606.1C206.2,606,206.2,606,206.2,606.1
				C206.2,606,206.2,606.1,206.2,606.1L206.2,606.1z M146.4,616.8L146.4,616.8C146.3,616.8,146.3,616.8,146.4,616.8
				C146.3,616.8,146.3,616.8,146.4,616.8C146.3,616.8,146.3,616.8,146.4,616.8C146.3,616.8,146.3,616.8,146.4,616.8L146.4,616.8z
				 M143.3,619.8L143.3,619.8C143.3,619.9,143.3,619.9,143.3,619.8C143.3,619.9,143.3,619.9,143.3,619.8L143.3,619.8
				C143.3,619.9,143.2,619.9,143.3,619.8C143.2,619.8,143.3,619.8,143.3,619.8z M62.7,677.4L62.7,677.4L62.7,677.4L62.7,677.4z
				 M433.3,669.7C433.3,669.7,433.4,669.7,433.3,669.7L433.3,669.7L433.3,669.7L433.3,669.7z M510.8,669.7L510.8,669.7L510.8,669.7
				L510.8,669.7L510.8,669.7z M594.4,670.5L594.4,670.5L594.4,670.5L594.4,670.5z M613,668.6c0.1,0.1,0.2,0.2,0.2,0.4
				c0,0.1-0.1,0.1-0.1,0.2C613.1,669,613.1,668.8,613,668.6z M618.2,647.5L618.2,647.5L618.2,647.5L618.2,647.5L618.2,647.5z
				 M616.7,632.1L616.7,632.1L616.7,632.1L616.7,632.1L616.7,632.1z M620.5,622.4c0.5,0.5,0.8,0.9,1.2,1.2c-0.2-0.1-0.4-0.1-0.6-0.2
				C620.6,623.3,620.1,623,620.5,622.4z M457.2,579.3C457.2,579.2,457.2,579.2,457.2,579.3C457.2,579.2,457.2,579.2,457.2,579.3
				C457.2,579.2,457.2,579.2,457.2,579.3z M238,595.7c0.1,0,0.3-0.1,0.4-0.1C238.3,595.9,238.2,595.9,238,595.7z M200.8,596.8
				L200.8,596.8L200.8,596.8L200.8,596.8z M41.2,663.6L41.2,663.6L41.2,663.6L41.2,663.6z M123.3,669.7L123.3,669.7
				C123.4,669.7,123.4,669.7,123.3,669.7C123.4,669.7,123.3,669.7,123.3,669.7L123.3,669.7z M140.2,677.4L140.2,677.4L140.2,677.4
				L140.2,677.4L140.2,677.4z M217.7,677.4L217.7,677.4L217.7,677.4L217.7,677.4L217.7,677.4z M278.3,669.7L278.3,669.7L278.3,669.7
				C278.3,669.7,278.4,669.7,278.3,669.7L278.3,669.7L278.3,669.7L278.3,669.7z M295.2,677.4L295.2,677.4L295.2,677.4L295.2,677.4
				L295.2,677.4z M355.8,669.7L355.8,669.7L355.8,669.7L355.8,669.7L355.8,669.7L355.8,669.7L355.8,669.7z M372.7,677.4L372.7,677.4
				L372.7,677.4L372.7,677.4L372.7,677.4z M450.2,677.4L450.2,677.4L450.2,677.4L450.2,677.4L450.2,677.4z M510.8,669.7L510.8,669.7
				L510.8,669.7L510.8,669.7L510.8,669.7L510.8,669.7L510.8,669.7z M527.7,677.4L527.7,677.4L527.7,677.4L527.7,677.4L527.7,677.4z
				 M575,667.6c0.1-0.1,0.2-0.1,0.2-0.2l0,0c0,0.1-0.1,0.2-0.1,0.2C575.1,667.6,575.1,667.6,575,667.6z M596.4,573.2
				c-0.1-0.3-0.1-0.6-0.2-0.9c0.2,0.3,0.3,0.5,0.4,0.8C596.6,573.1,596.5,573.1,596.4,573.2z M480.1,570L480.1,570L480.1,570
				L480.1,570L480.1,570L480.1,570z M406.5,572.2c0.1-0.7,0.1-1.2,0-1.5c0.1,0.1,0.1,0.2,0.2,0.4C407,571.6,406.8,572,406.5,572.2z
				 M329.1,572.2c0.1-0.7,0.1-1.2,0-1.5c0.1,0.1,0.1,0.2,0.2,0.4C329.5,571.6,329.3,572,329.1,572.2z M291.4,578.4L291.4,578.4
				L291.4,578.4L291.4,578.4L291.4,578.4L291.4,578.4z M252.4,594.2L252.4,594.2c-0.1,0.1-0.1,0.1-0.2,0.1
				C252.3,594.3,252.3,594.3,252.4,594.2z M200.8,596.8L200.8,596.8L200.8,596.8L200.8,596.8L200.8,596.8L200.8,596.8L200.8,596.8z
				 M50.4,642.9L50.4,642.9L50.4,642.9L50.4,642.9z M32.8,667.4L32.8,667.4L32.8,667.4L32.8,667.4L32.8,667.4z M123.3,669.7
				L123.3,669.7L123.3,669.7L123.3,669.7L123.3,669.7L123.3,669.7L123.3,669.7z M154,676.6L154,676.6L154,676.6L154,676.6z
				 M200.8,669.7L200.8,669.7L200.8,669.7C200.8,669.7,200.9,669.7,200.8,669.7C200.9,669.7,200.8,669.7,200.8,669.7L200.8,669.7
				L200.8,669.7L200.8,669.7L200.8,669.7L200.8,669.7L200.8,669.7L200.8,669.7z M231.5,676.6L231.5,676.6L231.5,676.6L231.5,676.6z
				 M278.3,669.7L278.3,669.7L278.3,669.7L278.3,669.7L278.3,669.7L278.3,669.7L278.3,669.7z M309,676.6L309,676.6L309,676.6
				L309,676.6z M355.8,669.7L355.8,669.7L355.8,669.7L355.8,669.7L355.8,669.7L355.8,669.7L355.8,669.7z M433.3,669.7L433.3,669.7
				L433.3,669.7L433.3,669.7L433.3,669.7L433.3,669.7L433.3,669.7z M463.9,676.5c0.1,0,0.1,0.1,0.2,0.1
				C464.1,676.6,464,676.6,463.9,676.5C464,676.6,464,676.6,463.9,676.5C464,676.6,464,676.6,463.9,676.5
				C463.9,676.6,463.9,676.5,463.9,676.5z M541.4,676.5c0.1,0,0.1,0.1,0.2,0.1C541.6,676.6,541.5,676.6,541.4,676.5
				C541.5,676.6,541.4,676.6,541.4,676.5C541.4,676.6,541.4,676.5,541.4,676.5z M588.3,669.7L588.3,669.7L588.3,669.7L588.3,669.7
				L588.3,669.7z M579.8,573.1C579.8,573,579.8,573,579.8,573.1C579.9,573,579.9,573,579.8,573.1
				C579.9,573.1,579.8,573.1,579.8,573.1z M512.4,576.9C512.4,576.9,512.3,576.9,512.4,576.9C512.3,576.9,512.3,576.9,512.4,576.9
				L512.4,576.9C512.3,576.9,512.4,576.9,512.4,576.9L512.4,576.9z M499.3,568.7c0-0.1-0.1-0.2-0.1-0.3h0.1l0,0l0,0
				C499.3,568.6,499.3,568.6,499.3,568.7z M402.6,570L402.6,570L402.6,570L402.6,570L402.6,570L402.6,570L402.6,570z M350.5,571.6
				L350.5,571.6h-0.1C350.4,571.6,350.4,571.6,350.5,571.6z M252.3,591.4C252.3,591.4,252.3,591.5,252.3,591.4
				C252.2,591.5,252.2,591.5,252.3,591.4C252.2,591.5,252.2,591.5,252.3,591.4L252.3,591.4z M228,590.7c-0.1,0-0.2,0-0.3,0
				c0.2-0.2,0.4-0.4,0.6-0.5C228.2,590.3,228.1,590.5,228,590.7z M211.5,597c0-0.1,0-0.1,0-0.2c0,0,0,0,0.1,0
				C211.6,596.9,211.5,597,211.5,597z M51.2,678.9L51.2,678.9C51.2,679,51.2,679,51.2,678.9C51.2,679,51.2,678.9,51.2,678.9
				L51.2,678.9z M128.7,678.9L128.7,678.9C128.7,679,128.7,679,128.7,678.9C128.7,679,128.7,678.9,128.7,678.9L128.7,678.9z
				 M206.2,678.9L206.2,678.9C206.2,679,206.2,679,206.2,678.9C206.2,679,206.2,678.9,206.2,678.9L206.2,678.9z M283.7,678.9
				L283.7,678.9C283.7,679,283.7,679,283.7,678.9C283.7,679,283.7,678.9,283.7,678.9C283.6,678.9,283.7,678.9,283.7,678.9z
				 M361.2,678.9L361.2,678.9C361.2,679,361.2,679,361.2,678.9C361.2,679,361.1,678.9,361.2,678.9
				C361.1,678.9,361.2,678.9,361.2,678.9z M438.7,678.9L438.7,678.9C438.7,679,438.7,679,438.7,678.9
				C438.7,679,438.6,678.9,438.7,678.9C438.6,678.9,438.6,678.9,438.7,678.9z M516.2,678.9L516.2,678.9
				C516.2,679,516.2,679,516.2,678.9C516.2,679,516.1,678.9,516.2,678.9C516.1,678.9,516.1,678.9,516.2,678.9z M593.7,678.9
				L593.7,678.9C593.7,679,593.7,679,593.7,678.9C593.6,679,593.6,678.9,593.7,678.9C593.6,678.9,593.6,678.9,593.7,678.9z
				 M457.7,565.3C457.7,565.4,457.7,565.4,457.7,565.3L457.7,565.3z M453,567.6c0,0,0,0.1,0.1,0.1c-0.4,0-0.8,0-1.2,0
				C452.2,567.5,452.6,567.4,453,567.6z M62,688.2L62,688.2L62,688.2C62,688.1,62.1,688.1,62,688.2C62,688.2,62,688.2,62,688.2z
				 M139.5,688.2L139.5,688.2L139.5,688.2c0-0.1,0.1-0.1,0.1-0.1C139.5,688.2,139.5,688.2,139.5,688.2z M217,688.2
				C216.9,688.2,216.9,688.2,217,688.2C216.9,688.2,217,688.2,217,688.2c0-0.1,0.1-0.1,0.1-0.1C217,688.2,217,688.2,217,688.2z
				 M294.4,688.2L294.4,688.2L294.4,688.2c0-0.1,0.1-0.1,0.1-0.1C294.5,688.2,294.5,688.2,294.4,688.2z M371.9,688.2L371.9,688.2
				L371.9,688.2c0-0.1,0.1-0.1,0.1-0.1C372,688.2,372,688.2,371.9,688.2z M449.4,688.2L449.4,688.2L449.4,688.2
				c0-0.1,0.1-0.1,0.1-0.1C449.5,688.2,449.5,688.2,449.4,688.2z M526.9,688.2L526.9,688.2L526.9,688.2
				C526.9,688.1,527,688.1,526.9,688.2C527,688.2,527,688.2,526.9,688.2z M612.1,684.3L612.1,684.3L612.1,684.3L612.1,684.3z
				 M626.2,672.2c0.1,0.1,0.2,0.1,0.3,0.2l0,0c0.1,0.1,0.1,0.2,0.2,0.3c-0.3-0.2-0.5-0.4-0.8-0.6h0.1l-0.1-0.1
				C626,672,626.1,672.1,626.2,672.2l-0.2-0.1C626,672.1,626.1,672.1,626.2,672.2z M635.7,625.9L635.7,625.9L635.7,625.9
				L635.7,625.9z M626.2,599.3c0.1,0.1,0.2,0.1,0.3,0.2l0,0c0.1,0.1,0.1,0.2,0.2,0.3c-0.3-0.2-0.5-0.4-0.8-0.6h0.1l-0.1-0.1
				C626,599.1,626.1,599.2,626.2,599.3l-0.2-0.1C626,599.2,626.1,599.2,626.2,599.3z M545.4,569.2
				C545.4,569.2,545.4,569.3,545.4,569.2C545.4,569.3,545.3,569.2,545.4,569.2C545.3,569.2,545.4,569.2,545.4,569.2L545.4,569.2z
				 M366.6,570L366.6,570L366.6,570C366.6,570,366.6,569.9,366.6,570c0.2-0.1,0.3-0.1,0.5-0.1C366.9,569.9,366.7,570,366.6,570z
				 M325.1,570L325.1,570L325.1,570L325.1,570L325.1,570L325.1,570L325.1,570z M213.9,586.1h-0.1
				C213.8,586.1,213.8,586.1,213.9,586.1C213.8,586.1,213.8,586.1,213.9,586.1z M176.3,590.7c0.1,0,0.1,0,0.2,0
				C176.4,590.7,176.4,590.8,176.3,590.7C176.3,590.8,176.3,590.8,176.3,590.7z M140.2,604.6C140.2,604.5,140.2,604.5,140.2,604.6
				c0,0-0.1,0-0.2,0C140.1,604.5,140.2,604.5,140.2,604.6C140.2,604.5,140.2,604.5,140.2,604.6C140.2,604.5,140.2,604.5,140.2,604.6
				C140.2,604.5,140.2,604.5,140.2,604.6z M83.4,623.5C83.3,623.5,83.3,623.5,83.4,623.5C83.3,623.5,83.3,623.5,83.4,623.5z
				 M12,682.9h0.1c0,0,0.1,0,0.1,0.1c0.1,0.1,0.2,0.2,0.3,0.2C12.4,683.1,12.2,683,12,682.9z M636.7,690.2L636.7,690.2
				c0-0.1,0-0.1,0-0.2C636.7,690.1,636.7,690.2,636.7,690.2z M639.6,617.6L639.6,617.6L639.6,617.6
				C639.7,617.5,639.7,617.6,639.6,617.6C639.7,617.6,639.7,617.6,639.6,617.6z M270.7,573C270.7,573.1,270.6,573.1,270.7,573
				C270.6,573.1,270.6,573.1,270.7,573C270.6,573.1,270.6,573.1,270.7,573C270.6,573,270.6,573,270.7,573
				C270.7,573,270.6,573,270.7,573L270.7,573z M16.7,665.1L16.7,665.1L16.7,665.1L16.7,665.1z M21.7,667.7c0.3,0,0.6,0,0.9,0
				C22.3,667.7,22.1,667.7,21.7,667.7C21.8,667.7,21.7,667.7,21.7,667.7z M625.3,561.1c-1.2-0.2-2.7-0.2-3.1-1.5
				C622.8,560.7,624.2,560.7,625.3,561.1z M616.9,557.1c0.3,0.2,0.7,0,1.1,0.2C617.6,557.3,617.3,557.3,616.9,557.1z M615.6,557.8
				c0,0.6,0.5,1,1.1,1.4c0,0,0,0,0.1,0c0,0,0,0,0,0.1c-0.2-0.2-0.5-0.3-0.7-0.5c-0.9,0-1.7-0.3-2.6-0.5c0.7,0,1.3-0.2,2-0.4
				C615.5,557.9,615.5,557.8,615.6,557.8z M611.4,557.9c0.1,0.1,0.2,0.1,0.3,0.1c-0.5,0-1.1,0-1.6,0.3
				C610.3,557.7,610.6,557.5,611.4,557.9z M607,558.1c-1.2-0.4-2.4-0.5-3.6-0.4C604.7,557.4,605.9,557.6,607,558.1z M599.6,555.7
				c0.2,0,0.4,0,0.6,0.1c-2.3,0-4.6-0.9-6.2-0.1C595.2,554.9,597.4,555.7,599.6,555.7z M596.7,558.7c0.1,0,0.3,0,0.4,0
				c-1.5,0.5-2.8,1.3-4.1,2.2c0.1-0.3,0.1-0.6,0-0.9c-0.5-0.4-1.1-0.5-1.8-0.6C593.1,559.4,594.9,558.5,596.7,558.7z M589.1,558.6
				c0.5,0.3,0.9,0.5,1.4,0.6c-1-0.1-2-0.3-2.6-1.4C589.1,556.9,588.7,558.4,589.1,558.6z M585,561.5c-0.9,0-1.9,0-2.8,0l0,0
				c0-0.1-0.1-0.2-0.1-0.3c-0.2-0.1-0.4-0.2-0.7-0.2C582.6,560.7,583.8,561.2,585,561.5z M570.6,562.3c-0.1,0-0.3,0-0.5,0
				C570.3,562.3,570.4,562.3,570.6,562.3z M567.7,561.4c0.2,0.2,0.4,0.3,0.6,0.5c-1.3-0.3-2.5,0-3.5,0.9c0,0-0.1,0-0.1-0.1
				c-0.7-0.1-1.4-0.1-2.2,0c-0.1,0.2-0.2,0.3-0.2,0.4c0,0,0,0-0.1-0.1c-0.1,0-0.3,0-0.4,0c0,0,0,0,0.1,0c0.5-1,3.1,0.7,2.5-1.8
				c-0.2-0.1-0.4-0.1-0.6-0.2C565,560.6,566.3,560.2,567.7,561.4z M507.6,561.5c-1,0-1.9,0-2.9,0l0,0c0-0.1-0.1-0.2-0.1-0.3
				c-0.2-0.1-0.5-0.2-0.7-0.2C505,560.6,506.3,561.2,507.6,561.5z M494.7,559.4c0-0.3,0.1-0.5,0-0.8
				C494.8,558.8,494.8,559.1,494.7,559.4z M494.6,558.4L494.6,558.4L494.6,558.4L494.6,558.4z M490.7,554.5c0.8,0.7,0.7,1.7,1,2.5
				c0.7,0.9,2.1,0.5,2.8,1.3c-0.8-0.8-2.2-0.4-2.9-1.4c-1-0.6-0.1-2.3-1.4-2.6C490.4,554.3,490.5,554.4,490.7,554.5z M490.2,554.3
				c-0.1,0-0.2,0-0.3-0.1c0,0,0,0-0.1-0.1C489.9,554.2,490,554.2,490.2,554.3z M441.7,567.1c0-0.1,0-0.3-0.1-0.4
				c0.2,0,0.5,0,0.8-0.1C442.1,566.8,441.9,566.9,441.7,567.1z M219.8,578.9C219.8,578.9,219.8,578.8,219.8,578.9c0-0.1,0.1,0,0.1,0
				C219.9,578.9,219.9,578.9,219.8,578.9z"/>
			<polygon class="st47" points="140.2,604.5 140.2,604.5 140.2,604.5 140.2,604.5 140.2,604.5 140.2,604.5 140.2,604.5 			"/>
			<polygon class="st47" points="605.2,677.4 605.2,677.4 605.2,677.4 605.2,677.4 			"/>
			<ellipse class="st47" cx="625.8" cy="672.1" rx="0" ry="0"/>
			<polygon class="st47" points="295.2,604.5 295.2,604.5 295.2,604.5 295.2,604.5 295.2,604.5 295.2,604.5 295.2,604.5 			"/>
			<polygon class="st47" points="270.6,573.1 270.6,573 270.6,573.1 270.6,573.1 270.6,573.1 270.6,573.1 270.6,573.1 270.6,573.1 
				270.6,573 270.6,573 			"/>
			<path class="st47" d="M406.4,558.5L406.4,558.5L406.4,558.5z"/>
			<polygon class="st47" points="605.2,604.5 605.2,604.5 605.2,604.5 605.2,604.5 			"/>
			<ellipse class="st47" cx="625.9" cy="599.1" rx="0" ry="0"/>
			<ellipse class="st47" cx="223.9" cy="616.8" rx="0" ry="0"/>
			<ellipse class="st47" cx="402.6" cy="570" rx="0" ry="0"/>
			<ellipse class="st47" cx="325.1" cy="570" rx="0" ry="0"/>
			<polygon class="st47" points="217.7,604.5 217.7,604.5 217.7,604.5 217.7,604.5 217.7,604.5 217.7,604.5 217.7,604.5 			"/>
			<circle class="st47" cx="146.3" cy="616.8" r="0"/>
			<ellipse class="st47" cx="151.7" cy="632.2" rx="0" ry="0"/>
			<ellipse class="st47" cx="539.2" cy="632.1" rx="0" ry="0"/>
			<ellipse class="st47" cx="229.2" cy="632.1" rx="0" ry="0"/>
			<ellipse class="st47" cx="384.2" cy="632.1" rx="0" ry="0"/>
			<ellipse class="st47" cx="461.7" cy="632.1" rx="0" ry="0"/>
			<ellipse class="st47" cx="306.7" cy="632.1" rx="0" ry="0"/>
			<ellipse class="st47" cx="301.4" cy="616.8" rx="0" ry="0"/>
			<ellipse class="st47" cx="378.9" cy="616.8" rx="0" ry="0"/>
		</g>
	</g>
</g>
<g>
	<path class="st48" d="M463.4,538.5c0-0.1,0-0.1,0-0.2c0-0.7,0-1.4-0.1-2.1c-0.1-0.3,0.1-0.6-0.1-0.9c0-0.4,0-0.9,0-1.3
		c0.1-0.1,0.1-0.3,0.1-0.5c0-0.7,0-1.3,0.1-2c0-0.1,0-0.2,0-0.3c0-0.1,0.1-0.1,0.1-0.2c0-0.4,0.2-0.7,0.1-1.1c0-0.1,0-0.2,0-0.3
		c0.2-0.2,0.3-0.4,0.2-0.6c-0.1-0.4,0.2-0.8,0.2-1.2c0.2-0.2,0.2-0.4,0.3-0.7c0-0.3,0.2-0.6,0.1-1c0-0.3,0.1-0.6,0.1-0.8
		c0.2-0.2,0.2-0.6,0.3-0.8l0,0c0.1-0.3,0-0.7,0.2-1c1.1-6,4-11,8.5-15.1c0.2,0,0.4,0,0.4-0.2c-0.1-0.3-0.3-0.6-0.7-0.6
		c-1.6-0.9-2.5-2.4-3.5-3.8c-1.2-1.8-1.9-3.8-2.5-5.8c0-0.2,0-0.3,0-0.5c0.1-0.3,0-0.5-0.2-0.6c-0.1-0.4-0.1-0.9-0.2-1.3
		c0-1.5-0.1-2.9,0-4.4c0-0.1,0-0.2,0-0.3c0.2-0.2,0.3-0.5,0.2-0.8c0-0.1,0-0.2,0-0.3c0.3-0.3,0.3-0.6,0.2-1c0.4-1.5,0.8-3.1,1.5-4.5
		c1.1-2.2,2.4-4.3,4.3-5.9c1-0.9,2.1-1.6,3.3-2.2c0.4-0.2,0.9-0.4,1.3-0.7c0.5-0.5,1.1-0.3,1.6-0.3c1.5,0,2.9,0.2,4.3,0.7
		c0.3,0.1,0.6,0.2,0.8,0.5c0,0.1-0.1,0.2-0.1,0.2c-1.3,0.1-2.7,0.4-3.9-0.2c-0.4-0.2-0.7-0.2-1.1,0c-2.7,1.2-5.1,2.8-6.9,5.2
		c-2.8,3.6-4,7.8-3.9,12.3c0.1,4.5,1.7,8.6,5,11.8c0.6,0.6,1.4,1,1.9,1.6c0.9,0.9,0.8,1.4-0.2,2.1c-1.1,0.8-2.1,1.8-3,2.9
		c-3.5,4.3-5.3,9.3-6.2,14.7c-0.3,1.7-0.5,3.5-0.9,5.2c-0.1,1.7-0.1,3.4,0,5.1c0.4,1.9,0.5,3.8,1,5.6c0.5,2,1.3,3.8,2.4,5.4
		c1.2,1.8,2.7,3.5,4.5,4.8c1.6,1.2,3.2,2.3,5,3c3.5,1.4,7.1,2.1,10.8,2.6c5.6,0.6,11.1,0.5,16.6-0.7c2.6-0.6,5.1-1.5,7.4-2.9
		c1.3-0.8,2.3-1.9,3.2-3.1c2.7-3.4,4.3-7.2,5.1-11.5c0.5-2.8,0.3-5.5-0.2-8.2c-0.9-4.6-2.5-9-4.9-13c-1.3-2.2-3.1-3.9-5-5.5
		c-1.5-1.3-3.3-2.1-5-3c-0.3-0.1-0.5-0.3-0.8-0.5c-0.5-0.4-0.6-1-0.2-1.4c1.4-1.7,1.9-3.7,2.3-5.8c1-4.4,0.5-8.8-1.1-13
		c-1.5-4-3.8-7.6-7.8-9.6c-0.2-0.1-0.6-0.2-0.6-0.6c0.2-0.1,0.4-0.2,0.5-0.1c0.9,0.4,1.8,0.4,2.7,0.2c0.1,0.5,0.7,0.5,1,0.9
		c0.3,0.3,0.6,0.6,0.9,0.9c0.1,0.1,0.2,0.2,0.3,0.3c0.2,0.3,0.5,0.6,0.7,0.8c1.3,1.1,1.9,2.7,2.7,4.1c0.3,0.6,0.6,1.2,0.8,1.8
		c0.2,0.3,0.2,0.7,0.3,1c0.4,1,0.7,2,0.8,3.1c0.2,0.3-0.1,0.7,0.2,1l0,0c0.2,0.3,0.1,0.7,0.2,1.1c0.1,0.5,0.1,0.9,0.2,1.4
		c0.1,1.5,0.1,3,0,4.4c0,0.1,0,0.1,0,0.2c0,0.1-0.1,0.1-0.1,0.2c0,0.3-0.1,0.6-0.1,1c0,0.1-0.1,0.1-0.1,0.2c-0.2,0.2,0,0.6-0.2,0.8
		l0,0c-0.2,0.3-0.1,0.5,0,0.8c-0.1,0.4-0.2,0.9-0.5,1.3c-0.1,0.5-0.3,1-0.5,1.5c0,0.2,0,0.4-0.1,0.5c-0.2,0.3-0.2,0.6-0.3,0.8
		c-0.1,0.3-0.2,0.6-0.5,0.8c-0.4,0.5,0,0.5,0.3,0.7c1.3,0.8,2.8,1.1,3.9,2.3c0.4,0.3,0.7,0.8,1.2,1c0.6,0.4,1.2,0.7,1.6,1.3
		c0.6,0.8,1.4,1.4,2,2.2c0.9,1,1.5,2.2,2.1,3.4c0.1,0.4,0.2,0.7,0.5,1c0.4,0.6,0.7,1.2,1,1.9c0.1,0.3,0.2,0.6,0.3,0.8l0,0
		c0.1,0.3,0.2,0.6,0.3,0.8c0.7,1.9,1.5,3.7,1.8,5.7c0.2,0.2,0,0.6,0.2,0.8c0.1,0.2,0.2,0.4,0.2,0.7c0.2,0.2-0.1,0.6,0.2,0.8
		c0,0.1,0.1,0.1,0.1,0.2c-0.1,0.3-0.1,0.5,0,0.8c0,0.1,0.1,0.1,0.1,0.2c-0.1,0.4,0.1,0.9,0.1,1.3c0,0.1,0.1,0.1,0.1,0.2
		c0,0.1,0,0.1,0,0.2c0,0.6,0,1.1,0.1,1.7c0.1,0,0.1,0.1,0.1,0.1c0,0.3,0,0.5,0,0.8c-0.1,0.1-0.1,0.1-0.1,0.2
		c-0.1,0.5,0.1,1.1-0.2,1.6l0,0c-0.2,0.3,0,0.7-0.2,1l0,0c-0.2,0.2,0,0.6-0.2,0.8l0,0c-0.2,0.2,0,0.6-0.2,0.8
		c-0.3,1.6-0.8,3.1-1.4,4.7c-1.3,3-3,5.7-5.4,8.1c-1.8,1.8-4,2.8-6.4,3.7c-1,0.4-1.9,0.7-3,0.8c-1,0.3-2,0.3-3,0.6
		c-0.1,0-0.1,0-0.2,0c-0.3-0.1-0.5-0.1-0.8,0l0,0c-0.4,0.2-0.8,0-1.2,0.3c-0.1,0-0.1,0-0.2,0c-0.4-0.1-0.9,0.1-1.3,0.1
		c-0.1,0-0.1,0.1-0.2,0.1c-0.1,0-0.2,0-0.3,0c-2.1,0.1-4.2,0-6.3,0c-0.8,0-1.6,0-2.4,0c-0.2,0-0.3,0-0.5,0c-0.2-0.2-0.4-0.3-0.6-0.2
		c-0.1,0-0.2,0-0.3,0c-0.2-0.2-0.5-0.2-0.8-0.2c-0.1,0-0.2,0-0.3,0c-0.2-0.2-0.5-0.2-0.8-0.2c-0.1,0-0.1,0-0.2,0
		c-0.1-0.1-0.1-0.1-0.2-0.1c-0.4,0-0.8-0.1-1.2-0.2c-0.4,0-0.8-0.1-1.3-0.1c-0.3-0.1-0.7-0.1-1-0.2c-1.6-0.3-3.2-0.7-4.6-1.4
		c-0.3-0.2-0.6-0.2-0.9-0.2c-0.2-0.3-0.5-0.4-0.8-0.3c-1.9-0.6-3.4-1.9-4.9-3c-3-2.2-5.1-5.1-6.7-8.5c0.2-0.4,0-0.6-0.3-0.8
		c-0.3-1.5-0.8-2.9-1-4.4c0.1-0.3-0.1-0.5-0.1-0.8c0-0.1-0.1-0.1-0.1-0.2c0-0.1,0-0.1,0-0.2c0.1-0.3-0.1-0.6-0.1-1
		C463.5,538.6,463.5,538.6,463.4,538.5z"/>
	<path class="st49" d="M484.1,476.4c-2.1-1-4.4-1.1-6.7-1c-0.8-0.5-1.6-0.8-2-1.8c-0.1-0.5-0.1-1,0-1.5c0.1-1,0.6-1.8,1-2.6
		c0.9-1.5,1.9-3.1,2.8-4.7c0.4-0.7,1-1.2,1.7-1.7c0.5-0.3,1-0.2,1.5-0.2c0.7,0.3,1.3,0.8,1.7,1.4c1.5,2.5,2.9,5,3.6,7.8
		c0.1,0.4,0.1,0.9,0.3,1.3c0.2,0.1,0.3,0.3,0.3,0.4c0.2,1,0.3,2.1,0.1,3.1c-0.3,0.4-0.7,0.5-1.2,0.3C486.2,477,485,477,484.1,476.4z
		"/>
	<path class="st50" d="M488.3,477c0-1.1,0.1-2.3-0.3-3.4c0.3-1.5,0.5-2.9,0.8-4.4c0.5-2.2,1.1-4.4,2.2-6.4c0.1-0.3,0.3-0.4,0.6-0.5
		c0.4-0.2,0.4,0.3,0.5,0.4c0.4,0.2,0.9,0.3,1.3,0.5c1.8,0.8,3.6,1.6,5.4,2.5c0.4,0.2,0.7,0.6,0.3,1.1c-1.1,1.2-1.9,2.8-2.9,4.1
		c-1,1.2-2,2.5-2.9,3.8c-0.1,0.1-0.2,0.2-0.2,0.4c-0.8,0.8-1.2,1.9-2.4,2.3c-0.6,0.1-1.3-0.1-1.9,0
		C488.6,477.4,488.4,477.2,488.3,477z"/>
	<path class="st49" d="M490.8,477.3c1-0.5,1.3-1.7,2.3-2.2c1.1-0.6,2.2-1.3,3.3-1.9c1.3-0.7,2.7-1.1,4.3-1c1.2,0.1,1.8,0.5,1.9,1.7
		c0.2,1.8-0.3,3.6-0.7,5.3c-0.1,0.4-0.5,0.7-0.8,1c-0.7,0.6-1.5,0.4-2.3,0.2c-0.3-0.1-0.6-0.3-1-0.3c-0.7,0.1-1.3-0.1-1.9-0.4
		c-0.7-0.3-1.4-0.7-2.1-1.1c-0.7-0.3-1.3-0.5-2-0.2C491,478.5,490.6,478.1,490.8,477.3z"/>
	<path class="st51" d="M509.3,501c-0.3-1.2-0.1-2.3-0.1-3.5c0-0.3,0-0.7,0-1c0,0,0.1,0,0.1-0.1c0,0,0,0.1,0.1,0.1c0,0.4,0,0.8,0,1.1
		c0.1,1,0.1,2,0,2.9C509.3,500.7,509.3,500.8,509.3,501z"/>
	<path class="st52" d="M466.7,491.2c0.2,1.5,0.2,2.9,0,4.4c0-0.2,0-0.3-0.1-0.5c-0.1-1.2-0.1-2.4,0-3.6
		C466.7,491.4,466.7,491.3,466.7,491.2z"/>
	<path class="st53" d="M515.9,516.4c-0.8-0.6-1.6-1.2-2-2.2C514.6,514.9,515.4,515.5,515.9,516.4z"/>
	<path class="st54" d="M466.7,491.5c0,1.2,0,2.4,0,3.6C466.4,493.9,466.4,492.7,466.7,491.5z"/>
	<path class="st54" d="M509.3,500.5c0-1,0-2,0-2.9C509.5,498.5,509.5,499.5,509.3,500.5z"/>
	<path class="st55" d="M473.1,507.7c0.6-0.2,0.7,0.3,0.9,0.6c0.1,0.1-0.2,0.5-0.6,0.2C474,508,473.3,507.9,473.1,507.7z"/>
	<path class="st54" d="M463.2,535.4c0.2,0.2,0.1,0.5,0.2,0.8c0.1,0.6,0.2,1.1,0,1.6C463.1,537.1,463.3,536.2,463.2,535.4z"/>
	<path class="st56" d="M463.4,531.7c0.2,0.7,0.2,1.4,0,2.1c-0.1-0.6-0.1-1.2,0-1.8C463.4,531.9,463.4,531.8,463.4,531.7z"/>
	<path class="st57" d="M463.4,537.9c0-0.5,0-1.1,0-1.6c0.3,0.7,0.2,1.4,0,2.1C463.4,538.2,463.4,538,463.4,537.9z"/>
	<path class="st54" d="M463.4,532c0,0.6,0,1.2,0,1.8c-0.1,0.1-0.1,0.2-0.2,0.3C463.3,533.4,463.1,532.7,463.4,532z"/>
	<path class="st58" d="M522.9,537c-0.3-0.6-0.2-1.2-0.1-1.8c0,0.1,0,0.2,0.1,0.3C523,536.1,523,536.6,522.9,537z"/>
	<path class="st59" d="M512.3,513c-0.6-0.1-0.9-0.6-1.2-1C511.6,512.1,511.9,512.6,512.3,513z"/>
	<path class="st58" d="M522.7,539.7c0.1-0.6-0.2-1.2,0.2-1.8c0.1,0.5,0.1,1,0,1.5C522.9,539.4,522.8,539.6,522.7,539.7z"/>
	<path class="st60" d="M507.8,506.9c0-0.5,0.2-1,0.5-1.5C508.3,506,508.2,506.5,507.8,506.9z"/>
	<path class="st54" d="M482.4,463.1c-0.5,0-1,0-1.5,0.2C481.4,462.8,481.9,462.9,482.4,463.1z"/>
	<path class="st54" d="M475.4,472.1c0,0.5,0,1,0,1.5C475.1,473.1,475.1,472.6,475.4,472.1z"/>
	<path class="st61" d="M503,482c-0.4-0.2-0.7-0.5-0.9-0.9C502.5,481.3,502.8,481.6,503,482z"/>
	<path class="st62" d="M507.2,509.7c-0.2,0-0.5,0.1-0.6-0.2c-0.1-0.2,0.1-0.4,0.3-0.5C506.7,509.4,507,509.5,507.2,509.7z"/>
	<path class="st63" d="M467,488.7c0.1,0.4,0.4,0.7-0.2,1C466.9,489.4,467,489,467,488.7z"/>
	<path class="st64" d="M464.3,526.3c0.2,0.3,0.2,0.6,0,1c-0.1,0-0.1-0.1-0.1-0.2C464,526.8,464.2,526.5,464.3,526.3z"/>
	<path class="st65" d="M466.9,490c0.1,0.3,0.4,0.7-0.2,0.8C466.6,490.5,466.8,490.3,466.9,490z"/>
	<path class="st66" d="M522.8,535.1c-0.3-0.5-0.2-1-0.1-1.5c0,0.2,0,0.3,0.1,0.5C522.8,534.4,522.9,534.8,522.8,535.1z"/>
	<path class="st54" d="M522.9,537c0-0.5,0-1,0-1.5c0.3,0.5,0.1,1,0.1,1.5C523,537.1,523,537,522.9,537z"/>
	<path class="st54" d="M522.9,539.3c0-0.5,0-1,0-1.5c0,0,0.1,0,0.1,0C523,538.3,523.2,538.9,522.9,539.3z"/>
	<path class="st67" d="M463.6,530c0.2,0.4,0.3,0.9-0.1,1.3c-0.1-0.3-0.1-0.5,0-0.8C463.6,530.3,463.6,530.2,463.6,530z"/>
	<path class="st51" d="M464.1,527.1c0,0.1,0.1,0.1,0.1,0.2c-0.1,0.2,0.3,0.7-0.3,0.7C464,527.6,464,527.3,464.1,527.1z"/>
	<path class="st68" d="M464.9,523.6c-0.1,0.3,0.1,0.7-0.2,1C464.4,524.2,464.7,523.9,464.9,523.6z"/>
	<path class="st51" d="M509.1,496.4c-0.3-0.4-0.1-0.9-0.2-1.3c0,0,0.1,0,0.1-0.1c0,0,0.1,0,0.1,0.1c0,0.2,0,0.3,0,0.5
		C509.2,495.9,509.3,496.1,509.1,496.4L509.1,496.4z"/>
	<path class="st69" d="M518.5,520.8c-0.4-0.2-0.5-0.6-0.5-1C518.2,520.1,518.4,520.5,518.5,520.8z"/>
	<path class="st70" d="M464.7,524.6c-0.1,0.3,0.2,0.7-0.3,0.8C464.3,525.1,464.5,524.8,464.7,524.6z"/>
	<path class="st71" d="M464.7,545.2c0.6,0.1,0.6,0.4,0.3,0.8C465.1,545.7,464.9,545.5,464.7,545.2z"/>
	<path class="st53" d="M503.9,483.1c-0.4-0.2-0.7-0.4-0.7-0.8C503.5,482.5,503.8,482.7,503.9,483.1z"/>
	<path class="st72" d="M507.8,490c-0.3-0.3-0.3-0.6-0.3-1C507.8,489.3,507.8,489.6,507.8,490z"/>
	<path class="st73" d="M463.8,529c0.1,0.2,0.5,0.6-0.2,0.6C463.5,529.4,463.8,529.3,463.8,529z"/>
	<path class="st74" d="M509.1,502.3c-0.2-0.4-0.3-0.8,0-1.1c0.1,0.3,0.1,0.7,0,1C509.1,502.2,509.1,502.2,509.1,502.3z"/>
	<path class="st75" d="M463.6,538.5c0.3,0.4,0.2,0.7,0,1.1c0-0.1,0-0.2-0.1-0.3C463.5,539.1,463.5,538.8,463.6,538.5z"/>
	<path class="st76" d="M466.9,496.9c0.4,0,0.4,0.1,0.2,0.6C467,497.3,466.8,497.1,466.9,496.9z"/>
	<path class="st54" d="M522.8,535.1c0-0.3,0-0.6,0-1c0.3,0.3,0.1,0.7,0.1,1C522.8,535.1,522.8,535.1,522.8,535.1z"/>
	<path class="st77" d="M507.3,508.2c0-0.3,0-0.6,0.3-0.8C507.7,507.7,507.6,508,507.3,508.2z"/>
	<path class="st68" d="M522.6,540.7c0-0.3-0.1-0.7,0.2-1C522.7,540,522.9,540.4,522.6,540.7z"/>
	<path class="st78" d="M520.1,524.4c-0.3-0.2-0.4-0.5-0.3-0.8C520,523.8,520.1,524.1,520.1,524.4z"/>
	<path class="st54" d="M509.1,502.1c0-0.3,0-0.7,0-1c0,0,0.1,0,0.1,0C509.3,501.5,509.4,501.8,509.1,502.1z"/>
	<path class="st51" d="M509,495.1c-0.3-0.3-0.1-0.7-0.2-1c0.1,0.1,0.1,0.1,0.2,0.2C509.1,494.5,509.1,494.8,509,495.1L509,495.1z"/>
	<path class="st71" d="M519.8,523.6c-0.3-0.2-0.3-0.5-0.3-0.8C519.7,523,519.8,523.3,519.8,523.6z"/>
	<path class="st79" d="M463.7,539.8c0.3,0.3,0.3,0.6,0.1,1c0-0.1,0-0.1,0-0.2C463.6,540.4,463.6,540.1,463.7,539.8z"/>
	<path class="st80" d="M508.8,494.1c-0.3-0.3-0.1-0.7-0.2-1C508.9,493.4,508.8,493.8,508.8,494.1z"/>
	<path class="st80" d="M508.8,504.1c-0.2-0.3-0.2-0.6,0-0.8C508.8,503.6,508.8,503.8,508.8,504.1z"/>
	<path class="st54" d="M463.7,539.8c0,0.3,0,0.5,0,0.8c-0.2-0.2-0.1-0.5-0.1-0.8C463.6,539.8,463.7,539.8,463.7,539.8z"/>
	<path class="st72" d="M522.4,541.5c0-0.3-0.1-0.6,0.2-0.8C522.6,540.9,522.7,541.2,522.4,541.5z"/>
	<path class="st81" d="M522.1,531c-0.3-0.2-0.1-0.5-0.2-0.8C522.2,530.4,522.1,530.7,522.1,531z"/>
	<path class="st54" d="M463.5,530.5c0,0.3,0,0.5,0,0.8c0,0-0.1,0-0.1,0C463.4,531.1,463.3,530.7,463.5,530.5z"/>
	<path class="st81" d="M522.4,532.5c-0.3-0.2-0.1-0.5-0.2-0.8C522.5,531.9,522.4,532.2,522.4,532.5z"/>
	<path class="st66" d="M522.6,533.4c-0.3-0.3-0.2-0.5,0-0.8C522.6,532.9,522.6,533.2,522.6,533.4z"/>
	<path class="st80" d="M508.8,503.3c0-0.3-0.1-0.6,0.2-0.8C508.9,502.7,509.1,503.1,508.8,503.3z"/>
	<path class="st54" d="M509,495.1c0-0.3,0-0.5,0-0.8c0.3,0.2,0.1,0.5,0.1,0.8C509.1,495.1,509,495.1,509,495.1z"/>
	<path class="st54" d="M509.1,496.4c0-0.3,0-0.5,0-0.8c0.2,0.2,0.1,0.5,0.1,0.8C509.2,496.4,509.2,496.4,509.1,496.4z"/>
	<path class="st54" d="M463.6,538.5c0,0.3,0,0.5,0,0.8c-0.2-0.2-0.1-0.5-0.1-0.8C463.5,538.5,463.5,538.5,463.6,538.5z"/>
	<path class="st72" d="M522.2,542.3c0-0.3-0.1-0.6,0.2-0.8C522.4,541.8,522.5,542.1,522.2,542.3z"/>
	<path class="st82" d="M490.8,477.3c0.1,0.9,0.3,1.1,1.1,0.8c1-0.4,1.8,0.1,2.5,0.5c1.1,0.6,2.2,1.1,3.4,1.4
		c1.4,0.8,2.8,1.5,3.9,2.7c2.9,3.1,4.8,6.6,5.6,10.8c0.3,1.7,0.6,3.5,0.6,5.2c0,2.8-0.5,5.6-1.6,8.3c-0.3,0.7-0.7,1.4-1.2,2
		c-0.5,0.5-0.4,0.9,0.2,1.3c0.8,0.5,1.7,0.9,2.6,1.3c1.1,0.6,2.1,1.2,3.1,2c1.5,1.2,2.9,2.4,4.1,4c1.7,2.4,3,5,4,7.7
		c1.1,2.9,1.9,5.9,2.4,9c0.6,3.9-0.1,7.7-1.5,11.3c-0.9,2.3-2.1,4.4-3.6,6.4c-1.8,2.4-4.2,4-6.9,5.1c-3.3,1.2-6.7,1.8-10.2,2.1
		c-2.7,0.2-5.4,0.1-8.1,0.1c-1.2,0-2.5-0.3-3.7-0.5c-1.8-0.3-3.6-0.4-5.4-1c-3.9-1.2-7.6-2.7-10.6-5.6c-3.3-3.1-5.4-6.7-6.1-11.1
		c-0.2-1.2-0.3-2.4-0.5-3.6c-0.1-1.8-0.1-3.6,0-5.4c0.3-2,0.6-4,1-6c0.5-2.7,1.1-5.3,2.2-7.7c1.5-3.2,3.5-6.2,6.2-8.7
		c0.2-0.2,0.4-0.3,0.6-0.4c1-0.7,1.1-1,0.2-1.9c-0.5-0.5-1.2-0.9-1.7-1.4c-2.8-2.6-4.3-5.9-5-9.7c-0.7-3.8-0.2-7.4,1.3-10.9
		c1.8-4.4,5-7.5,9.3-9.4c0.5-0.2,1.1-0.5,1.6,0.1c0.2,0.2,0.5,0.1,0.7,0.1c1,0,2,0,3,0c1.2,0.2,2.3,0.5,3.4,0.9
		c0.4,0.2,0.6-0.1,0.9-0.3C489.1,477.1,489.9,477.2,490.8,477.3z"/>
	<path class="st83" d="M464.7,532.1c0,1.8,0,3.6,0,5.4c-0.2-0.2-0.2-0.5-0.2-0.8c0-1.3,0-2.6,0-3.9
		C464.6,532.6,464.5,532.4,464.7,532.1z"/>
	<path class="st84" d="M486.9,475.6c-0.6,0.2-0.9-0.3-1.3-0.2C486.1,475.2,486.5,475.3,486.9,475.6z"/>
	<path class="st85" d="M497.3,478.5c-0.6-0.1-0.9-0.2-1.2-0.5C496.5,478,496.8,478.2,497.3,478.5z"/>
	<path class="st86" d="M484.6,532.5c0,0.1-0.1,0.3-0.2,0.5c-1,1.8-1.6,3.9-2.5,5.8c-0.2,0.4-0.3,0.8-0.5,1.1
		c-0.2,0.3-0.6,0.4-0.9,0.2c-0.3-0.2-0.4-0.6-0.2-0.9c1.1-1.9,1.7-4.1,2.7-6.1c0.2-0.3,0.1-0.5-0.2-0.6c-1.8-0.4-3-1.8-4.4-2.8
		c-0.3-0.2-0.7-0.6-0.3-1c0.3-0.4,0.7,0,1,0.2c0.8,0.7,1.8,1.2,2.6,1.9c0.7,0.6,1.6,0.6,2.4,1C484.4,532,484.6,532.1,484.6,532.5z"
		/>
	<path class="st87" d="M502.5,531.7c0-0.6,0.3-1.2,0.7-1.6c1.2-1.2,2.3-2.5,3.5-3.7c0.2-0.2,0.4-0.3,0.6-0.1c0.2,0.2,0.1,0.5,0,0.8
		c-0.6,0.9-1.3,1.7-2,2.5c-0.4,0.5-0.9,0.9-1.3,1.4c-0.3,0.4-0.3,0.7,0.1,1.1c1.4,1.2,3.2,1.8,4.7,2.9c0.1,0.1,0.2,0.1,0.4,0.2
		c0.3,0.2,0.4,0.5,0.3,0.8c-0.2,0.3-0.5,0.4-0.8,0.2c-1.9-1.2-4.1-2-5.7-3.6C502.6,532.3,502.5,532.1,502.5,531.7z"/>
	<path class="st88" d="M474.8,489.8c1.2,0.4,2.4,0.4,3.7,0.6c1.8,0.2,3.6,0.4,5.3,0.8c0.4,0.1,0.9,0.2,0.8,0.7
		c-0.1,0.5-0.5,0.4-0.9,0.4c-2.6-0.5-5.2-0.8-7.8-1.2c-0.5-0.1-1-0.2-1.5-0.4c-0.2-0.1-0.4-0.2-0.3-0.5
		C474.1,489.8,474.4,489.8,474.8,489.8z"/>
	<path class="st89" d="M481.7,499.6c0-0.6,0-1.1,0.4-1.6c0.5-0.8,1.3-0.8,1.9-0.1c0.7,0.9,0.8,1.9,0.5,3c-0.2,0.6-0.7,1-1.3,1
		c-0.7,0-1.1-0.5-1.3-1.1C481.8,500.4,481.7,500,481.7,499.6z"/>
	<path class="st90" d="M492.6,492.2c-0.3,0-0.4-0.1-0.5-0.4c-0.1-0.3,0.1-0.5,0.3-0.6c0.6-0.2,1.2-0.4,1.9-0.5
		c2.2-0.6,4.4-1,6.5-1.7c0.4-0.1,0.8-0.2,0.9,0.2c0.2,0.5-0.3,0.6-0.6,0.7c-2.3,0.7-4.6,1.2-7,1.7
		C493.7,491.8,493.1,492,492.6,492.2z"/>
	<path class="st87" d="M495,499.3c0,0.2-0.1,0.5-0.2,0.8c-0.1,0.5-0.4,1-1,1c-0.6,0-1-0.3-1.2-0.9c-0.2-0.9-0.2-1.9-0.1-2.8
		c0.1-0.4,0.3-0.8,0.8-0.8c0.5-0.1,0.8,0.2,1,0.6C494.8,497.8,495,498.5,495,499.3z"/>
	<path class="st91" d="M492.9,508.2c-0.1,0.5-0.4,0.6-0.8,0.4c-0.5-0.2-1.1-0.5-1.5-0.8c-0.4-0.3-0.6-0.2-0.9,0.1
		c-0.3,0.3-0.6,0.6-1,0.9c-0.3,0.3-0.8,0.3-1-0.1c-0.3-0.5,0.2-0.5,0.5-0.7c0.5-0.4,1-0.9,1.5-1.4c0.4-0.4,0.8-0.5,1.2,0
		c0.4,0.5,1,0.6,1.5,0.9C492.6,507.6,492.9,507.8,492.9,508.2z"/>
</g>
</svg>
