<?xml version="1.0" encoding="utf-8"?>
<!-- Generator: Adobe Illustrator 21.0.2, SVG Export Plug-In . SVG Version: 6.00 Build 0)  -->
<svg version="1.1" id="Layer_1" xmlns="http://www.w3.org/2000/svg" xmlns:xlink="http://www.w3.org/1999/xlink" x="0px" y="0px"
	 viewBox="0 0 642 558" style="enable-background:new 0 0 642 558;" xml:space="preserve">
<style type="text/css">
	.st0{fill:#003A5D;}
	.st1{fill:#FF9E16;}
	.st2{fill:#A0D9B3;}
	.st3{fill:#FFE900;}
	.st4{enable-background:new    ;}
	.st5{fill:#FFFFFF;}
</style>
<g id="레이어_2">
</g>
<g id="레이어_1">
	<g>
		<g>
			<path class="st0" d="M319.9,552.5c-1.6,0-3.1,0-4.7,0c-1.4-0.4-2.9-0.1-4.3-0.2c-0.9,0-1.9,0-2.8,0s-1.8,0-2.8,0
				c-0.6,0-1.2,0-1.8,0c-15.2,0.1-30.2-1.7-45.1-4.5c-14.3-2.7-28.4-6.3-42.2-11c-12-4.1-23.7-8.9-35.1-14.2
				c-12.5-5.9-24.5-12.7-36-20.1c-10.2-6.5-19.9-13.7-29.2-21.4c-5.9-4.9-11.7-10.1-17.3-15.4c-11.1-10.4-21.1-21.8-30.6-33.8
				c-8.1-10.1-15.3-20.8-22-31.9c-9.8-16.3-18-33.4-24.7-51.2c-4.8-12.9-8.8-26.1-12-39.5c-2-8.4-3.6-17-4.8-25.5
				c-0.4-3.1-0.5-6.2-0.6-9.3c0.4-1.6,1.4-0.9,2.3-0.6c3.6,1.4,7.2,2.8,10.9,4.2c13.5,5.1,27.1,9.7,41,13.9
				c13.7,4.1,27.5,7.8,41.4,11.1c17.2,4.1,34.6,7.5,52,10.4c5.2,0.9,10.5,1.5,15.7,2.6c0.7,0.1,1.5,0,2.2,0.1
				c11.9,1.9,23.9,3.3,35.8,4.5c0.7,0.1,1.4,0.3,2,0.2c0.6,0.1,1.2,0.1,1.7,0.2c0.7,0.1,1.3,0.3,1.9,0.2c0.7,0.1,1.3,0.1,2,0.1
				c0.7,0.1,1.3,0.3,1.9,0.2c0.6,0.1,1.2,0.1,1.7,0.1c0.7,0.2,1.5,0.3,2.2,0.2c0.7,0,1.4,0.1,2.1,0.1c0.7,0.2,1.5,0.3,2.3,0.2
				c0.7,0.1,1.4,0.1,2.1,0.2c0.8,0.1,1.5,0.3,2.3,0.2c0.8,0.1,1.6,0.1,2.4,0.1c0.8,0.1,1.5,0.3,2.3,0.2c0.8,0.1,1.6,0.1,2.4,0.1
				c0.9,0.2,1.7,0.4,2.6,0.2c0.9,0.1,1.8,0.1,2.7,0.1c0.9,0.2,1.7,0.4,2.7,0.2c1,0.1,2.1,0.1,3.1,0.1c1,0.2,2,0.4,3,0.2
				c1.2,0.1,2.3,0.1,3.5,0.1c1.1,0.2,2.2,0.5,3.4,0.2c1.4,0.1,2.8,0,4.2,0.1c1.4,0.3,2.7,0.6,4.1,0.2c1.8,0.2,3.5,0,5.3,0.2
				c1.7,0.4,3.4,0.7,5.2,0.2c2.6,0.2,5.2,0,7.8,0.1c3.5,0.7,7,0.8,10.4,0.2c5.1,0.2,10.2,0.2,15.3,0c2,0.3,4,0.4,6,0.4
				c6.8,0.3,13.6-0.5,20.4-0.7c5.2-0.1,10.4-0.4,15.6-0.7c6.6-0.4,13.2-0.7,19.9-1.3c3.4-0.3,6.9-0.5,10.4-0.8
				c6.1-0.5,12.1-1.1,18.2-1.7c5.6-0.6,11.2-1.2,16.7-1.9c8.3-1,16.5-2.1,24.7-3.3c10.4-1.5,20.8-3.3,31.1-5.3
				c12.4-2.4,24.8-5,37.2-8c15.2-3.7,30.3-7.9,45.3-12.6c17.8-5.5,35.2-12,52.4-19.2c3.7-1.6,7.4-3.1,11-4.9
				c0.4-0.1,0.8-0.2,1.1-0.4c3.5-2.1,7.3-3.6,11-5.3c1.8-0.8,2.4-0.3,2.3,1.7c-0.2,3-0.3,6.1-0.4,9.1c-0.4,6.1-1.3,12.3-2.3,18.3
				c-2.1,13-5.1,25.8-8.8,38.4c-3.6,12-7.8,23.8-12.7,35.3c-3.1,7.1-6.4,14.2-10,21.1c-6.3,12-13.2,23.4-20.9,34.5
				c-5.8,8.4-12.1,16.4-18.6,24.2c-3.6,4.3-7.3,8.5-11.3,12.5c-2.1,2.1-3.9,4.4-6,6.4c-14.1,13.7-29,26.3-45.2,37.3
				c-10.5,7.1-21.4,13.7-32.7,19.5c-14,7.2-28.4,13.3-43.2,18.4c-15.2,5.2-30.7,9.1-46.5,12.1c-7.9,1.5-15.8,2.6-23.8,3.3
				c-5.8,0.5-11.7,0.6-17.5,0.6c-0.6,0-1.2,0-1.8,0c-0.8,0-1.6,0-2.5,0s-1.9,0-2.8,0C322.6,552.4,321.2,552.1,319.9,552.5z"/>
			<path class="st1" d="M605.9,240.8c0.4-0.3,0.9-0.5,1.3-0.8c2.1-1.1,4-2.5,6.2-3.5h-0.1c0.5-0.6,1.2-0.8,1.9-1.1h-0.1
				c0.7-0.7,1.7-1.1,2.6-1.6c0.6-0.4,1.2-0.1,1.2,0.7c-0.1,3.5,0.3,7-0.2,10.5c0,0.4,0,0.9,0,1.3c0.1,2.6,0,5.1-0.3,7.7
				c0,0.3,0,0.7,0,1c0.3,3.1-0.5,6.2-0.5,9.3c0,0.5-0.1,1-0.4,1.5c-6.4,3.2-13.1,5.9-19.7,8.6c-33.6,13.6-68.3,23.8-103.7,31.7
				c-20.2,4.4-40.5,8.1-60.9,11c-16.2,2.3-32.5,4.2-48.9,5.6c-22.6,2-45.2,3.1-67.8,3.5c-0.7,0-1.5,0-2.2-0.1
				c0.4-0.8,1.2-0.5,1.8-0.6c1.7-0.2,3.4-0.1,5.1-0.3c0.2,0,0.4,0,0.6,0c6.6-0.9,13.3-1.8,19.9-2.5l0.1,0.1l0.1-0.1
				c3.7-0.8,7.4-0.9,11.1-1.6c2.1-0.4,4.2-0.7,6.4-0.9l0.1,0.1l0.1-0.1c3-0.7,6-1,9-1.4l0,0c2.1-0.7,4.3-0.8,6.5-1.1l0,0
				c0.7-0.5,1.6,0.1,2.3-0.4c0.1,0.1,0.2,0.1,0.3,0c2.5-0.8,5.1-1,7.7-1.4h0.1l0.1-0.1c2.5-0.6,5.1-1.1,7.7-1.4
				c0.1,0.1,0.2,0.1,0.3,0c5.3-1.2,10.6-2.2,15.9-3.2l0,0c2.2-0.7,4.5-1.1,6.7-1.6c2.3-0.5,4.6-1,6.7-1.7
				c14.5-3.9,29.1-7.2,43.5-11.4c14.6-4.2,29-8.8,43.3-13.7c11.1-3.8,22-8,32.9-12.4c9.8-4,19.5-8.2,29.1-12.8
				c7.2-3.4,14.3-7,21.4-10.6c0.8-0.4,1.6-0.7,2.5-1c1.7-0.5,3.1-1.5,4.7-2.2l0,0C601.8,242.7,603.9,241.7,605.9,240.8z"/>
			<path class="st2" d="M288.2,304.7c-1.1,0.2-2.1,0.9-3.1,1.4c-0.9,0.5-1.3,0.2-1.3-0.8c0-2.5,0-4.9,0.1-7.4
				c0.9-25,0.8-50,0.5-74.9c-0.1-10.5-0.4-21.1-0.6-31.6c-0.5-17.3-0.9-34.6-1.5-51.9c-0.6-18.5-0.9-37-1.1-55.5
				c-0.1-11.3-0.2-22.5-0.1-33.8c0.2-13.4,0.5-26.8,0.8-40.2c0-0.9-0.3-2.3,1.5-1.4l0,0c0.8,0.4,1.6,0.8,2.2,1.5l0,0
				c0.8,0.4,1.6,0.8,2.2,1.5l0,0c1.3,0.8,2.8,1.5,4,2.6l0,0c1,0.6,2.1,1.1,2.9,1.9c0.1,0.1,0.2,0.2,0.3,0.2c1.7,0.8,3.2,1.8,4.7,2.9
				l0,0c0.5,0.3,1.2,0.4,1.5,1.1c0.1,0.3,0.4,0.4,0.6,0.3c1.3,0.6,2.6,1.3,3.7,2.3c0.2,0.3,0.5,0.6,1,0.6c1.5,0.7,2.9,1.5,4.1,2.5
				l0,0c0.6,0.4,1.3,0.6,1.8,1.1l0,0c1,0.6,2,1,2.9,1.8l0,0c0.6,0.4,1.3,0.6,1.9,1.1l0,0c1,0.6,2.1,1,2.9,1.8l0,0
				c1.6,1,3.3,1.7,4.7,2.9l0,0c1.5,0.8,3,1.6,4.3,2.7c0.1,0.1,0.2,0.1,0.3,0.2c2.8,1.3,5.4,3,7.9,4.8c0.1,0.3,0.3,0.3,0.6,0.3
				c1.6,0.7,3,1.6,4.5,2.5l0,0c1.2,0.7,2.6,1.2,3.6,2.2l0,0c0.8,0.5,1.8,0.7,2.5,1.5l0,0c2,1.2,4.1,2,5.8,3.5
				c0.3,0.2,0.6,0.3,0.9,0.5c2.1,0.8,3.9,2.1,5.9,3.2l0,0c1.9,1,3.9,2.1,5.8,3.3l0,0c1.4,0.8,3,1.4,4.4,2.5l0,0
				c1.2,0.5,2.4,0.9,3.2,1.9c0.1,0.3,0.4,0.3,0.6,0.3c1.2,0.4,2.4,0.9,3.3,1.9c0.1,0.2,0.4,0.3,0.6,0.3c1.4,0.5,2.8,1.3,4.1,2.2l0,0
				c1.4,0.6,2.7,1.3,4,2.2l0,0c1.4,0.6,2.7,1.2,4,2.2l0,0c2.4,1,4.7,2.2,6.8,3.7c0.1,0.3,0.4,0.3,0.6,0.3c1.8,1,3.9,1.6,5.5,3
				c0.1,0.2,0.3,0.3,0.6,0.3c1.6,0.9,3.4,1.3,4.8,2.6c0.1,0.2,0.4,0.3,0.6,0.3c3.4,1.5,6.7,3.2,9.8,5.2c0.1,0.2,0.4,0.3,0.6,0.2
				c3.7,1.4,7,3.7,10.6,5.3c0.3,0.1,0.5,0.3,0.7,0.6c0.1,0.2,0.4,0.3,0.6,0.2c1.3,0.4,2.6,1,3.7,1.8l0,0c2.1,1.2,4.3,2.2,6.5,3.3
				l0,0c2.5,1.4,5.3,2.3,7.6,4.1c0.2,0.2,0.4,0.3,0.6,0.2c1.3,0.4,2.6,0.9,3.7,1.9c0.2,0.1,0.4,0.2,0.6,0.2c2.1,1.1,4.3,1.9,6.2,3.3
				c0.1,0.3,0.4,0.3,0.7,0.3c1.5,0.6,3.1,1.2,4.4,2.3c0.4,0.3,0.8,0.6,1.3,0.6c1.8,1,3.9,1.6,5.5,3c0.2,0.1,0.4,0.2,0.6,0.3
				c3.2,1.3,6.1,3.1,9.1,4.7l0,0c1.3,0.8,2.8,1.2,4,2.3c0.4,0.4,0.8,0.6,1.3,0.6c1.4,0.6,2.9,1.2,4.1,2.2c0.1,0.3,0.4,0.3,0.6,0.3
				c2.4,1,4.7,2.2,6.9,3.7c0.1,0.1,0.2,0.2,0.3,0.2c2.7,1,5.1,2.6,7.6,4l0,0c1.3,0.8,2.9,1.2,4,2.4c0.2,0.1,0.5,0.2,0.7,0.4
				c2.4,0.9,4.7,2.2,6.8,3.8c0.1,0.3,0.4,0.3,0.6,0.3c1.2,0.5,2.3,1.1,3.4,1.8l0,0c0.8,0.6,1.9,0.7,2.5,1.5c0.1,0.3,0.3,0.3,0.6,0.3
				c2,1,4.1,2,5.9,3.4c0.1,0.1,0.2,0.1,0.3,0.2c1.2,0.4,2.4,1,3.3,1.9c0.1,0.3,0.3,0.3,0.6,0.3c0.7,0.3,1.4,0.6,2,1.1l0,0
				c1,0.7,2.1,1.1,3.1,1.8c1.1,0.7,0.8,1.1-0.1,1.7c-1.1,0.7-2.3,1.3-3.4,1.9l0,0c-2.3,1.4-4.5,2.7-6.9,4l0,0
				c-2.2,1.4-4.5,2.7-6.8,4l0,0c-2.6,1.7-5.2,3.3-8,4.7c-0.1,0.1-0.2,0.2-0.3,0.3c-0.4,0.5-1,0.6-1.5,0.8c-0.3,0.2-0.7,0.5-1,0.7
				c-2.2,1.3-4.3,2.7-6.5,3.9l0,0c-0.5,0.5-1.2,0.8-1.9,1.1l0,0c-3.4,2.1-6.7,4.3-10.1,6.1c-0.3,0.3-0.7,0.5-1,0.8
				c-1,0.6-1.9,1.3-2.9,1.8l0,0c-3.2,2.1-6.3,4.3-9.7,6.1l0,0c-1,0.6-1.8,1.4-3,1.8c-0.3,0.2-0.6,0.5-0.9,0.7c-3,1.9-6,3.9-9,5.8
				l0,0c-1.7,1.1-3.3,2.3-5.1,3.3l0,0c-2.1,1.3-4,2.9-6.2,4c-0.3,0.2-0.6,0.5-0.9,0.7c-2.1,1.3-4,2.8-6.2,3.9l0,0
				c-4.8,3.2-9.5,6.4-14.4,9.4l0,0c-1.5,1-3,2.3-4.7,2.9c-0.1,0.1-0.2,0.1-0.3,0.2c-1.2,1.2-2.6,2-4.1,2.7c-0.3,0.2-0.6,0.5-0.9,0.7
				c-0.5,0.5-1.2,0.7-1.9,1.1l0,0c-0.5,0.5-1.2,0.7-1.8,1.1c-0.1,0.1-0.2,0.2-0.3,0.3c-0.9,0.7-1.9,1.3-2.9,1.9l0,0
				c-1.7,1.1-3.3,2.3-5.1,3.3l0,0c-1.6,1.1-3.1,2.3-4.9,2.9c-0.3,0.2-0.5,0.5-0.8,0.7c-1,0.6-1.9,1.3-2.9,1.8l0,0
				c-2.2,1.4-4.1,3-6.6,4c-0.3,0.2-0.6,0.5-0.9,0.7c-2.5,1.7-5,3.2-7.6,4.7l0,0c-1,0.8-2,1.4-3.2,1.9l0,0c-0.6,0.7-1.3,1.1-2.2,1.4
				l0,0c-0.9,0.7-1.9,1.3-2.9,1.8l0,0c-1.6,1.1-3.3,2-5.1,2.9c-0.3,0.2-0.7,0.5-1.1,0.7c-0.5,0.4-1.2,0.7-1.8,1.1l0,0
				c-1.4,0.9-2.8,1.9-4.4,2.5c-0.3,0.3-0.7,0.5-1,0.7c-1.4,0.9-2.9,1.7-4.4,2.5l0,0c-0.5,0.5-1.2,0.8-1.9,1.1
				c-0.2,0.1-0.4,0.3-0.6,0.4c-1.4,0.9-2.8,1.8-4.3,2.5l0,0c-0.5,0.5-1.2,0.7-1.8,1.1l0,0c-0.8,0.7-1.7,0.9-2.6,1.5l0,0
				c-0.5,0.5-1.2,0.8-1.9,1.1c-0.2,0.1-0.4,0.2-0.6,0.4c-1.1,0.6-2.1,1.4-3.4,1.8c-0.3,0.2-0.7,0.5-1,0.7c-1,0.9-2.2,1.2-3.3,1.8
				l0,0c-0.4,0.5-1,0.5-1.5,0.8l0,0c-1.6,1.2-3.4,2-5.1,2.9l0,0c-2.1,1.3-4.3,2.5-6.5,3.6l0,0c-1.5,1-3.1,1.7-4.7,2.5l0,0
				c-0.5,0.5-1.2,0.7-1.8,1.1l0,0c-0.3,0.5-1,0.5-1.5,0.8l0,0c-1.5,1-3.1,1.8-4.7,2.6l0,0c-0.4,0.4-1,0.5-1.5,0.7l0,0
				c-0.5,0.5-1.2,0.7-1.9,1.1l0,0c-0.9,0.5-1.8,1.2-2.9,1.5l0,0c-0.8,0.6-1.7,0.9-2.6,1.4l0,0c-0.4,0.4-1,0.4-1.5,0.8l0,0
				c-1.4,1.1-3.2,1.6-4.7,2.5l0,0c-0.7,0.3-1.4,0.9-2.2,1.1l0,0c-1.6,1.1-3.3,1.8-5,2.6l0,0c-2,1.1-4.1,2.3-6.2,3.2
				C288.7,304.5,288.5,304.6,288.2,304.7z"/>
			<path class="st3" d="M595.6,246.6c-16.6,8.6-33.4,16.6-50.7,23.7c-10.2,4.2-20.5,8.3-31,11.9c-13.5,4.7-27.2,9.3-41,13.2
				c-10.6,3-21.2,5.9-31.9,8.6c-5.5,1.4-11,2.7-16.6,4c-0.6,0.2-1.2,0.2-1.8,0.2c0.7-1.3,2.3-1.2,3.4-1.7c0.2-0.1,0.4-0.2,0.6-0.3
				c2.3-1.2,4.8-2.3,7.2-3.2l0,0c2.8-1.4,5.6-2.9,8.7-4l0,0c0.7-0.7,1.7-0.8,2.5-1.3c1.8-0.7,3.4-1.5,5.1-2.5
				c5.6-2.8,11.3-5.4,16.8-8.4c0.4-0.2,0.8-0.2,1.2-0.4l0,0c3.3-2,6.7-3.6,10.1-5.4c0.1,0,0.2,0,0.3-0.1c1.2-0.5,2.2-1.3,3.4-1.9
				c0.5-0.4,1.1-0.7,1.7-0.9h-0.1c0.3-0.5,0.9-0.5,1.4-0.8l0,0c2.1-1.3,4.2-2.6,6.5-3.6l0,0c0.6-0.6,1.4-0.7,2.1-1.1l0,0
				c2.3-1.7,4.8-3,7.3-4.3c0.2-0.1,0.4-0.2,0.6-0.4c1.7-1.3,3.6-2.2,5.5-3.2l0,0c0.5-0.5,1.2-0.8,1.9-1.1h-0.1
				c2.1-1.6,4.4-2.8,6.6-4.1c2.5-1.5,4.9-3.2,7.4-4.6c0.1,0,0.2,0,0.3-0.1c2.7-2.1,5.6-3.8,8.5-5.7c3.4-2.3,6.8-4.7,10.3-6.8l0,0
				c2.5-1.9,5.1-3.7,7.8-5.5c0.2-0.1,0.3-0.2,0.4-0.4c2.5-1.8,4.9-3.8,7.5-5.4c0.1-0.1,0.3-0.2,0.4-0.4c2.4-1.8,4.7-3.8,7.2-5.4l0,0
				c4.9-4,9.9-7.9,14.8-11.9c2.2-1.8,4.2-3.7,6.5-5.4h-0.1c0.9-0.7,1.6-1.6,2.5-2.3c0.7-0.5,1.4-0.5,1.5,0.5
				c0.5,3.5,1.5,6.9,1.7,10.4c0,0.1,0,0.2,0,0.3c1.2,6.5,1.9,13,2.5,19.6c0.3,2.7,0.6,5.3,0.5,8
				C595.1,245.6,595.5,246.1,595.6,246.6z"/>
		</g>
	</g>
</g>
<g class="st4">
	<path class="st5" d="M184.9,409.7c0.3,0.4,0.5,0.9,0.5,1.5c0,0.6-0.1,1.1-0.3,1.5c-0.4,0.9-1.1,1.2-2,0.9c-1.6-0.4-3.4-0.5-5.2-0.5
		c-1.8,0.1-3.6,0.8-5.4,2.1c-1.8,1.3-3.2,3.3-4.2,5.8c-1,2.5-1.5,5.2-1.5,7.9c0,2.7,0.6,5,1.9,6.9c1.3,1.9,3,3.3,5,4.2
		c1.3,0.5,2.7,0.9,4.2,0.9c1.6,0.1,3.2,0,4.8-0.2c1.6-0.2,3.2-0.5,4.8-0.9c1.6-0.4,3.1-0.9,4.5-1.5c0.5-0.2,0.9-0.1,1.4,0.1
		c0.4,0.2,0.7,0.5,0.9,0.9c0.4,1,0.2,2-0.6,3.1c-0.9,1-2.2,1.9-3.8,2.7c-1.6,0.8-3.3,1.4-5.2,1.9c-1.9,0.5-3.8,0.7-5.8,0.8
		c-2,0-3.8-0.2-5.5-0.6c-2.4-0.6-4.5-1.5-6.2-2.8c-1.7-1.2-3.1-2.6-4.2-4.2c-1.1-1.6-1.9-3.3-2.5-5.2c-0.5-1.8-0.9-3.7-0.9-5.7
		c-0.2-4.7,0.8-8.9,2.8-12.7c2-3.8,4.8-6.5,8.4-8.3c2.7-1.3,5.3-1.9,8-1.6C181.6,407,183.6,408,184.9,409.7z"/>
	<path class="st5" d="M214.5,442.7c0.1,0.3,0.1,0.8,0.1,1.4c0,0.6-0.1,1.2-0.4,1.8c-0.2,0.6-0.6,1.1-1,1.5c-0.4,0.4-1,0.6-1.8,0.6
		c-1.7-1.1-3.2-2.5-4.3-4.3c-0.6-2.3-1.2-5.1-1.7-8.1c-0.5-3.1-0.9-6.2-1.2-9.6c-0.3-3.3-0.5-6.7-0.6-10.2c-0.1-3.4-0.1-6.8-0.1-10
		c0-0.5,0.1-1.3,0.2-2.1c0.1-0.9,0.3-1.7,0.6-2.5c0.3-0.8,0.7-1.5,1.2-2.1c0.5-0.6,1.1-0.9,2-0.9c1,0,1.8,0.3,2.5,0.9
		c0.6,0.6,0.9,1.6,0.9,3.1c-0.1,3.1-0.1,6.5,0.1,10c0.1,3.6,0.3,7.1,0.6,10.7c0.3,3.6,0.7,7.1,1.2,10.5
		C213.3,436.9,213.9,440,214.5,442.7z"/>
	<path class="st5" d="M282.5,411.7c-0.4,0.6-1.2,1.1-2.5,1.5s-2.8,0.6-4.4,0.8c-1.6,0.2-3.3,0.3-5,0.3c-1.7,0-3.1,0-4.2-0.1
		c1,0.8,1.4,1.7,1.3,2.7c-0.5,3.5-0.8,7.2-1,11.2c-0.2,3.9-0.1,7.6,0.3,11.2c2.6-0.7,5.9-2,10-3.8c4.1-1.8,8.2-4.5,12.3-8
		c1.6-1.4,2.7-1.9,3.4-1.4c0.5,0.4,0.7,1,0.4,1.8c-0.3,0.8-0.6,1.6-1.1,2.4c-0.9,1.6-2.2,3.3-3.9,5.1c-1.6,1.8-3.5,3.4-5.6,5.1
		c-2.1,1.6-4.3,3.1-6.7,4.5c-2.4,1.4-4.8,2.5-7.3,3.3c-1.3,0.4-2.5,0.4-3.6,0.1c-1.1-0.3-2-0.8-2.7-1.6c-0.7-0.7-1.4-1.6-1.9-2.7
		c-0.5-1.1-0.8-2.2-0.9-3.3c-0.5-4.5-0.6-9-0.4-13.7c0.2-4.7,0.7-9,1.3-13c-1.6-0.2-2.9-0.6-3.8-1.5c-0.9-0.8-1.4-1.7-1.4-2.8
		c0-0.3,0.1-0.6,0.3-1c0.2-0.4,0.7-0.6,1.6-0.9c0.5-0.2,1.7-0.4,3.4-0.6c1.7-0.2,3.7-0.4,5.9-0.5c2.2-0.1,4.4-0.1,6.8,0
		c2.3,0.1,4.3,0.4,6,0.8c1.3,0.4,2.3,1,2.9,1.8C282.8,410.2,282.9,411,282.5,411.7z M307.8,443c0,1.3-0.5,2.2-1.4,2.7
		c-0.9,0.5-1.9,0.6-2.9,0.5c-0.6-0.2-1.3-0.5-2-1.2c-0.7-0.6-1.1-1.5-1.3-2.7c-0.2-3.8-0.4-7.8-0.5-11.7c-0.1-4-0.2-7.9-0.2-11.6
		s0-7.3,0.1-10.7c0.1-3.4,0.2-6.4,0.4-9.1c0-0.7,0.3-1.4,0.9-2c0.6-0.6,1.3-0.9,2.2-0.9c1.5,0,2.6,0.6,3.5,1.9
		c0.8,1.3,1.2,2.4,1.2,3.5c-0.2,2.5-0.3,5.1-0.4,7.6c-0.1,2.6-0.2,5.2-0.2,7.9c2.9-1,6.1-1.7,9.5-2.2c3.4-0.4,7.4-0.4,12-0.1
		c1.3,0.2,2.4,0.5,3.6,1.2c1.1,0.6,1.7,1.4,1.7,2.3c-0.4,1.3-1.1,2.2-2.2,2.6c-1.1,0.4-2.3,0.5-3.5,0.5c-0.8,0-1.8,0-3,0.1
		c-1.2,0.1-2.5,0.2-3.9,0.4c-1.4,0.2-2.9,0.5-4.5,0.8c-1.6,0.3-3.1,0.6-4.5,0.9c-1,0.2-2,0.2-2.8,0c-0.9-0.2-1.6-0.6-2.3-1.1
		C307.1,429.8,307.3,436.6,307.8,443z"/>
	<path class="st5" d="M384.5,422.3c-0.1,0.4-0.4,1-0.9,1.9c-0.5,0.9-1.4,1.4-2.6,1.6c-1,0.2-2,0.3-3,0.5c-1,0.2-2,0.4-3.1,0.5
		c-0.9,3.5-1.5,7.1-2,10.8c-0.5,3.7-0.9,7.3-1.3,10.9c-0.2,1.5-0.6,2.7-1.2,3.8c-0.7,1-1.6,1.5-2.9,1.3c-1.3-0.2-2.2-0.7-2.5-1.8
		c-0.4-1-0.5-2.1-0.5-3.2c0-1.4,0.1-3,0.2-4.8c0.1-1.8,0.3-3.6,0.5-5.4c0.2-1.8,0.5-3.7,0.8-5.5c0.3-1.8,0.6-3.4,1-4.8
		c-4.3,0.8-8.7,1.6-13,2.5c-4.4,0.9-8.5,1.7-12.2,2.6c-1.8,0.4-3.3,0.4-4.6,0c-1.3-0.4-2.1-1.2-2.3-2.3c-0.2-1,0.4-2,1.5-2.8
		c1.2-0.9,2.5-1.5,3.9-1.9c2.8-0.6,5.9-1.3,9.2-2.1c3.3-0.7,6.6-1.4,10-2.1c3.4-0.7,6.8-1.2,10.2-1.6c3.4-0.4,6.7-0.7,9.8-0.8
		c1.6,0,2.9,0.3,3.9,0.9C384.2,421.1,384.6,421.7,384.5,422.3z M357,448.1c-0.2,0.8-0.3,1.7-0.5,2.8c-0.2,1.1-0.3,2.2-0.4,3.3
		c-0.1,1.1-0.2,2.3-0.3,3.3c-0.1,1.1-0.1,2.1-0.1,2.9c2.7-0.5,5.3-1,7.6-1.5c2.3-0.5,4.7-1.1,7-1.8c2.3-0.6,4.7-1.4,7.1-2.2
		c2.4-0.8,5.1-1.7,8.1-2.8c1.3-0.5,2.3-0.6,2.8-0.5c0.5,0.2,0.9,0.7,0.9,1.5c0.2,1.5-0.3,2.6-1.4,3.5c-1.1,0.8-2.2,1.5-3.5,2.2
		c-1.6,0.9-3.6,1.8-5.9,2.7c-2.3,0.9-4.7,1.8-7.2,2.7c-2.5,0.9-5.2,1.6-7.9,2.2c-2.7,0.6-5.3,1.1-7.8,1.3c-1.6,0.2-2.8,0-3.8-0.4
		c-0.9-0.4-1.7-0.9-2.2-1.6c-0.5-0.7-0.9-1.4-1.2-2.1c-0.2-0.7-0.4-1.3-0.4-1.8c-0.2-1.3-0.2-3.2,0-5.5c0.2-2.3,0.4-4.5,0.8-6.3
		c0.3-1.1,0.9-2.3,1.6-3.6c0.8-1.3,1.8-2.1,3.1-2.3C356.4,443.9,357.5,445.1,357,448.1z M366.6,388.4c0.9,0.2,1.6,0.6,2.3,1.4
		c0.7,0.7,1.2,1.6,1.5,2.7c0.3,1.1,0.4,2.2,0.4,3.5c0,1.3-0.3,2.5-0.9,3.8c-0.5,1-1.1,2.1-1.9,3.3s-1.8,2.3-2.8,3.4
		c-1.1,1.1-2.2,2.1-3.4,2.9c-1.2,0.9-2.4,1.4-3.7,1.8c-1,0.3-2.1,0.4-3.1,0.4c-1.1-0.1-2.1-0.4-3-0.8c-0.9-0.5-1.7-1.1-2.3-1.9
		c-0.6-0.8-1.1-1.7-1.3-2.8c-0.2-1-0.1-2.3,0.2-4c0.3-1.6,0.7-3.3,1.3-5.1c0.6-1.8,1.3-3.5,2.2-5.1c0.9-1.6,1.8-3,2.7-4.1
		c0.6-0.6,1.3-1.2,2-1.7c0.7-0.5,1.6-0.8,2.6-0.8c0.9,0,1.5,0.4,1.9,1.2c0.4,0.8,0.6,1.6,0.6,2.5c0.9-0.3,1.8-0.5,2.5-0.5
		C365.1,388.2,365.9,388.3,366.6,388.4z M356.8,403.9c0.5,0,1.1-0.3,1.8-0.9c0.7-0.6,1.4-1.3,2.2-2.1c0.7-0.8,1.4-1.7,2-2.5
		c0.6-0.9,1-1.6,1.1-2.3c0.4-0.6,0.4-1.2,0.1-1.6c-0.3-0.4-0.7-0.8-1.3-1.2c-0.6-0.4-1.4-0.8-2.2-1.2c-0.5,0.7-0.9,1.7-1.4,2.9
		c-0.4,1.2-0.8,2.4-1.1,3.6c-0.3,1.2-0.6,2.3-0.8,3.3C357,402.8,356.9,403.5,356.8,403.9z"/>
	<path class="st5" d="M406.9,403.2c-0.6,1.2-1.4,2.5-2.3,4c-0.9,1.5-1.8,3-2.8,4.6c0.7-0.2,1.5-0.3,2.5-0.4c1-0.1,1.9-0.2,2.8-0.3
		c2.3-0.2,3.7,0.4,4.2,1.7c0.5,1.3,0.4,2.8-0.5,4.4c-0.9,1.8-2.1,3.7-3.3,5.6c-1.3,2-2.4,4.2-3.3,6.8c1.1-0.2,2.3-0.3,3.5-0.4
		c1.3-0.1,2.4-0.1,3.5-0.1c2.1,0.2,3.7,1,4.8,2.4c1.1,1.5,1.3,3.3,0.8,5.5c-0.7,2.7-1.8,5.3-3.3,7.6c-1.5,2.3-3.2,4.4-5,6.2
		c2.7-0.2,5.1-0.3,7.3-0.5c2.2-0.2,4.3-0.4,6.3-0.6c2-0.2,4-0.5,6-0.8c2-0.3,4.2-0.7,6.6-1.1c1.6-0.2,2.6-0.1,3.1,0.3
		s0.8,0.9,1.1,1.7c0,1.3-0.4,2.4-1.1,3.1c-0.7,0.7-1.8,1.3-3.3,1.7c-10.4,2.9-21.1,4.2-32,4c-2-0.1-3.4-0.6-4.2-1.5
		c-0.9-0.9-1.2-1.8-1.1-2.8c0-0.6,0.2-1.2,0.5-1.8c0.4-0.5,0.8-1.1,1.5-1.5c0.9-0.7,1.8-1.6,2.9-2.7c1.1-1.1,2.1-2.3,3.1-3.6
		c1-1.3,1.9-2.7,2.7-4.2c0.8-1.4,1.4-2.9,1.7-4.3c-1.2,0.2-2.8,0.4-4.9,0.8c-2.1,0.4-4,0.3-5.8-0.4c-0.9-0.4-1.5-1.1-1.9-2.1
		c-0.4-1-0.5-2.2-0.3-3.5c0.4-1.9,1.2-4,2.5-6.5c1.3-2.4,2.7-4.6,4.2-6.5c-0.9,0.2-2.1,0.4-3.4,0.7c-1.3,0.3-2.5,0.6-3.5,0.9
		c-1.2,0.2-2.2,0.1-3-0.4c-0.8-0.5-1.4-1.1-1.8-1.8c-0.8-1.6-0.7-3.2,0.4-4.6c1.8-2.5,3.3-4.7,4.6-6.7c1.3-2,2.3-3.9,3.2-5.8
		c-1-0.4-2.3-0.6-4-0.6c-1.6,0-3.1-0.1-4.5-0.1c-0.6,0-1.3-0.3-1.9-0.9c-0.7-0.6-1-1.2-1.1-1.9c0-0.9,0.3-1.6,0.9-2.3
		c0.6-0.7,1.5-1.1,2.6-1.3c1.6-0.2,3.3-0.2,5.2,0c1.9,0.2,3.8,0.6,5.6,1.3c2.3,0.9,3.8,2,4.5,3.5
		C407.9,399.9,407.8,401.5,406.9,403.2z"/>
	<path class="st5" d="M438.7,405.6c-0.2-0.5-0.1-1.2,0.3-2.1s1.5-1.4,3.3-1.8c5.1-1.1,9.9-1.8,14.6-2.2c4.6-0.4,9.5-0.5,14.6-0.4
		c1.7,0.2,2.9,0.6,3.6,1.3c0.7,0.7,1,1.3,1,1.8c0,0.4-0.2,0.9-0.5,1.5c-0.4,0.6-1.2,1-2.4,1.2c-3.2,0.5-6.2,0.9-9.1,1.4
		c-2.9,0.4-5.7,0.9-8.4,1.4c-0.1,3-0.1,6.1-0.1,9.3c0,3.2,0.1,6.4,0.3,9.6c0.8-0.5,1.9-1.3,3.3-2.2c1.4-0.9,3-1.9,4.6-2.8
		c1.7-0.9,3.4-1.8,5.2-2.7c1.8-0.9,3.5-1.5,5.1-2c0.2-0.1,0.7-0.2,1.3-0.3c0.6-0.1,1.3-0.2,2-0.2c0.7,0,1.4,0,1.9,0.1
		c0.6,0.1,1,0.3,1.1,0.6c0.3,0.5,0.3,1.3,0.1,2.2c-0.3,0.9-1.1,1.7-2.4,2.5c-3.6,2-7.1,4.1-10.5,6.4c-3.4,2.3-6.8,4.7-10.2,7.2
		c-0.9,0.7-1.9,1.1-2.9,1.1c-1.7,0-3.2-0.7-4.3-2.1c-1.1-1.4-1.8-3.1-2.1-5.1c-0.4-3.5-0.6-6.9-0.7-10c-0.1-3.1,0-6.6,0.2-10.3
		c-0.3,0-0.6,0-0.8,0.1c-0.2,0.1-0.5,0.1-0.7,0.1c-1.8,0.3-3.4,0-4.9-0.9C439.6,407.3,438.8,406.4,438.7,405.6z M485.6,441.8
		c-1.9,0.9-4,1.7-6.3,2.6c-2.3,0.9-4.7,1.7-7.1,2.4c-2.4,0.7-4.7,1.4-7,2.1c-2.3,0.6-4.2,1.1-5.9,1.3c-2,0.4-3.7,0.2-5.1-0.5
		c-1.3-0.7-2.1-1.6-2.2-2.5c-0.4-1.6,0.8-2.8,3.5-3.5c5.4-1.3,10.5-2.7,15.3-4.1c4.8-1.4,9.8-3.1,15-5.2c1.2-0.5,2.2-0.7,3.1-0.7
		c0.9,0,1.4,0.6,1.6,1.9c0.3,1.5-0.1,2.8-1.1,3.8C488.4,440.3,487.1,441.1,485.6,441.8z"/>
</g>
</svg>
