<?xml version="1.0" encoding="utf-8"?>
<!-- Generator: Adobe Illustrator 21.0.2, SVG Export Plug-In . SVG Version: 6.00 Build 0)  -->
<svg version="1.1" id="레이어_1" xmlns="http://www.w3.org/2000/svg" xmlns:xlink="http://www.w3.org/1999/xlink" x="0px"
	 y="0px" viewBox="0 0 646.3 198.6" style="enable-background:new 0 0 646.3 198.6;" xml:space="preserve">
<style type="text/css">
	.st0{fill-rule:evenodd;clip-rule:evenodd;fill:#FFFFFF;}
</style>
<g>
	<path class="st0" d="M83.6,0c0,23.6,0.2,47.1-0.1,70.7c-0.2,16.2-7.7,28.4-21.7,36.5c-6.8,3.9-14.3,5.5-22.2,5.1
		C20.1,111.2,4.3,97.2,0.7,78.4c-0.3-1.5-0.5-3-0.7-4.6c0-2.2,0-4.4,0-6.7c0.1-0.2,0.2-0.3,0.2-0.5C0.7,60.3,2.6,54.3,6,48.9
		C13.7,36.7,24.7,30,39,28.8c7-0.6,13.7,0.7,20,3.6c0.8,0.3,0.9,0.7,0.9,1.5c0,7.2,0,14.5,0,21.7c0,0.3,0,0.7,0,1.2
		c-0.3-0.3-0.4-0.4-0.5-0.5c-6-7.5-16.3-10.5-25.6-7c-10.1,3.7-16.3,14.3-14.5,25c2.9,17,22.7,24.8,36.3,14.2c6-4.7,8.8-11,8.8-18.5
		c0-19.8,0-39.7,0-59.5c0-0.7,0.2-1.2,0.7-1.7c2.7-2.6,5.4-5.3,8-8c0.2-0.2,0.4-0.5,0.6-0.8C77.1,0,80.3,0,83.6,0z"/>
	<path class="st0" d="M646.3,81.3c-13.8,0-27.7,0-41.5,0c-0.7,0-1.2-0.2-1.7-0.7c-2.7-2.7-5.4-5.4-8.1-8.2c-0.3-0.4-0.6-1-0.6-1.5
		c-0.1-2.8,0-5.7,0-8.6c10.2,0,20.4,0,30.7,0c-0.1-0.3-0.1-0.5-0.2-0.7c-3.8-7.1-9.7-11.5-17.8-12.3c-11.9-1.2-22.2,6.4-24.7,18.1
		c-1.9,8.9,2.3,18.7,10,23.6c9.8,6.3,22.7,4,29.8-4.7c0.2-0.2,0.6-0.4,0.8-0.4c6.9,0,13.8,0,20.7,0c0.1,0,0.1,0,0.3,0.1
		c-0.3,0.7-0.5,1.4-0.8,2c-5.3,12.1-14.2,20.2-26.8,24c-9.5,2.9-19,2.3-28.1-1.7c-13.8-6.1-22.3-16.7-24.8-31.6
		c-3-17.7,5.5-35,21.2-43.6c7-3.8,14.6-5.5,22.6-5c18.9,1.2,34.5,14.8,38.4,33.4c0.4,1.7,0.6,3.5,0.8,5.2
		C646.3,72.9,646.3,77.1,646.3,81.3z"/>
	<path class="st0" d="M308.9,117.5c0,0.3,0,0.6,0,0.8c0,6.6,0,13.2,0,19.8c0,0.6-0.2,1-0.6,1.4c-5.4,4.7-8.1,10.7-7.9,17.9
		c0.2,10.8,8.3,20,18.9,21.8c12.5,2.1,24.1-6.2,26.2-18.8c1.7-10-3.7-20.1-12.9-24.3c-6.2-2.8-12.4-2.7-18.6-0.2
		c-0.1,0-0.2,0.1-0.5,0.2c0-4.2,0-8.4,0-12.5c0-4.1,0-8.2,0-12.4c-12.9-3.4-22.5-11-28.3-23.1c-4.3-9.2-5.1-18.8-2.5-28.5
		c5.6-20.4,24.4-32.3,43.3-30.8c22.4,1.8,37.9,19.7,38.8,39.7c1,21.9-14.1,36.9-27.8,41.3c0-0.3,0-0.6,0-0.9c0-6.5,0-13.1,0-19.6
		c0-0.6,0.2-1,0.6-1.4c5.8-5.1,8.7-11.6,8-19.3c-0.9-9.3-5.9-15.9-14.6-19.3c-12.6-5-27.3,2.9-30.2,16.2
		c-2.2,10.2,2.6,20.6,11.7,25.2c6.3,3.2,12.7,3.4,19.3,0.7c0.1,0,0.2-0.1,0.3-0.1c0.1,0,0.2,0,0.4-0.1c0,4.1,0,8.3,0,12.4
		c0,4.1,0,8.2,0,12.3c22.8,5.7,34.4,26.4,32.1,45.6c-2.6,21.8-21.4,37.9-43.3,36.9c-20.3-0.9-36.8-15.9-39.6-35.8
		C278.6,140.2,293.3,122.8,308.9,117.5z"/>
	<path class="st0" d="M533.4,113.6c0-0.5,0-0.9,0-1.2c0-13.4,0-26.8,0-40.2c0-9.8-5.6-18.1-14.7-21.6c-12.5-4.8-27.1,2.4-30.2,16.3
		c-2.3,10.3,2.8,20.9,12,25.3c9.8,4.7,20.9,2.3,27.9-6.1c0.1-0.1,0.2-0.2,0.4-0.4c0,0.4,0.1,0.6,0.1,0.9c0,7.4,0,14.7,0,22.1
		c0,0.7-0.2,1-0.8,1.2c-6.2,2.8-12.8,4.1-19.6,3.7c-19.5-1.1-35.3-15.1-38.9-33.8c-3.3-17.5,4.6-34.9,19.9-44
		c7.3-4.3,15.2-6.1,23.6-5.6c18.9,1.1,34.8,14.9,38.4,33.4c0.5,2.7,0.8,5.4,0.8,8.1c0.1,10.5,0,21.1,0.1,31.6c0,0.7-0.2,1.1-0.7,1.6
		c-2.8,2.7-5.5,5.5-8.3,8.2c-0.3,0.3-0.9,0.5-1.3,0.5C539.3,113.7,536.4,113.6,533.4,113.6z"/>
	<path class="st0" d="M133.2,28.8c0,6.4,0,12.7,0,19.1c-7.1,1-12.9,4.4-16.8,10.5c-3,4.7-4.1,9.9-3.3,15.4
		c1.8,11.9,12,19.9,23.2,19.5c12.2-0.5,20.7-9.6,21.9-20c1.5-12-7-23.8-20.3-25.4c0-6.3,0-12.6,0-19c17.1,0.5,36.8,13.9,39.3,37.2
		c2.6,24.4-15.8,45-39.2,46.2c-24.3,1.2-43.4-17.5-44.1-40.3C93.1,47.4,112.6,29.7,133.2,28.8z"/>
	<path class="st0" d="M271.1,112.3c-6.4,0-12.7,0-19,0c0-0.4,0-0.8,0-1.1c0-13.9,0-27.8,0-41.8c0-3.2-0.2-6.3-1-9.4
		c-1.6-6.4-5.7-10.1-12.1-11.4c-4.6-0.9-9.3-0.9-13.9-0.6c-3.2,0.2-6.4,0.6-9.3,2c-1.5,0.7-3,1.8-4.4,2.7c0-0.1,0-0.4,0-0.7
		c0-6.6,0-13.3,0-19.9c0-0.7,0.2-1,0.9-1.2c4.3-1.3,8.7-2,13.2-2.1c4.3,0,8.6-0.1,12.9,0.4c11.4,1.3,21,5.9,27.2,16.1
		c2.8,4.6,4.4,9.6,5,14.9c0.4,3.4,0.6,6.8,0.6,10.1c0.1,13.6,0,27.2,0,40.7C271.1,111.4,271.1,111.8,271.1,112.3z"/>
	<path class="st0" d="M458.6,112.3c-6.4,0-12.7,0-19,0c0-0.4,0-0.8,0-1.2c0-13.9,0-27.8,0-41.8c0-3.2-0.3-6.3-1-9.4
		c-1.6-6.4-5.7-10.1-12.1-11.4c-4.6-0.9-9.3-0.9-13.9-0.6c-3.2,0.2-6.4,0.6-9.3,2c-1.5,0.7-2.9,1.7-4.4,2.6c0,0-0.1-0.2-0.1-0.4
		c0-6.8,0-13.5,0-20.3c0-0.6,0.2-0.8,0.7-1c4.3-1.4,8.7-2.1,13.2-2.1c4.3,0,8.7-0.1,13,0.4c11.4,1.3,21,5.9,27.2,16.1
		c2.8,4.6,4.4,9.6,5,14.9c0.4,3.4,0.6,6.8,0.6,10.1c0.1,13.6,0,27.2,0,40.7C458.6,111.5,458.6,111.8,458.6,112.3z"/>
	<path class="st0" d="M206.7,28.7c0,27.9,0,55.7,0,83.5c-6.3,0-12.6,0-19,0c0-0.3,0-0.7,0-1c0-24,0-48.1,0-72.1
		c0-0.7,0.2-1.1,0.7-1.6c2.8-2.7,5.5-5.5,8.2-8.2c0.4-0.3,1-0.6,1.5-0.6C200.9,28.7,203.8,28.7,206.7,28.7z"/>
	<path class="st0" d="M375.2,112.2c0-0.4,0-0.8,0-1.1c0-24,0-47.9,0-71.9c0-0.8,0.2-1.3,0.8-1.8c2.7-2.7,5.4-5.4,8.2-8.1
		c0.3-0.3,0.9-0.6,1.4-0.6c2.9-0.1,5.8,0,8.7,0c0,27.9,0,55.6,0,83.5C387.9,112.2,381.6,112.2,375.2,112.2z"/>
</g>
</svg>
