<?xml version="1.0" encoding="utf-8"?>
<!-- Generator: Adobe Illustrator 21.0.2, SVG Export Plug-In . SVG Version: 6.00 Build 0)  -->
<svg version="1.1" id="레이어_1" xmlns="http://www.w3.org/2000/svg" xmlns:xlink="http://www.w3.org/1999/xlink" x="0px"
	 y="0px" viewBox="0 0 1108 776" style="enable-background:new 0 0 1108 776;" xml:space="preserve">
<style type="text/css">
	.st0{fill:#003A5D;}
	.st1{fill:#D85C72;}
	.st2{fill:#D1D3D3;}
	.st3{fill:#A0D9B3;}
</style>
<g>
	<g>
		<path class="st0" d="M1097.4,660.5c-5.9,22.9-14.8,44.6-28.4,64.1c-20.9,30-49.3,46.3-86.2,47c-28.5,0.6-56.1-5.5-83.6-11.8
			c-18.2-4.2-36.3-9.1-54.3-14.1c-26-7.2-51.9-14.7-77.9-22.1c-26.1-7.4-52.2-14.9-78.3-22.2c-17.6-4.9-35.2-9.5-52.8-14.3
			c-16.7-4.6-33.3-9.1-49.9-13.9c-25.2-7.3-50.5-14.5-75.5-22.5c-28-9-55.3-19.6-81.9-32c-39.3-18.3-76.2-40.7-109.5-68.6
			c-50.6-42.2-90-92.9-116.3-153.4c-11.4-26.2-20-53.1-22.9-81.6c-1-9.4-1.5-18.8,2-27.8c2.4-6.2,6.8-8.5,13.1-6.4
			c5.6,2,11.1,4.4,16.3,7.3c18.9,10.6,37.4,22,56.5,32.1c20.8,10.9,43.1,17.5,66.3,20.8c41.4,5.8,80.6-2,117-22
			c22.5-12.4,43.8-27.1,65.9-40.4c16.7-10,33.3-20.2,50.5-29.2c25.9-13.5,53.2-23.9,81.6-31.2c25.3-6.5,51-10.5,77.1-11.5
			c27.2-1,54.2,1.1,81,6.2c42.2,8.1,81.5,23.6,118.1,46c26.8,16.4,51,36.1,72.8,58.8c37.4,39.1,65.4,84.1,84.3,134.7
			c15.3,40.8,23.6,83.1,24.4,138.9C1106.9,606.7,1104.3,633.9,1097.4,660.5z"/>
		<path class="st1" d="M108.9,31.3c9.6,3.9,16.6,11.1,22.9,19c11.5,14.3,20.3,30.2,27.8,46.9c9.2,20.7,17.7,41.5,22.3,63.8
			c4.4,21.3,7.7,42.8,8.5,64.5c0.3,7.1,0.1,14.1-2.1,20.9c-2.6,7.8-8.8,11.5-17,10.1c-8.8-1.5-16.5-5.6-24-10.1
			c-13.6-8.1-26.2-17.8-38.5-27.7c-16.5-13.2-32.8-26.6-47.3-41.9c-10.1-10.7-20.7-21-30.6-31.9c-8-8.8-15.6-18-21.8-28.2
			c-3.3-5.3-6.2-10.8-7.5-17c-1.5-6.7-0.7-13,4.5-18c4.5-4.3,10.2-6.3,16.2-7.5c13.4-2.8,26.9-1.9,40.3,0.4c2.2,0.4,3.3,0.1,4-2.5
			c2.9-11.5,6.9-22.7,14.3-32.2c4.8-6.1,10.6-10.4,18.9-11C102.8,29.7,105.9,30.2,108.9,31.3z"/>
		<path class="st2" d="M1107,620.6c-2.5,13.8-4.4,27.7-7.6,41.3c-5.4,22.9-14.6,44.3-28.1,63.8c-21.1,30.3-49.7,46.6-87,47.3
			c-28.2,0.5-55.6-5.2-82.8-11.6c-27.1-6.3-53.8-13.8-80.6-21.2c-30.5-8.5-60.7-17.6-91.1-26.1c-32.3-9.1-64.6-17.8-96.9-26.7
			c-19.3-5.3-38.6-10.3-57.8-15.8c-21.4-6.1-43-11.9-64.1-19.2c-24.7-8.5-49.2-18-73.4-28c-25.1-10.4-48.7-23.6-71.6-38.2
			c-25.1-16-48.4-34.2-69.9-54.7c-27.1-25.9-50.6-54.8-69.9-86.9c-4.1-6.7-7.8-13.6-11.7-20.4c1.2,0,1.8,0.4,2.3,0.9
			c20,19.8,42.6,36.4,66.5,51.2c46.9,28.9,97.2,50.4,149.2,68.1c64.9,22.2,131.5,38,199.1,49.8c43.5,7.6,87.4,13.6,131.4,17.8
			c26.6,2.6,53.2,4.6,79.9,6c32.1,1.7,64.2,2.9,96.3,3.4c50.9,0.8,101.8-0.7,152.6-4.2c4.9-0.4,9.9-0.6,15.1-0.9
			C1106.8,617.9,1106.9,619.2,1107,620.6z"/>
		<g>
			<path class="st3" d="M983,510.2c6-3.7,12.8-5.9,19.9-6.7c0.4,0,0.7-0.2,1.1-0.3c3.2,0,6.3,0,9.5,0c2.3,0.5,4.6,0.8,6.8,1.4
				c18.2,4.9,30.2,16.4,36.1,34.2c0.1,0.2,0.1,0.4,0.1,0.8c-3.2,0.2-6.4,0.3-9.5,0.4c-29.1,0.9-57.9,4.9-86,12.8
				c-0.5,0.2-1.1,0.5-1.6,0.7c-0.3,0-0.5,0-0.7,0C959,534.8,967.1,520.3,983,510.2z"/>
		</g>
	</g>
</g>
</svg>
