<?xml version="1.0" encoding="utf-8"?>
<!-- Generator: Adobe Illustrator 21.0.2, SVG Export Plug-In . SVG Version: 6.00 Build 0)  -->
<svg version="1.1" xmlns="http://www.w3.org/2000/svg" xmlns:xlink="http://www.w3.org/1999/xlink" x="0px" y="0px"
	 viewBox="0 0 555 486" style="enable-background:new 0 0 555 486;" xml:space="preserve">
<style type="text/css">
	.st0{fill:#FFFFFF;}
</style>
<g id="레이어_2">
</g>
<g id="레이어_1">
	<g>
		<g>
			<g>
				<path class="st0" d="M534.1,223.7c-0.8,0.4-1.6,0.8-2.5,1.1c-0.3,0.2-0.7,0.3-1,0.5c0,0,0,0-0.1,0c-2,0.9-2.9,3.3-2,5.3
					c0.7,1.5,2.1,2.3,3.6,2.3c0.6,0,1.1-0.1,1.7-0.4l1.1-0.5c0.2-0.1,0.5-0.2,0.7-0.3c0.1-1.4,0.1-2.9,0.2-4.3L534.1,223.7
					L534.1,223.7z M514,233.3c-0.5,0-1,0.1-1.5,0.3c-0.2,0.1-0.4,0.2-0.6,0.2c0,0,0,0,0,0c0,0-0.1,0-0.1,0.1c0,0-0.1,0-0.1,0.1
					c0,0,0,0,0,0c0,0-0.1,0-0.1,0.1c0,0,0,0,0,0c-0.1,0-0.1,0-0.2,0.1c0,0,0,0,0,0c-1,0.4-1.9,0.8-2.9,1.2c0,0,0,0,0,0
					c0,0-0.1,0-0.1,0.1c0,0,0,0-0.1,0c0,0-0.1,0-0.1,0c0,0-0.1,0-0.1,0c0,0,0,0-0.1,0c0,0-0.1,0-0.1,0c-2,0.8-3,3.2-2.2,5.2
					c0.6,1.6,2.1,2.5,3.7,2.5c0.5,0,1-0.1,1.5-0.3c1.6-0.6,3.1-1.3,4.7-1.9c2-0.8,3-3.2,2.2-5.2C517,234.2,515.6,233.3,514,233.3
					L514,233.3z M490.5,242.4c-0.4,0-0.9,0.1-1.3,0.2c-0.3,0.1-0.5,0.2-0.8,0.3l0,0c-0.1,0-0.1,0-0.2,0.1c0,0,0,0,0,0
					c0,0-0.1,0-0.1,0c0,0,0,0-0.1,0c0,0-0.1,0-0.1,0c-0.1,0-0.2,0.1-0.4,0.1c0,0,0,0,0,0c0,0-0.1,0-0.1,0c0,0,0,0,0,0
					c-0.9,0.3-1.8,0.6-2.8,1c0,0,0,0-0.1,0c0,0-0.1,0-0.1,0c0,0,0,0-0.1,0c-2.1,0.7-3.2,3-2.5,5.1c0.6,1.7,2.1,2.7,3.8,2.7
					c0.4,0,0.9-0.1,1.3-0.2c1.6-0.6,3.2-1.1,4.8-1.7c2.1-0.7,3.2-3,2.4-5.1C493.7,243.4,492.1,242.4,490.5,242.4L490.5,242.4z
					 M466.5,250.2c-0.4,0-0.8,0.1-1.2,0.2c0,0,0,0,0,0c0,0,0,0,0,0c0,0-0.1,0-0.1,0c0,0,0,0,0,0c0,0-0.1,0-0.1,0c0,0-0.1,0-0.1,0
					c0,0,0,0-0.1,0c0,0-0.1,0-0.1,0c0,0,0,0,0,0c-1,0.3-2,0.6-3.1,0.9c-0.4,0.1-0.7,0.2-1.1,0.3c-2.1,0.6-3.3,2.8-2.7,5
					c0.5,1.7,2.1,2.9,3.8,2.9c0.4,0,0.8-0.1,1.1-0.2c1.6-0.5,3.2-1,4.9-1.4c2.1-0.6,3.3-2.9,2.7-5
					C469.9,251.4,468.3,250.2,466.5,250.2L466.5,250.2z M442.3,257c-0.3,0-0.7,0-1,0.1c-1.2,0.3-2.3,0.6-3.5,0.9c0,0,0,0,0,0
					c0,0-0.1,0-0.1,0c0,0,0,0,0,0c0,0-0.1,0-0.1,0c0,0-0.1,0-0.1,0c0,0,0,0,0,0c0,0-0.1,0-0.1,0c0,0,0,0,0,0
					c-0.3,0.1-0.6,0.2-0.9,0.2c-2.1,0.5-3.4,2.7-2.9,4.8c0.5,1.8,2.1,3,3.9,3c0.3,0,0.6,0,1-0.1c1.6-0.4,3.3-0.8,4.9-1.2
					c2.1-0.6,3.4-2.7,2.9-4.9C445.7,258.2,444.1,257,442.3,257L442.3,257z M417.8,262.8c-0.3,0-0.6,0-0.8,0.1c-0.1,0-0.2,0-0.3,0.1
					c0,0,0,0,0,0c0,0,0,0-0.1,0c0,0-0.1,0-0.1,0c0,0,0,0,0,0c-0.6,0.1-1.1,0.2-1.7,0.4c0,0,0,0,0,0c0,0-0.1,0-0.1,0c0,0,0,0-0.1,0
					c0,0,0,0-0.1,0c0,0,0,0-0.1,0c0,0,0,0,0,0c-0.1,0-0.2,0-0.3,0.1c0,0,0,0,0,0c-0.3,0.1-0.7,0.1-1,0.2c0,0,0,0-0.1,0c0,0,0,0,0,0
					c0,0-0.1,0-0.1,0c0,0,0,0,0,0c-0.3,0.1-0.5,0.1-0.8,0.2c-2.2,0.5-3.5,2.6-3.1,4.7c0.4,1.9,2.1,3.2,3.9,3.2c0.3,0,0.5,0,0.8-0.1
					c1.7-0.3,3.3-0.7,4.9-1c2.2-0.5,3.5-2.6,3.1-4.8C421.3,264.1,419.7,262.8,417.8,262.8L417.8,262.8z M393.2,267.6
					c-0.2,0-0.5,0-0.7,0.1c-0.4,0.1-0.8,0.1-1.2,0.2c0,0-0.1,0-0.1,0c0,0,0,0,0,0c-1,0.2-2,0.3-3,0.5c0,0-0.1,0-0.1,0c0,0,0,0,0,0
					c-0.2,0-0.3,0.1-0.5,0.1c-2.2,0.4-3.6,2.4-3.3,4.6c0.3,2,2,3.3,3.9,3.3c0.2,0,0.4,0,0.7-0.1c1.7-0.3,3.3-0.6,5-0.9
					c2.2-0.4,3.6-2.5,3.2-4.6C396.7,269,395.1,267.6,393.2,267.6L393.2,267.6z M368.3,271.5c-0.2,0-0.4,0-0.6,0
					c-1.7,0.2-3.3,0.5-5,0.7c-2.2,0.3-3.7,2.3-3.4,4.5c0.3,2,2,3.5,4,3.5c0.2,0,0.4,0,0.5,0c1.7-0.2,3.3-0.4,5-0.7
					c2.2-0.3,3.7-2.3,3.4-4.5C372,273,370.3,271.5,368.3,271.5L368.3,271.5z M343.4,274.6c-0.1,0-0.3,0-0.4,0
					c-0.8,0.1-1.5,0.2-2.3,0.2l0,0c-0.1,0-0.1,0-0.2,0c0,0,0,0,0,0c-0.8,0.1-1.7,0.2-2.5,0.3c-2.2,0.2-3.8,2.2-3.6,4.4
					c0.2,2.1,1.9,3.6,4,3.6c0.1,0,0.3,0,0.4,0c0.9-0.1,1.8-0.2,2.7-0.3l2.3-0.2c2.2-0.2,3.8-2.2,3.5-4.4
					C347.1,276.1,345.4,274.6,343.4,274.6L343.4,274.6z M318.4,276.8c-0.1,0-0.2,0-0.3,0c-0.1,0-0.3,0-0.4,0c0,0,0,0-0.1,0
					c0,0,0,0,0,0c-0.2,0-0.5,0-0.7,0.1c0,0,0,0,0,0c0,0,0,0-0.1,0c0,0,0,0,0,0c0,0,0,0-0.1,0c0,0,0,0,0,0c0,0-0.1,0-0.1,0l0,0l0,0
					c0,0-0.1,0-0.1,0c0,0,0,0-0.1,0c0,0,0,0-0.1,0c0,0-0.1,0-0.1,0c0,0,0,0,0,0c0,0-0.1,0-0.1,0c0,0,0,0,0,0c0,0-0.1,0-0.1,0
					c0,0,0,0,0,0c-1,0.1-2,0.2-3.1,0.2c-2.2,0.2-3.9,2.1-3.7,4.3c0.2,2.1,1.9,3.7,4,3.7c0.1,0,0.2,0,0.3,0c1.2-0.1,2.5-0.2,3.7-0.3
					c0.4,0,0.9-0.1,1.3-0.1c2.2-0.2,3.8-2.1,3.7-4.3C322.2,278.4,320.4,276.8,318.4,276.8L318.4,276.8z M293.3,278.4
					c-0.1,0-0.1,0-0.2,0c-0.5,0-1.1,0-1.6,0.1c0,0,0,0,0,0c0,0-0.1,0-0.1,0c0,0,0,0-0.1,0c0,0-0.1,0-0.1,0c0,0,0,0-0.1,0
					c0,0,0,0-0.1,0c0,0-0.1,0-0.1,0c0,0,0,0-0.1,0c0,0,0,0-0.1,0c0,0,0,0-0.1,0c0,0-0.1,0-0.1,0c0,0,0,0-0.1,0c0,0-0.1,0-0.1,0
					c0,0,0,0-0.1,0c0,0-0.1,0-0.1,0c0,0,0,0-0.1,0c0,0,0,0-0.1,0c0,0-0.1,0-0.1,0c0,0-0.1,0-0.1,0c0,0,0,0-0.1,0c0,0,0,0-0.1,0
					c-0.1,0-0.1,0-0.2,0c0,0,0,0,0,0c0,0-0.1,0-0.1,0c0,0,0,0,0,0c-0.1,0-0.2,0-0.3,0c0,0,0,0,0,0c-0.4,0-0.8,0-1.2,0
					c-2.2,0.1-3.9,1.9-3.9,4.1c0.1,2.2,1.8,3.9,4,3.9c0,0,0.1,0,0.1,0c1.7,0,3.4-0.1,5.1-0.2c2.2-0.1,3.9-2,3.8-4.2
					C297.2,280.1,295.4,278.4,293.3,278.4L293.3,278.4z M264.8,278.9c-0.5,0-1.1,0-1.6,0c-2.2,0.1-4,1.9-3.9,4.1
					c0.1,2.2,1.8,3.9,4,3.9c0,0,0.1,0,0.1,0c0.3,0,0.6,0,1,0c1.2,0.2,2.4,0.3,3.6,0.3c0,0,0.1,0,0.1,0c2.2,0,3.9-1.7,4-3.9
					c0.1-2.2-1.7-4-3.9-4.1c-0.3,0-0.7,0-1,0c0,0,0,0,0,0c0,0-0.1,0-0.1,0c0,0,0,0,0,0c0,0,0,0,0,0c0,0,0,0,0,0c0,0,0,0,0,0
					c0,0,0,0,0,0c0,0,0,0,0,0c0,0,0,0,0,0c0,0,0,0,0,0c0,0,0,0,0,0c0,0,0,0,0,0c0,0,0,0,0,0c0,0,0,0,0,0c0,0,0,0,0,0c0,0,0,0,0,0
					c0,0,0,0,0,0c0,0,0,0,0,0c0,0,0,0-0.1,0c0,0,0,0,0,0c0,0,0,0,0,0c0,0,0,0,0,0c0,0,0,0,0,0c0,0,0,0,0,0c0,0,0,0,0,0c0,0,0,0,0,0
					c0,0-0.1,0-0.1,0c0,0,0,0,0,0c-0.5,0-1-0.1-1.5-0.2c0,0,0,0,0,0C264.9,278.9,264.9,278.9,264.8,278.9
					C264.9,278.9,264.9,278.9,264.8,278.9C264.9,278.9,264.8,278.9,264.8,278.9C264.8,278.9,264.8,278.9,264.8,278.9
					C264.8,278.9,264.8,278.9,264.8,278.9C264.8,278.9,264.8,278.9,264.8,278.9C264.8,278.9,264.8,278.9,264.8,278.9L264.8,278.9
					L264.8,278.9L264.8,278.9z M241.1,278.6c-0.3,0-0.7,0-1,0c-0.3,0-0.7,0-1,0l0,0c0,0,0,0,0,0c0,0,0,0,0,0c0,0,0,0,0,0
					c0,0,0,0,0,0c0,0,0,0,0,0c0,0,0,0,0,0c0,0,0,0,0,0c0,0,0,0,0,0c0,0,0,0,0,0c0,0,0,0,0,0c0,0,0,0,0,0c0,0,0,0,0,0c0,0,0,0,0,0
					c0,0,0,0,0,0c0,0,0,0,0,0c0,0,0,0,0,0c0,0,0,0,0,0c0,0,0,0-0.1,0c0,0,0,0,0,0c0,0,0,0,0,0c0,0,0,0,0,0c0,0,0,0,0,0c0,0,0,0,0,0
					c0,0,0,0,0,0c0,0,0,0,0,0c0,0,0,0,0,0c-0.1,0-0.1,0-0.2,0c0,0,0,0-0.1,0c-2.2,0-4,1.7-4,3.9c0,2.2,1.7,4,3.9,4.1
					c0.3,0,0.6,0,1,0c0.4,0,0.7,0,1.1,0c0.3,0,0.6,0,1,0c0.7,0,1.2,0,1.6,0l0-0.1l0,0l0,0.1l0-0.1c1.7-0.1,3.3-1.4,3.7-3.2
					c0.4-2.2-0.9-4.3-3.1-4.7c0,0,0,0,0,0l-0.1,0.3l0-0.3l0,0l0,0l0,0l0,0l0,0l0,0l0,0l0,0C242.4,278.7,241.7,278.6,241.1,278.6
					L241.1,278.6z M243.1,278.7l0,0.3l0,0L243.1,278.7L243.1,278.7z M212.6,277.6c-1.9,0-3.6,1.4-3.9,3.3c-0.4,2.2,1.1,4.2,3.3,4.6
					c0.6,0.1,1.5,0.2,2.5,0.2c0.3,0,0.6,0,0.9,0c0.5,0,0.9,0,1.3,0c0.3,0,0.7,0,0.9,0l0,0l0,0l0,0l0,0c0,0,0,0,0,0
					c1.9,0,3.5-1.3,3.9-3.2c0.4-2.2-1-4.3-3.1-4.7c0,0,0,0-0.1,0c0,0,0,0,0,0c0,0-0.1,0-0.1,0c0,0,0,0,0,0c0,0,0,0,0,0l0,0l0,0l0,0
					l0,0l0,0l0,0l0,0l0,0l0,0l0,0l0,0l0,0c0,0,0,0,0,0c0,0,0,0,0,0c0,0,0,0,0,0c0,0,0,0,0,0c0,0,0,0,0,0c0,0,0,0,0,0c0,0,0,0,0,0
					c0,0,0,0,0,0c0,0,0,0,0,0c0,0,0,0,0,0c0,0,0,0,0,0c-0.4,0-0.8,0-1.2,0c-0.2,0-0.3,0-0.5,0c0,0,0,0,0,0c0,0,0,0,0,0c0,0,0,0,0,0
					c0,0,0,0,0,0c0,0,0,0,0,0c0,0,0,0,0,0c0,0,0,0,0,0c0,0,0,0,0,0c-0.3,0-0.6,0-0.9,0c0,0,0,0,0,0c0,0,0,0,0,0c0,0,0,0,0,0
					c0,0,0,0,0,0c0,0,0,0,0,0c0,0,0,0,0,0c0,0,0,0,0,0c0,0,0,0,0,0c0,0,0,0,0,0c0,0,0,0,0,0c0,0,0,0,0,0c0,0,0,0,0,0
					c-0.2,0-0.5,0.1-0.7,0.1c0,0,0,0,0,0c0,0,0,0,0,0c0,0,0,0,0,0c0,0,0,0,0,0c0,0,0,0,0,0c0,0,0,0,0,0c0,0,0,0,0,0c0,0,0,0,0,0
					c0,0,0,0,0,0c0,0,0,0,0,0c0,0,0,0,0,0c0,0,0,0,0,0c0,0,0,0,0,0c0,0,0,0,0,0c0,0,0,0,0,0c0,0,0,0,0,0c0,0,0,0,0,0c0,0,0,0,0,0
					c0,0,0,0,0,0c0,0,0,0,0,0c0,0,0,0,0,0c0,0,0,0,0,0c0,0,0,0,0,0c0,0,0,0,0,0c0,0,0,0,0,0c0,0,0,0,0,0c0,0,0,0,0,0c0,0,0,0,0,0
					c0,0,0,0,0,0c0,0,0,0,0,0c0,0,0,0,0,0c-0.3,0-0.6-0.1-0.8-0.1C213.1,277.6,212.9,277.6,212.6,277.6L212.6,277.6z M187.7,275.7
					c-1.9,0-3.5,1.3-3.9,3.2c-0.4,2.2,0.9,4.3,3.1,4.7c0.8,0.2,1.7,0.3,2.8,0.3c0.1,0,0.3,0,0.4,0c0.1,0,0.3,0,0.4,0
					c0.1,0,0.1,0,0.2,0c0.6,0.1,1.5,0.3,2.5,0.3c0.2,0,0.4,0,0.6,0c2.2-0.1,3.9-2,3.8-4.2c-0.1-2.1-1.9-3.8-4-3.8
					c-0.1,0-0.2,0-0.2,0c0,0,0,0,0,0c0,0,0,0,0,0c0,0,0,0,0,0c0,0-0.1,0-0.1,0c0,0,0,0,0,0c0,0,0,0,0,0c0,0,0,0,0,0c0,0,0,0,0,0
					c0,0,0,0,0,0c0,0,0,0,0,0c0,0,0,0,0,0l0,0l0,0c0,0,0,0,0,0c0,0,0,0,0,0c0,0,0,0,0,0c0,0,0,0,0,0c0,0,0,0,0,0c0,0,0,0,0,0
					c0,0,0,0,0,0c0,0,0,0,0,0c0,0,0,0,0,0c0,0,0,0,0,0c0,0,0,0,0,0c0,0,0,0,0,0c0,0,0,0,0,0c0,0,0,0,0,0c0,0,0,0,0,0c0,0,0,0,0,0
					c0,0,0,0,0,0c0,0,0,0,0,0c0,0,0,0,0,0c0,0,0,0,0,0c0,0,0,0,0,0c0,0,0,0,0,0c0,0,0,0,0,0c0,0,0,0,0,0c0,0,0,0,0,0c0,0,0,0,0,0
					c0,0,0,0,0,0c0,0,0,0,0,0c0,0,0,0,0,0c0,0,0,0,0,0c0,0,0,0,0,0c0,0,0,0,0,0c0,0,0,0,0,0c0,0,0,0,0,0c0,0,0,0,0,0c0,0,0,0,0,0
					c0,0,0,0,0,0c0,0,0,0,0,0c0,0,0,0,0,0c0,0,0,0,0,0c0,0,0,0,0,0c0,0,0,0,0,0c0,0,0,0,0,0c0,0,0,0,0,0c0,0,0,0,0,0c0,0,0,0,0,0
					c0,0,0,0,0,0c0,0,0,0,0,0c0,0,0,0,0,0c0,0,0,0,0,0c0,0,0,0,0,0c0,0,0,0,0,0c0,0,0,0,0,0c-0.4,0-0.7-0.1-1-0.2c0,0,0,0-0.1,0
					c0,0,0,0,0,0c0,0,0,0,0,0l0,0l0,0l0,0l0,0l0,0l0,0l0,0l0,0l0,0l0,0l0,0l0,0c-0.2,0-0.3,0-0.5,0c-0.1,0-0.2,0-0.3,0
					c-0.3,0-0.6,0-1-0.1l0,0l0,0c-0.1,0-0.2,0-0.4,0l0,0c0,0,0,0,0,0c0,0,0,0,0,0c0,0,0,0,0,0c0,0,0,0,0,0c0,0,0,0,0,0c0,0,0,0,0,0
					c0,0,0,0,0,0c0,0,0,0,0,0c0,0,0,0,0,0c0,0,0,0,0,0c0,0,0,0,0,0c0,0,0,0,0,0c0,0,0,0,0,0c0,0,0,0,0,0c0,0,0,0,0,0c0,0,0,0,0,0
					c0,0,0,0,0,0c0,0,0,0,0,0c0,0,0,0,0,0c0,0,0,0,0,0c0,0,0,0,0,0c0,0,0,0,0,0c0,0,0,0,0,0c0,0,0,0,0,0c0,0,0,0,0,0c0,0,0,0,0,0
					c0,0,0,0,0,0c0,0,0,0,0,0c0,0,0,0,0,0c0,0,0,0,0,0c0,0,0,0,0,0c0,0,0,0,0,0c0,0,0,0,0,0c0,0,0,0,0,0c0,0,0,0,0,0c0,0,0,0,0,0
					c0,0,0,0,0,0c0,0,0,0,0,0c0,0,0,0,0,0c0,0,0,0,0,0c0,0,0,0,0,0c-0.3,0-0.6-0.1-0.8-0.1c0,0,0,0,0,0c0,0,0,0,0,0c0,0,0,0,0,0
					c0,0,0,0,0,0c0,0,0,0-0.1,0C188.2,275.7,187.9,275.7,187.7,275.7L187.7,275.7z M163.1,273.1c-2,0-3.7,1.5-4,3.5
					c-0.3,2.2,1.3,4.2,3.5,4.5c1.7,0.2,3.4,0.4,5,0.6c0.2,0,0.3,0,0.5,0c2,0,3.7-1.5,4-3.5c0.3-2.2-1.3-4.2-3.5-4.4
					c-1.7-0.2-3.3-0.4-5-0.6C163.5,273.1,163.3,273.1,163.1,273.1L163.1,273.1z M138.3,269.6c-1.9,0-3.6,1.4-3.9,3.4
					c-0.3,2.2,1.2,4.2,3.3,4.6c1.5,0.2,3.1,0.5,4.7,0.8c0.2,0,0.5,0.1,0.7,0.1c1.9,0,3.6-1.4,3.9-3.3c0.4-2.2-1.1-4.3-3.2-4.6
					c0,0,0,0,0,0c0,0,0,0-0.1,0c0,0,0,0,0,0c0,0,0,0-0.1,0c0,0,0,0,0,0c0,0,0,0-0.1,0c0,0,0,0,0,0c0,0,0,0-0.1,0c0,0,0,0,0,0
					c0,0,0,0-0.1,0c0,0,0,0,0,0c0,0,0,0-0.1,0c0,0,0,0,0,0c0,0,0,0-0.1,0c0,0,0,0,0,0c0,0,0,0-0.1,0c0,0,0,0,0,0c0,0,0,0-0.1,0
					c0,0,0,0,0,0c0,0,0,0-0.1,0c0,0,0,0,0,0c0,0,0,0-0.1,0c0,0,0,0,0,0c0,0,0,0,0,0c0,0,0,0,0,0c0,0,0,0-0.1,0c0,0,0,0,0,0
					c0,0,0,0,0,0c0,0,0,0,0,0c0,0,0,0-0.1,0c0,0,0,0,0,0c0,0,0,0,0,0c0,0-0.1,0-0.1,0c0,0,0,0,0,0c0,0-0.1,0-0.1,0c0,0,0,0,0,0
					c-0.7-0.1-1.4-0.2-2.2-0.3c0,0,0,0,0,0c0,0,0,0,0,0c0,0,0,0,0,0c0,0,0,0-0.1,0c0,0,0,0,0,0c0,0,0,0,0,0
					c-0.4-0.1-0.7-0.1-1.1-0.2C138.7,269.6,138.5,269.6,138.3,269.6L138.3,269.6z M113.5,265.2c-1.9,0-3.5,1.3-3.9,3.2
					c-0.4,2.2,1,4.3,3.2,4.7c1.7,0.3,3.3,0.6,5,1c0.2,0,0.5,0.1,0.7,0.1c1.9,0,3.6-1.3,3.9-3.3c0.4-2.2-1-4.3-3.2-4.7
					c-0.1,0-0.1,0-0.2,0c0,0,0,0,0,0c0,0-0.1,0-0.1,0c0,0,0,0-0.1,0c0,0-0.1,0-0.1,0c0,0-0.1,0-0.1,0c0,0,0,0,0,0
					c-1.4-0.3-2.9-0.5-4.3-0.8C114,265.3,113.7,265.2,113.5,265.2L113.5,265.2z M88.9,259.9c-1.8,0-3.5,1.2-3.9,3.1
					c-0.5,2.1,0.8,4.3,3,4.8c1.6,0.4,3.3,0.8,4.9,1.1c0.3,0.1,0.6,0.1,0.9,0.1c1.8,0,3.5-1.3,3.9-3.1c0.5-2.2-0.9-4.3-3-4.8
					c0,0,0,0-0.1,0c0,0,0,0-0.1,0c0,0-0.1,0-0.1,0c0,0-0.1,0-0.1,0c0,0,0,0,0,0c-0.8-0.2-1.5-0.3-2.3-0.5c0,0,0,0,0,0
					c0,0-0.1,0-0.1,0c0,0,0,0,0,0c0,0-0.1,0-0.1,0c0,0,0,0,0,0c0,0-0.1,0-0.1,0c0,0,0,0-0.1,0c0,0-0.1,0-0.1,0c0,0-0.1,0-0.1,0
					c0,0,0,0-0.1,0c-0.1,0-0.2-0.1-0.3-0.1c0,0,0,0,0,0c0,0-0.1,0-0.1,0c0,0,0,0,0,0c0,0-0.1,0-0.1,0c0,0,0,0,0,0c0,0-0.1,0-0.1,0
					c0,0,0,0,0,0c0,0-0.1,0-0.1,0c0,0,0,0,0,0c0,0-0.1,0-0.1,0c0,0,0,0,0,0c0,0-0.1,0-0.1,0c0,0,0,0,0,0c-0.1,0-0.1,0-0.2,0l0,0l0,0
					C89.5,260,89.2,259.9,88.9,259.9L88.9,259.9z M64.5,253.6c-1.7,0-3.4,1.2-3.8,2.9c-0.6,2.1,0.6,4.3,2.8,4.9
					c1.6,0.5,3.3,0.9,4.9,1.3c0.3,0.1,0.7,0.1,1,0.1c1.8,0,3.4-1.2,3.9-3c0.6-2.1-0.7-4.3-2.8-4.9c-0.8-0.2-1.7-0.5-2.5-0.7
					c0,0,0,0,0,0c0,0-0.1,0-0.1,0c0,0,0,0,0,0c0,0-0.1,0-0.1,0c0,0,0,0,0,0c0,0-0.1,0-0.1,0c0,0,0,0,0,0c0,0-0.1,0-0.1,0
					c0,0,0,0,0,0c-0.6-0.2-1.2-0.3-1.7-0.5C65.3,253.7,64.9,253.6,64.5,253.6L64.5,253.6z M40.5,246.3c-1.7,0-3.2,1.1-3.8,2.7
					c-0.7,2.1,0.4,4.4,2.5,5.1c1.6,0.5,3.2,1.1,4.8,1.6c0.4,0.1,0.8,0.2,1.2,0.2c1.7,0,3.3-1.1,3.8-2.8c0.7-2.1-0.5-4.4-2.6-5
					c-0.3-0.1-0.6-0.2-1-0.3c0,0,0,0-0.1,0c0,0,0,0-0.1,0c0,0-0.1,0-0.1,0c0,0,0,0,0,0c0,0-0.1,0-0.1,0c0,0,0,0,0,0c0,0-0.1,0-0.1,0
					c0,0,0,0,0,0c0,0-0.1,0-0.1,0c0,0,0,0,0,0c0,0-0.1,0-0.1,0c0,0,0,0,0,0c0,0-0.1,0-0.1,0c0,0,0,0,0,0c0,0-0.1,0-0.1,0
					c0,0,0,0,0,0c-0.1,0-0.2-0.1-0.3-0.1c0,0,0,0,0,0c0,0-0.1,0-0.1,0c0,0,0,0,0,0c0,0-0.1,0-0.1,0c0,0,0,0,0,0c0,0-0.1,0-0.1,0
					c0,0,0,0-0.1,0c0,0-0.1,0-0.1,0c0,0,0,0-0.1,0c0,0-0.1,0-0.1,0c0,0,0,0-0.1,0c0,0-0.1,0-0.1,0c0,0,0,0-0.1,0c0,0-0.1,0-0.1,0
					c0,0,0,0-0.1,0c0,0-0.1,0-0.1,0c0,0,0,0,0,0c-0.4-0.1-0.8-0.3-1.2-0.4C41.3,246.4,40.9,246.3,40.5,246.3L40.5,246.3z
					 M16.7,237.8c-1.6,0-3.1,1-3.7,2.5c-0.2,0.6-0.3,1.3-0.3,1.9c-1.5,0.7-2.5,2.4-2.2,4.2c0.1,0.4,0.1,0.7,0.2,1.1c0,0,0,0,0,0
					c0,0,0,0,0,0.1c0,0,0,0,0,0c0,0,0,0,0,0c0,0,0,0,0,0c0,0,0,0,0,0c0,0,0,0,0,0.1c0,0,0,0,0,0c0,0,0,0.1,0,0.1c0,0,0,0,0,0
					c0.2,1.2,0.4,2.3,0.6,3.5c0.3,1.9,2,3.3,3.9,3.3c0.2,0,0.5,0,0.7-0.1c2.2-0.4,3.6-2.5,3.2-4.6c-0.2-1-0.4-2.1-0.5-3.1
					c0.5,0.2,0.9,0.3,1.4,0.5c0.5,0.2,0.9,0.3,1.4,0.3c1.6,0,3.1-1,3.7-2.6c0.8-2.1-0.3-4.4-2.3-5.1c0,0,0,0,0,0c0,0,0,0,0,0
					c-0.6-0.2-1.1-0.4-1.7-0.6c0,0,0,0,0,0c0,0-0.1,0-0.1,0c-0.1,0-0.2-0.1-0.3-0.1l0,0c-0.8-0.3-1.7-0.6-2.5-1
					C17.7,237.9,17.2,237.8,16.7,237.8L16.7,237.8z M19.5,265.9c-0.3,0-0.7,0-1,0.1c-2.1,0.5-3.4,2.7-2.9,4.9
					c0.4,1.6,0.9,3.2,1.3,4.9c0.5,1.8,2.1,2.9,3.8,2.9c0.4,0,0.7,0,1.1-0.1c2.1-0.6,3.4-2.8,2.8-4.9c-0.4-1.5-0.8-3.1-1.3-4.7
					C22.9,267.1,21.2,265.9,19.5,265.9L19.5,265.9z M26.7,289.4c-0.4,0-0.9,0.1-1.4,0.2c-2.1,0.7-3.2,3-2.4,5.1
					c0.1,0.2,0.2,0.5,0.3,0.7c0,0,0,0,0,0c0,0,0,0.1,0,0.1c0,0,0,0,0,0c0,0,0,0,0,0.1c0,0,0,0,0,0.1c0,0,0,0,0,0c0,0,0,0.1,0,0.1
					c0,0,0,0,0,0c0,0,0,0.1,0,0.1c0,0,0,0,0,0c0.2,0.7,0.5,1.4,0.8,2l0,0c0,0,0,0.1,0,0.1c0,0,0,0,0,0c0,0,0,0.1,0,0.1
					c0,0,0,0.1,0,0.1l0,0c0,0,0,0.1,0,0.1c0.1,0.2,0.1,0.3,0.2,0.5c0,0,0,0,0,0.1c0,0,0,0,0,0c0,0,0,0.1,0,0.1c0,0,0,0,0,0
					c0,0,0,0.1,0,0.1c0,0.1,0,0.1,0.1,0.2c0.6,1.6,2.1,2.6,3.7,2.6c0.5,0,1-0.1,1.4-0.3c2.1-0.8,3.1-3.1,2.3-5.2l-0.4-1
					c-0.4-1.2-0.9-2.3-1.3-3.5C29.9,290.5,28.3,289.4,26.7,289.4L26.7,289.4z M36.1,312.2c-0.6,0-1.1,0.1-1.7,0.4
					c-2,0.9-2.9,3.3-1.9,5.3c0.1,0.3,0.3,0.6,0.4,0.9c0,0,0,0,0,0c0,0,0,0.1,0,0.1c0,0,0,0,0,0.1c0,0,0,0,0,0c0,0,0,0.1,0.1,0.1
					c0,0,0,0,0,0c0,0,0,0.1,0.1,0.1c0,0,0,0,0,0c0,0,0,0.1,0.1,0.1c0,0,0,0,0,0c0,0,0,0.1,0.1,0.1c0,0,0,0,0,0
					c0,0.1,0.1,0.2,0.1,0.3c0,0,0,0,0,0c0,0,0,0.1,0.1,0.1c0,0,0,0,0,0c0,0,0,0.1,0.1,0.1l0,0c0,0,0,0.1,0.1,0.1c0,0,0,0,0,0
					c0,0,0,0.1,0.1,0.1c0,0,0,0,0,0c0,0,0,0.1,0.1,0.1c0,0,0,0,0,0c0,0,0,0.1,0,0.1c0,0,0,0,0,0.1c0,0,0,0.1,0,0.1c0,0,0,0,0,0.1
					c0,0,0,0,0,0c0,0,0,0.1,0.1,0.1c0,0,0,0,0,0c0.2,0.4,0.4,0.9,0.7,1.3c0.7,1.4,2.1,2.2,3.6,2.2c0.6,0,1.2-0.1,1.8-0.4
					c2-1,2.8-3.4,1.8-5.4c-0.7-1.4-1.4-2.9-2.1-4.4C39,313,37.6,312.2,36.1,312.2L36.1,312.2z M47.6,334c-0.7,0-1.4,0.2-2,0.6
					c-1.9,1.1-2.5,3.6-1.4,5.5c0.3,0.5,0.6,1,0.9,1.4l0,0c0.2,0.4,0.5,0.8,0.7,1.2c0,0,0,0,0,0c0,0,0,0.1,0.1,0.1c0,0,0,0,0,0
					c0,0,0,0.1,0,0.1c0,0,0,0,0,0c0,0,0,0.1,0.1,0.1c0,0,0,0,0,0.1c0,0,0,0,0,0c0,0,0,0,0,0.1c0,0,0,0,0,0c0.2,0.3,0.3,0.5,0.5,0.8
					c0,0,0,0,0,0c0,0,0,0,0,0c0,0,0,0,0,0.1c0,0,0,0,0,0c0,0.1,0.1,0.2,0.1,0.2c0.8,1.2,2.1,1.9,3.4,1.9c0.7,0,1.4-0.2,2.1-0.6
					c1.9-1.2,2.5-3.6,1.3-5.5c-0.6-0.9-1.1-1.8-1.7-2.8c-0.3-0.5-0.6-0.9-0.8-1.4C50.3,334.7,48.9,334,47.6,334L47.6,334z
					 M61.1,354.5c-0.8,0-1.6,0.2-2.4,0.8c-1.8,1.3-2.2,3.8-0.9,5.6c0.8,1,1.5,2.1,2.3,3.1c0,0,0,0,0,0c0,0,0,0.1,0.1,0.1
					c0,0,0,0,0,0c0,0,0,0,0,0.1c0,0,0,0,0,0.1c0,0,0,0,0,0c0,0,0,0,0,0.1c0,0,0,0,0,0c0.1,0.2,0.3,0.4,0.4,0.6c0.8,1,2,1.6,3.2,1.6
					c0.8,0,1.7-0.3,2.4-0.8c1.8-1.3,2.1-3.9,0.8-5.6c-1-1.3-1.9-2.6-2.9-3.9C63.5,355.1,62.3,354.5,61.1,354.5L61.1,354.5z
					 M76.5,373.7c-0.9,0-1.9,0.3-2.6,1c-1.7,1.5-1.8,4-0.4,5.6c0,0,0.1,0.1,0.1,0.1c0,0,0,0,0,0c0,0,0.1,0.1,0.1,0.1c0,0,0,0,0,0
					c0,0,0.1,0.1,0.1,0.1c0,0,0,0,0,0c0,0,0,0.1,0.1,0.1c0,0,0,0,0,0c0,0,0,0,0.1,0.1c0,0,0,0,0,0c0,0,0,0,0.1,0.1c0,0,0,0,0.1,0.1
					c0,0,0,0,0,0c0.6,0.7,1.2,1.3,1.7,1.9c0,0,0,0,0,0c0,0,0.1,0.1,0.1,0.1c0,0,0,0,0,0c0,0,0,0,0.1,0.1c0,0,0,0,0.1,0.1
					c0,0,0,0,0,0c0,0,0.1,0.1,0.1,0.1c0,0,0,0,0,0c0,0,0.1,0.1,0.1,0.1c0,0,0,0,0,0c0.1,0.2,0.3,0.3,0.4,0.5c0.8,0.9,1.9,1.3,3,1.3
					c1,0,1.9-0.3,2.7-1c1.6-1.5,1.8-4,0.3-5.7c-1.1-1.2-2.2-2.4-3.2-3.6C78.7,374.2,77.6,373.7,76.5,373.7L76.5,373.7z M93.6,391.4
					c-1.1,0-2.1,0.4-2.9,1.3c-1.5,1.6-1.4,4.1,0.2,5.6c0.2,0.2,0.4,0.4,0.6,0.6c0,0,0,0,0,0c0,0,0.1,0.1,0.1,0.1c0,0,0,0,0,0
					c0,0,0,0,0.1,0.1c0,0,0,0,0,0c0,0,0,0,0.1,0.1c0,0,0,0,0.1,0.1c0,0,0,0,0.1,0c0,0,0,0,0.1,0.1c0,0,0,0,0,0c0,0,0,0,0.1,0.1
					c0,0,0,0,0,0c0,0,0.1,0,0.1,0.1c0,0,0,0,0,0c0,0,0,0,0.1,0.1c0,0,0,0,0,0c0,0,0,0,0.1,0.1c0,0,0,0,0,0c0,0,0,0,0.1,0.1
					c0,0,0,0,0.1,0.1c0,0,0,0,0,0c0.6,0.6,1.3,1.2,1.9,1.8c0.8,0.7,1.7,1,2.7,1c1.1,0,2.2-0.4,3-1.3c1.5-1.6,1.4-4.2-0.3-5.6
					c-1.2-1.1-2.4-2.2-3.6-3.3C95.6,391.7,94.6,391.4,93.6,391.4L93.6,391.4z M112.3,407.4c-1.2,0-2.4,0.5-3.2,1.5
					c-1.4,1.7-1,4.2,0.7,5.6c0.1,0.1,0.2,0.2,0.3,0.2c0,0,0,0,0,0c0.1,0.1,0.2,0.1,0.2,0.2c0,0,0,0,0,0c0,0,0,0,0.1,0c0,0,0,0,0.1,0
					c0,0,0,0,0.1,0c0,0,0.1,0,0.1,0.1c0,0,0,0,0,0c0,0,0.1,0,0.1,0.1c0,0,0,0,0,0c0,0,0.1,0,0.1,0.1c0,0,0,0,0,0
					c0.1,0.1,0.2,0.1,0.2,0.2c0,0,0,0,0,0c0,0,0.1,0.1,0.1,0.1c0,0,0,0,0,0c0.1,0.1,0.2,0.2,0.4,0.3l0,0c0.1,0.1,0.2,0.2,0.4,0.3
					c0,0,0,0,0,0c0.1,0.1,0.2,0.2,0.4,0.3c0,0,0,0,0,0c0,0,0.1,0.1,0.1,0.1c0,0,0,0,0,0c0,0,0.1,0.1,0.1,0.1c0,0,0,0,0,0
					c0,0,0.1,0,0.1,0.1c0,0,0,0,0.1,0c0,0,0,0,0,0c0,0,0,0,0.1,0.1c0,0,0,0,0,0c0.3,0.2,0.6,0.4,0.9,0.6c0.7,0.5,1.5,0.8,2.4,0.8
					c1.2,0,2.4-0.6,3.2-1.6c1.3-1.8,1-4.3-0.8-5.6c-1.3-1-2.6-1.9-3.8-2.9C114.1,407.7,113.2,407.4,112.3,407.4L112.3,407.4z
					 M132.5,421.5c-1.3,0-2.6,0.7-3.4,1.9c-1.2,1.9-0.6,4.3,1.2,5.5c0.3,0.2,0.7,0.4,1,0.6c0,0,0,0,0,0c0,0,0.1,0,0.1,0.1
					c0,0,0,0,0,0c0.2,0.1,0.3,0.2,0.5,0.3c0,0,0,0,0,0c0,0,0.1,0,0.1,0.1c0,0,0,0,0,0c0,0,0.1,0,0.1,0c0,0,0,0,0,0c0,0,0,0,0.1,0
					c0,0,0,0,0.1,0c0,0,0,0,0.1,0c0,0,0,0,0.1,0c0,0,0,0,0.1,0c0.1,0.1,0.2,0.1,0.3,0.2c0,0,0,0,0,0c0,0,0.1,0,0.1,0.1c0,0,0,0,0,0
					c0,0,0.1,0,0.1,0.1c0,0,0,0,0,0c0.5,0.3,1.1,0.7,1.6,1c0.6,0.4,1.4,0.6,2.1,0.6c1.4,0,2.7-0.7,3.4-1.9c1.1-1.9,0.5-4.3-1.3-5.5
					c-1.4-0.8-2.8-1.7-4.1-2.6C134,421.7,133.2,421.5,132.5,421.5L132.5,421.5z M153.9,433.7c-1.5,0-2.9,0.8-3.6,2.2
					c-1,2-0.2,4.4,1.7,5.4c0,0,0,0,0,0c0,0,0.1,0,0.1,0c0,0,0,0,0,0c0,0,0.1,0,0.1,0.1c0,0,0,0,0,0c0,0,0.1,0,0.1,0.1c0,0,0,0,0,0
					c0.9,0.4,1.8,0.9,2.6,1.3c0,0,0,0,0,0c0,0,0.1,0,0.1,0.1c0,0,0,0,0,0c0,0,0.1,0,0.1,0c0,0,0,0,0,0c0,0,0.1,0,0.1,0c0,0,0,0,0,0
					c0,0,0.1,0,0.1,0c0,0,0.1,0,0.1,0.1c0,0,0,0,0,0c0,0,0.1,0,0.1,0c0,0,0,0,0,0c0,0,0.1,0,0.1,0c0,0,0,0,0,0c0,0,0.1,0,0.1,0.1
					c0,0,0,0,0,0c0.1,0.1,0.2,0.1,0.4,0.2c0.6,0.3,1.2,0.4,1.7,0.4c1.5,0,2.9-0.8,3.6-2.3c1-2,0.1-4.4-1.9-5.3
					c-1.4-0.7-2.9-1.4-4.3-2.2C155.1,433.8,154.5,433.7,153.9,433.7L153.9,433.7z M176.3,443.8c-1.6,0-3.1,1-3.7,2.5
					c-0.8,2,0.2,4.4,2.2,5.2c1.6,0.6,3.1,1.2,4.7,1.8c0.5,0.2,0.9,0.3,1.4,0.3c1.6,0,3.1-1,3.7-2.6c0.8-2.1-0.3-4.4-2.3-5.2
					c-1.5-0.6-3-1.2-4.5-1.8C177.3,443.9,176.8,443.8,176.3,443.8L176.3,443.8z M199.6,451.8c-1.7,0-3.3,1.1-3.8,2.9
					c-0.6,2.1,0.6,4.3,2.7,5c1.6,0.5,3.2,0.9,4.8,1.3c0.3,0.1,0.7,0.1,1,0.1c1.8,0,3.4-1.2,3.9-3c0.6-2.1-0.7-4.3-2.8-4.9
					c-1.6-0.4-3.1-0.9-4.7-1.3C200.3,451.9,200,451.8,199.6,451.8L199.6,451.8z M223.5,457.5c-1.9,0-3.6,1.3-3.9,3.3
					c-0.4,2.2,1,4.3,3.2,4.7c0.2,0,0.3,0.1,0.5,0.1c0,0,0.1,0,0.1,0c0,0,0,0,0,0c0,0,0.1,0,0.1,0c0,0,0,0,0.1,0c0,0,0,0,0.1,0
					c0,0,0.1,0,0.1,0c0,0,0,0,0,0c1.3,0.2,2.6,0.5,4,0.7c0.2,0,0.4,0.1,0.7,0.1c1.9,0,3.6-1.4,3.9-3.3c0.4-2.2-1.1-4.2-3.3-4.6
					c-1.4-0.2-2.9-0.5-4.3-0.8l-0.4-0.1C224.1,457.6,223.8,457.5,223.5,457.5L223.5,457.5z M247.9,460.9c-2.1,0-3.8,1.6-4,3.7
					c-0.2,2.2,1.5,4.1,3.7,4.3c0.8,0.1,1.5,0.1,2.3,0.2c0,0,0,0,0,0c0,0,0,0,0.1,0c0,0,0,0,0,0c0,0,0,0,0.1,0c0,0,0,0,0,0
					c0,0,0,0,0,0c0,0,0,0,0,0c0,0,0,0,0,0c0,0,0,0,0.1,0c0,0,0,0,0,0c0.8,0,1.6,0.1,2.3,0.1c0.1,0,0.1,0,0.2,0c2.1,0,3.9-1.7,4-3.8
					c0.1-2.2-1.6-4.1-3.8-4.2c-1.6-0.1-3.2-0.2-4.8-0.3C248.1,460.9,248,460.9,247.9,460.9L247.9,460.9z M276.2,461.3
					c-0.8,0-1.5,0.1-2.2,0.2h-1.5c-2.2,0-4,1.8-4,4s1.8,4,4,4c0.8,0,1.5,0,2.3,0l0,0l0,0l0,0l0,0l0,0l0,0l0,0l0,0l0,0l0,0
					c0.5-0.1,0.9-0.2,1.4-0.2l0,0c0,0,0,0,0,0c0.2,0,0.5,0,0.7,0c0.2,0,0.3,0,0.5,0c0,0,0,0,0,0c0,0,0,0,0,0c0,0,0,0,0.1,0
					c0,0,0,0,0.1,0c2.2,0,4-1.8,4-3.9c0-2.2-1.7-4-3.9-4.1c-0.1,0-0.3,0-0.4,0C276.9,461.3,276.6,461.3,276.2,461.3L276.2,461.3z
					 M302.1,460.5c-0.1,0-0.3,0-0.4,0c-1.2,0.1-2.3,0.2-3.5,0.3c-0.4,0-0.8,0.1-1.2,0.1c-2.2,0.1-3.9,2.1-3.7,4.3
					c0.1,2.1,1.9,3.7,4,3.7c0.1,0,0.2,0,0.3,0c0,0,0,0,0,0c0,0,0,0,0,0c0.4,0,0.8-0.1,1.2-0.1c0,0,0,0,0.1,0c0,0,0.1,0,0.1,0
					c0,0,0,0,0,0c0.1,0,0.1,0,0.2,0c0,0,0,0,0,0c0.2,0,0.4,0,0.6,0c0,0,0,0,0,0c0.1,0,0.1,0,0.2,0c0,0,0,0,0,0c0.1,0,0.1,0,0.2,0
					c0,0,0,0,0,0c0,0,0.1,0,0.1,0c0,0,0,0,0,0c0,0,0.1,0,0.1,0c0,0,0,0,0,0c0,0,0,0,0.1,0c0,0,0,0,0,0c0,0,0.1,0,0.1,0
					c0,0,0,0,0.1,0c0,0,0,0,0,0c0,0,0,0,0.1,0c0,0,0,0,0.1,0c0,0,0,0,0.1,0c0,0,0,0,0,0c0,0,0,0,0.1,0c0,0,0,0,0,0c0,0,0.1,0,0.1,0
					c0,0,0,0,0,0c0,0,0,0,0.1,0c0,0,0,0,0,0c0,0,0.1,0,0.1,0c0,0,0,0,0,0c0,0,0,0,0.1,0c0,0,0,0,0,0c0,0,0.1,0,0.1,0c0,0,0,0,0,0
					c0,0,0,0,0.1,0c0,0,0,0,0.1,0c0,0,0,0,0,0c0,0,0.1,0,0.1,0c0,0,0,0,0,0c0,0,0.1,0,0.1,0c0,0,0,0,0,0c0.2,0,0.3,0,0.5,0
					c2.2-0.2,3.8-2.2,3.6-4.4C305.8,462,304.1,460.5,302.1,460.5L302.1,460.5z M326.3,456.5c-0.3,0-0.6,0-0.8,0.1
					c-1.6,0.3-3.2,0.7-4.8,1c-2.2,0.4-3.6,2.5-3.2,4.7c0.4,1.9,2,3.2,3.9,3.2c0.3,0,0.5,0,0.8-0.1c0.9-0.2,1.8-0.4,2.8-0.6
					c0,0,0,0,0,0c0,0,0.1,0,0.1,0c0,0,0,0,0,0c0,0,0.1,0,0.1,0c0,0,0,0,0.1,0c0,0,0.1,0,0.1,0c0,0,0.1,0,0.1,0c0,0,0,0,0.1,0
					c0,0,0.1,0,0.1,0c0,0,0,0,0,0c0,0,0.1,0,0.1,0c0,0,0,0,0,0c0.4-0.1,0.9-0.2,1.3-0.3c2.2-0.5,3.5-2.6,3.1-4.7
					C329.8,457.8,328.2,456.5,326.3,456.5L326.3,456.5z M350.1,450.3c-0.4,0-0.8,0.1-1.2,0.2c-1.5,0.5-3.1,0.9-4.6,1.4
					c-2.1,0.6-3.3,2.8-2.7,5c0.5,1.7,2.1,2.9,3.8,2.9c0.4,0,0.7-0.1,1.1-0.2c1.6-0.5,3.2-0.9,4.8-1.4c2.1-0.7,3.3-2.9,2.6-5
					C353.4,451.4,351.8,450.3,350.1,450.3L350.1,450.3z M373.2,441.8c-0.5,0-1,0.1-1.5,0.3c-1.5,0.6-3,1.2-4.5,1.8
					c-2.1,0.8-3.1,3.1-2.2,5.2c0.6,1.6,2.1,2.5,3.7,2.5c0.5,0,1-0.1,1.5-0.3c0.6-0.2,1.2-0.5,1.8-0.7c0,0,0,0,0,0c0,0,0.1,0,0.1-0.1
					c0,0,0,0,0,0c0,0,0.1,0,0.1,0c0,0,0,0,0,0c0,0,0.1,0,0.1,0c0,0,0,0,0.1,0c0,0,0.1,0,0.1,0c0,0,0,0,0.1,0c0,0,0,0,0.1,0
					c0,0,0.1,0,0.1,0c0,0,0,0,0.1,0c0,0,0.1,0,0.1,0c0,0,0,0,0,0c0,0,0.1,0,0.1,0c0,0,0,0,0,0c0,0,0.1,0,0.1-0.1c0,0,0,0,0,0
					c0,0,0.1,0,0.1-0.1c0,0,0,0,0,0c0.4-0.2,0.8-0.3,1.2-0.5c0,0,0,0,0,0c0,0,0.1,0,0.1-0.1c0,0,0,0,0,0c0,0,0.1,0,0.1-0.1
					c0,0,0,0,0,0c2-0.9,3-3.2,2.1-5.2C376.3,442.8,374.8,441.8,373.2,441.8L373.2,441.8z M395.5,431.3c-0.6,0-1.3,0.2-1.9,0.5
					c-1,0.6-2.1,1.1-3.1,1.7c-0.4,0.2-0.8,0.4-1.2,0.6c-2,1-2.7,3.4-1.7,5.4c0.7,1.4,2.1,2.2,3.6,2.2c0.6,0,1.2-0.1,1.8-0.4
					c0.1,0,0.1-0.1,0.2-0.1c0.3-0.2,0.7-0.3,1-0.5l0,0l0,0c0,0,0.1,0,0.1-0.1c0,0,0,0,0,0c0,0,0.1,0,0.1,0c0,0,0,0,0,0
					c0,0,0.1,0,0.1,0c0,0,0,0,0,0c0,0,0,0,0.1,0c0,0,0,0,0,0c0,0,0.1,0,0.1,0c0,0,0,0,0,0c0,0,0.1,0,0.1,0c0,0,0,0,0,0
					c0,0,0.1,0,0.1,0c0,0,0,0,0,0c0,0,0.1,0,0.1,0c0,0,0,0,0,0c0.3-0.1,0.5-0.3,0.8-0.4c0,0,0,0,0,0c0,0,0.1,0,0.1-0.1c0,0,0,0,0,0
					c0,0,0.1,0,0.1-0.1c0,0,0,0,0,0c0,0,0.1,0,0.1-0.1c0,0,0,0,0,0c0,0,0.1,0,0.1,0c0,0,0,0,0,0c0,0,0.1,0,0.1,0c0,0,0,0,0,0
					c0,0,0.1,0,0.1,0c0,0,0,0,0,0c0,0,0.1,0,0.1,0c0.3-0.1,0.6-0.3,0.8-0.4c1.9-1,2.7-3.5,1.6-5.4
					C398.3,432,396.9,431.3,395.5,431.3L395.5,431.3z M416.6,418.6c-0.8,0-1.5,0.2-2.2,0.7c-1.4,0.9-2.7,1.8-4.1,2.6
					c-1.9,1.2-2.4,3.7-1.2,5.5c0.8,1.2,2.1,1.9,3.4,1.9c0.7,0,1.5-0.2,2.1-0.6c0,0,0,0,0,0c0,0,0,0,0,0c0.1-0.1,0.2-0.1,0.3-0.2
					c0,0,0,0,0,0c0,0,0.1,0,0.1-0.1c0,0,0,0,0,0c1-0.6,2-1.3,3-2c0,0,0,0,0,0c0,0,0.1,0,0.1-0.1c0,0,0,0,0,0c0,0,0.1,0,0.1-0.1
					c0,0,0,0,0,0c0,0,0.1-0.1,0.1-0.1c0,0,0,0,0.1,0c0,0,0,0,0,0c0,0,0.1,0,0.1-0.1c0,0,0,0,0,0c0,0,0.1,0,0.1-0.1c0,0,0,0,0,0
					c1.8-1.2,2.3-3.7,1.1-5.5C419.2,419.2,417.9,418.6,416.6,418.6L416.6,418.6z M436.4,404c-0.9,0-1.8,0.3-2.5,0.9
					c-1.3,1-2.5,2-3.8,3c-1.7,1.4-2,3.9-0.7,5.6c0.8,1,2,1.5,3.2,1.5c0.9,0,1.7-0.3,2.5-0.8c0.4-0.3,0.8-0.6,1.2-0.9c0,0,0,0,0,0
					c0,0,0.1-0.1,0.1-0.1c0,0,0,0,0,0c0,0,0,0,0.1,0c0,0,0,0,0.1-0.1c0,0,0,0,0.1-0.1c0,0,0,0,0.1,0c0,0,0,0,0,0c0,0,0.1,0,0.1-0.1
					c0,0,0,0,0,0c0,0,0.1-0.1,0.1-0.1c0,0,0,0,0,0c0,0,0.1-0.1,0.1-0.1c0,0,0,0,0,0c0,0,0.1-0.1,0.1-0.1c0,0,0,0,0,0
					c0.1-0.1,0.2-0.1,0.2-0.2c0,0,0,0,0,0c0.5-0.4,1.1-0.8,1.6-1.3c0,0,0,0,0,0c1.7-1.4,2-3.9,0.6-5.6
					C438.7,404.5,437.6,404,436.4,404L436.4,404z M454.9,387.7c-1,0-2,0.4-2.8,1.1c-1.2,1.1-2.4,2.3-3.6,3.4c-1.6,1.5-1.7,4-0.2,5.7
					c0.8,0.8,1.9,1.3,2.9,1.3c1,0,2-0.4,2.7-1.1c0,0,0,0,0,0c0,0,0.1-0.1,0.1-0.1c0,0,0,0,0,0c0,0,0.1-0.1,0.1-0.1c0,0,0,0,0,0
					c0,0,0,0,0.1-0.1c0,0,0,0,0,0c0,0,0,0,0,0c0,0,0.1-0.1,0.1-0.1c0,0,0,0,0,0c0.3-0.3,0.6-0.6,0.9-0.8c0,0,0,0,0,0
					c0,0,0.1-0.1,0.1-0.1c0,0,0,0,0,0c0,0,0,0,0.1-0.1c0,0,0,0,0,0c0,0,0.1-0.1,0.1-0.1c0,0,0,0,0,0c0,0,0,0,0.1-0.1
					c0,0,0.1,0,0.1-0.1c0,0,0,0,0,0c0,0,0,0,0.1-0.1c0,0,0,0,0,0c0,0,0.1-0.1,0.1-0.1c0,0,0,0,0,0c0,0,0.1-0.1,0.1-0.1c0,0,0,0,0,0
					c0,0,0.1-0.1,0.1-0.1c0,0,0,0,0,0c0,0,0.1-0.1,0.1-0.1c0,0,0,0,0,0c0.4-0.4,0.8-0.7,1.1-1.1c1.6-1.5,1.7-4.1,0.1-5.7
					C457,388.1,455.9,387.7,454.9,387.7L454.9,387.7z M471.5,369.7c-1.1,0-2.3,0.5-3.1,1.4l-0.6,0.7c-0.9,1.1-1.8,2.1-2.6,3
					c-1.4,1.7-1.3,4.2,0.4,5.6c0.8,0.7,1.7,1,2.6,1c1.1,0,2.2-0.5,3-1.4c0.1-0.1,0.1-0.1,0.2-0.2c0,0,0,0,0,0c0,0,0,0,0.1-0.1
					c0,0,0,0,0,0c0,0,0,0,0.1-0.1c0,0,0,0,0,0c0,0,0,0,0.1-0.1c0,0,0,0,0,0c0,0,0.1-0.1,0.1-0.1c0,0,0,0,0,0c0,0,0.1-0.1,0.1-0.1
					c0,0,0,0,0,0c0,0,0-0.1,0.1-0.1c0,0,0,0,0,0c0,0,0,0,0.1-0.1c0,0,0,0,0,0c0,0,0,0,0.1-0.1c0,0,0,0,0,0c0,0,0,0,0.1-0.1
					c0,0,0,0,0,0c0,0,0.1-0.1,0.1-0.1c0,0,0,0,0,0c0.1-0.1,0.2-0.2,0.2-0.3c0,0,0,0,0,0c0,0,0.1-0.1,0.1-0.1c0,0,0,0,0,0
					c0.4-0.5,0.8-0.9,1.2-1.4c0,0,0,0,0,0c0,0,0.1-0.1,0.1-0.1c0,0,0,0,0,0c0,0,0.1-0.1,0.1-0.1c0,0,0-0.1,0.1-0.1c0,0,0,0,0,0
					c0,0,0,0,0-0.1c0,0,0,0,0,0c0,0,0,0,0-0.1c0,0,0,0,0,0c0,0,0,0,0.1-0.1c0,0,0,0,0,0c0.1-0.1,0.2-0.2,0.3-0.3
					c1.4-1.7,1.2-4.2-0.5-5.6C473.4,370,472.5,369.7,471.5,369.7L471.5,369.7z M486.5,350.1c-1.3,0-2.5,0.6-3.3,1.7l-0.2,0.2
					c-0.8,1.2-1.7,2.5-2.6,3.7c-1.3,1.8-0.9,4.3,0.9,5.6c0.7,0.5,1.5,0.8,2.3,0.8c1.2,0,2.5-0.6,3.2-1.6c0.6-0.8,1.2-1.6,1.7-2.4
					c0,0,0,0,0,0c0,0,0-0.1,0.1-0.1c0,0,0,0,0,0c0,0,0,0,0-0.1c0,0,0,0,0-0.1c0,0,0,0,0,0c0,0,0-0.1,0.1-0.1c0,0,0,0,0,0
					c0,0,0,0,0.1-0.1c0,0,0,0,0,0c0,0,0-0.1,0.1-0.1c0,0,0,0,0,0c0,0,0-0.1,0.1-0.1c0,0,0,0,0,0c0,0,0.1-0.1,0.1-0.1c0,0,0,0,0,0
					c0,0,0-0.1,0.1-0.1c0,0,0,0,0,0c0,0,0.1-0.1,0.1-0.1c0,0,0,0,0,0c0,0,0-0.1,0.1-0.1c0,0,0,0,0,0c0,0,0.1-0.1,0.1-0.1l0,0
					c0-0.1,0.1-0.1,0.1-0.2c0,0,0,0,0,0c1.3-1.8,0.8-4.3-1-5.6C488.1,350.4,487.3,350.1,486.5,350.1L486.5,350.1z M499.6,329.3
					c-1.4,0-2.8,0.7-3.5,2c-0.8,1.4-1.6,2.8-2.4,4.2c-1.1,1.9-0.5,4.4,1.4,5.5c0.6,0.4,1.3,0.6,2,0.6c1.4,0,2.7-0.7,3.4-2
					c0.4-0.8,0.9-1.5,1.3-2.3c0,0,0,0,0,0c0,0,0-0.1,0.1-0.1c0,0,0,0,0,0c0,0,0-0.1,0.1-0.1c0,0,0,0,0,0c0,0,0-0.1,0.1-0.1
					c0,0,0,0,0,0c0,0,0-0.1,0.1-0.1c0,0,0,0,0,0c0,0,0,0,0-0.1c0,0,0,0,0-0.1c0,0,0,0,0,0c0,0,0-0.1,0-0.1c0,0,0,0,0,0
					c0,0,0-0.1,0.1-0.1c0,0,0,0,0,0c0.2-0.4,0.4-0.7,0.6-1.1c1.1-1.9,0.4-4.4-1.5-5.4C501,329.4,500.3,329.3,499.6,329.3
					L499.6,329.3z M510.7,307.3c-1.5,0-3,0.9-3.7,2.4c-0.6,1.5-1.3,2.9-2,4.4c-0.9,2-0.1,4.4,1.9,5.3c0.5,0.3,1.1,0.4,1.7,0.4
					c1.5,0,2.9-0.8,3.6-2.3c0.7-1.5,1.4-3,2.1-4.6c0.9-2,0-4.4-2-5.3C511.8,307.4,511.2,307.3,510.7,307.3L510.7,307.3z
					 M519.6,284.3c-1.7,0-3.2,1.1-3.8,2.7c-0.5,1.5-1,3.1-1.6,4.6c-0.7,2.1,0.3,4.4,2.4,5.1c0.4,0.2,0.9,0.2,1.3,0.2
					c1.6,0,3.2-1,3.8-2.7c0.6-1.6,1.1-3.1,1.6-4.7c0.7-2.1-0.4-4.4-2.5-5.1C520.5,284.4,520,284.3,519.6,284.3L519.6,284.3z
					 M526.3,260.7c-1.8,0-3.5,1.2-3.9,3.1c-0.4,1.6-0.8,3.1-1.2,4.7c-0.5,2.1,0.7,4.3,2.9,4.9c0.3,0.1,0.7,0.1,1,0.1
					c1.8,0,3.4-1.2,3.9-3c0.4-1.6,0.8-3.2,1.2-4.9c0.5-2.2-0.8-4.3-3-4.8C526.9,260.7,526.6,260.7,526.3,260.7L526.3,260.7z
					 M530.8,236.5c-2,0-3.7,1.4-4,3.5c-0.2,1.4-0.4,2.9-0.7,4.8c-0.3,2.2,1.1,4.2,3.3,4.6c0.2,0,0.4,0.1,0.6,0.1
					c1.9,0,3.6-1.4,3.9-3.4c0.3-1.6,0.5-3.3,0.7-4.9c0.3-2.2-1.2-4.2-3.4-4.5C531.2,236.5,531,236.5,530.8,236.5L530.8,236.5z"/>
			</g>
			<g>
				<path class="st0" d="M246.5,33.4c-2.2,0-4,1.7-4,3.9c0,0.5,0,1,0,1.6c0,0,0,0,0,0c0,0,0,0.1,0,0.1c0,0,0,0.1,0,0.1
					c0,0,0,0,0,0.1c0,0,0,0.1,0,0.1c0,0,0,0,0,0c0,1,0,2.1-0.1,3.1c0,2.2,1.7,4,3.9,4.1c0,0,0,0,0.1,0c2.2,0,4-1.7,4-3.9
					c0-1.7,0.1-3.3,0.1-5C250.5,35.2,248.8,33.4,246.5,33.4C246.6,33.4,246.5,33.4,246.5,33.4L246.5,33.4z M246.3,58.3
					C246.3,58.3,246.3,58.3,246.3,58.3c-2.2,0-4,1.8-4,4c0,0.6,0,1.1,0,1.7c0,0,0,0,0,0c0,0,0,0.1,0,0.1c0,0,0,0,0,0
					c0,0,0,0.1,0,0.1c0,0,0,0,0,0.1c0,0,0,0.1,0,0.1c0,0,0,0,0,0.1c0,0,0,0,0,0.1c0,0,0,0.1,0,0.1c0,0,0,0,0,0.1c0,0,0,0,0,0.1
					c0,0,0,0,0,0.1c0,0,0,0,0,0.1c0,0,0,0.1,0,0.1c0,0,0,0,0,0c0,0,0,0.1,0,0.1c0,0,0,0,0,0c0,0.7,0,1.3,0,2c0,2.2,1.8,4,4,4
					c0,0,0,0,0,0c2.2,0,4-1.8,4-4c0-1.7,0-3.3,0-5C250.3,60.1,248.5,58.3,246.3,58.3L246.3,58.3z M246.6,83.2
					C246.5,83.2,246.5,83.2,246.6,83.2c-2.3,0-4,1.9-4,4.1c0,0.8,0,1.5,0,2.3c0,0,0,0.1,0,0.1c0,0.1,0,0.1,0,0.2c0,0.1,0,0.2,0,0.2
					c0,0,0,0,0,0c0,0.7,0,1.4,0,2.2c0,2.2,1.8,3.9,4,3.9c0,0,0,0,0.1,0c2.2,0,4-1.9,3.9-4.1c0-1.7-0.1-3.3-0.1-5
					C250.5,85,248.7,83.2,246.6,83.2L246.6,83.2z M247.1,108.2c0,0-0.1,0-0.1,0c-2.2,0.1-4,1.9-3.9,4.1c0,0.3,0,0.6,0,0.9
					c0,0,0,0,0,0c0,0.1,0,0.2,0,0.3c0,0,0,0.1,0,0.1c0,0.1,0,0.1,0,0.2c0,0.1,0,0.1,0,0.2c0,0,0,0.1,0,0.1c0,0.1,0,0.1,0,0.2
					c0,0,0,0.1,0,0.1c0,0.1,0,0.1,0,0.2c0,0,0,0,0,0.1c0,0.1,0,0.2,0,0.3c0,0,0,0.1,0,0.1c0,0.1,0,0.2,0,0.2c0,0,0,0.1,0,0.1
					c0,0,0,0.1,0,0.1c0,0.1,0,0.1,0,0.2c0,0,0,0.1,0,0.1c0,0.1,0,0.1,0,0.2c0,0,0,0.1,0,0.1c0,0.1,0,0.1,0,0.2c0,0,0,0.1,0,0.1
					c0,0.1,0,0.2,0,0.3c0,0,0,0,0,0.1c0,0.1,0,0.2,0,0.3c0,0,0,0,0,0c0,0.1,0,0.2,0,0.3c0.1,2.2,1.8,3.9,4,3.9c0,0,0.1,0,0.1,0
					c2.2-0.1,3.9-1.9,3.9-4.1c0-1.7-0.1-3.3-0.1-5C251,109.9,249.2,108.2,247.1,108.2L247.1,108.2z M247.8,133.2c0,0-0.1,0-0.1,0
					c-2.2,0.1-3.9,1.9-3.9,4.1c0,1.7,0.1,3.3,0.1,5c0.1,2.2,1.8,3.9,4,3.9c0,0,0.1,0,0.1,0c2.2-0.1,3.9-1.9,3.9-4.1l-0.1-5
					C251.7,134.9,249.9,133.2,247.8,133.2L247.8,133.2z M248.5,158.2c0,0-0.1,0-0.1,0c-2.2,0.1-4,1.9-3.9,4.1c0,1.4,0.1,2.7,0.1,4.1
					c0,0.2,0,0.5,0,0.7c0,0.1,0,0.1,0,0.2c0.1,2.2,1.8,3.9,4,3.9c0,0,0.1,0,0.1,0c2.2-0.1,4-1.9,3.9-4.1l0-0.9l-0.1-4.1
					C252.4,159.9,250.6,158.2,248.5,158.2L248.5,158.2z M249,183.2C249,183.2,249,183.2,249,183.2c-2.3,0-4,1.9-4,4.1
					c0,0,0,0.1,0,0.1c0,0,0,0,0,0c0,0,0,0.1,0,0.1c0,0,0,0,0,0c0,0.1,0,0.3,0,0.4c0,0,0,0,0,0c0,0,0,0.1,0,0.1c0,0,0,0,0,0
					c0,0.1,0,0.3,0,0.4c0,0,0,0,0,0c0,0,0,0.1,0,0.1c0,0,0,0,0,0.1c0,0,0,0.1,0,0.1c0,0,0,0,0,0c0,0.1,0,0.2,0,0.2c0,0,0,0,0,0.1
					c0,0,0,0.1,0,0.1c0,0,0,0,0,0.1c0,0,0,0.1,0,0.1c0,0,0,0,0,0.1c0,0.1,0,0.1,0,0.2c0,0,0,0,0,0.1c0,0,0,0.1,0,0.1c0,0,0,0,0,0
					c0,0.7,0,1.4,0,2.2c0,2.2,1.8,3.9,4,3.9c0,0,0,0,0,0c2.2,0,4-1.8,4-4c0-1.7,0-3.4-0.1-5C253,184.9,251.2,183.2,249,183.2
					L249,183.2z M249.3,208.3C249.3,208.3,249.3,208.3,249.3,208.3c-2.2,0-4,1.8-4,4c0,0.2,0,0.4,0,0.6c0,0,0,0.1,0,0.1c0,0,0,0,0,0
					c0,1.2,0,2.4,0,3.6c0,0,0,0.1,0,0.1c0,0,0,0,0,0c0,0.2,0,0.4,0,0.5c0,2.2,1.8,4,4,4c0,0,0,0,0,0c2.2,0,4-1.8,4-4
					c0-1.7,0-3.3,0-5C253.3,210,251.5,208.3,249.3,208.3L249.3,208.3z M249.1,233.3c-2.2,0-4,1.7-4,3.9c0,0.5,0,0.9,0,1.4
					c0,0,0,0,0,0c0,0,0,0.1,0,0.2c0,0,0,0,0,0c0,0,0,0.1,0,0.1c0,0,0,0,0,0.1c0,0,0,0.1,0,0.1c0,0,0,0,0,0.1c0,0,0,0,0,0.1
					c0,0,0,0.1,0,0.1c0,0,0,0,0,0c0,0.1,0,0.2,0,0.3c0,0,0,0,0,0c0,0,0,0.1,0,0.1c0,0,0,0,0,0c0,0.1,0,0.2,0,0.3c0,0,0,0,0,0
					c0,0,0,0.1,0,0.1c0,0,0,0,0,0c0,0,0,0.1,0,0.1c0,0,0,0.1,0,0.1c0,0,0,0,0,0.1c0,0,0,0.1,0,0.1c0,0,0,0,0,0c0,0,0,0.1,0,0.1
					c0,0,0,0,0,0c0,0.5,0,0.9,0,1.4c0,2.2,1.7,4,3.9,4.1c0,0,0.1,0,0.1,0c2.2,0,4-1.7,4-3.9c0-1.7,0.1-3.4,0.1-5
					C253.2,235.2,251.4,233.4,249.1,233.3C249.2,233.3,249.2,233.3,249.1,233.3L249.1,233.3z M244.9,262.8
					C244.9,262.8,244.9,262.8,244.9,262.8C244.9,262.8,244.9,262.8,244.9,262.8L244.9,262.8z M244.9,262.8
					C244.9,262.8,244.9,262.8,244.9,262.8C244.9,262.8,244.9,262.8,244.9,262.8L244.9,262.8z M244.9,262.8
					C244.9,262.8,244.9,262.8,244.9,262.8C244.9,262.8,244.9,262.8,244.9,262.8L244.9,262.8z M244.9,262.8
					C244.9,262.8,244.9,262.8,244.9,262.8C244.9,262.8,244.9,262.8,244.9,262.8L244.9,262.8z M244.9,262.8
					C244.9,262.8,244.9,262.8,244.9,262.8C244.9,262.8,244.9,262.8,244.9,262.8L244.9,262.8z M244.9,262.8
					C244.9,262.8,244.9,262.8,244.9,262.8C244.9,262.8,244.9,262.8,244.9,262.8L244.9,262.8z M244.9,262.8
					C244.9,262.8,244.9,262.8,244.9,262.8C244.9,262.8,244.9,262.8,244.9,262.8L244.9,262.8z M244.9,262.8
					C244.9,262.8,244.9,262.8,244.9,262.8C244.9,262.8,244.9,262.8,244.9,262.8L244.9,262.8z M244.9,262.8
					C244.9,262.8,244.9,262.8,244.9,262.8C244.9,262.8,244.9,262.8,244.9,262.8L244.9,262.8z M244.9,262.8
					C244.9,262.8,244.9,262.8,244.9,262.8C244.9,262.8,244.9,262.8,244.9,262.8L244.9,262.8z M244.9,262.8
					C244.9,262.8,244.9,262.8,244.9,262.8C244.9,262.8,244.9,262.8,244.9,262.8L244.9,262.8z M244.9,262.8
					C244.9,262.8,244.9,262.8,244.9,262.8C244.9,262.8,244.9,262.8,244.9,262.8L244.9,262.8z M244.9,262.8
					C244.9,262.8,244.9,262.8,244.9,262.8C244.9,262.8,244.9,262.8,244.9,262.8L244.9,262.8z M244.9,262.8
					C244.9,262.8,244.9,262.8,244.9,262.8C244.9,262.8,244.9,262.8,244.9,262.8L244.9,262.8z M244.9,262.8
					C244.9,262.8,244.9,262.8,244.9,262.8C244.9,262.8,244.9,262.8,244.9,262.8L244.9,262.8z M244.9,262.8
					C244.9,262.8,244.9,262.8,244.9,262.8C244.9,262.8,244.9,262.8,244.9,262.8L244.9,262.8z M244.9,262.8
					C244.9,262.8,244.9,262.8,244.9,262.8C244.9,262.8,244.9,262.8,244.9,262.8L244.9,262.8z M244.9,262.8
					C244.9,262.8,244.9,262.8,244.9,262.8C244.9,262.8,244.9,262.8,244.9,262.8L244.9,262.8z M245,262.8
					C245,262.8,245,262.8,245,262.8C245,262.8,245,262.8,245,262.8L245,262.8z M245,262.8C245,262.8,245,262.8,245,262.8
					C245,262.8,245,262.8,245,262.8L245,262.8z M245,262.8C245,262.8,245,262.8,245,262.8C245,262.8,245,262.8,245,262.8L245,262.8z
					 M245,262.8C245,262.8,245,262.8,245,262.8C245,262.8,245,262.8,245,262.8L245,262.8z M245,262.8C245,262.8,245,262.8,245,262.8
					C245,262.8,245,262.8,245,262.8L245,262.8z M245,262.8C245,262.8,245,262.8,245,262.8C245,262.8,245,262.8,245,262.8L245,262.8z
					 M245,262.8C245,262.8,245,262.8,245,262.8C245,262.8,245,262.8,245,262.8L245,262.8z M245,262.8C245,262.8,245,262.8,245,262.8
					C245,262.8,245,262.8,245,262.8L245,262.8z M245,262.8C245,262.8,245,262.8,245,262.8C245,262.8,245,262.8,245,262.8L245,262.8z
					 M245,262.8C245,262.8,245,262.8,245,262.8C245,262.8,245,262.8,245,262.8L245,262.8z M245,262.8C245,262.8,245,262.8,245,262.8
					C245,262.8,245,262.8,245,262.8L245,262.8z M245,262.8C245,262.8,245,262.8,245,262.8C245,262.8,245,262.8,245,262.8L245,262.8z
					 M245,262.8C245,262.8,245,262.8,245,262.8C245,262.8,245,262.8,245,262.8L245,262.8z M245,262.8C245,262.8,245,262.8,245,262.8
					C245,262.8,245,262.8,245,262.8L245,262.8z M245,262.8C245,262.8,245,262.8,245,262.8C245,262.8,245,262.8,245,262.8L245,262.8z
					 M245,262.8C245,262.8,245,262.8,245,262.8C245,262.8,245,262.8,245,262.8L245,262.8z M245,262.8C245,262.8,245,262.8,245,262.8
					C245,262.8,245,262.8,245,262.8L245,262.8z M245,262.8C245,262.8,245,262.8,245,262.8C245,262.8,245,262.8,245,262.8L245,262.8z
					 M245,262.8C245,262.8,245,262.8,245,262.8C245,262.8,245,262.8,245,262.8L245,262.8z M245,262.8C245,262.8,245,262.8,245,262.8
					C245,262.8,245,262.8,245,262.8L245,262.8z M245,262.8C245,262.8,245,262.8,245,262.8C245,262.8,245,262.8,245,262.8L245,262.8z
					 M247.2,253.5c-0.5,0-1,0.1-1.5,0.3c-0.2,0.1-0.4,0.2-0.6,0.3c-0.1,0-0.2,0.1-0.3,0.1c0,0.5,0,1.1-0.1,1.6
					c-0.1,1.6-0.1,3.1-0.1,4.7l1.1,2.2c-0.3,0.1-0.5,0.2-0.6,0.2l0,0l0,0c0.2,0,0.4-0.1,0.6-0.2c0.9-0.4,1.6-1,2.6-1.1
					c0.2-0.1,0.4-0.2,0.5-0.3c1.1-0.5,2.2-1,3.3-1.6c-0.2-0.5-0.5-1.1-0.9-1.5c0.1-0.7,0-1.4-0.3-2.1
					C250.3,254.4,248.8,253.5,247.2,253.5L247.2,253.5z M268.6,242.3c-0.6,0-1.2,0.1-1.8,0.4l-0.2,0.1c-0.3,0.2-0.6,0.3-1,0.5
					c-0.1,0-0.2,0.1-0.2,0.1c-0.2,0.1-0.4,0.2-0.6,0.4c-0.1,0-0.1,0.1-0.2,0.1c-0.7,0.2-1.3,0.6-1.9,1c0,0,0,0,0,0
					c-0.7,0.4-1.3,0.9-1.7,1.6c-1.3,1.7-1.9,3.8-1.6,6.1c0.1,0.9,0.4,1.8,0.9,2.6c1.2-0.7,2.6-1.2,3.7-2l0,0l0,0l0,0
					c0.4-0.3,0.9-0.3,1.2-0.6l0,0c0.7-0.4,1.5-0.7,2.2-1.2h0c0.9-0.3,1.6-0.8,2.4-1.2c0,0,0,0,0,0c0,0,0,0,0,0c0,0,0,0,0,0
					c0,0,0,0,0,0c0,0,0,0,0,0c0,0,0,0,0,0l0,0l0,0c0.1-0.1,0.2-0.1,0.3-0.2c0,0,0,0,0,0c0,0,0,0,0,0c0,0,0,0,0,0c0,0,0,0,0,0
					c0.1,0,0.1-0.1,0.2-0.1c0.1,0,0.1-0.1,0.2-0.1c0,0,0,0,0,0c0,0,0,0,0,0c0.3-0.1,0.6-0.3,0.9-0.5l0,0l0,0l0,0c0,0,0,0,0,0
					c1.5-1.1,1.9-3.2,1-4.9C271.5,243.1,270.1,242.3,268.6,242.3L268.6,242.3z M289.8,230.7c-0.8,0-1.5,0.2-2.2,0.7
					c-0.4,0.3-1,0.6-1.6,0.9c-0.4,0.2-0.7,0.4-1.1,0.6c-0.2,0.1-0.5,0.2-0.7,0.4l-0.6,0.3c-1.9,1.2-2.5,3.6-1.3,5.5
					c0.8,1.2,2.1,1.9,3.4,1.9c0.7,0,1.4-0.2,2.1-0.6c0,0,0.1,0,0.1-0.1c0.2-0.1,0.3-0.2,0.5-0.3l0,0l0,0l0,0l0,0l0,0c0,0,0,0,0,0
					l0,0l0,0l0,0l0,0c0,0,0,0,0,0c0,0,0,0,0,0c1.4-0.8,2.9-1.4,4.2-2.4l0,0l0,0l0,0c0.4-0.2,0.9-0.2,1.2-0.6c0,0,0,0,0,0l0,0l0,0
					l0,0c0,0,0,0,0,0c0.5-0.3,1.1-0.5,1.6-0.8c-0.1-0.2-0.3-0.5-0.4-0.7c-0.3-0.5-0.7-0.9-1.2-1.3c-0.1-0.6-0.3-1.2-0.6-1.7
					C292.4,231.3,291.1,230.7,289.8,230.7L289.8,230.7z M311.4,218.3c-0.7,0-1.3,0.2-2,0.5c-0.4,0.2-0.9,0.5-1.5,0.8
					c-0.4,0.2-0.7,0.4-1.1,0.7c-0.1,0.1-0.2,0.1-0.4,0.2c-0.4,0.2-0.7,0.4-1,0.6l-0.1,0l-0.1,0.1c0,0,0,0,0,0l-0.4,0.3l0.3,0.5
					c0,0,0,0,0,0l-0.3-0.5l0.3,0.5c0,0,0,0,0,0c-0.1-0.2-0.2-0.4-0.3-0.5c-0.6-0.9-0.9-1.4-0.9-1.4s0.3,0.5,0.9,1.4l0.3,0.5
					c-1.7,2.3-2.1,5.4-0.8,8.1c0.1,0.2,0.2,0.4,0.3,0.6c0.4-0.2,0.8-0.4,1.2-0.7l0,0l0,0l0,0c1.3-0.6,2.4-1.4,3.6-2.1
					c0.2-0.1,0.3-0.2,0.5-0.3c0.5-0.3,1.1-0.5,1.6-0.9l0,0c0,0,0,0,0,0c0,0,0,0,0,0c0,0,0,0,0,0c0,0,0,0,0,0c0,0,0,0,0,0
					c0,0,0,0,0,0c0,0,0,0,0,0c0,0,0,0,0,0c0,0,0,0,0,0l0,0c0.4-0.2,0.8-0.4,1.2-0.7c0,0,0,0,0,0c0,0,0,0,0,0c0,0,0,0,0,0
					c0,0,0,0,0,0c0,0,0,0,0,0c0,0,0,0,0,0c0,0,0,0,0,0c0,0,0,0,0,0c0.1-0.1,0.3-0.2,0.4-0.2c1.9-1.1,2.6-3.5,1.5-5.4
					C314.2,219.1,312.8,218.3,311.4,218.3L311.4,218.3z M332.5,205.6c-0.7,0-1.4,0.2-2,0.5c-0.4,0.2-0.8,0.4-1.1,0.6
					c-0.4,0.2-0.8,0.5-1.1,0.8c-0.2,0.1-0.3,0.2-0.4,0.2c-1.2,0.5-2.3,1.2-3.2,2.2l0,0l0,0l1.1,1c-0.7,2.1-0.7,4.4,0.4,6.5
					c0.1,0.1,0.2,0.3,0.2,0.4c0.8-0.4,1.6-0.9,2.3-1.4l0,0l0,0l0,0c0.7-0.2,1.3-0.6,1.9-1.2h0c1-0.4,1.8-0.9,2.7-1.5l0,0
					c0,0,0,0,0,0c0,0,0,0,0,0c0,0,0,0,0,0c0,0,0,0,0,0c0,0,0,0,0,0c0,0,0,0,0,0l0,0l0,0c0,0,0,0,0,0l0,0l0,0l0,0l0,0l0,0
					c0,0,0,0,0,0c0,0,0,0,0,0c0,0,0,0,0,0c0,0,0,0,0,0c0,0,0,0,0,0c0,0,0,0,0,0c0,0,0,0,0,0c0,0,0,0,0,0c0,0,0,0,0.1,0c0,0,0,0,0,0
					c0,0,0,0,0.1,0c0,0,0,0,0,0c0,0,0,0,0.1,0c0,0,0,0,0,0c0.2-0.1,0.3-0.2,0.5-0.3c0,0,0,0,0,0c0,0,0,0,0.1,0c0,0,0,0,0,0
					c0,0,0,0,0.1,0c0,0,0,0,0,0c1.9-1.1,2.6-3.6,1.4-5.5C335.2,206.3,333.9,205.6,332.5,205.6L332.5,205.6z M353.4,192.7
					c-0.8,0-1.5,0.2-2.2,0.7c-0.4,0.3-0.8,0.5-1.2,0.8c-0.4,0.2-0.7,0.4-1,0.6c-0.4,0.3-0.8,0.5-1.1,0.8c-0.2,0.2-0.5,0.3-0.7,0.5
					c-1.8,1.2-2.3,3.7-1.1,5.5c0.8,1.2,2,1.8,3.3,1.8c0.8,0,1.5-0.2,2.2-0.7c0.1,0,0.1-0.1,0.2-0.1c0,0,0,0,0,0c0,0,0,0,0,0
					c0,0,0,0,0,0c0,0,0,0,0,0c0,0,0,0,0,0c0,0,0,0,0,0c0,0,0,0,0,0c0,0,0,0,0,0c0,0,0,0,0,0c0,0,0,0,0,0c0,0,0,0,0,0c0,0,0,0,0,0
					c0,0,0,0,0,0c0.5-0.3,0.9-0.6,1.3-0.9c0,0,0,0,0,0c0,0,0,0,0,0c0,0,0,0,0,0c0,0,0,0,0,0c0,0,0,0,0,0c0,0,0,0,0,0c0,0,0,0,0,0
					c0,0,0,0,0,0c0,0,0,0,0,0c0,0,0,0,0,0c0,0,0,0,0,0c0,0,0,0,0,0c0,0,0,0,0,0c0,0,0,0,0,0c0,0,0,0,0,0c0,0,0,0,0,0c0,0,0,0,0,0
					c0,0,0,0,0,0c0,0,0,0,0,0l0,0l0,0l0,0l0,0l0,0c0,0,0,0,0,0l0,0l0,0l0,0c0,0,0,0,0,0c0,0,0,0,0,0c0,0,0,0,0,0
					c1.5-0.8,2.8-1.8,4.2-2.7l0,0l0,0l0,0c0.8-0.5,1.7-1,2.4-1.6c0,0,0.1-0.1,0.1-0.1c-0.4-0.6-0.9-1.2-1.5-1.8
					c-0.7-0.6-1.4-1-2.1-1.3C355.6,193.1,354.5,192.7,353.4,192.7L353.4,192.7z M374.3,179.3c-0.7,0-1.5,0.2-2.2,0.6
					c-1.4,0.9-2.8,1.8-4.1,2.6c-1.9,1.2-2.5,3.6-1.3,5.5c0.8,1.2,2.1,1.9,3.4,1.9c0.7,0,1.4-0.2,2.1-0.6c0,0,0,0,0,0
					c1.2-0.8,2.5-1.5,3.7-2.3c0,0,0,0,0,0c0.1,0,0.1-0.1,0.2-0.1c0,0,0,0,0,0c0,0,0,0,0.1,0c0,0,0,0,0,0c0,0,0.1,0,0.1-0.1
					c0,0,0,0,0,0c0,0,0,0,0,0c0,0,0,0,0,0c0,0,0,0,0,0c1.9-1.2,2.4-3.7,1.2-5.5C376.9,179.9,375.6,179.3,374.3,179.3L374.3,179.3z
					 M395,165.8c-0.8,0-1.6,0.2-2.2,0.7c-0.4,0.3-0.9,0.6-1.3,0.8c-0.3,0.1-0.6,0.3-0.9,0.5c-0.7,0.4-1.3,0.9-2,1.3l-0.1,0.1
					c-1.8,1.3-2.3,3.7-1,5.6c0.8,1.1,2,1.7,3.3,1.7c0.8,0,1.6-0.2,2.3-0.7c0,0,0,0,0,0c0,0,0,0,0.1,0c0.1-0.1,0.2-0.1,0.3-0.2
					c0,0,0,0,0,0c0,0,0,0,0,0c0.5-0.3,0.9-0.6,1.4-0.9c0,0,0,0,0,0c0,0,0,0,0,0c0,0,0,0,0,0c0,0,0,0,0,0v0l0,0v0l0,0v0c0,0,0,0,0,0
					l0,0l0,0l0,0c0,0,0,0,0,0c0,0,0,0,0,0c0,0,0,0,0,0c1.5-0.8,2.8-1.8,4.2-2.7l0,0l0,0l0,0c0.9-0.5,1.7-1,2.6-1.6
					c-0.3-0.4-0.6-0.9-1-1.3c-0.8-0.8-1.7-1.5-2.7-1.9C397.2,166.3,396.1,165.8,395,165.8L395,165.8z M418.2,151.7
					c-1.5,0-3,0.4-4.3,1.3c-0.9,0.6-1.7,1.1-2.6,1.7c-0.5,0.4-1.1,0.7-1.6,1.1c-1.9,1.2-2.4,3.7-1.2,5.5c0.8,1.2,2,1.8,3.4,1.8
					c0.7,0,1.5-0.2,2.2-0.6c0.2-0.1,0.4-0.3,0.6-0.4c0,0,0,0,0,0c0,0,0,0,0,0c0,0,0,0,0,0c0,0,0,0,0,0c0.3-0.2,0.7-0.4,1-0.7
					c0.7-0.5,1.5-1,2.2-1.5c0,0,0,0,0,0c0,0,0,0,0,0c0,0,0,0,0,0c0,0,0.1,0,0.1-0.1c0,0,0,0,0,0c0,0,0,0,0,0c0,0,0,0,0,0
					c0,0,0,0,0,0c0,0,0,0,0,0c0,0,0,0,0,0c0,0,0,0,0,0l0,0l0,0l0,0l0,0l0,0l0,0c0,0,0,0,0,0c0.9-0.4,1.6-1,2.5-1.5
					c0.3-0.2,0.5-0.4,0.8-0.6c1.2-0.6,2.4-1.3,3.6-2.1c-0.4-0.6-0.9-1.2-1.4-1.7C422.1,152.4,420.2,151.7,418.2,151.7L418.2,151.7z
					 M435.9,139.9L435.9,139.9c-0.2,0.1-0.6,0.2-1,0.3c-0.6,0.2-1.2,0.6-1.8,1c-0.2,0.2-0.5,0.3-0.7,0.5c-0.4,0.2-0.7,0.5-1.1,0.7
					l-0.5,0.3c-1.9,1.2-2.4,3.6-1.3,5.5c0.8,1.2,2.1,1.9,3.4,1.9c0.7,0,1.4-0.2,2.1-0.6c0.4-0.2,0.8-0.5,1.1-0.7
					c0.2-0.1,0.5-0.3,0.7-0.4c0,0,0,0,0,0c0,0,0,0,0,0c0,0,0,0,0,0l0,0l0,0l0,0l0,0l0,0l0,0l0,0l0,0l0,0l0,0l0,0
					c0.3-0.2,0.5-0.4,0.8-0.6l0,0c0,0,0,0,0,0c0,0,0,0,0,0c0,0,0,0,0,0c0,0,0,0,0,0c0,0,0,0,0,0c0,0,0,0,0,0c0,0,0,0,0,0
					c0,0,0,0,0,0c0,0,0,0,0,0c0,0,0,0,0,0c0,0,0,0,0,0c0,0,0,0,0,0c0,0,0,0,0,0c0,0,0,0,0,0c0,0,0,0,0,0c0,0,0,0,0,0c0,0,0,0,0,0
					c0,0,0,0,0,0c0,0,0,0,0,0c0,0,0.1,0,0.1,0c0,0,0,0,0,0c0,0,0,0,0,0c0,0,0.1,0,0.1,0c0,0,0,0,0.1,0l-0.4-1.4l0,0l0,0l1.3,0.9l0,0
					c0,0,0.1-0.1,0.1-0.1c0,0,0,0,0,0c0,0,0,0,0,0c0,0,0,0,0,0c0,0,0,0,0,0c0,0,0.1-0.1,0.1-0.1c0,0,0,0,0,0c0,0,0,0,0,0
					c0,0,0,0,0,0c1.5-1.5,1.6-4,0-5.6c-0.8-0.8-1.8-1.2-2.9-1.2c-0.2,0-0.4,0-0.5,0L435.9,139.9L435.9,139.9z M437.8,146.2l0.4,1.4
					c0,0,0.1,0,0.1,0c0,0,0,0,0,0c0,0,0,0,0,0c0,0,0,0,0,0c0,0,0,0,0,0c0,0,0,0,0,0c0,0,0,0,0,0c0,0,0,0,0,0c0,0,0,0,0,0
					c0,0,0,0,0,0c0,0,0,0,0,0c0,0,0,0,0,0c0,0,0,0,0,0c0,0,0,0,0,0c0,0,0,0,0,0c0.1,0,0.2-0.1,0.3-0.1l0,0c0,0,0,0,0,0l0,0
					c0,0,0,0,0,0c0,0,0,0,0,0c0,0,0,0,0,0c0,0,0,0,0,0c0,0,0,0,0,0c0,0,0,0,0,0c0,0,0,0,0,0c0,0,0,0,0,0c0,0,0,0,0,0c0,0,0,0,0,0
					c0,0,0,0,0,0c0,0,0,0,0,0c0,0,0,0,0,0c0,0,0,0,0,0c0,0,0,0,0,0c0,0,0,0,0,0c0,0,0,0,0,0c0,0,0,0,0,0c0,0,0,0,0,0c0,0,0,0,0,0
					c0,0,0,0,0,0c0,0,0,0,0,0c0,0,0,0,0,0c0,0,0,0,0,0c0,0,0,0,0,0c0,0,0,0,0,0c0,0,0,0,0,0c0,0,0,0,0,0c0,0,0,0,0,0c0,0,0,0,0,0
					c0,0,0,0,0,0c0,0,0,0,0,0c0,0,0,0,0,0c0,0,0,0,0,0c0,0,0,0,0,0c0,0,0,0,0,0c0,0,0,0,0,0c0,0,0,0,0,0c0,0,0,0,0,0c0,0,0,0,0,0
					c0,0,0,0,0,0c0,0,0,0,0,0c0,0,0,0,0,0c0,0,0,0,0,0c0,0,0,0,0,0c0,0,0,0,0,0c0,0,0,0,0,0c0,0,0,0,0,0c0,0,0,0,0,0c0,0,0,0,0,0
					c0,0,0,0,0,0c0,0,0,0,0,0c0,0,0,0,0,0c0,0,0,0,0,0c0,0,0,0,0,0c0,0,0,0,0,0c0,0,0,0,0,0c0,0,0,0,0,0c0,0,0,0,0,0c0,0,0,0,0,0
					c0,0,0,0,0,0c0,0,0,0,0,0c0,0,0,0,0,0c0,0,0,0,0,0c0,0,0,0,0,0l0,0c0,0,0,0,0,0c0,0,0,0,0,0c0,0,0,0,0,0c0,0,0,0,0,0
					c0,0,0,0,0,0c0,0,0,0,0,0c0,0,0,0,0,0c0,0,0,0,0,0c0,0,0,0,0,0c0,0,0,0,0,0c0,0,0,0,0,0c0,0,0,0,0,0c0,0,0,0,0,0c0,0,0,0,0,0
					c0,0,0,0,0,0c0,0,0,0,0,0c0,0,0,0,0,0c0,0,0,0,0,0c0,0,0,0,0,0c0,0,0,0,0,0c0,0,0,0,0,0c0,0,0,0,0,0c0,0,0,0,0,0c0,0,0,0,0,0
					c0,0,0,0,0,0c0,0,0,0,0,0c0,0,0,0,0,0c0,0,0,0,0,0c0,0,0,0,0,0c0,0,0,0,0,0c0,0,0,0,0,0c0,0,0,0,0,0c0,0,0,0,0,0c0,0,0,0,0,0
					c0,0,0,0,0,0c0,0,0,0,0,0c0,0,0,0,0,0c0,0,0,0,0,0c0,0,0,0,0,0c0,0,0,0,0,0c0,0,0,0,0,0c0,0,0,0,0,0c0,0,0,0,0,0c0,0,0,0,0,0
					c0,0,0,0,0,0c0,0,0,0,0,0c0,0,0,0,0,0c0,0,0,0,0,0c0,0,0,0,0,0c0,0,0,0,0,0c0,0,0,0,0,0c0,0,0,0,0,0c0,0,0,0,0,0c0,0,0,0,0,0
					c0,0,0,0,0,0c0,0,0,0,0,0c0,0,0,0,0,0c0,0,0,0,0,0c0,0,0,0,0,0c0,0,0,0,0,0c0,0,0,0,0,0c0,0,0,0,0,0c0,0,0,0,0,0c0,0,0,0,0,0
					c0,0,0,0,0,0c0,0,0,0,0,0c0,0,0,0,0,0c0,0,0,0,0,0c0,0,0,0,0,0c0,0,0,0,0,0c0,0,0,0,0,0c0,0,0,0,0,0c0,0,0,0,0,0c0,0,0,0,0,0
					c0,0,0,0,0,0c0,0,0,0,0,0c0,0,0,0,0,0c0,0,0,0,0,0c0,0,0,0,0,0c0,0,0,0,0,0c0,0,0,0,0,0c0,0,0,0,0,0c0,0,0,0,0,0c0,0,0,0,0,0
					c0,0,0,0,0,0l0,0L437.8,146.2L437.8,146.2z M453.5,129.2c-0.1,0-0.1,0.1-0.2,0.1c0,0,0,0,0,0c-0.3,0.2-0.7,0.4-1,0.6
					c-1.9,1.1-2.5,3.6-1.4,5.5c0.8,1.2,2.1,1.9,3.4,1.9c0.7,0,1.4-0.2,2.1-0.6c0,0,0,0,0.1,0c0,0,0,0,0,0c0,0,0,0,0,0
					c0.3-0.2,0.5-0.3,0.8-0.5c0,0,0,0,0,0c0,0,0,0,0,0c0,0,0,0,0.1,0c0,0,0,0,0,0l0,0l0,0l0,0c0,0,0,0,0,0l0,0c1-0.5,2-1,2.9-1.6
					c0.7-0.4,0.9-0.8,0-1.4c-0.8-0.6-1.8-0.9-2.6-1.5c0,0,0,0,0,0l0,0c0,0,0,0,0,0c-0.5-0.4-1-0.7-1.6-0.9c0,0-0.1,0-0.1,0
					c-0.2,0-0.3-0.1-0.3-0.2C455,130,454.3,129.5,453.5,129.2L453.5,129.2z M438.1,121.1c-1.3,0-2.6,0.6-3.4,1.8
					c-1.2,1.9-0.7,4.3,1.2,5.5c0.2,0.1,0.3,0.2,0.5,0.3c1,0.9,2.2,1.6,3.5,1.9c0.1,0.1,0.3,0.2,0.4,0.2c0.7,0.4,1.4,0.6,2.1,0.6
					c1.3,0,2.6-0.7,3.4-1.9c1.2-1.9,0.6-4.3-1.2-5.5c-0.1,0-0.1-0.1-0.2-0.1c0,0,0,0,0,0c0,0,0,0-0.1,0c0,0,0,0,0,0c0,0,0,0,0,0
					c0,0,0,0,0,0c0,0,0,0,0,0c0,0,0,0,0,0c0,0,0,0,0,0c0,0,0,0,0,0c0,0,0,0,0,0c0,0,0,0,0,0c0,0,0,0,0,0c0,0,0,0,0,0c0,0,0,0,0,0
					c0,0,0,0,0,0c0,0,0,0,0,0c0,0,0,0,0,0c0,0,0,0,0,0c0,0,0,0,0,0c0,0,0,0,0,0c0,0,0,0,0,0c0,0,0,0,0,0c0,0,0,0,0,0c0,0,0,0,0,0
					c0,0,0,0,0,0c0,0,0,0,0,0c0,0,0,0,0,0c0,0,0,0,0,0c0,0,0,0,0,0c0,0,0,0,0,0c0,0,0,0,0,0c0,0,0,0,0,0c0,0-0.1,0-0.1,0
					c0,0,0,0,0,0c-0.5-0.2-0.9-0.5-1.4-0.7c0,0,0,0,0,0c0,0,0,0,0,0c0,0,0,0,0,0c0,0,0,0,0,0c0,0,0,0,0,0c0,0,0,0,0,0c0,0,0,0,0,0
					c0,0,0,0,0,0c0,0,0,0,0,0c0,0,0,0,0,0c0,0,0,0,0,0c-0.2,0-0.4,0-0.5-0.2c0,0,0,0,0,0c0,0,0,0,0,0c0,0,0,0,0,0l0,0l0,0l0,0l0,0
					l0,0l0,0l0,0l0,0l0,0l0,0l0,0l0,0l0,0c0,0,0,0,0,0c0,0,0,0,0,0c0,0,0,0,0,0c0,0,0,0,0,0c0,0,0,0,0,0c0,0,0,0,0,0c0,0,0,0,0,0
					c0,0,0,0,0,0c0,0,0,0,0,0c0,0,0,0,0,0c0,0,0,0,0,0c0,0,0,0,0,0c0,0,0,0,0,0c0,0,0,0,0,0c0,0,0,0,0,0c-0.1,0-0.1-0.1-0.2-0.1
					c0,0,0,0,0,0c-0.1-0.1-0.3-0.2-0.4-0.3v0c0,0,0,0,0,0c0,0,0,0,0,0c0,0,0,0,0,0c0,0,0,0,0,0c0,0,0,0,0,0c0,0,0,0,0,0
					c0,0-0.1-0.1-0.1-0.1c0,0,0,0,0,0c0,0,0,0,0,0c0,0,0,0,0,0c0,0,0,0,0,0c0,0,0,0,0,0c0,0,0,0,0,0c0,0,0,0,0,0c0,0,0,0,0,0
					c0,0,0,0,0,0c0,0,0,0,0,0c0,0,0,0,0,0c0,0,0,0,0,0c0,0,0,0,0,0c0,0,0,0,0,0c0,0,0,0,0,0c0,0,0,0,0,0c0,0,0,0,0,0c0,0,0,0,0,0
					c0,0,0,0,0,0c0,0,0,0,0,0c0,0,0,0,0,0c0,0,0,0,0,0c0,0,0,0,0,0c0,0,0,0,0,0c0,0,0,0,0,0c0,0,0,0,0,0c0,0,0,0,0,0c0,0,0,0,0,0
					c-0.1-0.1-0.2-0.1-0.3-0.2C439.6,121.3,438.8,121.1,438.1,121.1L438.1,121.1z M418.4,109.9c0.2,0.2,0.4,0.3,0.6,0.5l-7.1,3.5
					l7.1-3.5l0,0l-7.1,3.5c1.1,2.2,3.1,3.8,5.4,4.4c0.6,0.3,1.1,0.5,1.7,0.8c0.6,0.3,1.3,0.5,1.9,0.5c1.4,0,2.8-0.8,3.5-2.1
					c1.1-1.9,0.3-4.4-1.6-5.4c-1-0.5-2-1-3.1-1.5c0,0,0,0,0,0c0,0,0,0,0,0c0,0,0,0,0,0c0,0,0,0,0,0c0,0,0,0,0,0c0,0,0,0,0,0
					c0,0,0,0,0,0c0,0,0,0,0,0c0,0,0,0,0,0c0,0,0,0,0,0c0,0,0,0,0,0c0,0,0,0,0,0l0,0l0,0c0,0-0.1,0-0.1,0c-0.2,0-0.3-0.1-0.4-0.3l0,0
					l0,0l0,0l0,0l0,0l0,0l0,0c0,0,0,0,0,0c0,0,0,0,0,0c0,0,0,0,0,0c0,0,0,0,0,0c0,0,0,0,0,0c0,0,0,0,0,0c-0.1-0.1-0.2-0.2-0.3-0.2
					c0,0,0,0,0,0c0,0,0,0,0,0c0,0,0,0,0,0c0,0,0,0,0,0c0,0,0,0,0,0c0,0,0,0,0,0c0,0,0,0,0,0c0,0,0,0,0,0c0,0,0,0,0,0c0,0,0,0,0,0
					c0,0,0,0,0,0c0,0,0,0,0,0c0,0,0,0,0,0c0,0,0,0,0,0c0,0,0,0,0,0c0,0,0,0,0,0c0,0,0,0,0,0c0,0,0,0,0,0c0,0,0,0,0,0
					C418.5,109.9,418.5,109.9,418.4,109.9C418.5,109.9,418.5,109.9,418.4,109.9C418.5,109.9,418.5,109.9,418.4,109.9
					C418.5,109.9,418.5,109.9,418.4,109.9C418.5,109.9,418.5,109.9,418.4,109.9L418.4,109.9z M397.4,98.9L397.4,98.9L397.4,98.9
					l-5.3,6l0,0l0,0c1.1,1,2.4,1.7,3.7,2.1c0.3,0.2,0.6,0.3,0.9,0.4c0.2,0.1,0.5,0.2,0.7,0.3c0.6,0.3,1.1,0.4,1.7,0.4
					c1.5,0,2.9-0.8,3.6-2.3c1-2,0.1-4.4-1.9-5.3c-0.2-0.1-0.5-0.2-0.7-0.3c-0.1,0-0.1,0-0.2-0.1c-0.1,0-0.2-0.1-0.3-0.1
					c-0.4-0.2-0.9-0.4-1.3-0.6c0,0,0,0,0,0c0,0,0,0,0,0l0,0l0,0l0,0l0,0l0,0l0,0l0,0l0,0l0,0l0,0l0,0
					C398,99.4,397.7,99.2,397.4,98.9L397.4,98.9L397.4,98.9z M396.5,98.3c0.3,0.2,0.6,0.4,0.8,0.7l0,0
					C397.1,98.7,396.8,98.5,396.5,98.3L396.5,98.3z M372.7,86.7c-1.5,0-2.9,0.8-3.6,2.2c-1,2-0.2,4.4,1.8,5.4l1,0.5
					c0.6,0.3,1.3,0.6,1.9,0.9c0.5,0.3,1,0.5,1.5,0.8c0.6,0.3,1.2,0.4,1.8,0.4c0.6,0,1.2-0.1,1.8-0.4c2.2-0.4,4.3-1.7,5.5-3.8
					c0.1-0.1,0.1-0.2,0.2-0.4c-0.1,0-0.2-0.1-0.2-0.1c-0.1,0-0.1,0-0.1,0c-0.2,0-0.3-0.1-0.4-0.2c-1.9-1.5-4.3-2.2-6.3-3.4l0,0
					c0,0,0,0,0,0l0,0l0,0l0,0l0,0l0,0c0,0,0,0,0,0c0,0,0,0,0,0c0,0,0,0,0,0c0,0,0,0,0,0c0,0,0,0,0,0c0,0,0,0,0,0c0,0,0,0,0,0
					c0,0,0,0-0.1,0c0,0,0,0,0,0c0,0,0,0,0,0c0,0,0,0,0,0c0,0,0,0-0.1,0c0,0,0,0,0,0c0,0,0,0,0,0c0,0,0,0,0,0c0,0,0,0-0.1,0
					c0,0,0,0,0,0c0,0,0,0,0,0c0,0,0,0,0,0c0,0,0,0-0.1,0c0,0,0,0,0,0c0,0,0,0,0,0c0,0,0,0,0,0c0,0,0,0,0,0c0,0,0,0,0,0c0,0,0,0,0,0
					c0,0,0,0,0,0c0,0,0,0,0,0c0,0,0,0,0,0c0,0,0,0,0,0c0,0,0,0,0,0c0,0,0,0,0,0c0,0,0,0-0.1,0c0,0,0,0,0,0c-0.2-0.1-0.4-0.2-0.6-0.3
					c0,0,0,0,0,0c0,0,0,0,0,0c-0.4-0.2-0.8-0.4-1.3-0.6C373.9,86.8,373.3,86.7,372.7,86.7L372.7,86.7z M350.7,75.3
					c-1.5,0-2.9,0.8-3.6,2.3c-1,2-0.1,4.4,1.9,5.3c1.5,0.7,2.7,1.4,3.8,2c0.6,0.4,1.3,0.5,2,0.5c1.4,0,2.7-0.7,3.5-2
					c1.1-1.9,0.5-4.4-1.4-5.5c-0.5-0.3-1.1-0.6-1.6-0.9c0,0,0,0,0,0c0,0,0,0,0,0c0,0,0,0,0,0c0,0,0,0,0,0c0,0,0,0,0,0c0,0,0,0,0,0
					c0,0,0,0,0,0c0,0,0,0,0,0c0,0,0,0,0,0c0,0,0,0,0,0c0,0,0,0,0,0c0,0,0,0,0,0c0,0,0,0,0,0c0,0,0,0,0,0c0,0,0,0,0,0
					c-0.1,0-0.1-0.1-0.2-0.1c0,0,0,0,0,0c0,0,0,0,0,0c0,0,0,0,0,0c0,0,0,0,0,0c0,0,0,0,0,0c0,0,0,0,0,0c0,0,0,0,0,0c0,0,0,0,0,0
					c0,0,0,0,0,0c0,0,0,0,0,0c0,0,0,0,0,0c0,0,0,0,0,0c0,0,0,0,0,0c0,0,0,0,0,0c0,0,0,0,0,0c0,0,0,0,0,0c0,0,0,0,0,0c0,0,0,0,0,0
					c0,0,0,0,0,0c0,0,0,0,0,0c0,0,0,0,0,0c0,0,0,0-0.1,0c0,0,0,0,0,0c0,0,0,0,0,0c0,0,0,0,0,0c0,0,0,0,0,0c0,0,0,0,0,0c0,0,0,0,0,0
					c0,0,0,0,0,0c0,0,0,0,0,0c0,0,0,0,0,0c0,0,0,0,0,0c0,0,0,0,0,0c0,0,0,0,0,0c0,0,0,0,0,0c0,0,0,0,0,0c0,0,0,0,0,0c0,0,0,0,0,0
					c0,0,0,0,0,0c0,0,0,0,0,0c0,0,0,0,0,0c0,0,0,0,0,0c0,0,0,0,0,0c0,0,0,0,0,0c0,0,0,0,0,0c0,0,0,0,0,0c0,0-0.1,0-0.1,0
					c0,0,0,0,0,0c0,0,0,0,0,0c0,0,0,0,0,0c0,0,0,0,0,0c0,0,0,0,0,0c0,0,0,0,0,0c0,0,0,0,0,0c0,0,0,0,0,0c0,0,0,0,0,0c0,0,0,0,0,0
					c0,0,0,0,0,0c0,0,0,0,0,0c0,0,0,0,0,0c0,0,0,0,0,0c0,0,0,0,0,0c0,0,0,0,0,0c0,0,0,0,0,0c0,0,0,0,0,0c0,0,0,0,0,0c0,0,0,0,0,0
					c0,0,0,0,0,0c-0.1,0-0.1-0.1-0.2-0.1c0,0,0,0,0,0c0,0,0,0,0,0c0,0,0,0,0,0c0,0,0,0,0,0c0,0,0,0,0,0c0,0,0,0,0,0c0,0,0,0,0,0
					c0,0,0,0,0,0c0,0,0,0,0,0c0,0,0,0,0,0c0,0,0,0,0,0c0,0,0,0,0,0c0,0,0,0,0,0c0,0,0,0,0,0c0,0,0,0,0,0c0,0,0,0,0,0c0,0,0,0,0,0
					c0,0,0,0,0,0c0,0,0,0,0,0c-0.1,0-0.1-0.1-0.2-0.1c0,0,0,0,0,0c0,0,0,0,0,0c0,0,0,0,0,0c0,0,0,0,0,0c0,0,0,0,0,0c0,0,0,0,0,0
					c0,0,0,0,0,0c0,0,0,0,0,0c0,0,0,0,0,0c0,0,0,0,0,0c0,0,0,0,0,0c0,0,0,0,0,0c0,0,0,0,0,0c0,0,0,0,0,0c0,0,0,0,0,0c0,0,0,0,0,0
					c0,0,0,0,0,0c0,0,0,0,0,0c0,0,0,0,0,0c0,0,0,0,0,0c0,0,0,0,0,0c0,0,0,0,0,0c0,0,0,0,0,0c0,0,0,0,0,0c0,0,0,0,0,0c0,0,0,0,0,0
					c0,0,0,0,0,0c0,0,0,0,0,0c0,0,0,0,0,0c0,0,0,0,0,0c0,0,0,0,0,0c0,0,0,0,0,0C351.9,75.5,351.3,75.3,350.7,75.3L350.7,75.3z
					 M327.3,62.4c-0.2,0.4-0.5,0.9-0.6,1.4c0,0.1,0,0.1-0.1,0.2c-0.6,0.3-1.2,0.8-1.6,1.4c-1.2,1.9-0.6,4.3,1.2,5.5l0.3,0.2
					c0.5,0.3,1,0.6,1.6,0.8c0.4,0.2,0.9,0.4,1.2,0.6c0.6,0.4,1.2,0.8,1.9,1.1c0.1,0.1,0.3,0.1,0.4,0.2c0.5,0.2,1.1,0.3,1.6,0.3
					c1.5,0,3-0.9,3.7-2.4c0.3-0.8,0.4-1.6,0.3-2.4c0.3-0.4,0.6-0.8,0.8-1.3c-1.2-0.7-2.5-1.3-3.8-1.9l0,0c-1-0.8-2.2-1.3-3.4-1.8
					l0,0c-1.1-0.7-2.1-1.3-3.3-1.8l0,0C327.5,62.5,327.4,62.4,327.3,62.4L327.3,62.4z M307,51.7c-1.4,0-2.7,0.7-3.5,2
					c-1.1,1.9-0.5,4.4,1.4,5.5l0.3,0.1c0.1,0.1,0.3,0.2,0.4,0.2l0.2,0.1c1.2,0.6,2.3,1.2,3.3,1.8c0.6,0.4,1.4,0.6,2.1,0.6
					c1.4,0,2.7-0.7,3.4-1.9c0.5-0.8,0.7-1.7,0.6-2.5c0.3-0.3,0.5-0.7,0.8-1c0.1-0.1,0.1-0.2,0.2-0.4c-0.7-0.4-1.5-0.7-2.2-1.1l0,0
					c-1.6-1-3.2-1.9-4.9-2.7l0,0c-0.1,0-0.1-0.1-0.2-0.1C308.4,51.9,307.7,51.7,307,51.7L307,51.7z M285.4,39.2
					c-1.3,0-2.6,0.6-3.3,1.8c-1.2,1.8-0.7,4.3,1.1,5.5c0.3,0.2,0.5,0.4,0.8,0.6c0.9,0.8,2,1.4,3.2,1.8c0.2,0.1,0.4,0.2,0.6,0.3
					c0.6,0.4,1.4,0.6,2,0.6c1.4,0,2.7-0.7,3.4-1.9c1.1-1.9,0.5-4.4-1.4-5.5c0,0,0,0,0,0c0,0,0,0,0,0c0,0,0,0,0,0c0,0,0,0,0,0
					c0,0,0,0,0,0c0,0,0,0,0,0c0,0,0,0,0,0c0,0,0,0,0,0c0,0,0,0,0,0c-0.4-0.2-0.7-0.4-1.1-0.6c0,0,0,0,0,0c0,0,0,0,0,0c0,0,0,0,0,0
					c0,0,0,0,0,0c0,0,0,0,0,0c0,0,0,0,0,0c0,0,0,0,0,0c0,0,0,0,0,0c0,0,0,0,0,0c0,0,0,0,0,0c0,0,0,0,0,0c0,0,0,0,0,0c0,0,0,0,0,0
					c0,0,0,0,0,0c0,0,0,0,0,0c0,0,0,0,0,0c0,0,0,0,0,0c0,0,0,0,0,0c0,0,0,0,0,0c0,0,0,0,0,0c0,0,0,0,0,0c0,0,0,0,0,0c0,0,0,0,0,0
					c0,0,0,0,0,0c0,0,0,0,0,0c0,0,0,0,0,0c0,0,0,0,0,0c0,0,0,0,0,0c0,0,0,0,0,0c0,0,0,0,0,0c0,0,0,0,0,0c0,0,0,0,0,0c0,0,0,0,0,0
					c0,0,0,0,0,0c0,0,0,0,0,0c0,0,0,0,0,0c0,0,0,0,0,0c0,0,0,0,0,0c0,0,0,0,0,0c0,0,0,0,0,0c0,0-0.1,0-0.1-0.1c0,0,0,0,0,0
					c-0.1,0-0.2-0.1-0.2-0.1c0,0,0,0,0,0c0,0,0,0,0,0c0,0,0,0,0,0c0,0,0,0,0,0c0,0,0,0,0,0c0,0,0,0,0,0c0,0,0,0,0,0c0,0,0,0,0,0
					c0,0,0,0,0,0c0,0,0,0-0.1,0c0,0,0,0,0,0c0,0,0,0,0,0c0,0,0,0,0,0c0,0,0,0,0,0c0,0,0,0,0,0c0,0,0,0,0,0c0,0,0,0,0,0c0,0,0,0,0,0
					c0,0,0,0,0,0c0,0,0,0,0,0c0,0,0,0,0,0c0,0,0,0,0,0c0,0,0,0,0,0c0,0,0,0,0,0c0,0,0,0,0,0l0,0l0,0c0,0-0.1,0-0.1,0
					c-0.2,0-0.3-0.1-0.4-0.2l0,0l0,0l0,0l0,0l0,0l0,0l0,0l0,0l0,0l0,0l0,0c-0.3-0.2-0.5-0.4-0.8-0.6c0,0,0,0,0,0c0,0,0,0,0,0
					c0,0,0,0,0,0c0,0,0,0,0,0c0,0,0,0,0,0c0,0,0,0,0,0c0,0,0,0,0,0c0,0,0,0,0,0c0,0,0,0,0,0c0,0,0,0,0,0c0,0,0,0,0,0c0,0,0,0,0,0
					c0,0,0,0,0,0c0,0,0,0,0,0c0,0,0,0,0,0c0,0,0,0,0,0c-0.2-0.1-0.4-0.3-0.6-0.4C287,39.4,286.2,39.2,285.4,39.2L285.4,39.2z
					 M260.2,23c-2.3,3.7-1.3,8.5,2.4,10.9c0.4,0.3,0.9,0.5,1.2,0.7c0.4,0.3,0.7,0.5,1.1,0.7c0.1,0.1,0.3,0.2,0.4,0.2
					c0.2,0.1,0.4,0.2,0.5,0.3l0,0l0.1-0.1c0.8,0.3,1.7,0.4,2.6,0.4c2.1,0,4.2-0.8,5.8-2.5c0.4-0.4,0.7-0.9,1-1.3
					c-0.2-0.1-0.3-0.2-0.5-0.3c0,0,0,0,0,0l0,0c0,0,0,0,0,0c-0.7-0.7-1.6-1-2.4-1.5c0,0,0,0,0,0l0,0c0,0,0,0,0,0
					c-0.4-0.4-1-0.6-1.5-0.9l0,0c-0.7-0.7-1.6-1-2.4-1.5c0,0,0,0,0,0l0,0c0,0,0,0,0,0c-0.4-0.4-1-0.6-1.5-0.9l0,0
					c-1-0.9-2.2-1.5-3.4-2.1c0,0,0,0-0.1,0c-0.3,0-0.6-0.2-0.7-0.5C262,24,261.1,23.5,260.2,23L260.2,23z M243.5,12.6
					c-0.6,0-0.5,0.8-0.5,1.4c-0.1,2.5-0.1,4.9-0.2,7.4c0.4,0.3,0.9,0.6,1.3,0.9c0.3,0.2,0.6,0.4,0.9,0.5c0.3,0.2,0.6,0.3,0.7,0.4
					c0.7,0.4,1.4,0.6,2.1,0.6c1,0,2.1-0.4,2.8-1.2c0.9-0.4,1.8-0.9,2.6-1.6c0.5-0.5,1-1,1.3-1.6c-0.2-0.1-0.5-0.3-0.8-0.4
					c-0.1-0.1-0.2-0.1-0.3-0.2c-0.7-0.7-1.6-1.1-2.4-1.6l0,0c-1-0.9-2.2-1.4-3.3-2.1l0,0c-0.5-0.5-1.2-0.9-1.8-1.2l0,0
					c-0.5-0.5-1.2-0.9-1.9-1.2l0,0C243.9,12.7,243.7,12.6,243.5,12.6L243.5,12.6z"/>
			</g>
			<g>
				<path class="st0" d="M501.3,178.4C501.3,178.4,501.3,178.4,501.3,178.4c-0.2,0-0.4,0.1-0.7,0.3c-0.8,0.6-1.4,1.3-2.1,1.9l0,0
					l0,0l0,0c-1.4,1-2.6,2.1-3.9,3.2c0.1,0.4,0.2,0.9,0.3,1.3c0.4,1.9,2,3.3,3.9,3.3c0.1,0,0.2,0,0.3,0c0.3,0.1,0.6,0.1,0.9,0.1
					c0.9,0,1.8-0.3,2.5-0.9c0.2-0.2,0.5-0.4,0.7-0.6c-0.2-2.7-0.9-5.3-1.3-8C501.8,178.6,501.6,178.4,501.3,178.4L501.3,178.4z
					 M487,190.1c-2.1,1.7-4.2,3.3-6.2,5l0,0l0,0l0,0l0,0c0,0,0,0,0,0c0,0,0,0,0,0c0,0,0,0,0,0c0,0,0,0,0,0c0,0,0,0,0,0c0,0,0,0,0,0
					c0,0,0,0,0,0c0,0,0,0,0,0c0,0,0,0,0,0c0,0,0,0,0,0c0,0,0,0,0,0c0,0,0,0,0,0c0,0,0,0-0.1,0c0,0,0,0,0,0c0,0,0,0,0,0c0,0,0,0,0,0
					c0,0,0,0,0,0c0,0,0,0,0,0c0,0,0,0,0,0c0,0,0,0,0,0c-0.6,0.4-1.2,0.8-1.7,1.2c0,0,0,0,0,0c0,0,0,0,0,0c0,0,0,0,0,0c0,0,0,0,0,0
					c0,0,0,0,0,0c0,0,0,0,0,0c0,0,0,0,0,0c0,0,0,0,0,0c0,0,0,0,0,0c0,0,0,0,0,0c0,0,0,0,0,0c0,0,0,0,0,0c0,0,0,0,0,0c0,0,0,0,0,0
					c0,0,0,0,0,0c0,0,0,0,0,0c-0.2,0.1-0.3,0.2-0.5,0.4c-1.8,1.3-2.1,3.8-0.8,5.6c0.8,1,2,1.6,3.2,1.6c0.8,0,1.7-0.3,2.4-0.8
					c0.8-0.6,1.5-1.1,2.1-1.4c0.4-0.2,0.8-0.5,1.1-0.8c0.4-0.3,0.7-0.6,1.1-0.9c1.1-0.9,1.6-2.1,1.5-3.4c0.4-1.6,0.2-3.2-0.4-4.8
					C487.8,191.4,487.4,190.7,487,190.1L487,190.1z M464.2,208c-0.8,0-1.7,0.3-2.4,0.8c-0.3,0.2-0.5,0.4-0.7,0.6l0,0c0,0,0,0,0,0
					c0,0,0,0,0,0l0,0c-2.3,1.4-4.5,2.9-6.7,4.4c0.3,0.4,0.6,0.9,1,1.2c0.2,0.2,0.4,0.4,0.6,0.5c0.1,0.5,0.3,1,0.6,1.5
					c0.8,1.2,2,1.8,3.3,1.8c0.8,0,1.5-0.2,2.2-0.7c1-0.7,1.9-1.2,2.7-1.7c0.4-0.2,0.8-0.5,1.2-0.8c0.2-0.2,0.4-0.3,0.6-0.5
					c1.8-1.3,2.1-3.8,0.8-5.6C466.7,208.5,465.5,208,464.2,208L464.2,208z M443.2,221.8c-0.7,0-1.5,0.2-2.2,0.6
					c-0.1,0.1-0.2,0.1-0.3,0.2c-0.5,0.3-1.1,0.7-1.6,1c0,0,0,0,0,0c0,0,0,0-0.1,0c0,0,0,0,0,0c0,0,0,0,0,0c0,0,0,0,0,0c0,0,0,0,0,0
					c0,0,0,0,0,0c0,0,0,0,0,0c0,0,0,0,0,0c0,0,0,0,0,0c0,0,0,0,0,0c0,0,0,0,0,0c0,0,0,0,0,0c0,0,0,0,0,0c0,0,0,0,0,0c0,0,0,0,0,0
					c0,0,0,0,0,0c0,0,0,0,0,0c0,0,0,0,0,0c0,0,0,0,0,0c0,0,0,0,0,0c0,0,0,0,0,0c0,0,0,0,0,0c0,0,0,0,0,0c0,0,0,0,0,0c0,0,0,0,0,0
					c0,0,0,0,0,0c0,0,0,0,0,0c0,0,0,0,0,0c0,0,0,0,0,0c0,0,0,0,0,0c0,0,0,0,0,0c0,0,0,0,0,0c0,0,0,0,0,0c0,0,0,0,0,0c0,0,0,0-0.1,0
					c0,0,0,0,0,0c0,0,0,0,0,0c0,0,0,0,0,0c0,0,0,0,0,0c0,0,0,0,0,0c0,0,0,0,0,0c0,0,0,0,0,0c0,0,0,0,0,0c0,0,0,0,0,0c0,0,0,0,0,0
					c0,0,0,0-0.1,0c0,0,0,0,0,0c0,0,0,0,0,0c0,0,0,0,0,0c-0.4,0.2-0.8,0.5-1.2,0.7c0,0,0,0-0.1,0c0,0,0,0,0,0
					c-0.1,0-0.2,0.1-0.2,0.1c-1.9,1.1-2.6,3.6-1.5,5.5c0.7,1.3,2.1,2,3.5,2c0.7,0,1.4-0.2,2-0.5l0.3-0.2c0.7-0.4,1.4-0.8,2-1.2
					c0.7-0.5,1.5-0.9,2.2-1.4c1.9-1.2,2.4-3.7,1.2-5.5C445.8,222.4,444.5,221.8,443.2,221.8L443.2,221.8z M425.8,231.6
					c-1.8,0.9-3.5,1.8-5.2,3.1l0,0c-0.6,0.3-1.3,0.4-1.8,0.9l0,0l0,0c0,0,0,0,0,0c0,0,0,0,0,0l0,0l0,0l0,0c0,0,0,0,0,0
					c-1.9,0.8-3.7,1.9-5.4,3l0,0l0,0l0,0c-0.4,0.2-0.9,0.2-1.2,0.6c0,0,0,0,0,0l0,0l0,0l0,0c0,0,0,0,0,0c-0.1,0-0.3,0.1-0.4,0.2
					c0.2,0.4,0.5,0.8,0.8,1.2c0.3,0.3,0.6,0.7,0.9,0.9c0.1,0.4,0.2,0.8,0.4,1.1c-1,1-1.4,2.6-1,4c0.5,1.7,2.1,2.8,3.8,2.8
					c0.4,0,0.8-0.1,1.2-0.2c0.7-0.2,1.3-0.4,2-0.6c0,0,0,0,0,0c0,0,0,0,0.1,0c0,0,0,0,0,0c0,0,0,0,0.1,0c0,0,0,0,0,0
					c0,0,0.1,0,0.1,0c0,0,0,0,0,0c0,0,0,0,0,0c0,0,0,0,0,0c0,0,0,0,0,0c0,0,0,0,0,0c0,0,0,0,0,0c0,0,0,0,0,0c0,0,0,0,0,0
					c0,0,0,0,0.1,0c0,0,0,0,0,0c0,0,0,0,0.1,0c0,0,0,0,0,0c0.7-0.2,1.4-0.5,2.2-0.7c2.1-0.7,3.2-3,2.5-5c-0.2-0.5-0.4-1-0.8-1.4
					c2.5-2.4,3.2-6.3,1.5-9.5C425.9,231.7,425.8,231.7,425.8,231.6L425.8,231.6z M399.8,246.2c-0.3,0-0.6,0-0.9,0.1c0,0-0.1,0-0.1,0
					c-0.3,0.1-0.6,0.2-0.9,0.3c-0.4,0.2-0.8,0.4-1.2,0.6l0,0c-2.5,1.3-5,2.5-7.5,3.8c-0.3,0.8-0.4,1.6-0.1,2.5
					c0.5,1.8,2.1,2.9,3.9,2.9c0.4,0,0.7,0,1.1-0.1c0,0,0.1,0,0.1,0h0c1.9-0.5,3.7-1,5.6-1.6c0.7-0.4,1.4-0.7,2-1.1
					c1.9-1,2.7-3.5,1.6-5.4C402.6,246.9,401.2,246.2,399.8,246.2L399.8,246.2z M377.6,256.8c-2.4,0.9-4.7,2.1-7,3.3c0,0,0,0,0,0l0,0
					l0,0l0,0c0,0,0,0,0,0c-1.4,0.5-2.8,1.1-4.2,1.8c0.7,0.6,1.6,0.9,2.5,0.9c0,0,0.1,0,0.1,0c0,0,0,0.1,0,0.1
					c2.5-0.6,5.1-1.2,7.6-1.8c1.5-0.4,2.9-0.7,4.4-1.1c0-0.1,0-0.1-0.1-0.2c-0.6-1.3-1.8-2.2-3.2-2.4
					C377.6,257.1,377.6,257,377.6,256.8L377.6,256.8z M444.9,231.8c-0.5,0-0.9,0.1-1.4,0.3c-1.5,0.6-3.1,1.1-4.6,1.7
					c-2.1,0.7-3.2,3-2.4,5.1c0.6,1.6,2.1,2.6,3.8,2.6c0.4,0,0.9-0.1,1.4-0.2c0,0,0.1,0,0.1,0c0,0,0,0,0,0c0,0,0,0,0.1,0c0,0,0,0,0,0
					c0,0,0,0,0,0c1.5-0.5,3-1.1,4.4-1.6c2.1-0.8,3.1-3.1,2.3-5.1C448,232.7,446.5,231.8,444.9,231.8L444.9,231.8z M467.9,222.5
					c-0.5,0-1.1,0.1-1.6,0.3c-1.5,0.6-3,1.3-4.5,1.9c-2,0.8-3,3.2-2.2,5.2c0.6,1.5,2.1,2.5,3.7,2.5c0.5,0,1-0.1,1.5-0.3
					c1-0.4,2-0.8,3-1.2c0,0,0,0,0,0c0,0,0,0,0.1,0c0,0,0,0,0,0c0,0,0,0,0.1,0c0,0,0,0,0,0c0,0,0,0,0.1,0c0,0,0,0,0,0
					c0.1,0,0.1,0,0.2-0.1c0,0,0,0,0,0c0,0,0,0,0.1,0c0,0,0,0,0,0c0,0,0,0,0.1,0c0,0,0,0,0,0c0,0,0,0,0.1,0c0,0,0,0,0,0
					c0,0,0,0,0.1,0c0,0,0,0,0,0c0,0,0.1,0,0.1,0c0,0,0,0,0,0c0,0,0,0,0.1,0c0,0,0,0,0,0c0,0,0,0,0.1,0c0,0,0,0,0,0c0,0,0,0,0.1,0
					c0,0,0,0,0,0c0.2-0.1,0.4-0.2,0.5-0.2c2-0.9,3-3.2,2.1-5.2C471,223.4,469.5,222.5,467.9,222.5L467.9,222.5z M490.5,212.2
					c-0.6,0-1.2,0.1-1.7,0.4c-1.5,0.7-3,1.4-4.4,2.1c-2,0.9-2.8,3.3-1.9,5.3c0.7,1.4,2.1,2.3,3.6,2.3c0.6,0,1.2-0.1,1.7-0.4
					c0.2-0.1,0.5-0.2,0.7-0.4c0,0,0,0,0,0c0,0,0,0,0.1,0c0,0,0,0,0,0c0,0,0,0,0,0c0,0,0,0,0,0c0,0,0,0,0,0c1-0.5,2-1,3-1.4
					c0,0,0,0,0,0c0,0,0,0,0,0c0,0,0,0,0.1,0c0,0,0,0,0,0c0,0,0,0,0.1,0c0,0,0,0,0,0c0.1-0.1,0.3-0.1,0.4-0.2c2-1,2.8-3.4,1.8-5.3
					C493.4,213,492,212.2,490.5,212.2L490.5,212.2z M501.4,200c-0.1,0-0.3,0-0.4,0c-2.2,0.2-3.8,2.2-3.6,4.4l0.1,1l0.1,1.1
					c0.1,0.9,0.2,1.8,0.2,2.6c0.1,2.1,1.9,3.7,4,3.7c0.1,0,0.2,0,0.3,0c2.2-0.1,3.9-2.1,3.7-4.3c0-0.4-0.1-0.7-0.1-1.1c0,0,0,0,0,0
					c0,0,0,0,0,0c0,0,0,0,0,0c0,0,0-0.1,0-0.1c0,0,0,0,0,0c0,0,0,0,0,0c0,0,0,0,0,0c0,0,0,0,0,0c0,0,0,0,0,0c0,0,0-0.1,0-0.1
					c0,0,0,0,0,0c0-0.1,0-0.1,0-0.2c0,0,0,0,0,0c0-0.1,0-0.2,0-0.3c0,0,0,0,0,0c0,0,0,0,0,0c0,0,0,0,0,0c0,0,0,0,0,0c0,0,0,0,0,0
					c0,0,0,0,0,0c0,0,0,0,0-0.1v0c-0.1-0.6-0.1-1.3-0.2-1.9c0-0.3-0.1-0.6-0.1-0.8c0-0.1,0-0.1,0-0.2
					C505.2,201.5,503.4,200,501.4,200L501.4,200z"/>
			</g>
		</g>
	</g>
</g>
</svg>
