<?xml version="1.0" encoding="utf-8"?>
<!-- Generator: Adobe Illustrator 21.0.2, SVG Export Plug-In . SVG Version: 6.00 Build 0)  -->
<svg version="1.1" id="Layer_1" xmlns="http://www.w3.org/2000/svg" xmlns:xlink="http://www.w3.org/1999/xlink" x="0px" y="0px"
	 viewBox="0 0 180.3 184.3" style="enable-background:new 0 0 180.3 184.3;" xml:space="preserve">
<g>
	<path d="M49.9,73.8L35.8,91.1C27,80.5,15,71.7,0,64.7l13.1-16.9C30.8,56.8,43.1,65.5,49.9,73.8z M53,109.2
		c-5.6,20.7-16,45.4-31.4,74L2,170.7c12.6-21,22.7-44.6,30.2-70.7L53,109.2z M56.4,25.3L42.2,42.6C33,32,21.8,23.4,8.5,16.8L21.6,0
		C36.7,7.6,48.3,16,56.4,25.3z M179.1,161.6c0,15.1-7.6,22.7-22.9,22.7h-19.6l-6.4-21.4c6,0.5,11.6,0.8,16.8,0.8l6.1-0.2
		c3.7,0,5.6-2,5.6-6v-135H78.8v161.8H58.4V2.8h120.7V161.6z M152.3,56.6H85V37.2h67.2V56.6z M147.9,144.7H89.6V71.5h58.3V144.7z
		 M128.1,125.4V90.9h-18.7v34.5H128.1z"/>
</g>
</svg>
