<?xml version="1.0" encoding="utf-8"?>
<!-- Generator: Adobe Illustrator 21.0.2, SVG Export Plug-In . SVG Version: 6.00 Build 0)  -->
<svg version="1.1" id="Layer_1" xmlns="http://www.w3.org/2000/svg" xmlns:xlink="http://www.w3.org/1999/xlink" x="0px" y="0px"
	 viewBox="0 0 161 184.3" style="enable-background:new 0 0 161 184.3;" xml:space="preserve">
<g>
	<path d="M161,161.2c0,15.1-7.5,22.6-22.6,22.6h-21.2l-6.5-21.4c5.9,0.5,11.5,0.8,16.6,0.8l5.8-0.2c4.1,0,6.1-2,6.1-6v-98H91.5
		c4.9,22.8,19.9,45.2,45,67.1L120.1,144c-21.6-21.1-35-38.7-40.4-52.9C70.7,113,57.9,130.6,41.2,144l-16.4-17.8
		c21.5-13.1,35.7-35.5,42.8-67.1H21.8v125.2H0V37.7h68.2V21.1H28.6V0h62v37.7H161V161.2z"/>
</g>
</svg>
