<?xml version="1.0" encoding="utf-8"?>
<!-- Generator: Adobe Illustrator 21.0.2, SVG Export Plug-In . SVG Version: 6.00 Build 0)  -->
<svg version="1.1" id="레이어_1" xmlns="http://www.w3.org/2000/svg" xmlns:xlink="http://www.w3.org/1999/xlink" x="0px"
	 y="0px" viewBox="0 0 841.9 595.3" style="enable-background:new 0 0 841.9 595.3;" xml:space="preserve">
<style type="text/css">
	.st0{fill:#FFFFFF;}
</style>
<g>
	<g>
		<g>
			<path class="st0" d="M286.7,157.4c0,0-0.1,0-0.1,0c0,0,0,0,0,0c0,0-0.1,0-0.1,0c0,0,0,0,0,0c0,0-0.1,0-0.1,0c0,0,0,0-0.1,0
				c0,0-0.1,0-0.1,0c0,0,0,0-0.1,0c0,0-0.1,0-0.1,0c0,0-0.1,0-0.1,0c0,0,0,0-0.1,0c0,0-0.1,0-0.1,0c0,0,0,0,0,0c0,0-0.1,0-0.1,0
				c0,0,0,0,0,0c-0.1,0-0.1,0-0.2,0c0,0,0,0,0,0c-1.2,0-2.5,0-3.7,0c-2.2,0.1-3.9,1.9-3.9,4.1c0,2.2,1.8,3.9,4,3.9c0,0,0.1,0,0.1,0
				c1.6,0,3.2,0,4.8,0c2.2,0,4-1.8,4-4C290.7,159.2,288.9,157.4,286.7,157.4L286.7,157.4z M262.1,158.6c-0.1,0-0.3,0-0.4,0
				c-1.7,0.2-3.3,0.3-5,0.5c-2.2,0.3-3.8,2.3-3.5,4.4c0.2,2,2,3.5,4,3.5c0.2,0,0.3,0,0.5,0c1.6-0.2,3.2-0.4,4.8-0.5
				c2.2-0.2,3.8-2.2,3.6-4.4C265.9,160.1,264.2,158.6,262.1,158.6L262.1,158.6z M237.8,162.2c-0.3,0-0.5,0-0.8,0.1
				c-1.6,0.3-3.3,0.7-4.9,1c-2.2,0.5-3.5,2.6-3.1,4.8c0.4,1.9,2.1,3.1,3.9,3.1c0.3,0,0.6,0,0.9-0.1c1.6-0.3,3.2-0.7,4.7-1
				c2.2-0.4,3.6-2.5,3.1-4.7C241.3,163.5,239.7,162.2,237.8,162.2L237.8,162.2z M213.9,168.1c-0.4,0-0.8,0.1-1.1,0.2
				c-0.6,0.2-1.2,0.4-1.9,0.6c0,0,0,0,0,0c0,0-0.1,0-0.1,0c0,0,0,0-0.1,0c0,0,0,0-0.1,0c0,0-0.1,0-0.1,0c0,0,0,0,0,0
				c0,0-0.1,0-0.1,0c0,0,0,0,0,0c-0.8,0.2-1.6,0.5-2.4,0.8c-2.1,0.7-3.3,2.9-2.6,5c0.5,1.7,2.1,2.8,3.8,2.8c0.4,0,0.8-0.1,1.2-0.2
				c1.5-0.5,3.1-1,4.6-1.4c2.1-0.6,3.3-2.9,2.7-5C217.2,169.3,215.6,168.1,213.9,168.1L213.9,168.1z M190.8,176.4
				c-0.5,0-1,0.1-1.5,0.3c0,0,0,0,0,0c0,0-0.1,0-0.1,0c0,0,0,0,0,0c0,0-0.1,0-0.1,0.1c0,0,0,0,0,0c-0.5,0.2-1,0.4-1.6,0.7
				c0,0,0,0,0,0c0,0-0.1,0-0.1,0c0,0,0,0,0,0c0,0-0.1,0-0.1,0c0,0,0,0-0.1,0c0,0,0,0-0.1,0c0,0-0.1,0-0.1,0.1c0,0,0,0,0,0
				c-0.7,0.3-1.5,0.6-2.2,1c-2,0.9-2.9,3.2-2,5.3c0.7,1.5,2.1,2.4,3.7,2.4c0.5,0,1.1-0.1,1.6-0.3c1.5-0.6,3-1.3,4.5-1.9
				c2-0.8,3-3.2,2.2-5.2C193.8,177.4,192.3,176.4,190.8,176.4L190.8,176.4z M168.5,187c-0.6,0-1.3,0.2-1.9,0.5
				c-1.5,0.8-2.9,1.6-4.4,2.4c0,0,0,0,0,0c-1.9,1.1-2.6,3.5-1.5,5.4c0.7,1.3,2.1,2,3.5,2c0.7,0,1.3-0.2,1.9-0.5
				c1.4-0.8,2.8-1.6,4.3-2.3c1.9-1,2.7-3.5,1.6-5.4C171.3,187.7,170,187,168.5,187L168.5,187z M147.4,199.6c-0.8,0-1.5,0.2-2.2,0.7
				c-0.5,0.4-1.1,0.7-1.6,1.1c0,0,0,0,0,0c0,0-0.1,0-0.1,0.1c0,0,0,0,0,0c0,0-0.1,0-0.1,0.1c0,0,0,0,0,0c-0.1,0.1-0.2,0.1-0.3,0.2
				c0,0,0,0,0,0c0,0,0,0-0.1,0c0,0,0,0-0.1,0c0,0,0,0-0.1,0c0,0,0,0-0.1,0c0,0,0,0,0,0c0,0-0.1,0-0.1,0.1c0,0,0,0,0,0
				c-0.1,0.1-0.2,0.1-0.2,0.2c0,0,0,0,0,0c0,0-0.1,0-0.1,0.1c0,0,0,0,0,0c0,0-0.1,0-0.1,0.1c0,0,0,0,0,0c0,0-0.1,0-0.1,0.1
				c0,0,0,0,0,0c0,0-0.1,0-0.1,0.1c0,0,0,0,0,0c0,0-0.1,0.1-0.1,0.1c0,0,0,0,0,0c0,0,0,0-0.1,0c0,0,0,0-0.1,0c0,0,0,0-0.1,0
				c0,0,0,0-0.1,0c0,0,0,0,0,0c0,0-0.1,0-0.1,0.1c0,0,0,0,0,0c-0.1,0-0.1,0.1-0.2,0.1c-1.8,1.3-2.3,3.7-1,5.6c0.8,1.1,2,1.7,3.3,1.7
				c0.8,0,1.6-0.2,2.3-0.7c1.3-0.9,2.7-1.8,4-2.7c1.8-1.2,2.3-3.7,1.1-5.5C150,200.2,148.7,199.6,147.4,199.6L147.4,199.6z
				 M127.6,214.2c-0.9,0-1.8,0.3-2.5,0.9c-0.5,0.4-0.9,0.8-1.4,1.1c0,0,0,0,0,0c0,0-0.1,0.1-0.1,0.1c0,0,0,0,0,0
				c-0.1,0.1-0.2,0.2-0.3,0.2c0,0,0,0,0,0c0,0,0,0-0.1,0.1c0,0,0,0-0.1,0c0,0,0,0-0.1,0c0,0,0,0-0.1,0.1c0,0,0,0,0,0
				c0,0-0.1,0-0.1,0.1c0,0,0,0,0,0c-0.6,0.5-1.1,0.9-1.7,1.4c-1.7,1.4-1.9,3.9-0.5,5.6c0.8,0.9,1.9,1.4,3.1,1.4
				c0.9,0,1.8-0.3,2.6-0.9c1.2-1,2.5-2.1,3.7-3.1c1.7-1.4,2-3.9,0.6-5.6C129.9,214.7,128.7,214.2,127.6,214.2L127.6,214.2z
				 M109.2,230.6c-1,0-2,0.4-2.8,1.1c-0.3,0.3-0.7,0.6-1,1c0,0,0,0,0,0c0,0,0,0-0.1,0.1c0,0,0,0,0,0c0,0,0,0,0,0c0,0,0,0-0.1,0.1
				c0,0,0,0,0,0c0,0-0.1,0.1-0.1,0.1c0,0,0,0,0,0c-0.7,0.7-1.5,1.5-2.2,2.2c-1.5,1.6-1.5,4.1,0,5.7c0.8,0.8,1.8,1.1,2.8,1.1
				c1,0,2.1-0.4,2.9-1.2c1.1-1.2,2.3-2.3,3.4-3.4c1.6-1.5,1.6-4.1,0.1-5.7C111.3,231,110.3,230.6,109.2,230.6L109.2,230.6z
				 M92.4,248.6c-1.1,0-2.2,0.5-3,1.4c-0.3,0.4-0.6,0.8-1,1.1c0,0,0,0,0,0c0,0,0,0-0.1,0.1c0,0,0,0,0,0c0,0-0.1,0.1-0.1,0.1
				c0,0,0,0,0,0c0,0,0,0-0.1,0.1c0,0,0,0,0,0c0,0,0,0,0,0.1c0,0-0.1,0.1-0.1,0.1c0,0,0,0,0,0.1c0,0,0,0,0,0.1c0,0,0,0,0,0.1
				c0,0,0,0,0,0c0,0-0.1,0.1-0.1,0.1c0,0,0,0,0,0c0,0,0,0-0.1,0.1c0,0,0,0,0,0c-0.1,0.1-0.1,0.2-0.2,0.2c0,0,0,0,0,0
				c0,0,0,0.1-0.1,0.1c0,0,0,0,0,0c-0.4,0.5-0.8,0.9-1.2,1.4c-1.4,1.7-1.1,4.2,0.6,5.6c0.7,0.6,1.6,0.9,2.5,0.9
				c1.2,0,2.3-0.5,3.1-1.5c1-1.2,2.1-2.5,3.1-3.7c1.4-1.7,1.2-4.2-0.4-5.6C94.3,248.9,93.3,248.6,92.4,248.6L92.4,248.6z M77.3,268
				c-1.2,0-2.5,0.6-3.3,1.7c-0.1,0.2-0.2,0.3-0.3,0.5c0,0,0,0,0,0c0,0,0,0.1-0.1,0.1c0,0,0,0,0,0c0,0-0.1,0.1-0.1,0.1c0,0,0,0,0,0
				c0,0,0,0,0,0.1c0,0,0,0,0,0.1c0,0,0,0,0,0.1c0,0,0,0.1-0.1,0.1c0,0,0,0,0,0c0,0,0,0.1-0.1,0.1c0,0,0,0,0,0c0,0,0,0.1-0.1,0.1
				c0,0,0,0,0,0c0,0-0.1,0.1-0.1,0.1c0,0,0,0,0,0c0,0-0.1,0.1-0.1,0.1c0,0,0,0,0,0c-0.1,0.1-0.1,0.2-0.2,0.2c0,0,0,0,0,0
				c0,0-0.1,0.1-0.1,0.1l0,0c0,0-0.1,0.1-0.1,0.1l0,0c0,0-0.1,0.1-0.1,0.1c0,0,0,0,0,0c-0.1,0.1-0.1,0.2-0.2,0.2c0,0,0,0,0,0
				c0,0,0,0.1-0.1,0.1c0,0,0,0,0,0c0,0-0.1,0.1-0.1,0.1c0,0,0,0,0,0c0,0,0,0.1-0.1,0.1c0,0,0,0,0,0c0,0,0,0.1-0.1,0.1c0,0,0,0,0,0.1
				c0,0,0,0.1-0.1,0.1c0,0,0,0,0,0.1c0,0,0,0,0,0c-0.2,0.3-0.4,0.6-0.7,1c-1.2,1.8-0.8,4.3,1.1,5.5c0.7,0.5,1.5,0.7,2.3,0.7
				c1.3,0,2.5-0.6,3.3-1.7c0.9-1.3,1.8-2.7,2.8-4c1.3-1.8,0.9-4.3-0.9-5.6C78.9,268.3,78.1,268,77.3,268L77.3,268z M63.9,288.7
				c-1.4,0-2.7,0.7-3.5,2c0,0-0.1,0.1-0.1,0.1l0,0c-0.3,0.6-0.7,1.2-1,1.8c0,0,0,0,0,0c0,0.1-0.1,0.2-0.1,0.3c0,0,0,0,0,0
				c0,0,0,0.1-0.1,0.1c0,0,0,0,0,0c0,0,0,0.1-0.1,0.1c0,0,0,0,0,0c0,0,0,0,0,0.1c0,0,0,0,0,0.1c0,0,0,0,0,0c0,0-0.1,0.1-0.1,0.2
				c0,0,0,0,0,0c0,0,0,0.1-0.1,0.1c0,0,0,0,0,0c-0.3,0.5-0.5,1-0.8,1.5c-1.1,1.9-0.4,4.3,1.6,5.4c0.6,0.3,1.3,0.5,1.9,0.5
				c1.4,0,2.8-0.7,3.5-2.1c0.8-1.4,1.6-2.8,2.4-4.2c1.1-1.9,0.5-4.4-1.4-5.5C65.3,288.9,64.6,288.7,63.9,288.7L63.9,288.7z
				 M52.5,310.5c-1.5,0-2.9,0.8-3.6,2.3c-0.1,0.3-0.3,0.6-0.4,1c0,0,0,0,0,0c0,0,0,0.1,0,0.1c0,0,0,0,0,0c0,0,0,0.1-0.1,0.1
				c0,0,0,0.1,0,0.1c0,0,0,0,0,0c0,0,0,0.1,0,0.1c0,0,0,0,0,0c0,0.1-0.1,0.2-0.1,0.3c0,0,0,0,0,0c-0.4,0.8-0.8,1.7-1.2,2.6
				c0,0,0,0,0,0c0,0,0,0.1-0.1,0.1c0,0,0,0,0,0c0,0,0,0.1,0,0.1c0,0,0,0,0,0c-0.9,2,0,4.4,2,5.3c0.5,0.2,1.1,0.4,1.6,0.4
				c1.5,0,3-0.9,3.7-2.4c0.7-1.5,1.3-3,2-4.4c0.9-2,0.1-4.4-1.9-5.3C53.7,310.7,53.1,310.5,52.5,310.5L52.5,310.5z M43,333.3
				c-1.6,0-3.1,1-3.7,2.6c-0.6,1.6-1.1,3.2-1.7,4.7c-0.7,2.1,0.4,4.4,2.5,5.1c0.4,0.2,0.9,0.2,1.3,0.2c1.7,0,3.2-1,3.8-2.7
				c0.5-1.5,1.1-3.1,1.6-4.6c0.8-2.1-0.3-4.4-2.4-5.1C43.9,333.4,43.5,333.3,43,333.3L43,333.3z M35.5,356.8c-1.8,0-3.4,1.2-3.9,3
				c0,0.2-0.1,0.3-0.1,0.5l0,0c0,0,0,0.1,0,0.1c0,0,0,0,0,0c0,0,0,0.1,0,0.1l0,0c0,0,0,0.1,0,0.1c0,0,0,0,0,0c0,0,0,0.1,0,0.1
				c0,0,0,0,0,0c0,0,0,0.1,0,0.1c0,0,0,0,0,0.1c0,0,0,0,0,0.1c0,0,0,0,0,0.1c0,0,0,0.1,0,0.1c0,0,0,0,0,0.1c0,0,0,0,0,0.1
				c0,0,0,0.1,0,0.1c0,0,0,0,0,0.1c0,0,0,0,0,0.1c0,0,0,0.1,0,0.1c0,0,0,0,0,0.1c0,0,0,0,0,0.1c0,0,0,0.1,0,0.1c0,0,0,0,0,0.1
				c0,0,0,0,0,0.1c0,0,0,0.1,0,0.1c0,0,0,0,0,0.1c0,0,0,0.1,0,0.1c0,0,0,0,0,0.1c0,0,0,0.1,0,0.1c0,0,0,0,0,0.1c0,0,0,0.1,0,0.1
				c0,0,0,0,0,0c0,0,0,0.1,0,0.1c0,0,0,0,0,0c0,0,0,0.1,0,0.1c0,0,0,0,0,0c0,0,0,0.1,0,0.1c0,0,0,0,0,0c-0.1,0.5-0.3,1-0.4,1.5
				c-0.5,2.1,0.8,4.3,2.9,4.8c0.3,0.1,0.6,0.1,1,0.1c1.8,0,3.4-1.2,3.9-3c0.4-1.6,0.8-3.1,1.2-4.7c0.6-2.1-0.7-4.3-2.8-4.9
				C36.2,356.8,35.9,356.8,35.5,356.8L35.5,356.8z M30.3,380.8c-1.9,0-3.6,1.4-3.9,3.3c0,0.3-0.1,0.6-0.1,0.9c0,0,0,0,0,0
				c0,0,0,0.1,0,0.1c0,0,0,0,0,0c0,0,0,0.1,0,0.1c0,0,0,0,0,0.1c0,0,0,0,0,0.1c0,0,0,0.1,0,0.1c0,0,0,0,0,0c0,0,0,0.1,0,0.1
				c0,0,0,0,0,0c0,0,0,0.1,0,0.1c0,0,0,0,0,0c0,0.1,0,0.2,0,0.3l0,0c-0.1,0.6-0.2,1.2-0.3,1.8c0,0,0,0,0,0c0,0,0,0.1,0,0.1
				c0,0,0,0,0,0c0,0,0,0.1,0,0.1c0,0.3-0.1,0.6-0.1,0.8c-0.3,2.2,1.2,4.2,3.4,4.5c0.2,0,0.4,0,0.6,0c1.9,0,3.7-1.4,4-3.4
				c0.2-1.6,0.5-3.2,0.8-4.8c0.4-2.2-1.1-4.2-3.3-4.6C30.8,380.8,30.6,380.8,30.3,380.8L30.3,380.8z M27.3,405.3
				c-2.1,0-3.8,1.6-4,3.7c-0.1,1-0.2,1.9-0.2,2.9c0,0,0,0,0,0c0,0,0,0.1,0,0.1c0,0,0,0,0,0c0,0.1,0,0.1,0,0.2c0,0,0,0,0,0
				c0,0,0,0,0,0.1c0,0,0,0.1,0,0.1c0,0,0,0,0,0.1c0,0,0,0.1,0,0.1c0,0,0,0,0,0c0,0,0,0.1,0,0.1c0,0,0,0,0,0c0,0.1,0,0.1,0,0.2l0,0
				c0,0.4-0.1,0.7-0.1,1.1c-0.2,2.2,1.5,4.1,3.7,4.3c0.1,0,0.2,0,0.3,0c2.1,0,3.8-1.6,4-3.7c0.1-1.6,0.2-3.3,0.4-4.9
				c0.2-2.2-1.5-4.1-3.7-4.3C27.5,405.3,27.4,405.3,27.3,405.3L27.3,405.3z M26.1,430c-2.2,0-4,1.7-4,3.9c0,0.3,0,0.6,0,1l0,0
				c0,0,0,0.1,0,0.1l0,0l0,0c0,1.2,0,2.4,0,3.7c0,0,0,0,0,0c0,0,0,0,0,0c0,0,0,0,0,0c0,0,0,0,0,0c0,0,0,0,0,0c0,0,0,0,0,0
				c0,0,0,0,0,0c0,0,0,0,0,0c0,0,0,0,0,0c0.1,2.2,1.8,3.9,4,3.9c0,0,0.1,0,0.1,0c2.2-0.1,4-1.9,3.9-4.1c0-1.3,0-2.5,0-3.6l0-1.1
				C30.1,431.8,28.4,430,26.1,430C26.2,430,26.1,430,26.1,430L26.1,430z M27.8,454.3c-0.2,0-0.4,0-0.5,0c-2.2,0.3-3.7,2.3-3.4,4.5
				c0.1,0.4,0.1,0.8,0.2,1.2c0,0,0,0,0,0c0,0,0,0,0,0c0.2,1.2,0.4,2.5,0.5,3.7c0.3,2,2,3.4,3.9,3.4c0.2,0,0.4,0,0.6,0
				c2.2-0.3,3.7-2.4,3.3-4.6c-0.2-1.6-0.5-3.2-0.7-4.8C31.5,455.8,29.8,454.3,27.8,454.3L27.8,454.3z M32.4,478.4
				c-0.3,0-0.6,0-1,0.1c-2.1,0.5-3.4,2.7-2.9,4.8c0.1,0.5,0.3,1,0.4,1.5c0,0,0,0,0,0.1c0,0,0,0.1,0,0.1c0,0,0,0,0,0c0,0,0,0,0,0.1
				c0,0,0,0,0,0c0,0,0,0,0,0.1c0,0,0,0,0,0c0,0,0,0,0,0.1c0,0,0,0,0,0c0,0,0,0,0,0.1c0,0,0,0,0,0c0,0,0,0,0,0.1c0,0,0,0,0,0
				c0,0,0,0,0,0.1c0,0,0,0,0,0c0,0,0,0.1,0,0.1c0,0,0,0,0,0c0,0,0,0.1,0,0.1c0,0,0,0,0,0c0,0,0,0.1,0,0.1c0,0,0,0,0,0
				c0.2,0.7,0.4,1.4,0.6,2.1c0,0,0,0,0,0c0,0,0,0.1,0,0.1c0,0,0,0,0,0c0.5,1.8,2.1,2.9,3.9,2.9c0.4,0,0.7,0,1.1-0.1
				c2.1-0.6,3.4-2.8,2.8-4.9c-0.3-1-0.6-2.1-0.8-3.1c-0.1-0.5-0.3-1-0.4-1.5C35.8,479.6,34.2,478.4,32.4,478.4L32.4,478.4z
				 M39.9,501.6c-0.5,0-1,0.1-1.5,0.3c-2,0.8-3,3.2-2.2,5.2c0.6,1.4,1.2,2.7,1.8,4.1c0,0,0,0,0,0c0,0,0,0,0,0.1c0,0,0,0,0,0
				c0,0,0,0,0,0.1c0,0,0,0,0,0c0,0,0,0,0,0c0,0,0,0,0,0.1c0,0,0,0,0,0c0,0,0,0,0,0.1l0,0c0,0,0,0.1,0.1,0.1c0.7,1.5,2.1,2.3,3.6,2.3
				c0.6,0,1.1-0.1,1.7-0.4c2-0.9,2.9-3.3,2-5.3c-0.6-1.4-1.3-2.9-1.9-4.3C43,502.5,41.5,501.6,39.9,501.6L39.9,501.6z M51.3,522.9
				c-0.8,0-1.5,0.2-2.2,0.7c-1.8,1.2-2.3,3.7-1.1,5.5c0,0,0,0,0,0c0,0.1,0.1,0.1,0.1,0.2c0,0,0,0,0,0c0,0,0,0,0,0.1c0,0,0,0,0,0
				c0,0,0,0,0,0c0,0,0,0,0,0c0,0,0,0.1,0.1,0.1c0,0,0,0,0,0c0,0,0,0,0,0c0,0,0,0,0,0c0,0,0,0,0,0c0,0,0,0,0,0.1c0,0,0,0,0,0
				c0,0,0,0,0,0.1c0,0,0,0,0,0c0,0,0,0,0,0.1c0,0,0,0,0,0c0,0,0,0,0,0.1c0,0,0,0,0,0c0,0.1,0.1,0.1,0.1,0.2c0,0,0,0,0,0
				c0.1,0.1,0.1,0.2,0.2,0.3c0,0,0,0,0,0c0.1,0.1,0.1,0.2,0.2,0.2c0,0,0,0,0,0c0.1,0.1,0.1,0.2,0.2,0.2c0,0,0,0,0,0c0,0,0,0,0,0.1
				c0,0,0,0,0,0c0,0,0,0.1,0.1,0.1l0,0l0,0c0,0,0,0.1,0.1,0.1c0,0,0,0,0,0c0,0,0,0,0,0c0,0,0,0,0,0c0,0,0,0,0,0c0,0,0,0,0,0
				c0,0,0,0,0,0c0,0,0,0,0,0c0,0,0,0,0,0c0,0,0,0,0,0c0,0,0,0,0,0c0,0,0,0,0,0c0,0,0,0,0,0c0,0,0,0,0,0c0,0,0,0,0,0c0,0,0,0,0,0
				c0,0,0,0,0,0c0,0,0,0,0,0c0,0,0,0,0,0c0,0,0,0,0,0c0,0,0,0,0,0c0,0,0,0,0,0c0,0,0,0,0,0c0,0,0,0,0,0c0,0,0,0,0,0c0,0,0,0,0,0
				c0,0,0,0,0,0c0,0,0,0,0,0c0,0,0,0,0,0c0,0,0,0,0,0.1c0,0,0,0,0,0c0,0,0,0,0,0.1c0,0,0,0,0,0c0,0,0,0,0,0.1c0,0,0,0,0,0
				c0.2,0.3,0.4,0.6,0.6,0.9c0.8,1.1,2,1.6,3.2,1.6c0.8,0,1.7-0.3,2.4-0.8c1.8-1.3,2.2-3.8,0.9-5.6c-0.5-0.6-0.9-1.2-1.4-1.9
				c-0.4-0.6-0.9-1.3-1.3-1.9C53.9,523.6,52.6,522.9,51.3,522.9L51.3,522.9z M67,540.9c-1.1,0-2.3,0.5-3.1,1.4
				c-1.4,1.7-1.2,4.2,0.5,5.6c0.9,0.8,1.9,1.5,2.8,2.3l0,0c0,0,0,0,0.1,0c0,0,0,0,0,0c0,0,0,0,0.1,0c0,0,0,0,0,0c0,0,0,0,0.1,0
				c0,0,0,0,0,0c0,0,0,0,0.1,0c0,0,0,0,0,0c0.1,0,0.1,0.1,0.2,0.1c0,0,0,0,0,0c0,0,0,0,0.1,0c0,0,0,0,0,0c0,0,0,0,0,0c0,0,0,0,0,0
				c0,0,0,0,0,0c0,0,0,0,0,0c0,0,0,0,0,0c0,0,0,0,0,0c0,0,0,0,0,0c0,0,0,0,0,0c0,0,0,0,0,0c0,0,0,0,0,0c0,0,0,0,0,0c0,0,0,0,0,0
				c0,0,0,0,0,0c0,0,0,0,0.1,0c0,0,0,0,0,0c0,0,0,0,0,0c0,0,0,0,0,0c0,0,0,0,0,0c0,0,0,0,0,0c0,0,0,0,0,0c0.7,0.5,1.5,0.8,2.4,0.8
				c1.2,0,2.4-0.6,3.2-1.6c1.3-1.8,0.9-4.3-0.8-5.6c-1.2-0.9-2.4-1.8-3.5-2.8C68.8,541.2,67.9,540.9,67,540.9L67,540.9z M87.2,552.7
				c-1.6,0-3.2,1-3.8,2.6c-0.8,2.1,0.3,4.4,2.4,5.1c1.3,0.5,2.5,0.9,3.8,1.3c0,0,0,0,0,0c0,0,0,0,0.1,0c0,0,0,0,0,0c0,0,0,0,0.1,0
				c0,0,0,0,0,0c0,0,0,0,0.1,0c0,0,0,0,0,0c0,0,0,0,0.1,0c0,0,0,0,0,0c0,0,0,0,0.1,0c0,0,0,0,0,0c0,0,0,0,0.1,0c0,0,0,0,0,0
				c0,0,0,0,0,0c0,0,0,0,0,0c0,0,0,0,0,0c0,0,0,0,0,0c0,0,0,0,0,0c0,0,0,0,0.1,0c0,0,0,0,0,0c0,0,0,0,0.1,0c0,0,0,0,0,0
				c0,0,0,0,0.1,0c0,0,0,0,0,0c0,0,0,0,0,0c0.4,0.1,0.7,0.2,1.1,0.2c1.7,0,3.3-1.1,3.8-2.9c0.6-2.1-0.6-4.3-2.7-5
				c-1.4-0.4-2.8-0.9-4.2-1.4C88.1,552.8,87.7,552.7,87.2,552.7L87.2,552.7z M110.4,557.1c-2.1,0-3.9,1.7-4,3.9
				c-0.1,2.2,1.6,4,3.8,4.1c0.1,0,0.2,0,0.3,0c0,0,0,0,0,0c0,0,0,0,0.1,0c0.3,0,0.6,0,0.9,0c0.9,0,1.8,0,2.7,0l0,0c0,0,0.1,0,0.1,0
				c0,0,0,0,0,0c0,0,0.1,0,0.1,0c0,0,0,0,0,0c0,0,0,0,0,0c0.2,0,0.4,0,0.6,0c0,0,0.1,0,0.1,0c2.2,0,4-1.8,4-4c0-2.2-1.8-4-4-4
				c0,0,0,0,0,0c-0.3,0-0.7,0-1,0c-0.8,0-1.7,0-2.5,0c-0.4,0-0.8,0-1.1,0C110.5,557.1,110.5,557.1,110.4,557.1L110.4,557.1z
				 M139.6,555c-0.2,0-0.4,0-0.6,0c-1.6,0.2-3.2,0.5-4.8,0.7c-2.2,0.3-3.7,2.3-3.5,4.5c0.3,2,2,3.5,4,3.5c0.2,0,0.3,0,0.5,0
				c0.1,0,0.1,0,0.2,0c0,0,0,0,0,0c0,0,0.1,0,0.1,0c0,0,0,0,0,0c0,0,0.1,0,0.1,0c0,0,0,0,0,0c0,0,0,0,0,0c0,0,0.1,0,0.1,0
				c0,0,0,0,0,0c0,0,0,0,0.1,0c0,0,0,0,0,0c1.4-0.2,2.8-0.4,4.2-0.6c2.2-0.3,3.7-2.4,3.3-4.6C143.2,556.4,141.5,555,139.6,555
				L139.6,555z M163.9,550.3c-0.3,0-0.6,0-0.9,0.1c-1.6,0.4-3.2,0.7-4.8,1.1c-2.2,0.5-3.5,2.6-3.1,4.8c0.4,1.9,2.1,3.2,3.9,3.2
				c0.3,0,0.6,0,0.8-0.1c1.6-0.4,3.3-0.7,4.9-1.1c2.2-0.5,3.5-2.6,3-4.8C167.3,551.6,165.7,550.3,163.9,550.3L163.9,550.3z
				 M188,544.5c-0.3,0-0.7,0-1,0.1c-1.6,0.4-3.2,0.8-4.8,1.2c-2.1,0.5-3.4,2.7-2.9,4.9c0.5,1.8,2.1,3,3.9,3c0.3,0,0.7,0,1-0.1
				c0.2-0.1,0.5-0.1,0.7-0.2c0,0,0,0,0.1,0c0,0,0,0,0,0c1.4-0.3,2.7-0.7,4.1-1c2.1-0.6,3.4-2.7,2.8-4.9
				C191.4,545.7,189.8,544.5,188,544.5L188,544.5z M212.1,538c-0.4,0-0.7,0-1.1,0.1l-2.1,0.6l-2.8,0.8c-2.1,0.6-3.4,2.8-2.8,4.9
				c0.5,1.8,2.1,2.9,3.9,2.9c0.3,0,0.7,0,1.1-0.1c0.1,0,0.3-0.1,0.4-0.1c0.8-0.2,1.6-0.4,2.3-0.6l0,0c0.7-0.2,1.4-0.4,2.1-0.6
				c2.1-0.6,3.4-2.8,2.8-4.9C215.5,539.1,213.8,538,212.1,538L212.1,538z M236.1,531.2c-0.4,0-0.7,0-1.1,0.2l-4.8,1.4
				c-2.1,0.6-3.4,2.8-2.8,4.9c0.5,1.8,2.1,2.9,3.8,2.9c0.4,0,0.7,0,1.1-0.1c0.8-0.2,1.6-0.5,2.5-0.7c0.6-0.2,1.2-0.3,1.7-0.5
				c0.2-0.1,0.4-0.1,0.6-0.2c2.1-0.6,3.3-2.8,2.7-4.9C239.5,532.4,237.9,531.2,236.1,531.2L236.1,531.2z M260.2,524.3
				c-0.4,0-0.7,0-1.1,0.2l-4.8,1.4c-2.1,0.6-3.4,2.8-2.7,4.9c0.5,1.8,2.1,2.9,3.8,2.9c0.4,0,0.7,0,1.1-0.2c1.2-0.3,2.3-0.7,3.5-1
				c0.5-0.1,0.9-0.3,1.4-0.4c2.1-0.6,3.4-2.8,2.7-4.9C263.5,525.5,261.9,524.3,260.2,524.3L260.2,524.3z M284.2,517.5
				c-0.4,0-0.7,0-1.1,0.2l-4.8,1.4c-2.1,0.6-3.4,2.8-2.8,4.9c0.5,1.8,2.1,2.9,3.8,2.9c0.4,0,0.7,0,1.1-0.2c0.5-0.1,1-0.3,1.5-0.4
				c0.3-0.1,0.6-0.2,0.9-0.3c0.1,0,0.1,0,0.2,0c0.1,0,0.3-0.1,0.4-0.1c0.6-0.2,1.3-0.4,1.9-0.5c2.1-0.6,3.3-2.8,2.7-4.9
				C287.6,518.6,286,517.5,284.2,517.5L284.2,517.5z M308.3,510.7c-0.4,0-0.7,0-1.1,0.2l-4.8,1.4c-2.1,0.6-3.4,2.8-2.8,4.9
				c0.5,1.8,2.1,2.9,3.8,2.9c0.4,0,0.7,0,1.1-0.2c0.2-0.1,0.5-0.1,0.7-0.2c1.1-0.3,2.3-0.6,3.4-1c0.1,0,0.2-0.1,0.3-0.1
				c0.1,0,0.2-0.1,0.3-0.1c0,0,0.1,0,0.1,0c2.1-0.6,3.4-2.8,2.8-4.9C311.6,511.8,310,510.7,308.3,510.7L308.3,510.7z M332.4,503.9
				c-0.3,0-0.7,0-1.1,0.1c-1.6,0.4-3.2,0.9-4.8,1.3c-2.1,0.6-3.4,2.8-2.8,4.9c0.5,1.8,2.1,2.9,3.9,2.9c0.3,0,0.7,0,1-0.1
				c1.5-0.4,3-0.8,4.5-1.2c0,0,0,0,0,0c0.1,0,0.1,0,0.2-0.1c0,0,0,0,0.1,0c2.1-0.6,3.4-2.8,2.8-4.9
				C335.8,505.1,334.2,503.9,332.4,503.9L332.4,503.9z M356.5,497.4c-0.3,0-0.7,0-1,0.1c-1.6,0.4-3.2,0.9-4.8,1.3
				c-2.1,0.6-3.4,2.8-2.8,4.9c0.5,1.8,2.1,3,3.9,3c0.3,0,0.7,0,1-0.1c1-0.3,2-0.5,3-0.8c0,0,0,0,0,0c0.1,0,0.2,0,0.3-0.1
				c0,0,0,0,0,0c0.5-0.1,1-0.3,1.5-0.4c2.1-0.6,3.4-2.8,2.8-4.9C359.9,498.6,358.3,497.4,356.5,497.4L356.5,497.4z M380.6,490.8
				c-0.4,0-0.7,0-1.1,0.1c-1.6,0.4-3.2,0.9-4.8,1.3c-2.1,0.6-3.4,2.8-2.8,4.9c0.5,1.8,2.1,2.9,3.9,2.9c0.4,0,0.7,0,1.1-0.1
				c1.2-0.3,2.4-0.7,3.6-1c0.4-0.1,0.8-0.2,1.3-0.3c2.1-0.6,3.4-2.8,2.8-4.9C384,492,382.4,490.8,380.6,490.8L380.6,490.8z
				 M404.6,484c-0.4,0-0.7,0.1-1.1,0.2l-4.8,1.4c-2.1,0.6-3.3,2.8-2.7,5c0.5,1.8,2.1,2.9,3.8,2.9c0.4,0,0.7-0.1,1.1-0.2
				c0.9-0.3,1.8-0.5,2.6-0.8c0.1,0,0.1,0,0.2,0c0.1,0,0.2-0.1,0.3-0.1c0.1,0,0.3-0.1,0.4-0.1c0.1,0,0.2-0.1,0.3-0.1
				c0.1,0,0.1,0,0.2,0c0.3-0.1,0.6-0.2,0.8-0.2c2.1-0.6,3.3-2.8,2.7-5C408,485.1,406.4,484,404.6,484L404.6,484z M428.6,477
				c-0.4,0-0.8,0.1-1.1,0.2c-1.6,0.5-3.2,0.9-4.8,1.4c-2.1,0.6-3.3,2.8-2.7,5c0.5,1.7,2.1,2.9,3.8,2.9c0.4,0,0.7-0.1,1.1-0.2
				c1.6-0.5,3.2-0.9,4.8-1.4c2.1-0.6,3.3-2.9,2.7-5C431.9,478.1,430.3,477,428.6,477L428.6,477z M452.4,469.7
				c-0.4,0-0.8,0.1-1.2,0.2l-1.3,0.4c-1.1,0.4-2.3,0.7-3.4,1.1c-2.1,0.7-3.3,2.9-2.6,5c0.5,1.7,2.1,2.8,3.8,2.8
				c0.4,0,0.8-0.1,1.2-0.2c0.2-0.1,0.3-0.1,0.5-0.2c0,0,0,0,0,0c0.1,0,0.1,0,0.2-0.1c0,0,0,0,0,0c0.1,0,0.1,0,0.2-0.1c0,0,0,0,0,0
				c0.1,0,0.1,0,0.2-0.1c0,0,0,0,0,0c0.1,0,0.1,0,0.2-0.1c0,0,0,0,0,0c0.1,0,0.1,0,0.2-0.1c0,0,0,0,0,0c0.6-0.2,1.3-0.4,1.9-0.6l0,0
				c0.2-0.1,0.4-0.1,0.6-0.2c0,0,0,0,0,0c0,0,0.1,0,0.1,0c0.2-0.1,0.4-0.1,0.6-0.2c2.1-0.7,3.2-2.9,2.6-5
				C455.7,470.8,454.1,469.7,452.4,469.7L452.4,469.7z M475.8,461.5c-0.5,0-0.9,0.1-1.4,0.3c-1.5,0.6-3.1,1.2-4.6,1.7
				c-2.1,0.8-3.1,3.1-2.4,5.1c0.6,1.6,2.1,2.6,3.8,2.6c0.5,0,0.9-0.1,1.4-0.2c1.6-0.6,3.1-1.2,4.7-1.8c2.1-0.8,3.1-3.1,2.3-5.2
				C478.9,462.5,477.4,461.5,475.8,461.5L475.8,461.5z M498.8,452.1c-0.5,0-1.1,0.1-1.6,0.3c-1.5,0.7-3,1.3-4.5,1.9
				c-2,0.9-3,3.2-2.1,5.2c0.6,1.5,2.1,2.4,3.7,2.4c0.5,0,1.1-0.1,1.6-0.3c0.2-0.1,0.4-0.2,0.6-0.2c0,0,0,0,0,0c0,0,0.1,0,0.1-0.1
				c0,0,0,0,0,0c0.1,0,0.2-0.1,0.3-0.1c0,0,0,0,0,0c0,0,0.1,0,0.1-0.1c0,0,0,0,0,0c0,0,0.1,0,0.1-0.1c0,0,0,0,0,0
				c1.1-0.5,2.2-0.9,3.3-1.4c2-0.9,2.9-3.2,2.1-5.3C501.8,453,500.3,452.1,498.8,452.1L498.8,452.1z M521.2,441.6
				c-0.6,0-1.2,0.1-1.8,0.4c-1.5,0.7-2.9,1.5-4.4,2.2c-2,1-2.8,3.4-1.8,5.4c0.7,1.4,2.1,2.2,3.6,2.2c0.6,0,1.2-0.1,1.8-0.4
				c0.3-0.1,0.6-0.3,0.8-0.4c0,0,0,0,0,0c0,0,0.1,0,0.1-0.1c0,0,0.1,0,0.1,0c0,0,0,0,0.1,0c1.1-0.6,2.3-1.1,3.4-1.7
				c2-1,2.7-3.4,1.8-5.4C524.1,442.4,522.7,441.6,521.2,441.6L521.2,441.6z M542.9,429.8c-0.7,0-1.4,0.2-2,0.6
				c-1.4,0.8-2.8,1.6-4.2,2.5c-1.9,1.1-2.6,3.5-1.5,5.5c0.7,1.3,2.1,2,3.5,2c0.7,0,1.3-0.2,2-0.5c0.2-0.1,0.3-0.2,0.5-0.3
				c0,0,0,0,0,0c0,0,0.1-0.1,0.1-0.1c0,0,0,0,0,0c0,0,0.1-0.1,0.1-0.1c0,0,0,0,0,0c0.8-0.5,1.7-1,2.5-1.5c0,0,0,0,0,0
				c0,0,0.1-0.1,0.1-0.1c0,0,0,0,0,0c0,0,0.1,0,0.1-0.1c0,0,0,0,0.1,0c0,0,0,0,0.1,0c0.2-0.1,0.4-0.3,0.6-0.4
				c1.9-1.1,2.5-3.6,1.4-5.5C545.6,430.5,544.3,429.8,542.9,429.8L542.9,429.8z M563.8,416.5c-0.8,0-1.6,0.2-2.3,0.7
				c-1.3,0.9-2.7,1.8-4,2.7c-1.8,1.2-2.3,3.7-1.1,5.5c0.8,1.2,2,1.8,3.3,1.8c0.8,0,1.5-0.2,2.2-0.7c0.2-0.2,0.5-0.3,0.7-0.5
				c0,0,0,0,0,0c0,0,0.1-0.1,0.1-0.1c0,0,0,0,0,0c0,0,0.1-0.1,0.1-0.1c0,0,0,0,0,0c0,0,0.1-0.1,0.1-0.1c0,0,0,0,0,0
				c0.1-0.1,0.2-0.1,0.3-0.2c0,0,0,0,0,0c0,0,0.1,0,0.1-0.1c0,0,0,0,0.1,0c0,0,0.1,0,0.1-0.1c0,0,0,0,0.1,0c0,0,0.1,0,0.1-0.1
				c0,0,0,0,0.1,0c0,0,0.1,0,0.1-0.1c0,0,0,0,0,0c0,0,0.1-0.1,0.1-0.1c0,0,0,0,0,0c0,0,0.1-0.1,0.1-0.1c0,0,0,0,0,0
				c0,0,0.1-0.1,0.1-0.1c0,0,0,0,0,0c0,0,0.1,0,0.1-0.1c0,0,0,0,0,0c0,0,0.1,0,0.1-0.1c0,0,0,0,0,0c0,0,0.1-0.1,0.1-0.1c0,0,0,0,0,0
				c0.4-0.3,0.8-0.5,1.2-0.8c1.8-1.3,2.3-3.7,1-5.6C566.3,417.1,565,416.5,563.8,416.5L563.8,416.5z M583.5,401.7
				c-0.9,0-1.8,0.3-2.5,0.9c-1.3,1-2.5,2-3.8,3c-1.7,1.4-2,3.9-0.7,5.6c0.8,1,2,1.5,3.2,1.5c0.9,0,1.7-0.3,2.5-0.8
				c0.2-0.2,0.4-0.3,0.6-0.5c0,0,0,0,0,0c0,0,0.1,0,0.1-0.1c0,0,0,0,0,0c0,0,0.1,0,0.1-0.1c0,0,0,0,0.1,0c0,0,0.1,0,0.1-0.1
				c0,0,0,0,0.1,0c0,0,0,0,0.1-0.1c0,0,0,0,0.1,0c0,0,0.1-0.1,0.1-0.1c0,0,0,0,0.1,0c0,0,0.1,0,0.1-0.1c0,0,0,0,0.1,0
				c0,0,0.1,0,0.1-0.1c0,0,0,0,0.1,0c0,0,0.1,0,0.1-0.1c0,0,0,0,0.1,0c0,0,0.1,0,0.1-0.1c0,0,0,0,0,0c0.1-0.1,0.2-0.2,0.3-0.2
				c0,0,0,0,0,0c0,0,0.1-0.1,0.1-0.1c0,0,0,0,0,0c0,0,0.1-0.1,0.1-0.1c0,0,0,0,0,0c0,0,0.1-0.1,0.1-0.1c0,0,0,0,0,0
				c0.2-0.2,0.4-0.3,0.6-0.5c0,0,0,0,0,0c0,0,0.1-0.1,0.1-0.1c0,0,0,0,0,0c0,0,0.1-0.1,0.1-0.1c0,0,0,0,0,0c0.1-0.1,0.3-0.2,0.4-0.4
				c0,0,0,0,0,0c1.7-1.4,2-3.9,0.6-5.6C585.9,402.2,584.7,401.7,583.5,401.7L583.5,401.7z M602.2,385.5c-1,0-2,0.4-2.7,1.1
				c-1.2,1.1-2.4,2.2-3.6,3.3c-1.6,1.5-1.7,4-0.3,5.7c0.8,0.9,1.9,1.3,3,1.3c1,0,1.9-0.3,2.7-1c1.2-1.1,2.5-2.3,3.7-3.4
				c1.6-1.5,1.7-4,0.2-5.7C604.3,385.9,603.2,385.5,602.2,385.5L602.2,385.5z M619.5,367.9c-1.1,0-2.2,0.4-3,1.3
				c-1.1,1.2-2.2,2.4-3.3,3.6c-1.5,1.6-1.4,4.1,0.2,5.7c0.8,0.7,1.8,1.1,2.7,1.1c1.1,0,2.1-0.4,2.9-1.3c0.9-1,1.8-2,2.8-3
				c0,0,0,0,0,0c0,0,0.1-0.1,0.1-0.1c0,0,0,0,0,0c0,0,0.1-0.1,0.1-0.1c0,0,0,0,0,0c0,0,0.1-0.1,0.1-0.1c0,0,0,0,0,0c0,0,0,0,0.1-0.1
				c0.1-0.1,0.2-0.2,0.3-0.3c1.5-1.6,1.4-4.2-0.3-5.6C621.4,368.3,620.4,367.9,619.5,367.9L619.5,367.9z M635.3,349
				c-1.2,0-2.4,0.5-3.2,1.6c-1,1.3-2,2.6-3,3.8c-1.4,1.7-1.1,4.2,0.6,5.6c0.7,0.6,1.6,0.9,2.5,0.9c1.2,0,2.3-0.5,3.1-1.5
				c0,0,0,0,0,0c1-1.3,2-2.5,3-3.8c0,0,0,0,0,0c0,0,0.1-0.1,0.1-0.1c0,0,0,0,0,0c1.3-1.8,1-4.3-0.7-5.6
				C637,349.3,636.1,349,635.3,349L635.3,349z M649.4,328.8c-1.3,0-2.6,0.7-3.4,1.8c-0.9,1.4-1.8,2.7-2.6,4.1
				c-1.2,1.8-0.7,4.3,1.1,5.5c0.7,0.5,1.4,0.7,2.2,0.7c1.3,0,2.6-0.6,3.3-1.8c0.9-1.4,1.8-2.8,2.7-4.2c1.2-1.9,0.6-4.3-1.2-5.5
				C650.9,329,650.1,328.8,649.4,328.8L649.4,328.8z M661.8,307.5c-1.4,0-2.8,0.8-3.5,2.1c-0.7,1.4-1.5,2.9-2.3,4.3
				c-1.1,1.9-0.3,4.4,1.6,5.4c0.6,0.3,1.3,0.5,1.9,0.5c1.4,0,2.8-0.8,3.5-2.1c0-0.1,0.1-0.1,0.1-0.2c0,0,0,0,0,0c0,0,0-0.1,0-0.1
				c0,0,0,0,0,0c0,0,0-0.1,0-0.1c0,0,0,0,0,0c0,0,0-0.1,0-0.1c0,0,0,0,0,0c0,0,0-0.1,0-0.1c0,0,0,0,0,0c0,0,0-0.1,0-0.1c0,0,0,0,0,0
				c0-0.1,0.1-0.1,0.1-0.2c0,0,0,0,0,0c0,0,0,0,0-0.1c0,0,0,0,0-0.1c0,0,0-0.1,0-0.1c0,0,0,0,0-0.1c0,0,0-0.1,0-0.1c0,0,0,0,0-0.1
				c0,0,0-0.1,0-0.1c0,0,0,0,0-0.1c0,0,0,0,0-0.1c0,0,0,0,0,0c0,0,0-0.1,0-0.1c0,0,0,0,0,0c0.1-0.1,0.1-0.2,0.2-0.3c0,0,0,0,0,0
				c0,0,0-0.1,0-0.1c0,0,0,0,0,0c0,0,0-0.1,0-0.1c0,0,0,0,0-0.1c0,0,0-0.1,0-0.1c0,0,0,0,0-0.1c0,0,0-0.1,0-0.1c0,0,0,0,0-0.1
				c0,0,0-0.1,0-0.1c0,0,0,0,0,0c0,0,0-0.1,0.1-0.1c0,0,0,0,0-0.1c0,0,0,0,0-0.1c0,0,0,0,0-0.1c0,0,0,0,0-0.1c0,0,0,0,0-0.1
				c0,0,0,0,0-0.1c0,0,0-0.1,0-0.1c0,0,0,0,0,0c0,0,0-0.1,0-0.1c0,0,0,0,0,0c0,0,0-0.1,0.1-0.1c0,0,0,0,0,0c0.1-0.2,0.2-0.5,0.4-0.7
				c1-2,0.3-4.4-1.7-5.4C663,307.6,662.4,307.5,661.8,307.5L661.8,307.5z M672.2,285.1c-1.6,0-3.1,0.9-3.7,2.5
				c-0.5,1.3-1.1,2.6-1.6,3.8l-0.3,0.6c-0.9,2,0,4.4,2.1,5.3c0.5,0.2,1.1,0.3,1.6,0.3c1.5,0,3-0.9,3.7-2.4c0-0.1,0.1-0.1,0.1-0.2
				c0,0,0,0,0,0c0,0,0,0,0,0c0.1-0.1,0.1-0.3,0.2-0.4l0,0c0,0,0-0.1,0.1-0.1c0,0,0,0,0,0c0,0,0,0,0-0.1c0,0,0,0,0-0.1c0,0,0,0,0-0.1
				c0,0,0,0,0-0.1c0,0,0,0,0-0.1c0,0,0,0,0-0.1c0,0,0,0,0-0.1c0,0,0,0,0-0.1c0,0,0,0,0,0c0,0,0-0.1,0-0.1c0,0,0,0,0,0
				c0.5-1.1,0.9-2.1,1.3-3.2c0.8-2-0.1-4.4-2.2-5.2C673.3,285.2,672.7,285.1,672.2,285.1L672.2,285.1z M680.5,262
				c-1.7,0-3.3,1.1-3.8,2.9c-0.5,1.5-0.9,3.1-1.4,4.6c-0.7,2.1,0.5,4.4,2.6,5c0.4,0.1,0.8,0.2,1.2,0.2c1.7,0,3.2-1.1,3.8-2.8
				c0.5-1.6,1-3.2,1.5-4.8c0.6-2.1-0.6-4.3-2.7-5C681.3,262.1,680.9,262,680.5,262L680.5,262z M685.9,238.2c-1.9,0-3.7,1.4-4,3.4
				c-0.2,1.6-0.5,3.1-0.8,4.7c-0.4,2.2,1.1,4.3,3.2,4.6c0.2,0,0.5,0.1,0.7,0.1c1.9,0,3.6-1.4,3.9-3.3c0-0.1,0-0.2,0-0.3c0,0,0,0,0,0
				c0,0,0-0.1,0-0.1c0,0,0,0,0,0c0,0,0-0.1,0-0.1c0,0,0,0,0,0c0,0,0,0,0-0.1c0,0,0-0.1,0-0.1c0,0,0,0,0,0c0.1-0.8,0.3-1.6,0.4-2.5
				c0,0,0,0,0,0c0,0,0-0.1,0-0.1c0,0,0,0,0,0c0,0,0,0,0-0.1c0,0,0,0,0-0.1c0,0,0,0,0-0.1c0,0,0-0.1,0-0.1c0,0,0,0,0,0
				c0.1-0.5,0.1-0.9,0.2-1.4c0.3-2.2-1.2-4.2-3.4-4.5C686.3,238.2,686.1,238.2,685.9,238.2L685.9,238.2z M686.2,215.1
				c-0.4,0-0.7,0.1-1.1,0.2c-2.1,0.6-3.4,2.8-2.7,4.9c0.3,1.1,0.6,2.3,0.7,3.6c0.2,2,2,3.5,4,3.5c0.2,0,0.3,0,0.5,0
				c2.2-0.3,3.8-2.2,3.5-4.4c0-0.1,0-0.2,0-0.2l0,0c0,0,0,0,0,0c0,0,0,0,0,0c0,0,0,0,0,0c0,0,0,0,0,0c0,0,0,0,0,0c0,0,0,0,0,0
				c0,0,0,0,0,0c0,0,0,0,0,0c0,0,0,0,0,0c0,0,0,0,0,0c0,0,0,0,0,0c0,0,0,0,0,0c0,0,0,0,0,0c0,0,0,0,0,0c0,0,0,0,0,0c0,0,0,0,0,0
				c0,0,0,0,0,0c0,0,0,0,0,0c0,0,0,0,0,0c0,0,0,0,0,0c0,0,0,0,0,0c0,0,0,0,0,0c0,0,0,0,0,0c0,0,0,0,0,0c0,0,0,0,0,0c0,0,0,0,0,0
				c0,0,0,0,0,0c0,0,0,0,0,0c0,0,0,0,0,0c0,0,0,0,0,0c0,0,0,0,0,0c0,0,0,0,0,0c0,0,0,0,0,0c0,0,0,0,0,0c0,0,0,0,0,0c0,0,0,0,0,0
				c0,0,0,0,0,0c0,0,0,0,0,0c0,0,0,0,0,0c0,0,0,0,0,0c0,0,0,0,0,0c0,0,0,0,0,0c0,0,0,0,0,0c-0.2-1.3-0.5-2.6-0.8-3.9
				C689.6,216.2,688,215.1,686.2,215.1L686.2,215.1z M676.1,212.8c-0.5,0-1.1,0.1-1.6,0.3c-1.5,0.7-3,1.4-4.5,2.1
				c-2,1-2.7,3.4-1.7,5.4c0.7,1.4,2.1,2.2,3.6,2.2c0.6,0,1.3-0.1,1.8-0.5c1.3-0.7,2.7-1.3,4-1.9c2-0.9,3-3.2,2.1-5.3
				C679.2,213.7,677.7,212.8,676.1,212.8L676.1,212.8z M654.7,224.7c-0.7,0-1.4,0.2-2,0.5c0,0-0.1,0-0.1,0.1c0,0,0,0-0.1,0
				c-0.1,0.1-0.2,0.1-0.3,0.2c-1.3,0.7-2.6,1.5-3.8,2.2c-1.9,1.1-2.6,3.6-1.5,5.5c0.7,1.3,2.1,2,3.5,2c0.7,0,1.4-0.2,2-0.5
				c1.4-0.8,2.8-1.6,4.1-2.4l0.2-0.1c1.9-1.1,2.6-3.6,1.4-5.5C657.4,225.4,656,224.7,654.7,224.7L654.7,224.7z M632.8,237.1
				c-0.6,0-1.3,0.2-1.9,0.5c0,0,0,0,0,0c0,0,0,0,0,0c0,0-0.1,0-0.1,0c0,0-0.1,0-0.1,0c0,0,0,0,0,0c-0.9,0.5-1.8,1-2.8,1.5
				c0,0,0,0,0,0c0,0-0.1,0-0.1,0c0,0-0.1,0-0.1,0.1c0,0-0.1,0-0.1,0c0,0-0.1,0-0.1,0c0,0,0,0-0.1,0c0,0-0.1,0-0.1,0.1l0,0l0,0
				c-0.2,0.1-0.4,0.2-0.6,0.3c0,0,0,0,0,0c0,0,0,0-0.1,0c0,0,0,0,0,0c0,0,0,0,0,0c0,0-0.1,0-0.1,0.1c-2,1-2.7,3.4-1.7,5.4
				c0.7,1.4,2.1,2.2,3.6,2.2c0.6,0,1.2-0.1,1.8-0.4c0.3-0.2,0.6-0.3,0.9-0.5c1.2-0.6,2.4-1.3,3.6-2c1.9-1.1,2.7-3.5,1.6-5.4
				C635.6,237.8,634.3,237.1,632.8,237.1L632.8,237.1z M609.4,247.5c-0.4,0-0.9,0.1-1.3,0.2c-0.3,0.1-0.5,0.2-0.8,0.3c0,0,0,0,0,0
				c0,0,0,0,0,0c0,0,0,0-0.1,0c0,0,0,0,0,0c0,0-0.1,0-0.1,0c0,0,0,0,0,0c-1.2,0.4-2.5,0.8-3.7,1.2c-2.1,0.6-3.3,2.9-2.7,5
				c0.5,1.7,2.1,2.8,3.8,2.8c0.4,0,0.8-0.1,1.2-0.2c1.7-0.5,3.4-1.1,5-1.6c2.1-0.7,3.2-3,2.5-5.1
				C612.6,248.6,611.1,247.5,609.4,247.5L609.4,247.5z M584.6,253.8c-0.2,0-0.4,0-0.6,0.1c-0.8,0.1-1.6,0.3-2.4,0.4c0,0,0,0,0,0
				c0,0,0,0-0.1,0c0,0,0,0,0,0c0,0-0.1,0-0.1,0c0,0,0,0,0,0c0,0,0,0,0,0c0,0,0,0-0.1,0c0,0,0,0,0,0c0,0-0.1,0-0.1,0c0,0,0,0,0,0
				c0,0,0,0-0.1,0c0,0,0,0,0,0c0,0-0.1,0-0.1,0c0,0,0,0,0,0c0,0-0.1,0-0.1,0c0,0,0,0,0,0c0,0-0.1,0-0.1,0c0,0,0,0,0,0
				c0,0-0.1,0-0.1,0c0,0,0,0,0,0c-0.1,0-0.1,0-0.2,0c0,0,0,0,0,0c-0.1,0-0.1,0-0.2,0c0,0,0,0,0,0c-0.1,0-0.1,0-0.2,0l0,0
				c0,0-0.1,0-0.1,0c0,0,0,0,0,0c0,0-0.1,0-0.1,0l0,0c0,0-0.1,0-0.1,0c0,0,0,0,0,0c0,0-0.1,0-0.1,0l0,0l0,0c-0.2,0-0.4,0-0.5,0.1
				c0,0,0,0-0.1,0c-2.2,0.3-3.7,2.3-3.4,4.5c0.3,2,2,3.5,3.9,3.5c0.2,0,0.4,0,0.6,0l0.6-0.1c1.5-0.2,3.1-0.5,4.6-0.7
				c2.2-0.4,3.7-2.4,3.3-4.6C588.2,255.1,586.5,253.8,584.6,253.8L584.6,253.8z M553.8,255.7c-2.1,0-3.9,1.7-4,3.8
				c-0.1,2.2,1.6,4.1,3.8,4.2c1.8,0.1,3.5,0.1,5.3,0.2c0,0,0,0,0,0c2.2,0,4-1.8,4-4c0-2.2-1.7-4-3.9-4c-1.7,0-3.4-0.1-5-0.1
				C553.9,255.7,553.9,255.7,553.8,255.7L553.8,255.7z M528.4,252c-1.8,0-3.4,1.2-3.9,3c-0.5,2.1,0.8,4.3,2.9,4.8
				c1.7,0.4,3.5,0.8,5.2,1.2c0.3,0.1,0.5,0.1,0.8,0.1c1.9,0,3.5-1.3,3.9-3.2c0.4-2.2-0.9-4.3-3.1-4.7c-0.6-0.1-1.2-0.2-1.7-0.4l0,0
				c0,0,0,0-0.1,0c0,0,0,0,0,0c0,0,0,0-0.1,0c0,0,0,0,0,0c0,0-0.1,0-0.1,0c0,0,0,0,0,0c0,0,0,0,0,0c0,0,0,0,0,0c0,0,0,0,0,0
				c0,0,0,0-0.1,0c0,0,0,0,0,0c-0.9-0.2-1.8-0.4-2.7-0.6C529,252,528.7,252,528.4,252L528.4,252z M504.1,243.6c-1.5,0-3,0.9-3.6,2.4
				c-0.9,2,0,4.4,2,5.3c1.6,0.7,3.2,1.4,4.9,2.1c0.5,0.2,1,0.3,1.5,0.3c1.6,0,3.1-0.9,3.7-2.5c0.8-2-0.1-4.4-2.2-5.2
				c-0.9-0.4-1.8-0.7-2.7-1.1l0,0c-0.1,0-0.2-0.1-0.2-0.1c0,0,0,0,0,0c0,0,0,0,0,0c0,0,0,0,0,0c0,0,0,0,0,0c0,0,0,0,0,0c0,0,0,0,0,0
				c0,0,0,0-0.1,0c0,0,0,0,0,0c-0.5-0.2-1-0.4-1.4-0.6C505.2,243.7,504.6,243.6,504.1,243.6L504.1,243.6z M481.7,231.5
				c-1.4,0-2.7,0.7-3.4,1.9c-1.1,1.9-0.5,4.4,1.4,5.5c1.5,0.9,2.9,1.7,4.4,2.6c0.6,0.4,1.3,0.5,2,0.5c1.4,0,2.7-0.7,3.5-2
				c1.1-1.9,0.5-4.4-1.4-5.5c0,0,0,0-0.1,0c0,0,0,0-0.1,0c0,0,0,0-0.1,0c0,0,0,0-0.1,0c0,0,0,0-0.1,0c0,0-0.1,0-0.1-0.1
				c0,0,0,0-0.1,0c0,0,0,0-0.1,0c0,0,0,0-0.1,0c0,0,0,0-0.1,0c0,0-0.1,0-0.1-0.1c0,0,0,0,0,0c0,0,0,0-0.1,0c0,0,0,0,0,0
				c0,0-0.1-0.1-0.1-0.1c0,0,0,0,0,0c0,0-0.1,0-0.1,0c0,0,0,0,0,0c-0.1-0.1-0.2-0.1-0.3-0.2l0,0c-1-0.6-1.9-1.1-2.9-1.7
				C483.1,231.7,482.4,231.5,481.7,231.5L481.7,231.5z M460.4,218.2c-1.3,0-2.6,0.7-3.4,1.9c-1.2,1.9-0.6,4.3,1.2,5.5l2.6,1.7l1.6,1
				c0.7,0.4,1.4,0.6,2.1,0.6c1.3,0,2.6-0.7,3.4-1.9c1.2-1.9,0.6-4.3-1.2-5.5c-0.5-0.3-1.1-0.7-1.6-1c-0.9-0.6-1.7-1.1-2.6-1.7
				C461.9,218.4,461.1,218.2,460.4,218.2L460.4,218.2z M439.2,205.1c-1.4,0-2.7,0.7-3.4,1.9c-1.1,1.9-0.5,4.4,1.4,5.5l3.1,1.9
				l1.2,0.7c0.6,0.4,1.4,0.6,2.1,0.6c1.4,0,2.7-0.7,3.4-1.9c1.1-1.9,0.5-4.3-1.3-5.5c-0.7-0.4-1.5-0.9-2.2-1.3c0,0-0.1,0-0.1-0.1
				c0,0-0.1,0-0.1-0.1c-0.6-0.4-1.3-0.8-1.9-1.2C440.6,205.3,439.9,205.1,439.2,205.1L439.2,205.1z M417.8,192.5
				c-1.4,0-2.8,0.7-3.5,2.1c-1.1,1.9-0.4,4.4,1.5,5.4c1.4,0.8,2.9,1.6,4.3,2.4c0.6,0.4,1.3,0.5,2,0.5c1.4,0,2.7-0.7,3.5-2
				c1.1-1.9,0.4-4.4-1.5-5.5c0,0,0,0,0,0c0,0-0.1,0-0.1,0c0,0,0,0-0.1,0c0,0-0.1,0-0.1-0.1c0,0,0,0,0,0c0,0-0.1,0-0.1-0.1
				c0,0,0,0,0,0c0,0-0.1,0-0.1-0.1c0,0,0,0,0,0c0,0-0.1,0-0.1-0.1c0,0,0,0,0,0c-1.2-0.7-2.4-1.4-3.7-2.1
				C419.1,192.7,418.4,192.5,417.8,192.5L417.8,192.5z M395.8,181.4c-1.5,0-3,0.9-3.6,2.4c-0.9,2,0,4.4,2,5.3c1.5,0.7,3,1.3,4.4,2
				c0.6,0.3,1.1,0.4,1.7,0.4c1.5,0,2.9-0.8,3.6-2.3c0.9-2,0.1-4.4-1.9-5.3c-0.2-0.1-0.4-0.2-0.6-0.3c0,0,0,0,0,0c0,0-0.1,0-0.1,0
				c0,0,0,0,0,0c-0.1,0-0.2-0.1-0.3-0.1c0,0,0,0,0,0c0,0-0.1,0-0.1,0c0,0,0,0,0,0c0,0-0.1,0-0.1,0c0,0,0,0,0,0
				c-0.1,0-0.2-0.1-0.3-0.1c0,0,0,0,0,0c0,0-0.1,0-0.1,0c0,0,0,0,0,0c0,0-0.1,0-0.1,0c0,0,0,0,0,0c-0.1,0-0.1,0-0.2-0.1c0,0,0,0,0,0
				c0,0-0.1,0-0.1,0c0,0,0,0,0,0c0,0-0.1,0-0.1,0c0,0,0,0,0,0c0,0-0.1,0-0.1,0c0,0,0,0,0,0c-0.1,0-0.1-0.1-0.2-0.1c0,0,0,0,0,0
				c0,0-0.1,0-0.1,0c0,0,0,0,0,0c0,0-0.1,0-0.1,0c0,0,0,0,0,0c-0.1,0-0.2-0.1-0.3-0.1c0,0,0,0,0,0c0,0-0.1,0-0.1,0c0,0,0,0,0,0
				c0,0-0.1,0-0.1,0c0,0,0,0,0,0c-0.1,0-0.2-0.1-0.3-0.1c0,0,0,0,0,0c0,0-0.1,0-0.1,0c0,0,0,0,0,0c-0.2-0.1-0.4-0.2-0.6-0.3
				C396.9,181.5,396.3,181.4,395.8,181.4L395.8,181.4z M372.9,172.3c-1.7,0-3.2,1-3.8,2.7c-0.7,2.1,0.4,4.4,2.5,5.1
				c1.5,0.5,3.1,1.1,4.6,1.6c0.5,0.2,0.9,0.2,1.4,0.2c1.6,0,3.2-1,3.8-2.6c0.8-2.1-0.3-4.4-2.4-5.1c-0.6-0.2-1.2-0.4-1.8-0.7
				c0,0,0,0,0,0c0,0-0.1,0-0.1,0c0,0,0,0,0,0c-0.1,0-0.2-0.1-0.3-0.1c0,0,0,0,0,0c0,0-0.1,0-0.1,0c0,0,0,0,0,0c0,0-0.1,0-0.1,0
				c0,0,0,0,0,0c-0.1,0-0.1,0-0.2-0.1c0,0,0,0,0,0c0,0-0.1,0-0.1,0c0,0,0,0,0,0c0,0-0.1,0-0.1,0c0,0,0,0,0,0c0,0-0.1,0-0.1,0
				c0,0,0,0,0,0c-0.1,0-0.2-0.1-0.3-0.1c0,0,0,0,0,0c-0.4-0.1-0.8-0.3-1.3-0.4C373.8,172.3,373.3,172.3,372.9,172.3L372.9,172.3z
				 M349.3,165.2c-1.8,0-3.4,1.2-3.9,3c-0.5,2.1,0.8,4.3,2.9,4.8c0.7,0.2,1.3,0.3,2,0.5c0.9,0.2,1.8,0.5,2.7,0.7
				c0.3,0.1,0.7,0.1,1,0.1c1.8,0,3.4-1.2,3.9-3c0.6-2.1-0.7-4.3-2.8-4.9c-0.1,0-0.3-0.1-0.4-0.1c0,0,0,0,0,0c0,0-0.1,0-0.1,0
				c0,0-0.1,0-0.1,0c0,0,0,0,0,0c0,0-0.1,0-0.1,0c0,0,0,0,0,0c-0.2-0.1-0.4-0.1-0.6-0.2c0,0,0,0,0,0c0,0,0,0-0.1,0c0,0,0,0-0.1,0
				c0,0,0,0-0.1,0c0,0-0.1,0-0.1,0c0,0,0,0,0,0c0,0-0.1,0-0.1,0c0,0,0,0,0,0c-0.4-0.1-0.7-0.2-1.1-0.3l0,0c0,0-0.1,0-0.1,0
				c0,0-0.1,0-0.1,0c0,0,0,0,0,0c0,0-0.1,0-0.1,0c0,0,0,0,0,0c-0.2-0.1-0.4-0.1-0.6-0.2c0,0,0,0,0,0c0,0-0.1,0-0.1,0c0,0,0,0,0,0
				c-0.3-0.1-0.7-0.2-1-0.2C349.9,165.3,349.6,165.2,349.3,165.2L349.3,165.2z M325.1,160.4c-1.9,0-3.6,1.4-3.9,3.4
				c-0.3,2.2,1.2,4.2,3.3,4.6c1.6,0.2,3.2,0.5,4.8,0.8c0.2,0,0.5,0.1,0.7,0.1c1.9,0,3.6-1.4,3.9-3.3c0.4-2.2-1.1-4.2-3.3-4.6
				c0,0,0,0,0,0c0,0-0.1,0-0.1,0c0,0,0,0,0,0c0,0-0.1,0-0.1,0c0,0,0,0,0,0c-0.7-0.1-1.4-0.2-2.1-0.4c0,0,0,0,0,0c0,0-0.1,0-0.1,0
				c0,0,0,0,0,0c0,0-0.1,0-0.1,0c0,0,0,0,0,0c0,0-0.1,0-0.1,0c0,0,0,0-0.1,0c0,0-0.1,0-0.1,0c0,0-0.1,0-0.1,0c0,0,0,0,0,0
				c0,0-0.1,0-0.1,0c0,0,0,0,0,0c-0.6-0.1-1.1-0.2-1.7-0.3C325.5,160.4,325.3,160.4,325.1,160.4L325.1,160.4z M300.7,157.8
				c-2.1,0-3.9,1.6-4,3.8c-0.1,2.2,1.6,4.1,3.8,4.2c1.6,0.1,3.2,0.2,4.8,0.3c0.1,0,0.2,0,0.3,0c2.1,0,3.8-1.6,4-3.7
				c0.2-2.2-1.5-4.1-3.7-4.3c-1.2-0.1-2.3-0.2-3.5-0.2c0,0,0,0,0,0c-0.1,0-0.1,0-0.2,0c0,0,0,0,0,0c0,0-0.1,0-0.1,0c0,0,0,0,0,0
				c0,0-0.1,0-0.1,0c0,0,0,0-0.1,0c0,0-0.1,0-0.1,0c0,0,0,0-0.1,0c0,0,0,0-0.1,0c0,0-0.1,0-0.1,0c0,0,0,0-0.1,0c0,0-0.1,0-0.1,0
				c0,0,0,0-0.1,0c0,0-0.1,0-0.1,0c0,0,0,0,0,0c0,0-0.1,0-0.1,0c0,0,0,0,0,0c0,0-0.1,0-0.1,0c0,0,0,0,0,0
				C300.8,157.8,300.7,157.8,300.7,157.8L300.7,157.8z"/>
		</g>
		<g>
			<path class="st0" d="M748.5,29.3C748.5,29.3,748.5,29.3,748.5,29.3C748.5,29.3,748.5,29.3,748.5,29.3c-0.3,0.1-0.5,0.1-0.8,0.2
				c0,0,0,0,0,0c0,0,0,0,0,0c0,0,0,0,0,0c0,0,0,0,0,0c0,0,0,0,0,0c0,0,0,0,0,0c0,0,0,0,0,0c0,0,0,0,0,0c-0.4,0.1-0.7,0.2-1.1,0.3
				c-0.5,0.1-0.9,0.2-1.4,0.3c0,0,0,0,0,0c0,0,0,0,0,0c0,0,0,0,0,0c0,0,0,0,0,0c0,0,0,0,0,0c0,0,0,0,0,0c0,0,0,0,0,0c0,0,0,0,0,0
				c0,0,0,0,0,0c0,0,0,0,0,0c-0.5,0.1-0.9,0.2-1.4,0.4c-2.1,0.6-3.3,2.9-2.7,5c0.5,1.7,2.1,2.9,3.8,2.9c0.4,0,0.8-0.1,1.1-0.2
				c0.7-0.2,1.5-0.4,2.4-0.6c0.7-0.2,1.5-0.3,2.2-0.5c0.8-0.2,1.4-0.6,1.9-1.2c-0.3,1.4,0.1,2.9,1.2,3.9c0.7,0.6,1.4,1.4,2.1,2.3
				l0.2,0.3c0.8,1,2,1.6,3.2,1.6c0.8,0,1.7-0.3,2.4-0.8c1.7-1.3,2.1-3.8,0.8-5.6c0-0.1-0.1-0.1-0.1-0.2c0,0,0,0,0,0c0,0,0,0,0,0
				c0,0,0,0,0,0c0,0,0,0,0,0c0,0-0.1-0.1-0.1-0.1l0,0l0,0c0,0,0,0,0,0c0,0,0,0,0,0c0,0,0,0,0,0c0,0,0,0,0,0c0,0,0,0,0,0c0,0,0,0,0,0
				c0,0,0,0,0,0c0,0,0,0,0,0c0,0,0,0,0,0c0,0,0,0,0,0c0,0,0,0,0,0c0,0,0,0,0,0c-0.9-1.2-1.9-2.3-3-3.3c0,0,0,0,0,0c0,0,0,0,0,0
				c0,0,0,0,0,0c-0.8-0.7-1.7-1-2.7-1c-1.1,0-2.2,0.4-3,1.3c0.2-0.6,0.2-1.3,0-2c-0.3-1-0.9-1.8-1.7-2.3
				C750.7,29.5,749.6,29.4,748.5,29.3L748.5,29.3z M730.7,40.7c-1.1,0-2.2,0.5-3,1.4c0,0,0,0,0,0c0,0,0,0,0,0c0,0,0,0,0,0
				c0,0,0,0.1-0.1,0.1l0,0c0,0,0,0.1-0.1,0.1l0,0c0,0-0.1,0.1-0.1,0.1l0,0c0,0,0,0,0,0c0,0,0,0,0,0c0,0,0,0.1-0.1,0.1c0,0,0,0,0,0
				c0,0,0,0,0,0l0,0c0,0,0,0,0,0l0,0c0,0,0,0,0,0c0,0,0,0,0,0c0,0,0,0,0,0c0,0,0,0,0,0c0,0,0,0,0,0c0,0,0,0,0,0c0,0,0,0,0,0
				c0,0,0,0,0,0c0,0,0,0,0,0c0,0,0,0,0,0c0,0,0,0,0,0c0,0,0,0,0,0c0,0,0,0,0,0c0,0,0,0,0,0c0,0,0,0,0,0c0,0,0,0,0,0c0,0,0,0,0,0
				c0,0,0,0,0,0c0,0,0,0,0,0c0,0,0,0,0,0c0,0,0,0,0,0c0,0,0,0,0,0c0,0,0,0,0,0c0,0,0,0,0,0c0,0,0,0,0,0c0,0,0,0,0,0c0,0,0,0,0,0
				c0,0,0,0,0,0c0,0,0,0,0,0c0,0,0,0,0,0c0,0,0,0,0,0c0,0,0,0,0,0c0,0,0,0,0,0c0,0,0,0,0,0c0,0,0,0,0,0c0,0,0,0,0,0c0,0,0,0,0,0
				c0,0,0,0,0,0c0,0,0,0,0,0c0,0,0,0,0,0c0,0,0,0,0,0c0,0,0,0,0,0c0,0,0,0,0,0c0,0,0,0,0,0c0,0,0,0,0,0c0,0,0,0,0,0c0,0,0,0,0,0
				c0,0,0,0,0,0c0,0,0,0,0,0c0,0,0,0,0,0c0,0,0,0,0,0c0,0,0,0,0,0c0,0,0,0,0,0c0,0,0,0,0,0c0,0,0,0,0,0c0,0,0,0,0,0c0,0,0,0,0,0
				c0,0,0,0,0,0c0,0,0,0,0,0c0,0,0,0,0,0c0,0,0,0,0,0c0,0,0,0,0,0c0,0,0,0,0,0c0,0,0,0.1-0.1,0.1c0,0,0,0,0,0c0,0,0,0.1-0.1,0.1
				c0,0,0,0,0,0c0,0,0,0.1-0.1,0.1c0,0,0,0,0,0c0,0,0,0,0,0c0,0,0,0,0,0c0,0,0,0,0,0c0,0,0,0,0,0c0,0,0,0,0,0c0,0,0,0,0,0
				c0,0,0,0,0,0c0,0,0,0,0,0c0,0,0,0,0,0c0,0,0,0,0,0c0,0,0,0,0,0c0,0,0,0,0,0c0,0,0,0,0,0c0,0,0,0,0,0c0,0,0,0,0,0c0,0,0,0,0,0
				c0,0,0,0,0,0c0,0,0,0,0,0c0,0,0,0,0,0c0,0,0,0,0,0c0,0,0,0,0,0c0,0,0,0,0,0c0,0,0,0,0,0c0,0,0,0,0,0c0,0,0,0,0,0c0,0,0,0,0,0l0,0
				l0,0c0,0,0,0,0,0c0,0,0,0,0,0c0,0,0,0,0,0c0,0,0,0,0,0c0,0,0,0,0,0c0,0,0,0,0,0c0,0,0,0.1-0.1,0.1c0,0,0,0,0,0
				c-0.3,0.3-0.5,0.7-0.8,1c-1.4,1.7-1.1,4.3,0.7,5.6c0.7,0.6,1.6,0.8,2.5,0.8c1.2,0,2.4-0.5,3.2-1.5c0.3-0.4,0.6-0.8,0.9-1.1
				c0.7-0.9,1.4-1.7,2-2.4c1.4-1.7,1.3-4.2-0.4-5.6C732.6,41.1,731.7,40.7,730.7,40.7L730.7,40.7z M717,60.6c-1.4,0-2.7,0.7-3.5,2
				c0,0,0,0,0,0c0,0,0,0,0,0c0,0,0,0,0,0c0,0,0,0,0,0c0,0,0,0,0,0c0,0,0,0,0,0c0,0,0,0,0,0c0,0,0,0,0,0c0,0,0,0,0,0c0,0,0,0,0,0
				c0,0,0,0,0,0c0,0,0,0,0,0c0,0,0,0,0,0c0,0,0,0,0,0c0,0,0,0,0,0c0,0,0,0,0,0c0,0,0,0,0,0c0,0,0,0,0,0c0,0,0,0,0,0c0,0,0,0,0,0
				c0,0,0,0,0,0c0,0,0,0,0,0c0,0,0,0,0,0c0,0,0,0,0,0c0,0,0,0,0,0c0,0,0,0,0,0c0,0,0,0,0,0c0,0,0,0,0,0c0,0,0,0,0,0c0,0,0,0,0,0
				c0,0,0,0,0,0c0,0,0,0,0,0c0,0,0,0,0,0c0,0,0,0,0,0c0,0,0,0,0,0c0,0,0,0,0,0c0,0,0,0,0,0c0,0,0,0,0,0c0,0,0,0,0,0c0,0,0,0,0,0
				c0,0,0,0,0,0c0,0,0,0,0,0c0,0,0,0,0,0c0,0,0,0,0,0c0,0,0,0,0,0c0,0,0,0,0,0c0,0,0,0,0,0c0,0,0,0,0,0c0,0,0,0,0,0c0,0,0,0,0,0
				c0,0,0,0,0,0c0,0,0,0,0,0c0,0,0,0,0,0c0,0,0,0,0,0c0,0,0,0,0,0c0,0,0,0,0,0c0,0,0,0,0,0c0,0,0,0,0,0c0,0,0,0,0,0c0,0,0,0,0,0
				c0,0,0,0,0,0c0,0,0,0,0,0c0,0,0,0,0,0c0,0,0,0,0,0c0,0,0,0,0,0c0,0,0,0,0,0c0,0,0,0,0,0c0,0,0,0,0,0c0,0,0,0,0,0c0,0,0,0,0,0
				c0,0,0,0,0,0c0,0,0,0,0,0c0,0,0,0,0,0c0,0,0,0,0,0c0,0,0,0,0,0c0,0,0,0,0,0c0,0,0,0,0,0c0,0,0,0,0,0c0,0,0,0,0,0c0,0,0,0,0,0
				c0,0,0,0,0,0c0,0,0,0,0,0c0,0,0,0,0,0c0,0,0,0,0,0c0,0,0,0,0,0c0,0,0,0,0,0c0,0,0,0,0,0c0,0,0,0,0,0c0,0,0,0,0,0c0,0,0,0,0,0.1
				c0,0,0,0,0,0c0,0,0,0,0,0.1c0,0,0,0,0,0c0,0,0,0,0,0.1c0,0,0,0,0,0c0,0,0,0,0,0.1c0,0,0,0,0,0c0,0,0,0,0,0.1c0,0,0,0,0,0
				c-0.2,0.3-0.4,0.7-0.6,1c-1,2-0.3,4.4,1.7,5.4c0.6,0.3,1.2,0.5,1.9,0.5c1.4,0,2.8-0.8,3.5-2.1c0.7-1.4,1.5-2.8,2.3-4.2
				c1.1-1.9,0.4-4.4-1.5-5.5C718.3,60.8,717.6,60.6,717,60.6L717,60.6z M706.3,82.7c-1.5,0-3,0.9-3.7,2.4c-0.7,1.5-1.3,3.1-2,4.6
				c-0.9,2,0.1,4.4,2.2,5.2c0.5,0.2,1,0.3,1.5,0.3c1.6,0,3.1-0.9,3.7-2.5c0.6-1.5,1.3-3,1.9-4.5c0.9-2-0.1-4.4-2.1-5.3
				C707.3,82.8,706.8,82.7,706.3,82.7L706.3,82.7z M697.4,105.7c-1.7,0-3.3,1.1-3.8,2.8c0,0,0,0,0,0c0,0,0,0,0,0.1c0,0,0,0,0,0
				c0,0,0,0,0,0c0,0,0,0,0,0c0,0,0,0,0,0c0,0,0,0,0,0c0,0,0,0,0,0c-0.4,1.1-0.7,2.2-1,3.4c0,0,0,0,0,0c0,0,0,0.1,0,0.1c0,0,0,0,0,0
				c0,0,0,0,0,0c0,0,0,0,0,0c0,0,0,0.1,0,0.1c0,0,0,0,0,0c0,0,0,0,0,0.1c0,0,0,0,0,0c0,0,0,0,0,0c0,0,0,0,0,0c0,0,0,0,0,0
				c0,0,0,0,0,0c0,0,0,0,0,0c0,0,0,0,0,0.1c0,0,0,0,0,0c0,0,0,0,0,0.1c0,0,0,0,0,0c0,0,0,0,0,0c0,0,0,0,0,0c0,0,0,0,0,0.1
				c0,0,0,0,0,0c0,0,0,0,0,0.1c0,0,0,0,0,0c0,0,0,0,0,0.1c0,0,0,0,0,0c0,0,0,0,0,0.1c0,0,0,0,0,0c0,0,0,0,0,0.1c0,0,0,0,0,0
				c0,0,0,0,0,0.1c0,0,0,0,0,0c-0.6,2.1,0.6,4.3,2.7,5c0.4,0.1,0.7,0.2,1.1,0.2c1.7,0,3.3-1.1,3.8-2.9c0.4-1.5,0.9-3,1.4-4.6
				c0.7-2.1-0.5-4.4-2.6-5C698.3,105.7,697.8,105.7,697.4,105.7L697.4,105.7z M691.7,129.5c-1.9,0-3.6,1.3-3.9,3.3
				c-0.3,1.6-0.6,3.3-0.9,4.9c-0.4,2.2,1.1,4.2,3.3,4.6c0.2,0,0.5,0.1,0.7,0.1c1.9,0,3.6-1.4,3.9-3.3c0.3-1.6,0.6-3.2,0.9-4.8
				c0.4-2.2-1-4.3-3.2-4.7C692.2,129.5,691.9,129.5,691.7,129.5L691.7,129.5z M688.1,153.9c-2,0-3.8,1.5-4,3.6
				c-0.1,0.6-0.1,1.3-0.2,1.9c0,0,0,0,0,0c0,0,0,0,0,0.1c0,0,0,0,0,0c0,0,0,0,0,0.1c0,0,0,0,0,0c0,0,0,0,0,0.1c0,0,0,0,0,0
				c0,0,0,0.1,0,0.1c0,0,0,0,0,0c0,0,0,0,0,0c0,0,0,0,0,0.1c0,0,0,0,0,0c0,0,0,0,0,0.1c0,0,0,0,0,0c0,0,0,0,0,0.1c0,0,0,0,0,0
				c-0.1,0.8-0.1,1.6-0.2,2.4c-0.2,2.2,1.5,4.1,3.7,4.3c0.1,0,0.2,0,0.3,0c2.1,0,3.8-1.6,4-3.7c0.1-1.6,0.3-3.2,0.4-4.8
				c0.2-2.2-1.4-4.2-3.6-4.4C688.4,153.9,688.3,153.9,688.1,153.9L688.1,153.9z M687.8,177.7c-0.2,0-0.5,0-0.7,0.1
				c-2.2,0.4-3.6,2.5-3.2,4.7c0,0.1,0,0.2,0.1,0.3l0,0c0,0,0,0,0,0c0,0,0,0,0,0c0,0,0,0,0,0c0,0,0,0,0,0c0,0,0,0,0,0c0,0,0,0,0,0
				c0,0,0,0,0,0c0,0,0,0,0,0c0,0,0,0,0,0c0,0,0,0,0,0c0,0,0,0,0,0c0,0,0,0,0,0c0,0,0,0,0,0c0,0,0,0,0,0c0,0,0,0,0,0c0,0,0,0,0,0
				c0,0,0,0,0,0c0,0,0,0,0,0c0,0,0,0,0,0c0,0,0,0,0,0c0,0,0,0,0,0c0,0,0,0,0,0c0,0,0,0,0,0c0,0,0,0,0,0c0,0,0,0,0,0c0,0,0,0,0,0
				c0,0,0,0,0,0c0,0,0,0,0,0c0,0,0,0,0,0c0,0,0,0,0,0c0,0,0,0,0,0c0,0,0,0,0,0c0,0,0,0,0,0c0,0,0,0,0,0c0,0,0,0,0,0c0,0,0,0,0,0
				c0,0,0,0,0,0c0,0,0,0,0,0c0,0,0,0,0,0c0.1,0.5,0.2,0.9,0.3,1.4c0,0,0,0,0,0c0,0,0,0,0,0c0,0,0,0,0,0c0,0,0,0,0,0c0,0,0,0,0,0
				c0,0,0,0,0,0c0,0,0,0,0,0c0,0,0,0,0,0c0,0,0,0,0,0c0,0,0,0,0,0c0,0,0,0,0,0c0,0,0,0,0,0c0,0,0,0,0,0c0,0,0,0,0,0c0,0,0,0,0,0
				c0,0,0,0,0,0c0,0,0,0,0,0c0,0,0,0,0,0c0,0,0,0,0,0c0,0,0,0,0,0c0,0,0,0,0,0c0,0,0,0,0,0c0,0,0,0,0,0c0,0,0,0,0,0c0,0,0,0,0,0
				c0,0,0,0,0,0c0,0,0,0,0,0c0,0,0,0,0,0c0,0,0,0,0,0c0,0,0,0,0,0c0,0,0,0,0,0c0,0,0,0,0,0c0,0,0,0,0,0c0,0,0,0,0,0c0,0,0,0,0,0
				c0,0,0,0,0,0c0,0,0,0,0,0c0,0,0,0,0,0c0,0,0,0,0,0c0,0,0,0,0,0c0,0,0,0,0,0c0,0,0,0,0,0c0,0,0,0,0,0c0,0,0,0,0,0c0,0,0,0,0,0
				c0,0,0,0,0,0c0,0,0,0,0,0c0,0,0,0,0,0c0,0,0,0,0,0c0,0,0,0,0,0c0,0,0,0,0,0c0,0,0,0,0,0c0,0,0,0,0,0c0,0,0,0,0,0c0,0,0,0,0,0
				c0,0,0,0,0,0c0,0,0,0,0,0c0,0,0,0,0,0c0,0,0,0,0,0c0,0,0,0,0,0c0,0,0,0,0,0c0,0,0,0,0,0c0,0,0,0,0,0c0,0,0,0,0,0c0,0,0,0,0,0
				c0,0,0,0,0,0c0,0,0,0,0,0c0,0,0,0,0,0c0,0,0,0,0,0c0,0,0,0,0,0c0,0,0,0,0,0c0,0,0,0,0,0c0,0,0,0,0,0c0,0,0,0,0,0c0,0,0,0,0,0
				c0,0,0,0,0,0c0,0,0,0,0,0s0,0,0,0s0,0,0,0c0,0,0,0,0,0c0,0,0,0,0,0c0,0,0,0,0,0c0,0,0,0,0,0c0,0,0,0,0,0c0,0,0,0,0,0c0,0,0,0,0,0
				c0,0,0,0,0,0c0,0,0,0,0,0c0,0,0,0,0,0c0,0,0,0,0,0c0,0,0,0,0,0c0,0,0,0,0,0c0,0,0,0,0,0c0,0,0,0,0,0c0,0,0,0,0,0c0,0,0,0,0,0
				c0,0,0,0,0,0c0,0,0,0,0,0c0,0,0,0,0,0c0,0,0,0,0,0c0,0,0,0,0,0c0,0,0,0,0,0c0,0,0,0,0,0c0,0,0,0,0,0c0,0,0,0,0,0c0,0,0,0,0,0
				c0,0,0,0,0,0c0,0,0,0,0,0c0,0,0,0,0,0c0,0,0,0,0,0c0,0,0,0,0,0c0,0,0,0,0,0c0,0,0,0,0,0c0,0,0,0,0,0c0,0,0,0,0,0c0,0,0,0,0,0
				c0,0,0,0,0,0c0,0,0,0,0,0c0,0,0,0,0,0c0,0,0,0,0,0c0,0,0,0,0,0c0,0,0,0,0,0c0,0,0,0,0,0c0,0,0,0,0,0c0,0,0,0,0,0c0,0,0,0,0,0
				c0,0,0,0,0,0c0,0,0,0,0,0c0,0,0,0,0,0c0,0,0,0,0,0c0,0,0,0,0,0c0,0,0,0,0,0c0,0,0,0,0,0c0,0,0,0,0,0c0,0,0,0,0,0c0,0,0,0,0,0
				c0.1,0.2,0.2,0.5,0.3,0.7c0,0,0,0,0,0c0,0,0,0,0,0c0,0,0,0,0,0c0,0,0,0,0,0c0.6,1.5,2.1,2.5,3.7,2.5c0.5,0,1-0.1,1.5-0.3
				c2-0.8,3-3.2,2.2-5.2c-0.1-0.1-0.1-0.3-0.2-0.5c-0.3-0.9-0.5-1.8-0.7-2.7C691.3,179,689.6,177.7,687.8,177.7L687.8,177.7z
				 M705.1,182.6c-0.6,0-1.1,0.1-1.7,0.4c-1.3,0.6-2.6,1.1-3.8,1.5c-2.1,0.7-3.2,3-2.5,5.1c0.6,1.7,2.1,2.7,3.8,2.7
				c0.4,0,0.9-0.1,1.3-0.2c0.7-0.2,1.4-0.5,2.1-0.8c0,0,0,0,0,0c0,0,0,0,0,0c0,0,0,0,0,0c0,0,0,0,0,0c0,0,0,0,0,0c0,0,0.1,0,0.1,0
				c0,0,0,0,0,0c0,0,0,0,0,0c0,0,0,0,0,0c0,0,0,0,0,0c0,0,0,0,0,0c0,0,0,0,0,0c0,0,0,0,0,0c0,0,0,0,0,0c0,0,0,0,0,0c0,0,0,0,0,0
				c0,0,0,0,0,0c0,0,0,0,0,0c0,0,0,0,0,0c0,0,0,0,0,0c0,0,0,0,0,0c0,0,0,0,0,0c0,0,0,0,0,0c0,0,0,0,0,0c0,0,0,0,0,0c0,0,0,0,0,0
				c0,0,0,0,0,0c0,0,0,0,0,0c0,0,0,0,0,0c0,0,0,0,0,0c0,0,0,0,0,0c0,0,0,0,0,0c0,0,0,0,0,0c0,0,0,0,0,0c0,0,0,0,0,0c0,0,0,0,0,0
				c0,0,0,0,0,0c0,0,0,0,0,0c0,0,0,0,0,0c0,0,0,0,0,0c0,0,0,0,0,0c0,0,0,0,0,0c0,0,0,0,0,0c0,0,0,0,0,0c0,0,0,0,0,0c0,0,0,0,0,0
				c0,0,0,0,0,0c0,0,0,0,0,0c0,0,0,0,0,0c0,0,0,0,0,0c0,0,0,0,0,0c0,0,0,0,0,0c0,0,0,0,0,0c0,0,0,0,0,0c0,0,0,0,0,0c0,0,0,0,0,0
				c0,0,0,0,0,0c0,0,0,0,0,0c0,0,0,0,0,0c0,0,0,0,0,0c0,0,0,0,0,0c0,0,0,0,0,0c0,0,0,0,0,0c0,0,0,0,0,0c0,0,0,0,0,0c0,0,0,0,0,0
				c0,0,0,0,0,0c0,0,0,0,0,0c0,0,0,0,0,0c0,0,0,0,0,0c0,0,0,0,0,0c0,0,0,0,0,0c0,0,0,0,0,0c0,0,0,0,0,0c0,0,0,0,0,0c0,0,0,0,0,0
				c0,0,0,0,0,0c0,0,0,0,0,0c0,0,0,0,0,0c0,0,0,0,0,0c0,0,0,0,0,0c0,0,0,0,0,0c0,0,0,0,0,0c0,0,0,0,0,0c0,0,0,0,0,0c0,0,0,0,0,0
				c0,0,0,0,0,0c0,0,0,0,0,0c0,0,0,0,0,0c0.3-0.1,0.6-0.3,0.9-0.4c2-0.9,2.9-3.3,1.9-5.3C708.1,183.5,706.6,182.6,705.1,182.6
				L705.1,182.6z M725.7,169.8c-0.8,0-1.6,0.2-2.3,0.8c-1.3,1-2.7,1.9-3.9,2.8c-1.8,1.3-2.3,3.8-1,5.6c0.8,1.1,2,1.7,3.3,1.7
				c0.8,0,1.6-0.2,2.3-0.7c1.3-0.9,2.7-1.9,4-2.8c0,0,0,0,0,0c0,0,0,0,0,0c0,0,0,0,0,0c0,0,0,0,0,0c1.8-1.3,2.2-3.8,0.9-5.6
				C728.1,170.4,726.9,169.8,725.7,169.8L725.7,169.8z M745.2,154.6c-0.9,0-1.8,0.3-2.5,0.9c-1.3,1-2.6,2.1-3.9,3.1
				c-1.7,1.4-2,3.9-0.6,5.6c0.8,1,1.9,1.5,3.1,1.5c0.9,0,1.8-0.3,2.5-0.9c0.1-0.1,0.2-0.2,0.4-0.3c0,0,0,0,0,0c0,0,0.1-0.1,0.1-0.1
				c0,0,0,0,0,0c0,0,0,0,0.1-0.1c0,0,0,0,0.1-0.1c0,0,0,0,0,0c1-0.8,2-1.6,3-2.4c0,0,0,0,0,0c0,0,0,0,0.1,0c0,0,0.1,0,0.1-0.1
				c0,0,0,0,0,0c1.7-1.4,2-3.9,0.6-5.6C747.5,155.1,746.4,154.6,745.2,154.6L745.2,154.6z M764,138.4c-1,0-2,0.4-2.7,1.1
				c-1.1,1.1-2.4,2.2-3.6,3.3c-1.6,1.5-1.8,4-0.3,5.6c0.8,0.9,1.9,1.3,3,1.3c0.9,0,1.9-0.3,2.7-1c0.2-0.2,0.4-0.3,0.5-0.5
				c0,0,0,0,0,0c0,0,0,0,0.1,0c0,0,0,0,0,0c0,0,0,0,0,0c0,0,0,0,0,0c0,0,0,0,0,0c0,0,0,0,0,0c0,0,0,0,0,0c0,0,0,0,0,0c0,0,0,0,0,0
				c0.1,0,0.1-0.1,0.2-0.1c0,0,0,0,0,0c0,0,0,0,0,0c0,0,0,0,0,0c0,0,0,0,0,0c0,0,0,0,0,0c0,0,0,0,0,0c0,0,0,0,0,0c0,0,0,0,0,0
				c0,0,0,0,0,0c0.1-0.1,0.2-0.2,0.3-0.3c0,0,0,0,0,0c0,0,0,0,0,0c0,0,0,0,0,0c0,0,0,0,0,0c0,0,0,0,0,0c0,0,0,0,0,0c0,0,0,0,0,0
				c0,0,0,0,0,0c0,0,0,0,0,0c0,0,0,0,0,0c0,0,0,0,0,0c0,0,0,0,0,0c0,0,0,0,0,0c0,0,0,0,0,0c0,0,0,0,0,0c0,0,0,0,0,0c0,0,0,0,0,0
				c0,0,0,0,0,0c0,0,0,0,0,0c0,0,0,0,0,0c0,0,0,0,0.1,0c0,0,0,0,0,0c0.5-0.5,1-0.9,1.5-1.4c1.6-1.5,1.7-4,0.2-5.6
				C766.1,138.9,765,138.4,764,138.4L764,138.4z M781.4,120.8c-1,0-2.1,0.4-2.9,1.2c-1.2,1.2-2.3,2.4-3.5,3.6
				c-1.5,1.6-1.5,4.1,0.1,5.7c0.8,0.8,1.8,1.1,2.8,1.1c1,0,2.1-0.4,2.9-1.2c1.1-1.1,2.2-2.2,3.3-3.4c0.1-0.1,0.1-0.1,0.2-0.2
				c1.5-1.6,1.5-4.1-0.1-5.7C783.4,121.2,782.4,120.8,781.4,120.8L781.4,120.8z M798.4,102.8c-1.1,0-2.2,0.5-3,1.4
				c-1,1.1-2,2.2-3.1,3.4l-0.2,0.2c-1.5,1.6-1.4,4.2,0.3,5.7c0.8,0.7,1.7,1,2.7,1c1.1,0,2.2-0.4,2.9-1.3c0,0,0.1-0.1,0.1-0.1
				c0,0,0,0,0,0c0,0,0.1-0.1,0.1-0.1l0,0c0,0,0,0,0,0c0,0,0,0,0,0c0,0,0,0,0,0c0,0,0,0,0,0c0,0,0,0,0,0c0,0,0,0,0,0c0,0,0,0,0,0
				c0,0,0.1-0.1,0.1-0.1c0,0,0,0,0,0c0.1-0.1,0.1-0.1,0.2-0.2c0,0,0,0,0,0c0,0,0.1-0.1,0.1-0.1c0,0,0,0,0,0c0,0,0.1-0.1,0.1-0.1
				c0,0,0,0,0,0c0,0,0,0,0,0c0,0,0,0,0,0c0,0,0,0,0.1-0.1c0,0,0,0,0,0c0,0,0,0,0,0c0,0,0,0,0,0c0,0,0,0,0,0c0,0,0,0,0,0c0,0,0,0,0,0
				c0,0,0,0,0,0c0,0,0,0,0,0c0,0,0,0,0,0c0,0,0,0,0,0c0,0,0.1-0.1,0.1-0.1c0,0,0,0,0,0c0.7-0.8,1.4-1.5,2.1-2.3
				c1.5-1.7,1.3-4.2-0.4-5.6C800.3,103.1,799.3,102.8,798.4,102.8L798.4,102.8z M812.5,83.3c-1.4,0-2.8,0.8-3.5,2.1
				c-0.5,0.9-1.1,1.9-1.8,3.1c-0.2,0.3-0.3,0.5-0.5,0.8c-1.2,1.9-0.6,4.3,1.3,5.5c0.7,0.4,1.4,0.6,2.1,0.6c1.3,0,2.6-0.7,3.4-1.9
				c0.1-0.2,0.2-0.4,0.3-0.5c0,0,0,0,0,0c0,0,0,0,0,0c0,0,0,0,0,0c0,0,0-0.1,0.1-0.1c0,0,0,0,0,0c0,0,0,0,0,0c0,0,0,0,0,0
				c0,0,0,0,0,0c0,0,0,0,0,0c0,0,0,0,0,0c0,0,0,0,0,0c0,0,0,0,0,0c0,0,0,0,0,0c0,0,0,0,0,0c0.7-1.1,1.3-2.3,2-3.4
				c1-1.9,0.3-4.4-1.6-5.4C813.8,83.4,813.1,83.3,812.5,83.3L812.5,83.3z M812.6,65.5c-1.2,0-2.3,0.5-3.1,1.5
				c-1.4,1.7-1.1,4.2,0.6,5.6c0.2,0.2,0.4,0.3,0.6,0.5c0.3,0.3,0.6,0.6,0.8,1c0.7,1.3,2.1,2,3.5,2c0.7,0,1.4-0.2,2-0.5
				c1.9-1.1,2.6-3.5,1.5-5.5c-0.5-0.9-1.2-1.8-2-2.6c0,0,0,0,0,0c0,0,0,0,0,0c0,0,0,0,0,0c0,0,0,0,0,0c0,0,0,0,0,0c0,0,0,0,0,0
				c0,0,0,0,0,0c0,0,0,0,0,0c0,0,0,0,0,0c0,0,0,0,0,0c0,0,0,0,0,0c0,0,0,0,0,0c0,0,0,0,0,0c0,0,0,0,0,0c0,0,0,0,0,0c0,0,0,0,0,0
				c0,0,0,0,0,0c0,0,0,0,0,0c0,0,0,0,0,0c0,0,0,0,0,0c0,0,0,0,0,0c0,0,0,0,0,0c0,0,0,0,0,0c0,0,0,0,0,0c0,0,0,0,0,0c0,0,0,0,0,0
				c0,0,0,0,0,0c0,0,0,0,0,0c0,0,0,0,0,0c0,0,0,0,0,0c0,0,0,0,0,0c0,0,0,0,0,0c0,0,0,0,0,0c0,0,0,0,0,0c0,0,0,0,0,0c0,0,0,0,0,0
				c0,0,0,0,0,0c0,0,0,0,0,0c0,0,0,0,0,0c0,0,0,0,0,0c-0.3-0.3-0.7-0.6-1-0.9C814.3,65.8,813.4,65.5,812.6,65.5L812.6,65.5z
				 M791.7,60.7C791.7,60.7,791.7,60.7,791.7,60.7C791.7,60.7,791.7,60.7,791.7,60.7C791.7,60.7,791.7,60.7,791.7,60.7
				c-0.2,0-0.4,0-0.6,0c-2.2,0-3.9,1.8-3.9,4c0,2.2,1.8,4,4,4c0,0,0,0,0,0l0.5,0c1.3,0,2.6,0,3.9,0.1c0.1,0,0.2,0,0.3,0
				c2.1,0,3.9-1.6,4-3.7c0.1-2.2-1.5-4.1-3.7-4.2c-0.1,0-0.2,0-0.3,0c0,0,0,0,0,0c0,0,0,0,0,0c0,0,0,0,0,0c0,0,0,0,0,0c0,0,0,0,0,0
				c0,0,0,0,0,0c0,0,0,0,0,0c0,0,0,0,0,0c0,0,0,0,0,0c0,0,0,0,0,0c0,0,0,0,0,0c0,0,0,0,0,0c-1.1-0.1-2.1-0.1-3.2-0.1c0,0,0,0,0,0
				c0,0,0,0-0.1,0c0,0,0,0,0,0c0,0,0,0,0,0c0,0,0,0,0,0c0,0,0,0,0,0c0,0,0,0,0,0c0,0,0,0,0,0c0,0,0,0,0,0c0,0,0,0-0.1,0c0,0,0,0,0,0
				c0,0,0,0,0,0c0,0,0,0,0,0c0,0,0,0,0,0c0,0,0,0,0,0c0,0,0,0,0,0c0,0,0,0,0,0c0,0,0,0,0,0c0,0,0,0,0,0c0,0,0,0,0,0c0,0,0,0,0,0
				c0,0,0,0,0,0c0,0,0,0,0,0c0,0,0,0,0,0c0,0,0,0,0,0c0,0,0,0,0,0c0,0,0,0,0,0c0,0,0,0,0,0c0,0,0,0,0,0c0,0,0,0,0,0c0,0,0,0,0,0
				c0,0,0,0,0,0c0,0,0,0,0,0c0,0,0,0,0,0C791.8,60.7,791.8,60.7,791.7,60.7C791.8,60.7,791.8,60.7,791.7,60.7
				C791.8,60.7,791.8,60.7,791.7,60.7C791.8,60.7,791.7,60.7,791.7,60.7C791.7,60.7,791.7,60.7,791.7,60.7L791.7,60.7L791.7,60.7z
				 M767.3,52.6c-0.4,0-0.8,0.1-1.2,0.2c-2.1,0.6-3.3,2.9-2.6,5c0.4,1.4,0.8,2.9,1.3,4.5c0.5,1.8,2.1,3,3.9,3c0.3,0,0.7,0,1-0.1
				c2.1-0.6,3.4-2.7,2.9-4.9c-0.1-0.4-0.2-0.8-0.3-1.2c0,0,0,0,0,0c0,0,0,0,0-0.1c0,0,0,0,0,0c0,0,0,0,0,0c0,0,0,0,0,0c0,0,0,0,0,0
				c0,0,0,0,0,0c0,0,0,0,0,0c0,0,0,0,0,0c0,0,0,0,0,0c0,0,0,0,0,0c0,0,0,0,0,0c0,0,0,0,0,0c0,0,0,0,0,0c0,0,0,0,0,0c0,0,0,0,0,0
				c0,0,0,0,0,0c0,0,0,0,0,0c0,0,0,0,0,0c0,0,0,0,0,0c0,0,0,0,0,0c0,0,0,0,0,0c0,0,0,0,0,0c0,0,0,0,0,0c0,0,0,0,0,0c0,0,0,0,0,0
				c0,0,0,0,0,0c0,0,0,0,0,0c0,0,0,0,0,0c0,0,0,0,0,0c0,0,0,0,0,0c0,0,0,0,0,0c0,0,0,0,0,0c0,0,0,0,0,0c0,0,0,0,0,0c0,0,0,0,0,0
				c0,0,0,0,0,0c0,0,0,0,0,0c0,0,0,0,0-0.1c0,0,0,0,0,0c-0.3-0.9-0.5-1.9-0.8-2.8C770.5,53.7,769,52.6,767.3,52.6L767.3,52.6z"/>
		</g>
	</g>
</g>
</svg>
